<svg width="100" height="128" viewBox="0 0 100 128" fill="none" xmlns="http://www.w3.org/2000/svg">
    <path d="M34 0.75H66C84.3635 0.75 99.25 15.6365 99.25 34V127.25H0.75V34C0.75 15.6365 15.6365 0.75 34 0.75Z" stroke="black" stroke-width="1.5"/>
    <path d="M4.75 34C4.75 33.1399 4.7871 32.2887 4.85976 31.4478L4.11254 31.3833C4.23424 29.9749 4.45324 28.5943 4.76279 27.2484L5.49371 27.4165C5.87906 25.741 6.40836 24.1204 7.06791 22.5686L6.37766 22.2752C6.92662 20.9835 7.56354 19.7383 8.28089 18.5469L8.9234 18.9338C9.80409 17.4712 10.8092 16.0918 11.9241 14.8103L11.3583 14.3181C12.2751 13.2643 13.2643 12.2751 14.3181 11.3583L14.8103 11.9241C16.0918 10.8092 17.4712 9.80409 18.9338 8.9234L18.5469 8.28089C19.7383 7.56354 20.9835 6.92662 22.2752 6.37766L22.5686 7.06791C24.1204 6.40836 25.741 5.87906 27.4165 5.49371L27.2484 4.76279C28.5943 4.45324 29.9749 4.23424 31.3833 4.11254L31.4478 4.85976C32.2887 4.7871 33.1399 4.75 34 4.75H36.2222V4H39.7778V4.75H44.2222V4H47.7778V4.75H52.2222V4H55.7778V4.75H60.2222V4H63.7778V4.75H66C66.8601 4.75 67.7113 4.7871 68.5522 4.85976L68.6167 4.11254C70.0251 4.23424 71.4057 4.45324 72.7516 4.76279L72.5835 5.49371C74.259 5.87906 75.8796 6.40836 77.4314 7.0679L77.7248 6.37766C79.0165 6.92662 80.2617 7.56354 81.4531 8.28089L81.0662 8.9234C82.5288 9.80409 83.9082 10.8092 85.1897 11.9241L85.6819 11.3583C86.7357 12.2751 87.7249 13.2643 88.6417 14.3181L88.0759 14.8103C89.1908 16.0918 90.1959 17.4712 91.0766 18.9338L91.7191 18.5469C92.4365 19.7383 93.0734 20.9836 93.6223 22.2752L92.9321 22.5686C93.5916 24.1204 94.1209 25.741 94.5063 27.4165L95.2372 27.2484C95.5468 28.5943 95.7658 29.9749 95.8875 31.3833L95.1402 31.4478C95.2129 32.2887 95.25 33.1399 95.25 34V36.5H96V40.5H95.25V45.5H96V49.5H95.25V54.5H96V58.5H95.25V63.5H96V67.5H95.25V72.5H96V76.5H95.25V81.5H96V85.5H95.25V90.5H96V94.5H95.25V99.5H96V103.5H95.25V108.5H96V112.5H95.25V117.5H96V121.5H95.25V123.25H93.4444V124H89.3556V123.25H84.2444V124H80.1556V123.25H75.0444V124H70.9556V123.25H65.8444V124H61.7556V123.25H56.6444V124H52.5556V123.25H47.4444V124H43.3556V123.25H38.2444V124H34.1556V123.25H29.0444V124H24.9556V123.25H19.8444V124H15.7555V123.25H10.6444V124H6.55554V123.25H4.75V121.5H4V117.5H4.75V112.5H4V108.5H4.75V103.5H4V99.5H4.75V94.5H4V90.5H4.75V85.5H4V81.5H4.75V76.5H4V72.5H4.75V67.5H4V63.5H4.75V58.5H4V54.5H4.75V49.5H4V45.5H4.75V40.5H4V36.5H4.75V34Z" stroke="black" stroke-width="1.5" stroke-dasharray="5 4"/>
</svg>
