<svg width="160" height="123" viewBox="0 0 160 123" fill="none" xmlns="http://www.w3.org/2000/svg">
    <path d="M84.2512 3.94227L158.129 112.339C161.07 116.654 157.979 122.5 152.758 122.5H7.94629C2.77991 122.5 -0.321593 116.764 2.50735 112.441L73.4411 4.04378C75.9783 0.166587 81.6416 0.113409 84.2512 3.94227Z" stroke="black"/>
    <path d="M12.2484 118.5C11.9694 118.5 11.7001 118.476 11.4415 118.431L11.3552 118.923C10.7443 118.816 10.1827 118.601 9.68371 118.302L9.94049 117.873C9.47408 117.594 9.06752 117.233 8.73485 116.814L8.34336 117.125C7.97101 116.657 7.68301 116.124 7.49478 115.556L7.96941 115.399C7.80124 114.891 7.72178 114.353 7.74365 113.81L7.24405 113.79C7.26744 113.209 7.39498 112.621 7.63994 112.051L8.09928 112.249C8.20298 112.007 8.3304 111.769 8.48319 111.536L9.03952 110.686L8.62117 110.412L9.73385 108.712L10.1522 108.986L11.2649 107.286L10.8465 107.012L11.9592 105.312L12.3776 105.586L13.4902 103.886L13.0719 103.612L14.1846 101.912L14.6029 102.186L15.7156 100.486L15.2972 100.212L16.4099 98.5119L16.8283 98.7857L17.9409 97.0857L17.5226 96.8119L18.6353 95.1119L19.0536 95.3857L20.1663 93.6858L19.7479 93.4119L20.8606 91.7119L21.279 91.9858L22.3916 90.2858L21.9733 90.012L23.086 88.312L23.5043 88.5858L24.617 86.8858L24.1986 86.612L25.3113 84.912L25.7297 85.1858L26.8423 83.4858L26.424 83.212L27.5367 81.512L27.955 81.7859L29.0677 80.0859L28.6493 79.812L29.762 78.1121L30.1804 78.3859L31.2931 76.6859L30.8747 76.4121L31.9874 74.7121L32.4057 74.9859L33.5184 73.2859L33.1001 73.0121L34.2127 71.3121L34.6311 71.5859L35.7438 69.8859L35.3254 69.6121L36.4381 67.9121L36.8564 68.186L37.9691 66.486L37.5508 66.2121L38.6634 64.5122L39.0818 64.786L40.1945 63.086L39.7761 62.8122L40.8888 61.1122L41.3071 61.386L42.4198 59.686L42.0015 59.4122L43.1141 57.7122L43.5325 57.986L44.6452 56.286L44.2268 56.0122L45.3395 54.3122L45.7579 54.5861L46.8705 52.8861L46.4522 52.6123L47.5648 50.9123L47.9832 51.1861L49.0959 49.4861L48.6775 49.2123L49.7902 47.5123L50.2086 47.7861L51.3212 46.0861L50.9029 45.8123L52.0155 44.1123L52.4339 44.3862L53.5466 42.6862L53.1282 42.4124L54.2409 40.7124L54.6593 40.9862L55.7719 39.2862L55.3536 39.0124L56.4662 37.3124L56.8846 37.5862L57.9973 35.8862L57.5789 35.6124L58.6916 33.9124L59.11 34.1863L60.2226 32.4863L59.8043 32.2125L60.9169 30.5125L61.3353 30.7863L62.448 29.0863L62.0296 28.8125L63.1423 27.1125L63.5606 27.3863L64.6733 25.6863L64.255 25.4125L65.3676 23.7125L65.786 23.9864L66.8987 22.2864L66.4803 22.0125L67.593 20.3126L68.0114 20.5864L69.124 18.8864L68.7057 18.6126L69.8183 16.9126L70.2367 17.1864L71.3494 15.4864L70.931 15.2126L72.0437 13.5126L72.4621 13.7865L73.5747 12.0865L73.1564 11.8126L74.269 10.1127L74.6874 10.3865L75.2438 9.53646C75.4533 9.21626 75.6928 8.93471 75.9547 8.69121L75.6142 8.32502C76.2337 7.74912 76.9702 7.3607 77.7475 7.16049L77.8722 7.64469C78.5886 7.46016 79.3439 7.45307 80.0637 7.6241L80.1793 7.13765C80.9602 7.32323 81.7039 7.69774 82.334 8.26191L82.0005 8.63443C82.267 8.87297 82.5117 9.14997 82.7272 9.46618L83.2879 10.2888L83.7011 10.0071L84.8226 11.6523L84.4094 11.9339L85.5309 13.579L85.944 13.2974L87.0655 14.9426L86.6524 15.2242L87.7738 16.8693L88.187 16.5877L89.3085 18.2329L88.8953 18.5145L90.0168 20.1596L90.4299 19.878L91.5514 21.5232L91.1383 21.8048L92.2597 23.4499L92.6729 23.1683L93.7944 24.8135L93.3812 25.0951L94.5027 26.7402L94.9158 26.4586L96.0373 28.1037L95.6242 28.3854L96.7456 30.0305L97.1588 29.7489L98.2803 31.394L97.8671 31.6757L98.9886 33.3208L99.4017 33.0392L100.523 34.6843L100.11 34.966L101.232 36.6111L101.645 36.3295L102.766 37.9746L102.353 38.2563L103.474 39.9014L103.888 39.6198L105.009 41.2649L104.596 41.5466L105.717 43.1917L106.131 42.9101L107.252 44.5552L106.839 44.8368L107.96 46.482L108.374 46.2004L109.495 47.8455L109.082 48.1271L110.203 49.7723L110.616 49.4907L111.738 51.1358L111.325 51.4174L112.446 53.0626L112.859 52.7809L113.981 54.4261L113.568 54.7077L114.689 56.3529L115.102 56.0712L116.224 57.7164L115.811 57.998L116.932 59.6432L117.345 59.3615L118.467 61.0067L118.054 61.2883L119.175 62.9334L119.588 62.6518L120.71 64.297L120.297 64.5786L121.418 66.2237L121.831 65.9421L122.953 67.5873L122.54 67.8689L123.661 69.514L124.074 69.2324L125.196 70.8776L124.782 71.1592L125.904 72.8043L126.317 72.5227L127.439 74.1679L127.025 74.4495L128.147 76.0946L128.56 75.813L129.682 77.4582L129.268 77.7398L130.39 79.3849L130.803 79.1033L131.924 80.7485L131.511 81.0301L132.633 82.6752L133.046 82.3936L134.167 84.0388L133.754 84.3204L134.876 85.9655L135.289 85.6839L136.41 87.3291L135.997 87.6107L137.119 89.2558L137.532 88.9742L138.653 90.6194L138.24 90.901L139.362 92.5461L139.775 92.2645L140.896 93.9097L140.483 94.1913L141.605 95.8364L142.018 95.5548L143.139 97.2L142.726 97.4816L143.848 99.1267L144.261 98.8451L145.382 100.49L144.969 100.772L146.09 102.417L146.504 102.135L147.625 103.781L147.212 104.062L148.333 105.707L148.747 105.426L149.868 107.071L149.455 107.352L150.576 108.998L150.99 108.716L152.111 110.361L151.698 110.643L152.259 111.465C152.417 111.698 152.55 111.936 152.659 112.178L153.115 111.972C153.372 112.543 153.51 113.134 153.542 113.719L153.042 113.746C153.072 114.294 152.999 114.838 152.835 115.351L153.311 115.504C153.127 116.079 152.842 116.619 152.47 117.095L152.076 116.787C151.744 117.212 151.336 117.579 150.867 117.863L151.125 118.291C150.624 118.594 150.058 118.813 149.441 118.922L149.354 118.43C149.094 118.476 148.822 118.5 148.54 118.5H147.538V119H145.534V118.5H143.53V119H141.525V118.5H139.521V119H137.517V118.5H135.512V119H133.508V118.5H131.504V119H129.5V118.5H127.495V119H125.491V118.5H123.487V119H121.482V118.5H119.478V119H117.474V118.5H115.469V119H113.465V118.5H111.461V119H109.457V118.5H107.452V119H105.448V118.5H103.444V119H101.439V118.5H99.4351V119H97.4308V118.5H95.4266V119H93.4223V118.5H91.418V119H89.4137V118.5H87.4094V119H85.4051V118.5H83.4008V119H81.3965V118.5H79.3922V119H77.3879V118.5H75.3836V119H73.3793V118.5H71.375V119H69.3707V118.5H67.3664V119H65.3621V118.5H63.3578V119H61.3535V118.5H59.3492V119H57.3449V118.5H55.3406V119H53.3363V118.5H51.3321V119H49.3278V118.5H47.3235V119H45.3192V118.5H43.3149V119H41.3106V118.5H39.3063V119H37.302V118.5H35.2977V119H33.2934V118.5H31.2891V119H29.2848V118.5H27.2805V119H25.2762V118.5H23.2719V119H21.2676V118.5H19.2633V119H17.259V118.5H15.2548V119H13.2505V118.5H12.2484Z" stroke="black" stroke-dasharray="5 2"/>
</svg>
