<svg width="175" height="140" viewBox="0 0 175 140" fill="none" xmlns="http://www.w3.org/2000/svg">
    <path d="M19.4947 133C18.9368 133 18.3982 132.952 17.881 132.861L17.7084 133.846C16.4867 133.632 15.3636 133.202 14.3656 132.605L14.8791 131.747C13.9463 131.188 13.1332 130.466 12.4679 129.629L11.6849 130.251C10.9402 129.314 10.3642 128.248 9.98767 127.112L10.9369 126.798C10.6005 125.782 10.4416 124.707 10.4852 123.62L9.48602 123.58C9.53272 122.418 9.7877 121.243 10.2775 120.103L11.1962 120.498C11.4036 120.016 11.6583 119.539 11.9639 119.072L13.0545 117.405L12.2177 116.858L14.3989 113.525L15.2357 114.072L17.4169 110.739L16.5801 110.191L18.7613 106.858L19.5981 107.406L21.7793 104.073L20.9425 103.525L23.1237 100.192L23.9605 100.739L26.1417 97.4062L25.3049 96.8586L27.4861 93.5254L28.3229 94.073L30.5041 90.7398L29.6673 90.1922L31.8485 86.859L32.6853 87.4066L34.8665 84.0734L34.0297 83.5258L36.2109 80.1926L37.0477 80.7402L39.2289 77.407L38.3921 76.8594L40.5733 73.5262L41.4101 74.0738L43.5913 70.7406L42.7545 70.1931L44.9357 66.8599L45.7725 67.4074L47.9537 64.0742L47.1169 63.5267L49.2981 60.1935L50.1349 60.741L52.3161 57.4078L51.4793 56.8603L53.6605 53.5271L54.4973 54.0746L56.6785 50.7415L55.8417 50.1939L58.0229 46.8607L58.8597 47.4083L61.0409 44.0751L60.2041 43.5275L62.3853 40.1943L63.2221 40.7419L65.4033 37.4087L64.5665 36.8611L66.7477 33.5279L67.5845 34.0755L69.7657 30.7423L68.9289 30.1947L71.1102 26.8615L71.9469 27.4091L74.1281 24.0759L73.2914 23.5283L75.4726 20.1951L76.3093 20.7427L77.3999 19.0761C77.8191 18.4356 78.2979 17.8724 78.8218 17.3853L78.1408 16.653C79.3797 15.501 80.8529 14.724 82.4076 14.3235L82.6571 15.2919C84.09 14.9228 85.6008 14.9086 87.0404 15.2508L87.2717 14.2779C88.8337 14.6491 90.3211 15.3983 91.5815 16.5268L90.9144 17.2718C91.4473 17.749 91.9367 18.3031 92.3677 18.9356L93.5036 20.6022L94.3299 20.039L96.6017 23.3722L95.7753 23.9354L98.0471 27.2686L98.8734 26.7054L101.145 30.0386L100.319 30.6018L102.591 33.9349L103.417 33.3718L105.689 36.705L104.862 37.2681L107.134 40.6013L107.96 40.0381L110.232 43.3713L109.406 43.9345L111.677 47.2677L112.504 46.7045L114.776 50.0377L113.949 50.6009L116.221 53.9341L117.047 53.3709L119.319 56.7041L118.493 57.2673L120.764 60.6005L121.591 60.0373L123.862 63.3705L123.036 63.9337L125.308 67.2669L126.134 66.7037L128.406 70.0369L127.58 70.6001L129.851 73.9332L130.678 73.3701L132.949 76.7032L132.123 77.2664L134.395 80.5996L135.221 80.0364L137.493 83.3696L136.666 83.9328L138.938 87.266L139.765 86.7028L142.036 90.036L141.21 90.5992L143.482 93.9324L144.308 93.3692L146.58 96.7024L145.753 97.2656L148.025 100.599L148.851 100.036L151.123 103.369L150.297 103.932L152.569 107.265L153.395 106.702L155.667 110.035L154.84 110.598L157.112 113.932L157.938 113.368L160.21 116.702L159.384 117.265L160.52 118.931C160.837 119.397 161.103 119.873 161.32 120.356L162.232 119.945C162.746 121.087 163.022 122.268 163.085 123.439L162.087 123.493C162.146 124.588 161.999 125.676 161.671 126.703L162.623 127.008C162.256 128.158 161.685 129.238 160.941 130.19L160.153 129.574C159.489 130.424 158.673 131.158 157.735 131.726L158.253 132.581C157.249 133.188 156.118 133.626 154.885 133.844L154.711 132.859C154.189 132.951 153.646 133 153.083 133H151.118V134H147.189V133H143.26V134H139.331V133H135.402V134H131.473V133H127.544V134H123.615V133H119.686V134H115.757V133H111.828V134H107.898V133H103.969V134H100.04V133H96.1113V134H92.1823V133H88.2532V134H84.3241V133H80.3951V134H76.466V133H72.537V134H68.6079V133H64.6789V134H60.7498V133H56.8208V134H52.8917V133H48.9626V134H45.0336V133H41.1045V134H37.1755V133H33.2464V134H29.3174V133H25.3883V134H21.4593V133H19.4947Z" stroke="black" stroke-width="2" stroke-dasharray="4 4"/>
    <path d="M93.2464 5.49532L171.96 125.051C175.9 131.035 171.608 139 164.443 139H10.1521C3.0624 139 -1.24365 131.184 2.54463 125.191L78.1219 5.63542C81.6157 0.108562 89.6508 0.0341282 93.2464 5.49532Z" stroke="black" stroke-width="2"/>
</svg>
