<svg width="124" height="118" viewBox="0 0 124 118" fill="none" xmlns="http://www.w3.org/2000/svg">
    <g clip-path="url(#clip0_5_81)">
        <path d="M62.5772 72.3278V95.0035C68.4605 94.0311 73.5406 86.3522 76.1308 75.4955C71.8941 73.5808 67.2858 72.4982 62.5772 72.3278ZM46.4836 42.725C49.0438 43.8778 51.7344 44.7399 54.5355 45.2713C56.443 45.6522 58.4811 45.8527 60.5894 45.9028V23.1268C54.4652 23.6982 49.1542 31.5275 46.4836 42.725ZM77.9881 41.8128C81.5522 39.9482 84.8252 37.4921 87.6262 34.5048C82.4056 28.9411 75.6489 25.242 68.2999 23.7885C72.5466 27.1868 75.9702 33.6126 77.9881 41.8128ZM77.9881 59.6666C78.0283 54.3436 77.5263 49.2711 76.5926 44.6798C72.2053 46.6045 67.4565 47.6972 62.5873 47.8576V70.3429C67.4465 70.5033 72.1952 71.606 76.5826 73.5307C77.456 69.2702 77.958 64.5887 77.9881 59.6666Z" fill="black"/>
        <path d="M62.5773 23.197V45.8828C67.306 45.7124 71.9142 44.6197 76.1509 42.705C73.5707 31.8583 68.5107 24.1794 62.5773 23.197ZM79.966 59.6767C79.9259 64.9296 79.3837 69.9018 78.4299 74.3928C82.3253 76.3577 85.8794 78.9841 88.9314 82.192C94.2424 75.8765 97.2543 67.927 97.3848 59.6566C97.5154 50.9552 94.5235 42.5847 88.9515 35.9684C85.8995 39.1963 82.3454 41.8328 78.45 43.7976C79.464 48.6295 80.0162 53.9927 79.9761 59.6667L79.966 59.6767ZM46.052 44.6898C45.1785 48.9503 44.6866 53.6218 44.6464 58.5339C44.6063 63.7768 45.0982 68.8693 46.052 73.5207C50.6 71.5258 55.5395 70.4331 60.5995 70.3329V47.8877C58.3606 47.8376 56.1921 47.617 54.1641 47.2161C51.3529 46.6747 48.6422 45.8226 46.052 44.6898ZM44.6565 41.8328C46.6845 33.6126 50.1281 27.1668 54.3749 23.7785C46.6544 25.3022 39.978 29.2018 35.0084 34.5249C37.95 37.6626 41.1526 40.0184 44.6565 41.8428V41.8328ZM42.6686 58.5238C42.7088 53.2709 43.2509 48.3087 44.2047 43.8177C40.3896 41.893 36.9962 39.467 33.7233 36.0085C28.4123 42.324 25.4004 50.2736 25.2699 58.5539C25.1293 67.2353 28.1211 75.5958 33.7032 82.2321C36.7553 78.9942 40.3193 76.3577 44.2248 74.3828C43.1806 69.4707 42.6285 64.0775 42.6787 58.5238H42.6686ZM44.6766 76.3777C41.0924 78.2423 37.8195 80.6983 35.0084 83.7057C40.3294 89.3897 47.0359 93.0186 54.395 94.4321C49.2848 90.342 46.2427 82.6932 44.6766 76.3777Z" fill="black"/>
        <path d="M60.5995 95.0536V72.3077C55.68 72.4079 50.8911 73.5106 46.4937 75.4855C48.3009 83.024 52.9191 94.3017 60.5995 95.0436V95.0536ZM33.2012 21.8336C32.2976 22.5153 32.1872 23.7383 32.8498 24.6105C33.5124 25.4926 34.7272 25.7132 35.6208 25.0315C36.5243 24.3498 36.6348 23.1268 35.9722 22.2547C35.3095 21.3725 34.0947 21.152 33.2012 21.8336Z" fill="black"/>
        <path d="M78.5303 18.6157L78.44 16.1296L76.663 17.8739L78.5303 18.6157Z" fill="black"/>
        <path d="M68.2598 94.4321C73.139 93.4697 77.5766 91.5851 81.5322 88.8985C83.8514 87.3246 85.8192 85.6305 87.6363 83.6857C84.8353 80.6983 81.5523 78.2423 77.9782 76.3777C75.9502 84.5979 72.4965 91.0337 68.2598 94.4221V94.4321ZM46.4536 15.9693C46.1624 15.1974 45.6705 15.2575 44.8673 15.5582L43.7529 15.9793L44.4557 17.8338L45.55 17.4228C46.3532 17.1221 46.7648 16.7812 46.4636 15.9793L46.4536 15.9693Z" fill="black"/>
        <path d="M120.305 55.5164C119.251 37.3217 110.005 20.9114 94.885 10.4557L88.2688 6.48593C80.1668 2.32571 71.4122 0.150364 62.236 -5.15392e-06C50.8108 -0.180449 39.7371 2.89712 30.0689 8.9119L23.6234 13.5533C10.3007 24.6005 2.49991 40.8303 2.22884 58.0827C2.11841 65.1401 3.24285 72.0571 5.61221 78.7335L9.5578 87.505C14.5074 96.447 21.7359 103.986 30.5006 109.349L35.661 112.176C43.4116 115.905 51.7345 117.87 60.4087 118H61.3324C70.4685 118 79.2331 115.975 87.4456 111.935L94.9352 107.514C110.587 96.6876 120.105 78.8939 120.396 59.8771L120.305 55.5164ZM114.282 46.7749C114.583 48.0882 114.844 49.4215 115.045 50.7547C115.125 51.2961 114.753 51.7973 114.221 51.8775C113.679 51.9577 113.177 51.5868 113.097 51.0454C112.896 49.7623 112.655 48.4691 112.364 47.206C112.244 46.6747 112.575 46.1434 113.107 46.0231C113.639 45.9028 114.171 46.2336 114.292 46.7649L114.282 46.7749ZM111.862 39.0359C112.354 40.289 112.816 41.5722 113.217 42.8553C113.378 43.3766 113.087 43.928 112.565 44.0984C112.053 44.2588 111.491 43.9781 111.32 43.4468C110.928 42.2037 110.497 40.9707 110.015 39.7677C109.814 39.2565 110.065 38.6851 110.567 38.4846C111.079 38.2841 111.651 38.5347 111.852 39.0359H111.862ZM106.953 31.3972C107.425 31.1265 108.027 31.2769 108.308 31.758C108.991 32.9209 109.633 34.1239 110.216 35.3368C110.457 35.828 110.246 36.4195 109.754 36.6601C109.262 36.9007 108.669 36.7002 108.428 36.199C107.856 35.0361 107.244 33.8732 106.581 32.7505C106.31 32.2793 106.471 31.6778 106.943 31.3972H106.953ZM96.7724 19.2072C97.1439 18.8062 97.7664 18.7862 98.168 19.1471C99.1518 20.0593 100.126 21.0217 101.049 22.0041C101.421 22.4051 101.401 23.0266 100.999 23.3975C100.598 23.7684 99.9751 23.7484 99.6036 23.3474C98.7101 22.395 97.7764 21.4627 96.8327 20.5906C96.4311 20.2197 96.401 19.5982 96.7724 19.1972V19.2072ZM101.993 83.7157L100.035 82.6932L98.0776 83.7258L98.4491 81.5504L96.8628 80.0066L99.0515 79.6858L100.025 77.711L100.999 79.6858L103.188 80.0066L101.602 81.5504L101.973 83.7258L101.993 83.7157ZM90.4575 14.3553C90.7687 13.9042 91.3811 13.7839 91.8329 14.0946C92.9473 14.8565 94.0517 15.6585 95.1059 16.5005C95.5376 16.8414 95.6078 17.4629 95.2665 17.894C94.9251 18.325 94.3027 18.3952 93.871 18.0544C92.857 17.2424 91.7928 16.4705 90.7185 15.7387C90.2667 15.4279 90.1463 14.8164 90.4575 14.3653V14.3553ZM83.4699 10.5058C83.7108 10.0146 84.3032 9.80409 84.7951 10.0447C86.0099 10.6261 87.2247 11.2677 88.3893 11.9393C88.8612 12.21 89.0218 12.8215 88.7507 13.2927C88.4797 13.7738 87.8673 13.9242 87.3954 13.6535C86.2709 13.0019 85.1063 12.3904 83.9317 11.8291C83.4398 11.5885 83.2289 11.007 83.4699 10.5058ZM75.9803 7.73901C76.1409 7.21773 76.6931 6.91699 77.2152 7.08741C78.5103 7.47837 79.8054 7.92948 81.0603 8.42069C81.5724 8.62118 81.8234 9.19259 81.6226 9.70384C81.4218 10.2151 80.8495 10.4657 80.3375 10.2652C79.1227 9.79406 77.8878 9.363 76.6429 8.98207C76.1208 8.82167 75.8297 8.27032 75.9903 7.74904L75.9803 7.73901ZM69.2939 5.293C70.6291 5.4935 71.9744 5.74411 73.2896 6.03483C73.8217 6.15512 74.1531 6.68643 74.0326 7.21773C73.9121 7.75906 73.37 8.07985 72.8479 7.95956C71.5829 7.67887 70.2878 7.42825 69.0027 7.24781C68.4606 7.16761 68.0891 6.66638 68.1694 6.12505C68.2497 5.58372 68.7517 5.21281 69.2939 5.293ZM61.2019 4.71157C62.2761 4.71157 63.7921 4.75167 65.2579 4.85192C65.8001 4.89202 66.2117 5.36318 66.1715 5.91453C66.1314 6.47591 65.6394 6.86687 65.1073 6.82677C63.8524 6.73655 62.5673 6.68643 61.3023 6.68643C60.7601 6.68643 60.2582 6.24534 60.2582 5.69399C60.2582 5.14263 60.6497 4.70155 61.1918 4.70155L61.2019 4.71157ZM53.1099 5.32308C54.4452 5.12258 55.8005 4.96219 57.1459 4.86194C57.688 4.82184 58.1699 5.23286 58.2101 5.77419C58.2502 6.31552 57.8386 6.7967 57.2964 6.8368C56.0013 6.93704 54.6962 7.08741 53.4111 7.27788C52.8489 7.35808 52.367 6.96712 52.2867 6.44584C52.2063 5.90451 52.5778 5.40327 53.1199 5.32308H53.1099ZM45.1986 7.13754C46.4938 6.73655 47.809 6.37566 49.1242 6.07492C49.6663 5.95463 50.1884 6.28544 50.3088 6.81675C50.4293 7.34805 50.098 7.87936 49.5659 7.99966C48.3009 8.29037 47.0359 8.63121 45.791 9.02217C45.279 9.18256 44.7167 8.90187 44.5461 8.37057C44.3854 7.84929 44.6766 7.29793 45.1986 7.13754ZM37.6488 10.1149C38.8536 9.53342 40.1085 8.98207 41.3635 8.48084C41.8655 8.28034 42.4478 8.53096 42.6486 9.03219C42.8494 9.54345 42.5984 10.1149 42.0964 10.3153C40.8816 10.7965 39.6768 11.3278 38.5122 11.8892C38.0303 12.1198 37.4279 11.9293 37.187 11.4281C36.946 10.9369 37.1569 10.3454 37.6488 10.1048V10.1149ZM30.6311 14.1849C31.7455 13.423 32.9 12.6912 34.0646 12.0195C34.5365 11.7489 35.1489 11.9093 35.42 12.3804C35.6911 12.8516 35.5304 13.4531 35.0586 13.7337C33.9341 14.3853 32.8298 15.0871 31.7555 15.8189C31.3037 16.1296 30.6913 16.0194 30.3801 15.5582C30.0689 15.1071 30.1893 14.4956 30.6411 14.1849H30.6311ZM24.296 19.2573C25.29 18.3351 26.3241 17.4429 27.3682 16.6008C27.7999 16.26 28.4223 16.3301 28.7637 16.7512C29.105 17.1822 29.0348 17.8037 28.6131 18.1446C27.5991 18.9566 26.6052 19.8187 25.6514 20.7009C25.2498 21.0718 24.6173 21.0517 24.2559 20.6507C23.8844 20.2498 23.9045 19.6282 24.3061 19.2573H24.296ZM18.7843 25.2019C19.6276 24.1493 20.5211 23.1168 21.4347 22.1244C21.8062 21.7234 22.4387 21.7033 22.8302 22.0742C23.2318 22.4452 23.2519 23.0667 22.8804 23.4677C21.997 24.42 21.1436 25.4124 20.3304 26.435C19.989 26.856 19.3666 26.9362 18.9349 26.5954C18.5032 26.2545 18.4329 25.633 18.7742 25.2019H18.7843ZM20.4107 60.3283L17.8606 58.985L15.3105 60.3283L15.7924 57.4913L13.7343 55.4864L16.5856 55.0753L17.8606 52.499L19.1357 55.0753L21.9869 55.4864L19.9288 57.4913L20.4207 60.3283H20.4107ZM14.2062 31.9084C14.8788 30.7456 15.6117 29.5827 16.3747 28.47C16.686 28.0189 17.2984 27.8986 17.7502 28.2093C18.202 28.5201 18.3224 29.1316 18.0112 29.5827C17.2783 30.6553 16.5755 31.7681 15.923 32.8908C15.6519 33.362 15.0395 33.5224 14.5676 33.2517C14.0957 32.981 13.9351 32.3695 14.2062 31.8984V31.9084ZM10.6822 39.2164C11.1742 37.9633 11.7163 36.7102 12.3087 35.4972C12.5496 35.006 13.142 34.7955 13.6339 35.0361C14.1259 35.2767 14.3367 35.8681 14.0957 36.3594C13.5335 37.5322 13.0014 38.7352 12.5295 39.9482C12.3288 40.4594 11.7565 40.71 11.2445 40.5095C10.7324 40.3091 10.4815 39.7377 10.6822 39.2264V39.2164ZM8.2928 46.9654C8.59399 45.6522 8.94538 44.339 9.33693 43.0458C9.49757 42.5245 10.0497 42.2338 10.5718 42.3942C11.0939 42.5546 11.385 43.1059 11.2244 43.6272C10.8429 44.8703 10.5015 46.1434 10.2204 47.4065C10.0999 47.9478 9.56784 48.2686 9.03574 48.1483C8.50364 48.028 8.16229 47.4967 8.2928 46.9654ZM7.53983 50.9552C7.62015 50.4139 8.13217 50.043 8.66427 50.1232C9.20642 50.2034 9.57788 50.7046 9.49757 51.2459C9.30681 52.5291 9.16626 53.8323 9.06586 55.1255C9.0257 55.6768 8.5438 56.0778 8.00165 56.0377C7.45951 55.9976 7.04789 55.5265 7.08804 54.9751C7.18844 53.6318 7.33904 52.2785 7.53983 50.9452V50.9552ZM7.09808 63.085C6.99769 61.7417 6.94749 60.3784 6.94749 59.0351C6.94749 58.4937 7.38923 58.0426 7.94142 58.0426C9.31685 58.0426 8.81487 59.4661 9.0759 62.9347C9.11606 63.5061 8.66427 63.9973 8.08197 63.9973C7.56995 63.9973 7.13824 63.6063 7.09808 63.085ZM8.31288 71.1047C8.01169 69.7915 7.7607 68.4482 7.55991 67.1149C7.47959 66.5736 7.85106 66.0724 8.3932 65.9922C8.93534 65.912 9.43733 66.2829 9.51764 66.8242C9.7084 68.1074 9.95939 69.4005 10.2505 70.6637C10.3911 71.2852 9.91923 71.8766 9.28673 71.8766C8.83495 71.8766 8.42332 71.5659 8.32292 71.1047H8.31288ZM10.7124 78.8438C10.2204 77.5907 9.76864 76.3075 9.36705 75.0144C8.9755 73.7613 10.873 73.1798 11.2545 74.4329C11.636 75.676 12.0778 76.909 12.5496 78.122C13.0315 79.345 11.1842 80.0668 10.7023 78.8438H10.7124ZM15.6017 86.4926C15.1198 86.7632 14.5174 86.6028 14.2463 86.1317C13.5737 84.9688 12.9311 83.7659 12.3388 82.5529C12.0978 82.0617 12.3087 81.4702 12.8006 81.2296C13.2926 80.989 13.8849 81.1995 14.1259 81.6908C14.6881 82.8536 15.3105 84.0165 15.9631 85.1392C16.2342 85.6104 16.0736 86.2219 15.6017 86.4926ZM20.2199 92.9785C19.7983 93.3193 19.1658 93.2492 18.8244 92.8281C17.9811 91.7755 17.1679 90.6829 16.4049 89.5701C16.0936 89.119 16.2141 88.5075 16.6659 88.1967C17.1177 87.886 17.7301 88.0063 18.0413 88.4574C18.7742 89.53 19.5573 90.5826 20.3705 91.5951C20.7119 92.0262 20.6416 92.6477 20.2199 92.9885V92.9785ZM25.7518 98.7126C25.3803 99.1136 24.7579 99.1336 24.3563 98.7627C23.3724 97.8505 22.3985 96.8781 21.4849 95.8957C21.1135 95.4947 21.1335 94.8731 21.5351 94.5022C21.9367 94.1313 22.5592 94.1514 22.9306 94.5524C23.8141 95.5047 24.7478 96.437 25.7016 97.3192C26.1032 97.6901 26.1233 98.3116 25.7518 98.7126ZM32.0768 103.565C31.7656 104.016 31.1531 104.136 30.7014 103.825C29.5869 103.063 28.4926 102.251 27.4385 101.409C27.0068 101.068 26.9365 100.447 27.2778 100.016C27.6192 99.5847 28.2416 99.5146 28.6733 99.8554C29.6974 100.667 30.7516 101.449 31.8258 102.181C32.2776 102.492 32.3981 103.103 32.0868 103.554L32.0768 103.565ZM39.0544 107.424C38.8134 107.915 38.2211 108.116 37.7291 107.885C36.5143 107.304 35.3096 106.662 34.1349 105.98C33.6631 105.71 33.5024 105.098 33.7735 104.627C34.0446 104.156 34.657 103.996 35.1288 104.266C36.2533 104.918 37.4179 105.529 38.5925 106.101C39.0845 106.341 39.2953 106.933 39.0544 107.424ZM46.5339 110.201C46.3733 110.722 45.8211 111.013 45.299 110.852C44.014 110.451 42.7188 110 41.4639 109.509C40.9519 109.309 40.7009 108.737 40.9017 108.226C41.1025 107.715 41.6848 107.464 42.1867 107.665C43.4015 108.136 44.6465 108.577 45.8813 108.958C46.4034 109.118 46.6946 109.67 46.5339 110.191V110.201ZM53.2103 112.657C51.875 112.456 50.5297 112.206 49.2145 111.905C48.6824 111.785 48.3511 111.253 48.4716 110.722C48.592 110.191 49.1242 109.86 49.6563 109.98C50.9213 110.271 52.2164 110.512 53.5014 110.702C54.0436 110.782 54.4151 111.283 54.3347 111.825C54.2544 112.376 53.7324 112.737 53.2103 112.657ZM61.5131 113.258C61.3726 113.258 59.6959 113.288 57.2463 113.108C56.7041 113.068 56.2925 112.597 56.3326 112.045C56.3728 111.504 56.8647 111.083 57.3968 111.133C59.5955 111.294 61.3826 111.273 61.5231 111.273C62.0653 111.273 62.5171 111.715 62.5171 112.266C62.5171 112.817 62.0753 113.258 61.5231 113.258H61.5131ZM69.6051 112.627C68.2799 112.827 66.9144 112.988 65.5691 113.098C65.0471 113.148 64.5451 112.747 64.5049 112.186C64.4648 111.644 64.8664 111.163 65.4185 111.123C66.7137 111.023 68.0289 110.872 69.3039 110.672C69.836 110.592 70.348 110.963 70.4384 111.494C70.5187 112.035 70.1472 112.537 69.6151 112.627H69.6051ZM77.5163 110.792C76.2212 111.193 74.906 111.554 73.6009 111.855C73.0688 111.975 72.5367 111.644 72.4162 111.113C72.2957 110.582 72.627 110.05 73.1591 109.93C74.4241 109.639 75.6891 109.289 76.934 108.898C77.4461 108.737 78.0083 109.028 78.179 109.549C78.3396 110.07 78.0485 110.622 77.5264 110.792H77.5163ZM85.0561 107.795C83.8514 108.386 82.5964 108.938 81.3415 109.439C80.8294 109.639 80.2572 109.399 80.0564 108.888C79.8556 108.376 80.0965 107.805 80.6086 107.604C81.8133 107.123 83.0181 106.592 84.1827 106.021C84.6746 105.78 85.267 105.98 85.5079 106.472C85.7489 106.963 85.5481 107.554 85.0561 107.795ZM60.7099 97.0786C39.3957 96.6876 22.9106 79.2046 23.2519 58.4937C23.3925 49.3814 26.816 40.6198 32.89 33.8331C45.4396 19.7285 61.5031 21.172 61.8946 21.0918C82.5563 21.4226 99.6538 38.3843 99.3426 59.6666C99.1719 70.4632 94.4432 80.3274 86.8532 87.2043C74.7655 98.1713 61.0914 96.9984 60.72 97.0686L60.7099 97.0786ZM92.0638 103.715C90.9595 104.477 89.8049 105.209 88.6403 105.89C88.1684 106.161 87.5661 106.011 87.285 105.539C87.0139 105.068 87.1645 104.467 87.6363 104.186C88.7608 103.534 89.8752 102.823 90.9394 102.091C91.3912 101.78 92.0036 101.9 92.3148 102.342C92.626 102.793 92.5156 103.404 92.0638 103.715ZM98.3888 98.6324C97.4049 99.5446 96.3809 100.447 95.3167 101.289C94.895 101.63 94.2726 101.57 93.9212 101.139C93.5798 100.718 93.6501 100.096 94.0718 99.7451C95.0858 98.9231 96.0797 98.061 97.0335 97.1788C97.4351 96.8079 98.0575 96.828 98.429 97.2289C98.8005 97.6299 98.7804 98.2515 98.3788 98.6224L98.3888 98.6324ZM103.891 92.6778C103.047 93.7404 102.164 94.7729 101.25 95.7553C100.879 96.1563 100.256 96.1864 99.8546 95.8155C99.453 95.4446 99.4229 94.823 99.7944 94.422C100.678 93.4697 101.531 92.4672 102.344 91.4548C102.686 91.0237 103.308 90.9535 103.74 91.2944C104.172 91.6352 104.242 92.2567 103.901 92.6878L103.891 92.6778ZM102.154 26.2946C101.812 25.8736 101.883 25.242 102.304 24.9012C102.736 24.5604 103.358 24.6305 103.7 25.0516C104.543 26.1041 105.356 27.1968 106.119 28.3096C106.431 28.7607 106.31 29.3722 105.868 29.6829C105.427 29.9937 104.804 29.8834 104.493 29.4323C103.76 28.3597 102.977 27.3071 102.154 26.2946ZM108.449 85.9713C107.776 87.1341 107.053 88.297 106.29 89.4097C105.979 89.8608 105.366 89.9811 104.915 89.6704C104.463 89.3596 104.342 88.7481 104.654 88.297C105.386 87.2244 106.089 86.1116 106.732 84.9788C107.003 84.5077 107.615 84.3373 108.087 84.618C108.559 84.8886 108.73 85.4901 108.449 85.9713ZM111.962 78.6533C111.471 79.9064 110.928 81.1595 110.346 82.3825C110.105 82.8837 109.513 83.0842 109.021 82.8436C108.529 82.603 108.318 82.0216 108.559 81.5203C109.121 80.3475 109.643 79.1445 110.115 77.9315C110.316 77.4203 110.888 77.1697 111.4 77.3701C111.912 77.5706 112.163 78.142 111.962 78.6533ZM114.332 70.8942C114.041 72.2074 113.689 73.5307 113.288 74.8139C113.127 75.3452 112.565 75.6259 112.053 75.4655C111.531 75.3051 111.24 74.7537 111.4 74.2324C111.782 72.9894 112.113 71.7162 112.404 70.4531C112.525 69.9218 113.047 69.591 113.589 69.7013C114.121 69.8216 114.462 70.3529 114.342 70.8842L114.332 70.8942ZM115.075 66.9044C114.994 67.4457 114.492 67.8167 113.95 67.7365C113.408 67.6563 113.037 67.155 113.117 66.6137C113.308 65.3306 113.448 64.0273 113.539 62.7241C113.579 62.1828 114.071 61.7718 114.593 61.8119C115.135 61.852 115.547 62.3232 115.506 62.8645C115.416 64.2078 115.266 65.5611 115.065 66.8944L115.075 66.9044ZM114.663 59.807C114.121 59.807 113.669 59.3659 113.669 58.8246C113.669 57.5214 113.609 56.2081 113.519 54.915C113.478 54.3736 113.88 53.8924 114.432 53.8523C114.974 53.8122 115.456 54.2132 115.496 54.7646C115.597 56.1079 115.657 57.4712 115.657 58.8145C115.657 59.3559 115.215 59.807 114.673 59.807H114.663Z" fill="black"/>
        <path d="M59.0534 14.6059C59.9067 14.5658 60.4087 14.3653 60.3585 13.5032C60.3184 12.6912 59.8365 12.5809 58.9731 12.621L57.7884 12.6811L57.8888 14.656L59.0534 14.5958V14.6059ZM52.116 102.522C52.3067 101.73 51.875 101.489 51.0417 101.289L49.8871 101.008L49.4153 102.933L50.5498 103.204C51.3931 103.404 51.9152 103.354 52.116 102.522ZM71.4323 13.6535L70.9504 15.5682L72.0849 15.8489C72.9182 16.0494 73.4503 16.0093 73.6611 15.1773C73.8619 14.3853 73.4201 14.1447 72.5868 13.9342L71.4323 13.6435V13.6535Z" fill="black"/>
        <path d="M55.3286 104.687L57.3265 104.908L56.5735 102.532L55.3286 104.687Z" fill="black"/>
        <path d="M111.922 34.7804L3.72076 74.1034C0.787323 75.1695 -0.725169 78.4082 0.342515 81.3372L4.83045 93.6492C5.89814 96.5783 9.14169 98.0885 12.0751 97.0224L120.276 57.6995C123.209 56.6334 124.722 53.3947 123.654 50.4657L119.166 38.1536C118.099 35.2246 114.855 33.7144 111.922 34.7804Z" fill="#231F20"/>
    </g>
    <defs>
        <clipPath id="clip0_5_81">
            <rect width="124" height="118" fill="white"/>
        </clipPath>
    </defs>
</svg>
