<svg width="72" height="51" viewBox="0 0 72 51" fill="none" xmlns="http://www.w3.org/2000/svg">
    <path
        d="M31.0898 15.117L31.0898 15.1169L31.0863 15.1163C29.26 14.7699 27.5015 14.2191 25.8221 13.4872C26.747 9.73511 28.0979 6.56578 29.7164 4.27943C31.2684 2.08719 33.0355 0.747103 34.8779 0.424353V15.5399C33.5573 15.4916 32.2843 15.3555 31.0898 15.117ZM47.0414 25.5422L47.0414 25.5427C47.0215 28.7887 46.7061 31.8822 46.1556 34.7155C43.2739 33.5092 40.1817 32.799 37.0175 32.6518V17.6463C40.1872 17.4996 43.2797 16.7956 46.1619 15.5897C46.7523 18.6542 47.068 22.0181 47.0414 25.5422ZM37.0105 49.7921V34.7844C40.0166 34.9395 42.9564 35.6344 45.6803 36.8245C44.784 40.4589 43.4867 43.5452 41.9336 45.8112C40.4546 47.9692 38.7705 49.3464 37.0105 49.7921ZM41.9392 1.13857C46.3573 2.27411 50.4079 4.60695 53.6381 7.95443C51.8745 9.7822 49.8503 11.3115 47.6567 12.5116C46.3988 7.64101 44.4176 3.65291 41.9392 1.13857Z"
        stroke="#black" stroke-width="0.742847" />
    <path
        d="M49.1656 25.7074L49.173 25.7001L49.174 25.5476C49.2015 21.664 48.8346 17.985 48.1568 14.6529C50.697 13.3377 53.027 11.6167 55.0569 9.53518C58.7251 14.0407 60.6895 19.6772 60.6017 25.5321C60.514 31.0895 58.5369 36.4376 55.0418 40.7356C53.0123 38.667 50.6828 36.9529 48.1433 35.6384C48.7704 32.5903 49.1293 29.2388 49.1656 25.7074ZM29.6038 1.1311C27.1217 3.6451 25.1291 7.64751 23.8652 12.533C21.7081 11.3597 19.7197 9.88095 17.8777 7.96798C20.9713 4.74706 24.9869 2.31411 29.6038 1.1311ZM22.3497 24.7432L22.3468 25.1175H22.3546C22.3468 28.7897 22.7124 32.3569 23.3874 35.6317C20.8411 36.9528 18.5045 38.6742 16.4736 40.7622C12.7983 36.2436 10.8344 30.6138 10.929 24.7731L10.929 24.7729C11.0167 19.2091 12.9935 13.8613 16.488 9.5635C18.6447 11.7792 20.8847 13.3815 23.3733 14.6668C22.7373 17.7583 22.3771 21.1558 22.3497 24.7432ZM37.0106 15.5207V0.505769C38.787 0.953599 40.4769 2.33322 41.9566 4.49207C43.5095 6.7578 44.8018 9.84226 45.6947 13.4735C42.9699 14.6644 40.029 15.3653 37.0106 15.5207ZM25.361 34.7086C24.7583 31.6054 24.4486 28.2292 24.4752 24.7559C24.5017 21.5156 24.8112 18.4285 25.3611 15.5961C27.0677 16.3089 28.8465 16.851 30.6864 17.2053C32.0171 17.4684 33.4298 17.6216 34.8851 17.6714V32.64C31.5824 32.7494 28.3574 33.4556 25.361 34.7086ZM29.6285 49.184C25.2037 48.076 21.1696 45.7731 17.8777 42.3506C19.6484 40.5096 21.6749 38.9786 23.8815 37.7779C24.8955 41.6694 26.7094 46.2348 29.6285 49.184Z"
        stroke="#black" stroke-width="0.742847" />
    <path
        d="M34.885 34.7642V49.8521C32.5625 49.4476 30.6334 47.5488 29.1035 45.0294C27.5551 42.4794 26.4678 39.376 25.8299 36.8179C28.6677 35.5851 31.7345 34.8765 34.885 34.7642Z"
        stroke="#black" stroke-width="0.742847" />
    <path
        d="M49.682 45.6735L49.6819 45.6736C47.3296 47.2713 44.7302 48.457 41.9004 49.1779C44.3825 46.6673 46.3835 42.6684 47.6497 37.7786C49.8506 38.9791 51.8813 40.5089 53.6458 42.3371C52.4613 43.5708 51.1785 44.6579 49.682 45.6735Z"
        stroke="#black" stroke-width="0.742847" />
    <!--    <path d="M66.8827 16.1757L3.12957 23.7716C1.40116 23.9775 0.172551 25.5809 0.385403 27.3529L1.28011 34.8012C1.49296 36.5732 3.06667 37.8427 4.79508 37.6368L68.5482 30.0409C70.2766 29.835 71.5052 28.2315 71.2924 26.4596L70.3977 19.0113C70.1848 17.2393 68.6111 15.9698 66.8827 16.1757Z" fill="black"/>-->
    <path
        d="M3.63539 9.42724C3.67986 9.29036 3.87351 9.29036 3.91798 9.42724L4.41045 10.9429C4.43034 11.0041 4.48738 11.0455 4.55175 11.0455H6.14539C6.28932 11.0455 6.34916 11.2297 6.23272 11.3143L4.94343 12.251C4.89136 12.2889 4.86957 12.3559 4.88946 12.4171L5.38193 13.9328C5.4264 14.0697 5.26974 14.1835 5.1533 14.0989L3.86401 13.1622C3.81194 13.1243 3.74143 13.1243 3.68936 13.1622L2.40007 14.0989C2.28363 14.1835 2.12697 14.0697 2.17145 13.9328L2.66391 12.4171C2.6838 12.3559 2.66201 12.2889 2.60994 12.251L1.32065 11.3143C1.20421 11.2297 1.26405 11.0455 1.40798 11.0455H3.00163C3.06599 11.0455 3.12303 11.0041 3.14292 10.9429L3.63539 9.42724Z"
        fill="#black" />
    <path
        d="M67.5203 38.3982C67.5648 38.2613 67.7584 38.2613 67.8029 38.3982L68.2953 39.9138C68.3152 39.9751 68.3723 40.0165 68.4366 40.0165H70.0303C70.1742 40.0165 70.234 40.2007 70.1176 40.2853L68.8283 41.222C68.7762 41.2598 68.7545 41.3269 68.7743 41.3881L69.2668 42.9037C69.3113 43.0406 69.1546 43.1544 69.0382 43.0698L67.7489 42.1331C67.6968 42.0953 67.6263 42.0953 67.5742 42.1331L66.285 43.0698C66.1685 43.1544 66.0119 43.0406 66.0563 42.9037L66.5488 41.3881C66.5687 41.3269 66.5469 41.2598 66.4948 41.222L65.2055 40.2853C65.0891 40.2007 65.1489 40.0165 65.2929 40.0165H66.8865C66.9509 40.0165 67.0079 39.9751 67.0278 39.9138L67.5203 38.3982Z"
        fill="#black" />
</svg>
