<svg width="72" height="51" viewBox="0 0 72 51" fill="none" xmlns="http://www.w3.org/2000/svg">
    <g clip-path="url(#clip0_4935_3109)">
        <path d="M31.09 15.117L31.0865 15.1163C29.2602 14.7699 27.5017 14.2191 25.8223 13.4872C26.7472 9.7351 28.0981 6.56577 29.7166 4.27942C31.2686 2.08718 33.0357 0.747097 34.8781 0.424347V15.5399C33.5575 15.4916 32.2845 15.3555 31.09 15.117ZM47.0416 25.5422C47.0217 28.7882 46.7063 31.8822 46.1558 34.7155C43.2741 33.5092 40.1819 32.799 37.0177 32.6518V17.6463C40.1874 17.4996 43.2799 16.7956 46.1621 15.5897C46.7525 18.6542 47.0682 22.0181 47.0416 25.5422ZM37.0107 49.7921V34.7844C40.0168 34.9395 42.9566 35.6344 45.6805 36.8245C44.7842 40.4589 43.4869 43.5452 41.9338 45.8112C40.4548 47.9692 38.7707 49.3464 37.0107 49.7921ZM41.9394 1.13856C46.3575 2.2741 50.4081 4.60694 53.6383 7.95442C51.8747 9.78219 49.8505 11.3115 47.6569 12.5116C46.399 7.641 44.4178 3.6529 41.9394 1.13856Z" fill="white" stroke="white" stroke-width="0.742847"/>
        <path d="M49.1656 25.7074L49.173 25.7001L49.174 25.5476C49.2015 21.664 48.8346 17.985 48.1568 14.6529C50.697 13.3377 53.027 11.6167 55.0569 9.53518C58.7251 14.0407 60.6895 19.6772 60.6017 25.5321C60.514 31.0895 58.5369 36.4376 55.0418 40.7356C53.0123 38.667 50.6828 36.9529 48.1433 35.6384C48.7704 32.5903 49.1293 29.2388 49.1656 25.7074ZM29.6038 1.1311C27.1217 3.6451 25.1291 7.64751 23.8652 12.533C21.7081 11.3597 19.7197 9.88095 17.8777 7.96798C20.9713 4.74706 24.9869 2.31411 29.6038 1.1311ZM22.3497 24.7432L22.3468 25.1175H22.3546C22.3468 28.7897 22.7124 32.3569 23.3874 35.6317C20.8411 36.9528 18.5045 38.6742 16.4736 40.7622C12.7983 36.2436 10.8344 30.6138 10.929 24.7731C11.0167 19.2093 12.9935 13.8613 16.488 9.5635C18.6447 11.7792 20.8847 13.3815 23.3733 14.6668C22.7373 17.7583 22.3771 21.1558 22.3497 24.7432ZM37.0106 15.5207V0.505768C38.787 0.953598 40.4769 2.33322 41.9566 4.49207C43.5095 6.7578 44.8018 9.84226 45.6947 13.4735C42.9699 14.6644 40.029 15.3653 37.0106 15.5207ZM25.361 34.7086C24.7583 31.6054 24.4486 28.2292 24.4752 24.7559C24.5017 21.5156 24.8112 18.4285 25.3611 15.5961C27.0677 16.3089 28.8465 16.851 30.6864 17.2053C32.0171 17.4684 33.4298 17.6216 34.8851 17.6714V32.64C31.5824 32.7494 28.3574 33.4556 25.361 34.7086ZM29.6285 49.184C25.2037 48.076 21.1696 45.7731 17.8777 42.3506C19.6484 40.5096 21.6749 38.9786 23.8815 37.7779C24.8955 41.6694 26.7094 46.2348 29.6285 49.184Z" fill="white" stroke="white" stroke-width="0.742847"/>
        <path d="M34.8852 34.7642V49.8521C32.5627 49.4476 30.6336 47.5488 29.1037 45.0294C27.5553 42.4794 26.468 39.376 25.8301 36.8179C28.6679 35.5851 31.7347 34.8765 34.8852 34.7642Z" fill="white" stroke="white" stroke-width="0.742847"/>
        <path d="M49.682 45.6735C47.3297 47.2712 44.7302 48.457 41.9004 49.1779C44.3825 46.6673 46.3835 42.6684 47.6497 37.7786C49.8506 38.9791 51.8813 40.5089 53.6458 42.3371C52.4613 43.5708 51.1785 44.6579 49.682 45.6735Z" fill="white" stroke="white" stroke-width="0.742847"/>
        <path d="M3.63604 9.42724C3.68051 9.29036 3.87416 9.29036 3.91863 9.42724L4.4111 10.9429C4.43099 11.0041 4.48803 11.0455 4.5524 11.0455H6.14604C6.28997 11.0455 6.34981 11.2297 6.23337 11.3143L4.94408 12.251C4.89201 12.2889 4.87022 12.3559 4.89011 12.4171L5.38258 13.9328C5.42705 14.0697 5.27039 14.1835 5.15395 14.0989L3.86466 13.1622C3.81259 13.1243 3.74208 13.1243 3.69001 13.1622L2.40072 14.0989C2.28428 14.1835 2.12762 14.0697 2.1721 13.9328L2.66456 12.4171C2.68445 12.3559 2.66266 12.2889 2.61059 12.251L1.3213 11.3143C1.20486 11.2297 1.2647 11.0455 1.40863 11.0455H3.00228C3.06664 11.0455 3.12368 11.0041 3.14357 10.9429L3.63604 9.42724Z" fill="white"/>
        <path d="M67.5208 38.3982C67.5653 38.2613 67.7589 38.2613 67.8034 38.3982L68.2958 39.9138C68.3157 39.9751 68.3728 40.0165 68.4371 40.0165H70.0308C70.1747 40.0165 70.2345 40.2007 70.1181 40.2853L68.8288 41.222C68.7767 41.2598 68.755 41.3269 68.7748 41.3881L69.2673 42.9037C69.3118 43.0406 69.1551 43.1544 69.0387 43.0698L67.7494 42.1331C67.6973 42.0953 67.6268 42.0953 67.5747 42.1331L66.2855 43.0698C66.169 43.1544 66.0124 43.0406 66.0568 42.9037L66.5493 41.3881C66.5692 41.3269 66.5474 41.2598 66.4953 41.222L65.206 40.2853C65.0896 40.2007 65.1494 40.0165 65.2934 40.0165H66.887C66.9514 40.0165 67.0084 39.9751 67.0283 39.9138L67.5208 38.3982Z" fill="white"/>
    </g>
    <defs>
        <clipPath id="clip0_4935_3109">
            <rect width="72" height="51" fill="white"/>
        </clipPath>
    </defs>
</svg>
