<svg width="112" height="112" viewBox="0 0 112 112" fill="none" xmlns="http://www.w3.org/2000/svg">
<path d="M21.4649 83.8975C26.1821 80.2903 31.4541 77.4461 37.2812 75.365C43.1082 73.284 49.2127 72.2434 55.5947 72.2434C61.9767 72.2434 68.0812 73.284 73.9083 75.365C79.7353 77.4461 85.0074 80.2903 89.7245 83.8975C92.9618 80.1053 95.4822 75.8044 97.2858 70.9948C99.0894 66.1851 99.9912 61.0518 99.9912 55.5947C99.9912 43.2932 95.6672 32.8184 87.0191 24.1703C78.371 15.5223 67.8963 11.1982 55.5947 11.1982C43.2932 11.1982 32.8184 15.5223 24.1703 24.1703C15.5223 32.8184 11.1982 43.2932 11.1982 55.5947C11.1982 61.0518 12.1 66.1851 13.9037 70.9948C15.7073 75.8044 18.2277 80.1053 21.4649 83.8975ZM55.5947 61.1443C50.1377 61.1443 45.5361 59.2713 41.7902 55.5254C38.0442 51.7794 36.1713 47.1779 36.1713 41.7208C36.1713 36.2638 38.0442 31.6622 41.7902 27.9163C45.5361 24.1703 50.1377 22.2974 55.5947 22.2974C61.0518 22.2974 65.6533 24.1703 69.3993 27.9163C73.1452 31.6622 75.0182 36.2638 75.0182 41.7208C75.0182 47.1779 73.1452 51.7794 69.3993 55.5254C65.6533 59.2713 61.0518 61.1443 55.5947 61.1443ZM55.5947 111.09C47.9178 111.09 40.7034 109.634 33.9514 106.72C27.1995 103.807 21.3262 99.8525 16.3316 94.8579C11.337 89.8633 7.38292 83.99 4.4694 77.238C1.55588 70.4861 0.0991211 63.2716 0.0991211 55.5947C0.0991211 47.9178 1.55588 40.7034 4.4694 33.9514C7.38292 27.1995 11.337 21.3262 16.3316 16.3316C21.3262 11.337 27.1995 7.38292 33.9514 4.4694C40.7034 1.55588 47.9178 0.0991211 55.5947 0.0991211C63.2716 0.0991211 70.4861 1.55588 77.238 4.4694C83.99 7.38292 89.8633 11.337 94.8579 16.3316C99.8525 21.3262 103.807 27.1995 106.72 33.9514C109.634 40.7034 111.09 47.9178 111.09 55.5947C111.09 63.2716 109.634 70.4861 106.72 77.238C103.807 83.99 99.8525 89.8633 94.8579 94.8579C89.8633 99.8525 83.99 103.807 77.238 106.72C70.4861 109.634 63.2716 111.09 55.5947 111.09ZM55.5947 99.9912C60.4968 99.9912 65.1215 99.2744 69.4686 97.8408C73.8158 96.4071 77.793 94.3492 81.4002 91.6669C77.793 88.9846 73.8158 86.9266 69.4686 85.493C65.1215 84.0593 60.4968 83.3425 55.5947 83.3425C50.6926 83.3425 46.068 84.0593 41.7208 85.493C37.3737 86.9266 33.3965 88.9846 29.7893 91.6669C33.3965 94.3492 37.3737 96.4071 41.7208 97.8408C46.068 99.2744 50.6926 99.9912 55.5947 99.9912ZM55.5947 50.0452C57.9995 50.0452 59.9881 49.259 61.5605 47.6866C63.1329 46.1142 63.9191 44.1256 63.9191 41.7208C63.9191 39.316 63.1329 37.3274 61.5605 35.755C59.9881 34.1827 57.9995 33.3965 55.5947 33.3965C53.1899 33.3965 51.2013 34.1827 49.6289 35.755C48.0566 37.3274 47.2704 39.316 47.2704 41.7208C47.2704 44.1256 48.0566 46.1142 49.6289 47.6866C51.2013 49.259 53.1899 50.0452 55.5947 50.0452Z" fill="#9C9999"/>
</svg>
