<svg width="32" height="32" viewBox="0 0 32 32" fill="none" xmlns="http://www.w3.org/2000/svg">
<g id="add-circle-fill">
<g id="vuesax/bulk/add-circle">
<g id="add-circle">
<path id="Vector" d="M16 29.3334C23.3638 29.3334 29.3333 23.3639 29.3333 16.0001C29.3333 8.63628 23.3638 2.66675 16 2.66675C8.63619 2.66675 2.66666 8.63628 2.66666 16.0001C2.66666 23.3639 8.63619 29.3334 16 29.3334Z" fill="url(#paint0_linear_154_7111)"/>
<path id="Vector_2" d="M21.3333 15.0001H17V10.6667C17 10.1201 16.5467 9.66675 16 9.66675C15.4533 9.66675 15 10.1201 15 10.6667V15.0001H10.6667C10.12 15.0001 9.66666 15.4534 9.66666 16.0001C9.66666 16.5467 10.12 17.0001 10.6667 17.0001H15V21.3334C15 21.8801 15.4533 22.3334 16 22.3334C16.5467 22.3334 17 21.8801 17 21.3334V17.0001H21.3333C21.88 17.0001 22.3333 16.5467 22.3333 16.0001C22.3333 15.4534 21.88 15.0001 21.3333 15.0001Z" fill="white"/>
</g>
</g>
</g>
<defs>
<linearGradient id="paint0_linear_154_7111" x1="16" y1="0.666748" x2="16" y2="29.3334" gradientUnits="userSpaceOnUse">
<stop stop-color="#FF8D74"/>
<stop offset="1" stop-color="#F75734"/>
</linearGradient>
</defs>
</svg>
