<svg width="50" height="50" viewBox="0 0 50 50" fill="none" xmlns="http://www.w3.org/2000/svg">
<g id="add-photo">
<g id="vuesax/outline/gallery-add">
<g id="gallery-add">
<path id="Vector" d="M18.7502 22.3958C15.5835 22.3958 13.021 19.8333 13.021 16.6667C13.021 13.5 15.5835 10.9375 18.7502 10.9375C21.9168 10.9375 24.4793 13.5 24.4793 16.6667C24.4793 19.8333 21.9168 22.3958 18.7502 22.3958ZM18.7502 14.0625C17.3127 14.0625 16.146 15.2292 16.146 16.6667C16.146 18.1042 17.3127 19.2708 18.7502 19.2708C20.1877 19.2708 21.3543 18.1042 21.3543 16.6667C21.3543 15.2292 20.1877 14.0625 18.7502 14.0625Z" fill="#9C9999"/>
<path id="Vector_2" d="M31.2498 47.3959H18.7498C7.43734 47.3959 2.604 42.5626 2.604 31.2501V18.7501C2.604 7.43758 7.43734 2.60425 18.7498 2.60425H27.0832C27.9373 2.60425 28.6457 3.31258 28.6457 4.16675C28.6457 5.02091 27.9373 5.72925 27.0832 5.72925H18.7498C9.14567 5.72925 5.729 9.14591 5.729 18.7501V31.2501C5.729 40.8542 9.14567 44.2709 18.7498 44.2709H31.2498C40.854 44.2709 44.2707 40.8542 44.2707 31.2501V20.8334C44.2707 19.9792 44.979 19.2709 45.8332 19.2709C46.6873 19.2709 47.3957 19.9792 47.3957 20.8334V31.2501C47.3957 42.5626 42.5623 47.3959 31.2498 47.3959Z" fill="#9C9999"/>
<path id="Vector_3" d="M44.2708 11.9792H32.8125C31.9583 11.9792 31.25 11.2709 31.25 10.4167C31.25 9.56258 31.9583 8.85425 32.8125 8.85425H44.2708C45.125 8.85425 45.8333 9.56258 45.8333 10.4167C45.8333 11.2709 45.125 11.9792 44.2708 11.9792Z" fill="#9C9999"/>
<path id="Vector_4" d="M38.5415 17.7083C37.6873 17.7083 36.979 17 36.979 16.1458V4.6875C36.979 3.83333 37.6873 3.125 38.5415 3.125C39.3957 3.125 40.104 3.83333 40.104 4.6875V16.1458C40.104 17 39.3957 17.7083 38.5415 17.7083Z" fill="#9C9999"/>
<path id="Vector_5" d="M5.56254 41.0417C5.06254 41.0417 4.56254 40.7917 4.27087 40.3542C3.79171 39.6459 3.97921 38.6667 4.68754 38.1876L14.9584 31.2917C17.2084 29.7917 20.3125 29.9584 22.3542 31.6876L23.0417 32.2917C24.0834 33.1876 25.8542 33.1876 26.875 32.2917L35.5417 24.8542C37.7709 22.9584 41.2292 22.9584 43.4584 24.8542L46.8542 27.7709C47.5 28.3334 47.5834 29.3126 47.0209 29.9792C46.4584 30.6251 45.4792 30.7084 44.8125 30.1459L41.4167 27.2292C40.375 26.3334 38.6042 26.3334 37.5834 27.2292L28.9167 34.6667C26.7084 36.5626 23.2292 36.5626 21 34.6667L20.3125 34.0626C19.3542 33.2501 17.7709 33.1667 16.7084 33.8959L6.45837 40.7917C6.16671 40.9584 5.85421 41.0417 5.56254 41.0417Z" fill="#9C9999"/>
</g>
</g>
</g>
</svg>
