<svg width="120" height="65" viewBox="0 0 120 65" fill="none" xmlns="http://www.w3.org/2000/svg">
<g id="apple-pay 1">
<path id="Vector" d="M16.02 16.7215C18.27 16.912 20.52 15.5779 21.93 13.8777C23.315 12.1424 24.23 9.79014 24.005 7.42285C22 7.51814 19.545 8.75696 18.14 10.4973C16.84 11.9819 15.735 14.4294 16.02 16.7215ZM10.45 47.777C12.94 47.6817 13.92 46.137 16.92 46.137C19.94 46.137 20.82 47.777 23.445 47.7419C26.165 47.6867 27.87 45.2643 29.535 42.7766C31.425 39.9529 32.215 37.2195 32.255 37.0691C32.2 37.0139 27.005 34.9877 26.945 28.8789C26.89 23.7631 31.055 21.3357 31.235 21.1852C28.89 17.6343 25.235 17.2531 23.96 17.1578L23.97 17.1628C20.705 16.9672 17.915 19.0486 16.375 19.0486C14.8 19.0486 12.44 17.2531 9.85002 17.3083C6.50002 17.3685 3.38502 19.2994 1.68002 22.3688C-1.84498 28.5328 0.760021 37.6408 4.17002 42.6613C5.84002 45.1389 7.82502 47.8723 10.45 47.777ZM71.25 28.4225H76.37C76.8 26.1304 78.88 24.6208 81.735 24.6208C85.205 24.6208 87.155 26.2608 87.155 29.2952V31.3565L80.07 31.7978C73.49 32.1991 69.925 34.9475 69.925 39.7172C69.945 44.527 73.615 47.7319 78.885 47.7369C82.45 47.7369 85.75 45.9063 87.245 42.9873H87.355V47.456H92.605V28.9391C92.605 23.5776 88.385 20.1019 81.9 20.1019C75.88 20.1019 71.425 23.6077 71.25 28.4225ZM87.175 37.38C87.175 40.8557 84.265 43.3333 80.425 43.3333C77.405 43.3333 75.475 41.8438 75.475 39.5918C75.475 37.2396 77.33 35.8904 80.875 35.6798L87.175 35.2786V37.38ZM42.79 10.2465V47.451H48.47V34.7369H56.325C63.505 34.7369 68.53 29.7164 68.53 22.4641C68.53 15.2118 63.585 10.2465 56.51 10.2465H42.79ZM62.76 22.4842C62.76 27.1786 59.95 29.892 54.995 29.892H48.47V15.1165H55.015C59.945 15.1165 62.76 17.7847 62.76 22.4842Z" fill="black"/>
<path id="Vector_2" d="M107.435 42.4306L100.76 20.463H94.835L104.435 47.5513L103.91 49.1914C103.045 51.9749 101.64 53.0683 99.13 53.0683C98.68 53.0683 97.82 53.0131 97.46 52.973V57.4417C97.8 57.522 99.21 57.5772 99.64 57.5772L99.635 57.5671C105.165 57.5671 107.77 55.4105 110.045 48.9005L120 20.463H114.225L107.55 42.4306H107.435Z" fill="black"/>
</g>
</svg>
