<svg width="27" height="34" viewBox="0 0 27 34" fill="none" xmlns="http://www.w3.org/2000/svg">
<path d="M0.166687 33.6666V23.6666C0.166687 22.7499 0.493076 21.9652 1.14585 21.3124C1.79863 20.6596 2.58335 20.3333 3.50002 20.3333H23.5C24.4167 20.3333 25.2014 20.6596 25.8542 21.3124C26.507 21.9652 26.8334 22.7499 26.8334 23.6666V33.6666H0.166687ZM3.50002 26.9999H23.5V23.6666H3.50002V26.9999ZM13.5 20.3333L5.16669 8.66658C5.16669 6.36103 5.97919 4.39575 7.60419 2.77075C9.22919 1.14575 11.1945 0.333252 13.5 0.333252C15.8056 0.333252 17.7709 1.14575 19.3959 2.77075C21.0209 4.39575 21.8334 6.36103 21.8334 8.66658L13.5 20.3333Z" fill="url(#paint0_linear_198_4278)"/>
<defs>
<linearGradient id="paint0_linear_198_4278" x1="13.5" y1="-2.16675" x2="13.5" y2="33.6666" gradientUnits="userSpaceOnUse">
<stop stop-color="#FF8D74"/>
<stop offset="1" stop-color="#F75734"/>
</linearGradient>
</defs>
</svg>
