<svg width="40" height="40" viewBox="0 0 40 40" fill="none" xmlns="http://www.w3.org/2000/svg">
<path d="M20 37.9166C10.1167 37.9166 2.08333 29.8833 2.08333 19.9999C2.08333 10.1166 10.1167 2.08325 20 2.08325C29.8833 2.08325 37.9167 10.1166 37.9167 19.9999C37.9167 29.8833 29.8833 37.9166 20 37.9166ZM20 4.58325C11.5 4.58325 4.58333 11.4999 4.58333 19.9999C4.58333 28.4999 11.5 35.4166 20 35.4166C28.5 35.4166 35.4167 28.4999 35.4167 19.9999C35.4167 11.4999 28.5 4.58325 20 4.58325Z" fill="#E0E0E5"/>
<path d="M22.1 27.1334C21.7833 27.1334 21.4667 27.0167 21.2167 26.7667L15.3333 20.8833C14.85 20.4 14.85 19.6 15.3333 19.1167L21.2167 13.2333C21.7 12.75 22.5 12.75 22.9833 13.2333C23.4667 13.7167 23.4667 14.5167 22.9833 15L17.9833 20L22.9833 25C23.4667 25.4834 23.4667 26.2833 22.9833 26.7667C22.75 27.0167 22.4333 27.1334 22.1 27.1334Z" fill="#E0E0E5"/>
</svg>
