<svg width="40" height="40" viewBox="0 0 40 40" fill="none" xmlns="http://www.w3.org/2000/svg">
<rect width="40" height="40" rx="20" fill="#F0F0F0"/>
<path d="M17.57 26.8201C17.38 26.8201 17.19 26.7501 17.04 26.6001L10.97 20.5301C10.68 20.2401 10.68 19.7601 10.97 19.4701L17.04 13.4001C17.33 13.1101 17.81 13.1101 18.1 13.4001C18.39 13.6901 18.39 14.1701 18.1 14.4601L12.56 20.0001L18.1 25.5401C18.39 25.8301 18.39 26.3101 18.1 26.6001C17.96 26.7501 17.76 26.8201 17.57 26.8201Z" fill="#292D32"/>
<path d="M28.5 20.75H11.67C11.26 20.75 10.92 20.41 10.92 20C10.92 19.59 11.26 19.25 11.67 19.25H28.5C28.91 19.25 29.25 19.59 29.25 20C29.25 20.41 28.91 20.75 28.5 20.75Z" fill="#292D32"/>
</svg>
