<svg width="40" height="40" viewBox="0 0 40 40" fill="none" xmlns="http://www.w3.org/2000/svg">
<rect width="40" height="40" rx="20" transform="matrix(-1 0 0 1 40 0)" fill="url(#paint0_linear_213_3862)"/>
<path d="M17.5699 26.8201C17.7599 26.8201 17.9499 26.7501 18.0999 26.6001C18.3899 26.3101 18.3899 25.8301 18.0999 25.5401L12.5599 20.0001L18.0999 14.4601C18.3899 14.1701 18.3899 13.6901 18.0999 13.4001C17.8099 13.1101 17.3299 13.1101 17.0399 13.4001L10.9699 19.4701C10.6799 19.7601 10.6799 20.2401 10.9699 20.5301L17.0399 26.6001C17.1899 26.7501 17.3799 26.8201 17.5699 26.8201Z" fill="white"/>
<path d="M11.67 20.75H28.5C28.91 20.75 29.25 20.41 29.25 20C29.25 19.59 28.91 19.25 28.5 19.25H11.67C11.26 19.25 10.92 19.59 10.92 20C10.92 20.41 11.26 20.75 11.67 20.75Z" fill="white"/>
<defs>
<linearGradient id="paint0_linear_213_3862" x1="20" y1="-3" x2="20" y2="40" gradientUnits="userSpaceOnUse">
<stop stop-color="#FF8D74"/>
<stop offset="1" stop-color="#F75734"/>
</linearGradient>
</defs>
</svg>
