<svg width="40" height="40" viewBox="0 0 40 40" fill="none" xmlns="http://www.w3.org/2000/svg">
<rect width="40" height="40" rx="20" fill="url(#paint0_linear_148_5577)"/>
<path d="M22.43 26.8201C22.24 26.8201 22.05 26.7501 21.9 26.6001C21.61 26.3101 21.61 25.8301 21.9 25.5401L27.44 20.0001L21.9 14.4601C21.61 14.1701 21.61 13.6901 21.9 13.4001C22.19 13.1101 22.67 13.1101 22.96 13.4001L29.03 19.4701C29.32 19.7601 29.32 20.2401 29.03 20.5301L22.96 26.6001C22.81 26.7501 22.62 26.8201 22.43 26.8201Z" fill="white"/>
<path d="M28.33 20.75H11.5C11.09 20.75 10.75 20.41 10.75 20C10.75 19.59 11.09 19.25 11.5 19.25H28.33C28.74 19.25 29.08 19.59 29.08 20C29.08 20.41 28.74 20.75 28.33 20.75Z" fill="white"/>
<defs>
<linearGradient id="paint0_linear_148_5577" x1="20" y1="-3" x2="20" y2="40" gradientUnits="userSpaceOnUse">
<stop stop-color="#FF8D74"/>
<stop offset="1" stop-color="#F75734"/>
</linearGradient>
</defs>
</svg>
