<svg width="24" height="24" viewBox="0 0 24 24" fill="none" xmlns="http://www.w3.org/2000/svg">
<g id="side-menu-tab/Variant4">
<mask id="mask0_416_2395" style="mask-type:alpha" maskUnits="userSpaceOnUse" x="0" y="0" width="24" height="24">
<rect id="Bounding box" width="24" height="24" fill="#D9D9D9"/>
</mask>
<g mask="url(#mask0_416_2395)">
<path id="alternate_email" d="M12 21.5C10.691 21.5 9.45704 21.2519 8.29808 20.7557C7.13909 20.2596 6.13108 19.583 5.27405 18.7259C4.417 17.8689 3.7404 16.8609 3.24425 15.7019C2.74808 14.5429 2.5 13.3089 2.5 12C2.5 10.6743 2.74808 9.43621 3.24425 8.28558C3.7404 7.13493 4.417 6.13108 5.27405 5.27405C6.13108 4.417 7.13909 3.7404 8.29808 3.24425C9.45704 2.74808 10.691 2.5 12 2.5C13.3256 2.5 14.5637 2.74808 15.7144 3.24425C16.865 3.7404 17.8689 4.417 18.7259 5.27405C19.583 6.13108 20.2596 7.13493 20.7557 8.28558C21.2519 9.43621 21.5 10.6743 21.5 12V13.2192C21.5 14.132 21.1865 14.907 20.5596 15.5442C19.9326 16.1814 19.1628 16.5 18.25 16.5C17.6179 16.5 17.058 16.3522 16.5702 16.0567C16.0823 15.7612 15.6974 15.3679 15.4154 14.8769C15.0038 15.3653 14.5211 15.758 13.9673 16.0548C13.4134 16.3516 12.7577 16.5 12 16.5C10.7513 16.5 9.6891 16.0621 8.81345 15.1865C7.93782 14.3109 7.5 13.2487 7.5 12C7.5 10.7513 7.93782 9.6891 8.81345 8.81345C9.6891 7.93782 10.7513 7.5 12 7.5C13.2487 7.5 14.3109 7.93782 15.1865 8.81345C16.0621 9.6891 16.5 10.7513 16.5 12V13.2192C16.5 13.7474 16.6724 14.1763 17.0173 14.5058C17.3621 14.8352 17.773 15 18.25 15C18.7269 15 19.1378 14.8352 19.4827 14.5058C19.8275 14.1763 20 13.7474 20 13.2192V12C20 9.81664 19.2125 7.93748 17.6375 6.36248C16.0625 4.78748 14.1833 3.99998 12 3.99998C9.81664 3.99998 7.93748 4.78748 6.36248 6.36248C4.78748 7.93748 3.99998 9.81664 3.99998 12C3.99998 14.1833 4.78748 16.0625 6.36248 17.6375C7.93748 19.2125 9.81664 20 12 20H17V21.5H12ZM12 15C12.8333 15 13.5416 14.7083 14.125 14.125C14.7083 13.5416 15 12.8333 15 12C15 11.1666 14.7083 10.4583 14.125 9.87498C13.5416 9.29164 12.8333 8.99998 12 8.99998C11.1666 8.99998 10.4583 9.29164 9.87498 9.87498C9.29164 10.4583 8.99998 11.1666 8.99998 12C8.99998 12.8333 9.29164 13.5416 9.87498 14.125C10.4583 14.7083 11.1666 15 12 15Z" fill="#292D32"/>
</g>
</g>
</svg>
