<svg width="44" height="29" viewBox="0 0 44 29" fill="none" xmlns="http://www.w3.org/2000/svg">
<g clip-path="url(#clip0_148_5543)">
<path d="M13.954 18.2165C13.954 18.2165 5.81947 22.9467 3.33451 23.2027C0.849559 23.4588 2.04602 20.9194 3.33451 19.8596C3.33451 19.8596 0.438939 19.9734 0.0283196 18.7357C-0.3823 17.5052 4.39646 16.6231 4.39646 16.6231C4.39646 16.6231 1.81947 15.7909 2.5062 14.226C3.19292 12.6541 12.6655 15.4708 12.6655 15.4708L13.954 18.2165Z" fill="#79E0B2"/>
<g opacity="0.5">
<g opacity="0.5">
<path opacity="0.5" d="M12.4459 17.0928C11.0441 17.043 9.69194 16.794 8.3468 16.4953C7.00875 16.1752 5.67778 15.8124 4.39636 15.2505C5.79813 15.3003 7.15034 15.5492 8.49548 15.848C9.83353 16.1681 11.1645 16.5308 12.4459 17.0928Z" fill="#082116"/>
</g>
<g opacity="0.5">
<path opacity="0.5" d="M1.26013 18.7359C3.13624 18.3091 4.99111 18.0886 6.84597 17.9179C8.70084 17.7685 10.5557 17.6618 12.446 17.7614C10.6053 18.1882 8.72916 18.4087 6.86013 18.5794C4.98403 18.7359 3.10792 18.8355 1.26013 18.7359Z" fill="#082116"/>
</g>
<g opacity="0.5">
<path opacity="0.5" d="M3.37695 22.0078C4.84952 21.1756 6.39288 20.5354 7.9504 19.9379C9.51501 19.3617 11.1008 18.8282 12.7575 18.4868C11.2849 19.319 9.74156 19.9663 8.18403 20.5567C6.61943 21.1329 5.03359 21.6664 3.37695 22.0078Z" fill="#082116"/>
</g>
</g>
<path d="M31.3274 14.8237C31.3274 14.8237 39.6035 17.9606 43.3274 15.7484C43.3274 15.7484 45.1681 18.5652 42.7752 20.1799C42.7752 20.1799 44.0637 23.8289 40.1982 24.8461C40.1982 24.8461 39.4619 28.6302 35.2354 27.5704C35.2354 27.5704 31.2849 31.5395 25.7699 26.2331L31.3274 14.8237Z" fill="#79E0B2"/>
<g opacity="0.5">
<g opacity="0.5">
<path opacity="0.5" d="M42.7681 20.1797C42.2654 20.6136 41.607 20.8199 40.977 20.9479C40.3327 21.076 39.6814 21.0902 39.0371 21.0546C38.3929 21.0048 37.7557 20.891 37.1398 20.7132C36.5239 20.5283 35.9292 20.2935 35.3699 19.9521C36.0212 19.9308 36.6442 19.9805 37.2672 20.0303C37.8831 20.0659 38.492 20.137 39.1008 20.1655C39.7097 20.2224 40.3115 20.2437 40.9203 20.258C41.5221 20.2651 42.1309 20.2722 42.7681 20.1797Z" fill="black"/>
</g>
<g opacity="0.5">
<path opacity="0.5" d="M40.1982 24.8459C39.7309 25.2371 39.1221 25.4078 38.5345 25.479C37.9327 25.5572 37.3309 25.4932 36.7504 25.3794C36.1699 25.2585 35.6106 25.0451 35.0867 24.7819C34.5628 24.5116 34.0814 24.1773 33.6566 23.7505C33.954 23.7861 34.2371 23.8643 34.5133 23.9283C34.7894 23.9923 35.0655 24.0564 35.3345 24.1346C35.8796 24.2555 36.4035 24.4191 36.9345 24.5116C37.4655 24.6325 37.9894 24.725 38.5274 24.789C39.0655 24.8459 39.6106 24.8886 40.1982 24.8459Z" fill="black"/>
</g>
<g opacity="0.5">
<path opacity="0.5" d="M35.2354 27.5701C34.931 27.7408 34.5982 27.755 34.2797 27.7195C33.9611 27.6839 33.6637 27.563 33.3805 27.4207C32.8496 27.0935 32.3965 26.6027 32.2761 25.9341C32.6089 26.0266 32.8637 26.1475 33.1186 26.2684C33.3664 26.3893 33.6 26.5174 33.8266 26.6525C34.2797 26.9157 34.6974 27.1789 35.2354 27.5701Z" fill="black"/>
</g>
</g>
<path d="M26.5912 8.34359C30.5558 8.26535 36.3327 16.2249 32.269 22.5697C28.2053 28.9146 16.3965 30.2732 12.0708 16.5876C12.0708 16.5876 17.5717 16.4596 19.7381 14.1692C21.9044 11.8717 22.0814 8.42895 26.5912 8.34359Z" fill="#FFD470"/>
<path opacity="0.3" d="M14.0885 21.1401C18.5416 24.6611 22.3646 22.8402 27.1009 18.2451C29.4867 15.9334 32.6726 16.0827 33.6283 17.0572C33.777 18.8782 33.4159 20.7845 32.2761 22.5627C28.7363 28.0896 19.3204 29.8323 14.0885 21.1401Z" fill="white"/>
<path d="M30.9594 11.9144L33.9894 11.3596L31.5045 13.2517C31.5116 13.2517 30.9735 13.0027 30.9594 11.9144Z" fill="#C44961"/>
<path d="M28.4318 11.8219C28.1911 11.4876 27.9787 11.1818 27.7593 10.947C27.5327 10.7123 27.3274 10.5771 27.1079 10.5629C26.8672 10.5274 26.6619 10.5558 26.4354 10.7265C26.2088 10.9043 25.9893 11.196 25.7628 11.5445C25.6354 11.1462 25.6566 10.6981 25.9044 10.2855C26.0177 10.0792 26.2301 9.89429 26.4708 9.78759C26.7185 9.68801 26.9734 9.65245 27.2354 9.68801C27.7734 9.75914 28.184 10.1788 28.3398 10.5843C28.5168 10.9897 28.5451 11.4165 28.4318 11.8219Z" fill="#754368"/>
<path d="M22.3646 10.3282C22.3646 10.3282 19.2425 9.88007 17.3522 6.28086C15.4691 2.68164 14.9664 1.30497e-05 14.9664 1.30497e-05C14.9664 1.30497e-05 12.7292 -0.0924571 12.0779 3.22935C12.0779 3.22935 8.94871 2.53938 9.26729 6.27374C9.26729 6.27374 6.41419 7.35493 7.75225 10.6127C7.75225 10.6127 6.51331 15.4638 12.0779 16.8011C16.9204 17.9747 22.1806 15.4852 22.3646 10.3282Z" fill="#79E0B2"/>
<g opacity="0.5">
<g opacity="0.5">
<path opacity="0.5" d="M12.0708 3.22925C12.6159 4.63764 13.2106 5.93222 13.9965 7.1201C14.3717 7.7176 14.8035 8.27953 15.2779 8.82012C15.7381 9.37494 16.2761 9.85152 16.8071 10.4063C16.092 10.1716 15.3912 9.81595 14.8035 9.32515C14.1947 8.85569 13.685 8.25819 13.2531 7.6109C12.8354 6.9565 12.5027 6.2523 12.2974 5.51254C12.092 4.77279 11.9858 3.99746 12.0708 3.22925Z" fill="black"/>
</g>
<g opacity="0.5">
<path opacity="0.5" d="M9.26721 6.28076C10.0955 7.37618 10.8389 8.4218 11.6672 9.4034C12.0708 9.90843 12.5168 10.3566 12.9699 10.8189C13.423 11.2813 13.9256 11.6796 14.4424 12.149C13.7699 12.021 13.1115 11.7507 12.538 11.3666C11.9575 10.9825 11.4336 10.513 10.9946 9.98667C10.5557 9.45319 10.1663 8.87703 9.87606 8.2582C9.57872 7.62513 9.34509 6.97073 9.26721 6.28076Z" fill="black"/>
</g>
<g opacity="0.5">
<path opacity="0.5" d="M7.74512 10.6196C8.53804 11.2456 9.26724 11.7435 10.0389 12.2343C10.4212 12.4761 10.8177 12.7109 11.2141 12.9527C11.6177 13.1946 12.0283 13.4293 12.4389 13.7423C11.4195 13.8347 10.4283 13.5075 9.56459 12.9812C9.14689 12.6966 8.74335 12.3766 8.42476 11.9782C8.11326 11.587 7.83715 11.1389 7.74512 10.6196Z" fill="black"/>
</g>
</g>
</g>
<defs>
<clipPath id="clip0_148_5543">
<rect width="44" height="29" fill="white"/>
</clipPath>
</defs>
</svg>
