<svg width="40" height="40" viewBox="0 0 40 40" fill="none" xmlns="http://www.w3.org/2000/svg">
<rect width="40" height="40" rx="20" fill="url(#paint0_linear_157_8857)"/>
<path d="M22.4301 26.8201C22.2401 26.8201 22.0501 26.7501 21.9001 26.6001C21.6101 26.3101 21.6101 25.8301 21.9001 25.5401L27.4401 20.0001L21.9001 14.4601C21.6101 14.1701 21.6101 13.6901 21.9001 13.4001C22.1901 13.1101 22.6701 13.1101 22.9601 13.4001L29.0301 19.4701C29.3201 19.7601 29.3201 20.2401 29.0301 20.5301L22.9601 26.6001C22.8101 26.7501 22.6201 26.8201 22.4301 26.8201Z" fill="white"/>
<path d="M28.33 20.75H11.5C11.09 20.75 10.75 20.41 10.75 20C10.75 19.59 11.09 19.25 11.5 19.25H28.33C28.74 19.25 29.08 19.59 29.08 20C29.08 20.41 28.74 20.75 28.33 20.75Z" fill="white"/>
<defs>
<linearGradient id="paint0_linear_157_8857" x1="9.7417" y1="-1.19194" x2="19.1732" y2="41.8315" gradientUnits="userSpaceOnUse">
<stop stop-color="#C6FFE7"/>
<stop offset="1" stop-color="#00AEFF"/>
</linearGradient>
</defs>
</svg>
