<svg width="48" height="48" viewBox="0 0 48 48" fill="none" xmlns="http://www.w3.org/2000/svg">
<g clip-path="url(#clip0_133_3086)">
<mask id="mask0_133_3086" style="mask-type:luminance" maskUnits="userSpaceOnUse" x="0" y="0" width="48" height="48">
<path d="M0 0H47.5V47.5H0V0Z" fill="white"/>
</mask>
<g mask="url(#mask0_133_3086)">
<path d="M1.25 13.75C1.25 13.75 1.25 8.75 6.25 8.75H41.25C41.25 8.75 46.25 8.75 46.25 13.75V36.25C46.25 36.25 46.25 41.25 41.25 41.25H6.25C6.25 41.25 1.25 41.25 1.25 36.25V13.75Z" fill="#292F33"/>
<path d="M15 25C15 31.9037 20.5963 37.5 27.5 37.5C34.4037 37.5 40 31.9037 40 25C40 18.0963 34.4037 12.5 27.5 12.5C20.5963 12.5 15 18.0963 15 25Z" fill="#CCD6DD"/>
<path d="M37.5 25C37.5 27.6522 36.4464 30.1957 34.5711 32.0711C32.6957 33.9464 30.1522 35 27.5 35C24.8478 35 22.3043 33.9464 20.4289 32.0711C18.5536 30.1957 17.5 27.6522 17.5 25C17.5 22.3478 18.5536 19.8043 20.4289 17.9289C22.3043 16.0536 24.8478 15 27.5 15C30.1522 15 32.6957 16.0536 34.5711 17.9289C36.4464 19.8043 37.5 22.3478 37.5 25Z" fill="#292F33"/>
<path d="M33.75 25C33.75 26.6576 33.0915 28.2473 31.9194 29.4194C30.7473 30.5915 29.1576 31.25 27.5 31.25C25.8424 31.25 24.2527 30.5915 23.0806 29.4194C21.9085 28.2473 21.25 26.6576 21.25 25C21.25 24.1792 21.4117 23.3665 21.7258 22.6082C22.0398 21.8499 22.5002 21.1609 23.0806 20.5806C24.2527 19.4085 25.8424 18.75 27.5 18.75C28.3208 18.75 29.1335 18.9117 29.8918 19.2258C30.6501 19.5398 31.3391 20.0002 31.9194 20.5806C32.4998 21.1609 32.9602 21.8499 33.2742 22.6082C33.5883 23.3665 33.75 24.1792 33.75 25Z" fill="#F65734"/>
<path d="M43.75 13.125C43.75 13.6223 43.5525 14.0992 43.2008 14.4508C42.8492 14.8025 42.3723 15 41.875 15C41.3777 15 40.9008 14.8025 40.5492 14.4508C40.1975 14.0992 40 13.6223 40 13.125C40 12.6277 40.1975 12.1508 40.5492 11.7992C40.9008 11.4475 41.3777 11.25 41.875 11.25C42.3723 11.25 42.8492 11.4475 43.2008 11.7992C43.5525 12.1508 43.75 12.6277 43.75 13.125Z" fill="white"/>
<path d="M16.25 13.125C16.25 13.6223 16.0525 14.0992 15.7008 14.4508C15.3492 14.8025 14.8723 15 14.375 15H8.125C7.62772 15 7.15081 14.8025 6.79917 14.4508C6.44754 14.0992 6.25 13.6223 6.25 13.125C6.25 12.6277 6.44754 12.1508 6.79917 11.7992C7.15081 11.4475 7.62772 11.25 8.125 11.25H14.375C14.8723 11.25 15.3492 11.4475 15.7008 11.7992C16.0525 12.1508 16.25 12.6277 16.25 13.125Z" fill="#F5F8FA"/>
<path d="M6.25 7.5C6.25 7.5 6.25 6.25 7.5 6.25H15C15 6.25 16.25 6.25 16.25 7.5V8.75H6.25V7.5Z" fill="#66757F"/>
</g>
</g>
<defs>
<clipPath id="clip0_133_3086">
<rect width="47.5" height="47.5" fill="white"/>
</clipPath>
</defs>
</svg>
