<svg width="18" height="18" viewBox="0 0 18 18" fill="none" xmlns="http://www.w3.org/2000/svg">
<path d="M5.18912 16.2727H12.8109C14.8182 16.2727 15.6182 15.0437 15.7128 13.5455L16.0909 7.5382C16.1928 5.96729 14.9418 4.63639 13.3637 4.63639C12.92 4.63639 12.5128 4.38184 12.3091 3.98911L11.7855 2.93457C11.4509 2.27275 10.5782 1.72729 9.8364 1.72729H8.17094C7.42185 1.72729 6.54912 2.27275 6.21458 2.93457L5.69094 3.98911C5.48731 4.38184 5.08003 4.63639 4.6364 4.63639C3.05821 4.63639 1.80731 5.96729 1.90912 7.5382L2.28731 13.5455C2.37458 15.0437 3.18185 16.2727 5.18912 16.2727Z" stroke="white" stroke-width="1.5" stroke-linecap="round" stroke-linejoin="round"/>
<path d="M7.90918 6.09082H10.091" stroke="white" stroke-width="1.5" stroke-linecap="round" stroke-linejoin="round"/>
<path d="M8.99938 13.3635C10.3012 13.3635 11.363 12.3017 11.363 10.9999C11.363 9.69805 10.3012 8.63623 8.99938 8.63623C7.69756 8.63623 6.63574 9.69805 6.63574 10.9999C6.63574 12.3017 7.69756 13.3635 8.99938 13.3635Z" stroke="white" stroke-width="1.5" stroke-linecap="round" stroke-linejoin="round"/>
</svg>
