<svg width="326" height="234" viewBox="0 0 326 234" fill="none" xmlns="http://www.w3.org/2000/svg">
<rect width="233.26" height="326" rx="15" transform="matrix(0 1 1 0 0 0)" fill="url(#paint0_linear_195_3815)"/>
<rect opacity="0.2" width="163.706" height="16.5704" rx="8.28518" transform="matrix(1 -3.948e-08 -4.83962e-08 -1 52.2166 161.88)" fill="white"/>
<rect opacity="0.2" width="280.84" height="20.3943" rx="10.1971" transform="matrix(1 -3.948e-08 -4.83962e-08 -1 22.5801 48.4364)" fill="white"/>
<rect opacity="0.2" width="134.069" height="16.5704" rx="8.28518" transform="matrix(1 -3.948e-08 -4.83962e-08 -1 81.8528 135.112)" fill="white"/>
<rect opacity="0.6" width="67.7403" height="12.7464" rx="6.37322" transform="matrix(1 -3.948e-08 -4.83962e-08 -1 22.5801 205.218)" fill="white"/>
<rect width="88" height="74" transform="matrix(0 1 1 0 229 65)" fill="url(#paint1_linear_195_3815)"/>
<path d="M233.884 137.299C235.7 133.282 247.316 129.704 254.085 127.837C258.424 126.644 257.147 107.108 257.147 107.108L273.471 107.108C273.471 107.108 272.194 126.629 276.533 127.837C283.302 129.704 294.918 133.266 296.734 137.299C298.288 140.736 297.642 153.321 297.642 153.321L232.992 153.321C232.992 153.336 232.346 140.736 233.884 137.299Z" fill="url(#paint2_linear_195_3815)"/>
<path d="M279.779 92.8043C282.167 93.1478 284.338 95.2247 283.122 99.8157C282.211 103.298 283.774 106.936 279.07 107.108L279.779 92.8043Z" fill="url(#paint3_linear_195_3815)"/>
<path d="M250.065 92.8043C247.544 93.0847 245.206 95.0948 246.367 99.7225C247.253 103.228 245.511 106.812 250.462 107.108L250.065 92.8043Z" fill="url(#paint4_linear_195_3815)"/>
<path d="M249.75 92.0402C249.734 91.6874 249.719 91.3193 249.719 90.9512C249.734 80.997 255.741 75.1993 263.21 75.1993C263.739 75.1993 264.252 75.23 264.766 75.2913C265.279 75.23 265.793 75.1993 266.322 75.1993C273.791 75.1993 279.813 80.997 279.813 90.9512C279.813 91.3193 279.798 91.6721 279.782 92.0402C280.093 98.6661 281.043 109.019 278.008 113.068C275.021 117.056 270.259 121.412 268.003 121.412L261.529 121.412C259.289 121.412 254.511 117.071 251.524 113.068C248.489 109.019 249.438 98.6661 249.75 92.0402Z" fill="url(#paint5_linear_195_3815)"/>
<path d="M233.882 137.569C235.451 134.159 244.311 131.074 251.064 129.114C254.417 133.573 259.555 136.442 265.308 136.442C271.061 136.442 276.199 133.588 279.552 129.114C286.305 131.074 295.165 134.144 296.734 137.569C298.288 140.947 297.642 153.321 297.642 153.321L233.005 153.321C232.989 153.336 232.343 140.947 233.882 137.569Z" fill="white"/>
<path d="M233.869 137.569C235.036 134.992 240.297 132.601 245.679 130.75C247.422 130.148 249.181 129.592 250.803 129.114C253.077 132.169 256.17 134.483 259.717 135.625L263.689 143.462L264.766 153.321L232.99 153.321C232.99 153.336 232.353 140.947 233.869 137.569Z" fill="url(#paint6_linear_195_3815)"/>
<path d="M265.874 143.462L269.915 135.686C273.659 134.56 276.92 132.231 279.307 129.114C280.93 129.577 282.677 130.102 284.409 130.688C289.995 132.555 295.502 134.961 296.719 137.569C298.295 140.947 297.64 153.321 297.64 153.321L264.766 153.321L265.874 143.462Z" fill="url(#paint7_linear_195_3815)"/>
<path d="M269.886 135.618L274.462 126.719L274.462 126.347C273.813 124.923 273.426 122.834 273.194 120.559L274.462 120.559C274.462 120.559 276.874 120.002 279.224 120.559C281.914 121.194 285.377 124.088 284.403 129.984C284.372 130.185 284.311 130.387 284.249 130.588C282.749 134.983 272.932 140.09 268.293 142.304C266.825 143 265.866 143.418 265.866 143.418L269.886 135.618Z" fill="url(#paint8_linear_195_3815)"/>
<path d="M250.312 120.559C252.664 120.002 255.078 120.559 255.078 120.559L256.532 120.559C256.285 123.037 255.836 125.298 255.078 126.723L259.612 135.551L263.666 143.418C263.666 143.418 262.706 143.015 261.236 142.303C256.61 140.104 246.862 135.024 245.299 130.641C245.221 130.424 245.16 130.208 245.129 129.991C244.154 124.09 247.62 121.179 250.312 120.559Z" fill="url(#paint9_linear_195_3815)"/>
<path d="M253.533 126.736L255.252 121.767C254.914 121.736 252.796 121.412 252.351 121.412C251.629 121.412 250.953 121.489 250.355 121.628C248.42 122.075 245.35 124.236 246.209 129.406C246.225 129.514 246.271 129.653 246.317 129.792C247.253 132.4 252.473 136.228 260.365 140.117L253.533 126.736Z" fill="url(#paint10_linear_195_3815)"/>
<path d="M275.999 126.752L274.28 121.767C274.618 121.736 276.736 121.412 277.182 121.412C277.903 121.412 278.579 121.489 279.177 121.628C281.112 122.075 284.182 124.236 283.323 129.406C283.307 129.514 283.261 129.653 283.215 129.792C282.279 132.4 277.059 136.228 269.167 140.117L275.999 126.752Z" fill="url(#paint11_linear_195_3815)"/>
<path opacity="0.2" d="M242.76 153.321L242.76 144.518L243.777 153.321L242.76 153.321ZM287.872 153.321L287.872 144.518L286.855 153.321L287.872 153.321Z" fill="black"/>
<defs>
<linearGradient id="paint0_linear_195_3815" x1="116.63" y1="-24.45" x2="116.63" y2="326" gradientUnits="userSpaceOnUse">
<stop stop-color="#FF8D74"/>
<stop offset="1" stop-color="#F75734"/>
</linearGradient>
<linearGradient id="paint1_linear_195_3815" x1="44" y1="-5.55" x2="44" y2="74" gradientUnits="userSpaceOnUse">
<stop stop-color="#FF8D74"/>
<stop offset="1" stop-color="#F75734"/>
</linearGradient>
<linearGradient id="paint2_linear_195_3815" x1="265.317" y1="123.428" x2="265.317" y2="131.117" gradientUnits="userSpaceOnUse">
<stop stop-color="#FEC797"/>
<stop offset="1" stop-color="#FFD9A9"/>
</linearGradient>
<linearGradient id="paint3_linear_195_3815" x1="283.554" y1="99.813" x2="278.844" y2="99.9668" gradientUnits="userSpaceOnUse">
<stop stop-color="#FEC797"/>
<stop offset="1" stop-color="#FFD9A9"/>
</linearGradient>
<linearGradient id="paint4_linear_195_3815" x1="250.889" y1="99.9887" x2="245.924" y2="99.6995" gradientUnits="userSpaceOnUse">
<stop stop-color="#FEC797"/>
<stop offset="1" stop-color="#FFD9A9"/>
</linearGradient>
<linearGradient id="paint5_linear_195_3815" x1="264.766" y1="87.1715" x2="264.766" y2="118.149" gradientUnits="userSpaceOnUse">
<stop stop-color="#FEC797"/>
<stop offset="1" stop-color="#FFD9A9"/>
</linearGradient>
<linearGradient id="paint6_linear_195_3815" x1="248.812" y1="127.299" x2="248.812" y2="153.321" gradientUnits="userSpaceOnUse">
<stop stop-color="#FF8D74"/>
<stop offset="1" stop-color="#F75734"/>
</linearGradient>
<linearGradient id="paint7_linear_195_3815" x1="281.27" y1="127.299" x2="281.27" y2="153.321" gradientUnits="userSpaceOnUse">
<stop stop-color="#FF8D74"/>
<stop offset="1" stop-color="#F75734"/>
</linearGradient>
<linearGradient id="paint8_linear_195_3815" x1="275.219" y1="118.579" x2="275.219" y2="143.418" gradientUnits="userSpaceOnUse">
<stop stop-color="#FF8D74"/>
<stop offset="1" stop-color="#F75734"/>
</linearGradient>
<linearGradient id="paint9_linear_195_3815" x1="254.313" y1="118.579" x2="254.313" y2="143.418" gradientUnits="userSpaceOnUse">
<stop stop-color="#FF8D74"/>
<stop offset="1" stop-color="#F75734"/>
</linearGradient>
<linearGradient id="paint10_linear_195_3815" x1="253.213" y1="120.009" x2="253.213" y2="140.117" gradientUnits="userSpaceOnUse">
<stop stop-color="#FF8D74"/>
<stop offset="1" stop-color="#F75734"/>
</linearGradient>
<linearGradient id="paint11_linear_195_3815" x1="276.319" y1="120.009" x2="276.319" y2="140.117" gradientUnits="userSpaceOnUse">
<stop stop-color="#FF8D74"/>
<stop offset="1" stop-color="#F75734"/>
</linearGradient>
</defs>
</svg>
