<svg width="231" height="58" viewBox="0 0 231 58" fill="none" xmlns="http://www.w3.org/2000/svg">
<path d="M9.55922 25.288C4.44722 25.288 1.13522 21.736 1.13522 16.24C1.13522 10.792 4.56722 7.168 9.70322 7.168C13.8552 7.168 16.9512 9.592 17.5512 13.36H14.3112C13.7112 11.32 11.9592 10.12 9.63122 10.12C6.39122 10.12 4.35122 12.472 4.35122 16.216C4.35122 19.936 6.41522 22.336 9.63122 22.336C12.0072 22.336 13.8312 21.088 14.4072 19.144H17.5992C16.9272 22.84 13.7112 25.288 9.55922 25.288ZM27.3622 13.096V15.808H26.2822C24.1702 15.808 22.8502 16.936 22.8502 19.24V25H19.9222V13.168H22.6822L22.8502 14.896C23.3542 13.72 24.4822 12.928 26.0662 12.928C26.4742 12.928 26.8822 12.976 27.3622 13.096ZM34.2496 25.312C30.7216 25.312 28.2496 22.744 28.2496 19.072C28.2496 15.352 30.6736 12.784 34.1536 12.784C37.7056 12.784 39.9616 15.16 39.9616 18.856V19.744L31.0336 19.768C31.2496 21.856 32.3536 22.912 34.2976 22.912C35.9056 22.912 36.9616 22.288 37.2976 21.16H40.0096C39.5056 23.752 37.3456 25.312 34.2496 25.312ZM34.1776 15.184C32.4496 15.184 31.3936 16.12 31.1056 17.896H37.0576C37.0576 16.264 35.9296 15.184 34.1776 15.184ZM45.7158 25.312C43.1958 25.312 41.6598 23.848 41.6598 21.616C41.6598 19.432 43.2438 18.064 46.0518 17.848L49.6038 17.584V17.32C49.6038 15.712 48.6438 15.064 47.1558 15.064C45.4278 15.064 44.4678 15.784 44.4678 17.032H41.9718C41.9718 14.464 44.0838 12.784 47.2998 12.784C50.4918 12.784 52.4598 14.512 52.4598 17.8V25H49.8918L49.6758 23.248C49.1718 24.472 47.5638 25.312 45.7158 25.312ZM46.6758 23.104C48.4758 23.104 49.6278 22.024 49.6278 20.2V19.576L47.1558 19.768C45.3318 19.936 44.6358 20.536 44.6358 21.496C44.6358 22.576 45.3558 23.104 46.6758 23.104ZM59.2042 25H56.2762V15.592H53.9962V13.144H56.2762V9.448H59.2042V13.144H61.5082V15.592H59.2042V25ZM68.5152 25.312C64.9872 25.312 62.5152 22.744 62.5152 19.072C62.5152 15.352 64.9392 12.784 68.4192 12.784C71.9712 12.784 74.2272 15.16 74.2272 18.856V19.744L65.2992 19.768C65.5152 21.856 66.6192 22.912 68.5632 22.912C70.1712 22.912 71.2272 22.288 71.5632 21.16H74.2752C73.7712 23.752 71.6112 25.312 68.5152 25.312ZM68.4432 15.184C66.7152 15.184 65.6592 16.12 65.3712 17.896H71.3232C71.3232 16.264 70.1952 15.184 68.4432 15.184ZM87.6953 18.088L81.7673 7.456H85.1993L88.6553 13.84C88.9193 14.32 89.0873 14.704 89.2793 15.136C89.4953 14.704 89.5913 14.416 89.9033 13.84L93.3353 7.456H96.6713L90.7673 18.088V25H87.6953V18.088ZM95.234 19.048C95.234 15.352 97.898 12.808 101.57 12.808C105.242 12.808 107.906 15.352 107.906 19.048C107.906 22.744 105.242 25.288 101.57 25.288C97.898 25.288 95.234 22.744 95.234 19.048ZM98.162 19.048C98.162 21.208 99.554 22.672 101.57 22.672C103.586 22.672 104.978 21.208 104.978 19.048C104.978 16.888 103.586 15.424 101.57 15.424C99.554 15.424 98.162 16.888 98.162 19.048ZM117.986 13.144H120.914V25H118.202L117.986 23.416C117.266 24.544 115.73 25.312 114.146 25.312C111.41 25.312 109.802 23.464 109.802 20.56V13.144H112.73V19.528C112.73 21.784 113.618 22.696 115.25 22.696C117.098 22.696 117.986 21.616 117.986 19.36V13.144ZM131.378 13.096V15.808H130.298C128.186 15.808 126.866 16.936 126.866 19.24V25H123.938V13.168H126.698L126.866 14.896C127.37 13.72 128.498 12.928 130.082 12.928C130.49 12.928 130.898 12.976 131.378 13.096ZM141.772 25H138.58L144.916 7.456H148.06L154.396 25H151.156L149.74 20.944H143.188L141.772 25ZM146.092 12.688L144.1 18.352H148.852L146.836 12.688C146.692 12.232 146.524 11.704 146.476 11.344C146.404 11.68 146.26 12.208 146.092 12.688ZM154.929 19.048C154.929 15.376 157.353 12.784 160.857 12.784C164.097 12.784 166.305 14.584 166.617 17.44H163.689C163.353 16.096 162.369 15.4 160.977 15.4C159.105 15.4 157.857 16.816 157.857 19.048C157.857 21.28 159.009 22.672 160.881 22.672C162.345 22.672 163.377 21.952 163.689 20.656H166.641C166.281 23.416 163.977 25.312 160.881 25.312C157.281 25.312 154.929 22.816 154.929 19.048ZM168.125 19.048C168.125 15.376 170.549 12.784 174.053 12.784C177.293 12.784 179.501 14.584 179.813 17.44H176.885C176.549 16.096 175.565 15.4 174.173 15.4C172.301 15.4 171.053 16.816 171.053 19.048C171.053 21.28 172.205 22.672 174.077 22.672C175.541 22.672 176.573 21.952 176.885 20.656H179.837C179.477 23.416 177.173 25.312 174.077 25.312C170.477 25.312 168.125 22.816 168.125 19.048ZM181.32 19.048C181.32 15.352 183.984 12.808 187.656 12.808C191.328 12.808 193.992 15.352 193.992 19.048C193.992 22.744 191.328 25.288 187.656 25.288C183.984 25.288 181.32 22.744 181.32 19.048ZM184.248 19.048C184.248 21.208 185.64 22.672 187.656 22.672C189.672 22.672 191.064 21.208 191.064 19.048C191.064 16.888 189.672 15.424 187.656 15.424C185.64 15.424 184.248 16.888 184.248 19.048ZM204.072 13.144H207V25H204.288L204.072 23.416C203.352 24.544 201.816 25.312 200.232 25.312C197.496 25.312 195.888 23.464 195.888 20.56V13.144H198.816V19.528C198.816 21.784 199.704 22.696 201.336 22.696C203.184 22.696 204.072 21.616 204.072 19.36V13.144ZM212.952 25H210.024V13.144H212.736L212.976 14.68C213.72 13.48 215.16 12.784 216.768 12.784C219.744 12.784 221.28 14.632 221.28 17.704V25H218.352V18.4C218.352 16.408 217.368 15.448 215.856 15.448C214.056 15.448 212.952 16.696 212.952 18.616V25ZM228.189 25H225.261V15.592H222.981V13.144H225.261V9.448H228.189V13.144H230.493V15.592H228.189V25Z" fill="#F65734"/>
<path opacity="0.4" d="M29.7081 41.544V51.944H34.9721V53H28.5561V41.544H29.7081ZM39.5484 53.192C37.2764 53.192 35.7564 51.56 35.7564 49.128C35.7564 46.712 37.2604 45.048 39.4684 45.048C41.5644 45.048 42.9884 46.536 42.9884 48.728V49.272H36.8284C36.9084 51.16 37.9004 52.248 39.5644 52.248C40.8284 52.248 41.6444 51.704 41.9324 50.68H42.9884C42.5724 52.312 41.3724 53.192 39.5484 53.192ZM39.4684 45.992C38.0124 45.992 37.0524 46.952 36.8604 48.472H41.8844C41.8844 46.984 40.9244 45.992 39.4684 45.992ZM46.4514 53H45.3634V46.184H43.8114V45.256H45.3634V42.808H46.4514V45.256H48.0034V46.184H46.4514V53ZM51.2331 42.568C51.2331 43.576 50.4971 44.424 49.5051 44.568V43.976C50.0651 43.864 50.4811 43.464 50.4811 43.016C50.3851 43.08 50.2411 43.112 50.0491 43.112C49.6331 43.112 49.2651 42.808 49.2651 42.264C49.2651 41.72 49.6491 41.32 50.2091 41.32C50.7531 41.32 51.2331 41.784 51.2331 42.568ZM52.0038 50.824H53.0598C53.0598 51.72 53.7318 52.28 54.8198 52.28C56.0198 52.28 56.7238 51.768 56.7238 50.936C56.7238 50.296 56.4038 49.928 55.4918 49.704L54.1638 49.368C52.8198 49.032 52.1638 48.328 52.1638 47.272C52.1638 45.912 53.2998 45.048 54.9638 45.048C56.5958 45.048 57.6518 45.944 57.6998 47.384H56.6278C56.5958 46.488 55.9718 45.96 54.9318 45.96C53.8438 45.96 53.2358 46.424 53.2358 47.256C53.2358 47.848 53.6518 48.264 54.4998 48.472L55.8278 48.808C57.1718 49.144 57.7798 49.768 57.7798 50.888C57.7798 52.28 56.5958 53.192 54.8358 53.192C53.0918 53.192 52.0038 52.264 52.0038 50.824ZM63.3788 50.824H64.4348C64.4348 51.72 65.1068 52.28 66.1948 52.28C67.3948 52.28 68.0988 51.768 68.0988 50.936C68.0988 50.296 67.7788 49.928 66.8668 49.704L65.5388 49.368C64.1948 49.032 63.5388 48.328 63.5388 47.272C63.5388 45.912 64.6748 45.048 66.3388 45.048C67.9708 45.048 69.0268 45.944 69.0748 47.384H68.0028C67.9708 46.488 67.3468 45.96 66.3068 45.96C65.2188 45.96 64.6108 46.424 64.6108 47.256C64.6108 47.848 65.0268 48.264 65.8748 48.472L67.2028 48.808C68.5468 49.144 69.1548 49.768 69.1548 50.888C69.1548 52.28 67.9708 53.192 66.2108 53.192C64.4668 53.192 63.3788 52.264 63.3788 50.824ZM72.7483 53H71.6603V46.184H70.1083V45.256H71.6603V42.808H72.7483V45.256H74.3003V46.184H72.7483V53ZM77.8369 53.192C76.1889 53.192 75.2129 52.264 75.2129 50.904C75.2129 49.48 76.3009 48.584 78.1089 48.44L80.6689 48.232V47.976C80.6689 46.456 79.7569 45.976 78.6209 45.976C77.2769 45.976 76.4769 46.584 76.4769 47.624H75.4689C75.4689 46.056 76.7489 45.048 78.6529 45.048C80.4449 45.048 81.7569 45.944 81.7569 47.992V53H80.8289L80.6849 51.64C80.2049 52.616 79.1489 53.192 77.8369 53.192ZM78.0929 52.296C79.7249 52.296 80.6689 51.16 80.6689 49.48V49.064L78.3809 49.24C76.9249 49.368 76.3329 50.008 76.3329 50.872C76.3329 51.816 77.0369 52.296 78.0929 52.296ZM88.0203 45.16V46.152H87.4123C85.9883 46.152 85.0763 47.112 85.0763 48.584V53H83.9723V45.256H85.0123L85.0923 46.456C85.3963 45.624 86.2123 45.08 87.3003 45.08C87.5403 45.08 87.7483 45.096 88.0203 45.16ZM91.5764 53H90.4884V46.184H88.9364V45.256H90.4884V42.808H91.5764V45.256H93.1284V46.184H91.5764V53ZM99.5636 43.128C99.0996 43.128 98.7316 42.76 98.7316 42.312C98.7316 41.864 99.0996 41.48 99.5636 41.48C99.9956 41.48 100.38 41.864 100.38 42.312C100.38 42.76 99.9956 43.128 99.5636 43.128ZM96.9396 56.392L97.1476 55.384C97.4676 55.464 97.6596 55.496 97.8996 55.496C98.6676 55.496 99.0036 55.048 99.0036 54.104V45.256H100.108V54.168C100.108 55.64 99.3396 56.536 97.9796 56.536C97.5636 56.536 97.3396 56.504 96.9396 56.392ZM101.866 49.128C101.866 46.76 103.53 45.048 105.802 45.048C108.074 45.048 109.738 46.76 109.738 49.128C109.738 51.48 108.074 53.192 105.802 53.192C103.53 53.192 101.866 51.48 101.866 49.128ZM102.986 49.112C102.986 50.936 104.138 52.2 105.802 52.2C107.45 52.2 108.618 50.936 108.618 49.112C108.618 47.32 107.45 46.04 105.802 46.04C104.138 46.04 102.986 47.32 102.986 49.112ZM116.756 45.256H117.86V53H116.9L116.756 51.688C116.324 52.584 115.252 53.192 114.036 53.192C112.212 53.192 111.22 51.944 111.22 50.056V45.24H112.34V49.704C112.34 51.544 113.156 52.2 114.388 52.2C115.876 52.2 116.756 51.208 116.756 49.368V45.256ZM124.208 45.16V46.152H123.6C122.176 46.152 121.264 47.112 121.264 48.584V53H120.16V45.256H121.2L121.28 46.456C121.584 45.624 122.4 45.08 123.488 45.08C123.728 45.08 123.936 45.096 124.208 45.16ZM126.779 53H125.675V45.256H126.635L126.795 46.6C127.307 45.608 128.331 45.048 129.451 45.048C131.579 45.048 132.459 46.312 132.459 48.264V53H131.355V48.504C131.355 46.696 130.539 46.056 129.259 46.056C127.675 46.056 126.779 47.208 126.779 48.952V53ZM137.908 53.192C135.636 53.192 134.116 51.56 134.116 49.128C134.116 46.712 135.62 45.048 137.828 45.048C139.924 45.048 141.348 46.536 141.348 48.728V49.272H135.188C135.268 51.16 136.26 52.248 137.924 52.248C139.188 52.248 140.004 51.704 140.292 50.68H141.348C140.932 52.312 139.732 53.192 137.908 53.192ZM137.828 45.992C136.372 45.992 135.412 46.952 135.22 48.472H140.244C140.244 46.984 139.284 45.992 137.828 45.992ZM142.141 56.376V55.464H142.989C143.661 55.464 144.333 55.416 144.717 54.376L145.053 53.464L141.917 45.256H143.085L145.581 52.008L148.029 45.256H149.165L145.613 54.776C145.165 55.992 144.413 56.488 143.309 56.488C142.845 56.488 142.493 56.456 142.141 56.376ZM156.526 53L153.966 45.256H155.102L156.622 49.928C156.798 50.44 156.942 50.968 157.102 51.592C157.23 50.968 157.486 50.184 157.566 49.928L159.102 45.256H160.238L161.758 49.928C161.902 50.344 162.094 51.016 162.238 51.592C162.398 50.952 162.43 50.76 162.702 49.928L164.238 45.256H165.39L162.766 53H161.694L160.094 48.136C159.902 47.56 159.774 47.08 159.678 46.616C159.566 47.032 159.438 47.496 159.23 48.136L157.63 53H156.526ZM167.313 43.128C166.865 43.128 166.497 42.76 166.497 42.312C166.497 41.864 166.865 41.48 167.313 41.48C167.761 41.48 168.145 41.864 168.145 42.312C168.145 42.76 167.761 43.128 167.313 43.128ZM166.769 53V45.256H167.873V53H166.769ZM171.951 53H170.863V46.184H169.311V45.256H170.863V42.808H171.951V45.256H173.503V46.184H171.951V53ZM176.045 52.984H174.941V41.336H176.045V46.6C176.541 45.672 177.485 45.048 178.781 45.048C180.813 45.048 181.725 46.312 181.725 48.264V53H180.621V48.504C180.621 46.696 179.773 46.056 178.573 46.056C176.909 46.056 176.045 47.288 176.045 48.776V52.984ZM193.803 45.256H194.907V53H193.947L193.803 51.688C193.371 52.584 192.299 53.192 191.083 53.192C189.259 53.192 188.267 51.944 188.267 50.056V45.24H189.387V49.704C189.387 51.544 190.203 52.2 191.435 52.2C192.923 52.2 193.803 51.208 193.803 49.368V45.256ZM196.394 50.824H197.45C197.45 51.72 198.122 52.28 199.21 52.28C200.41 52.28 201.114 51.768 201.114 50.936C201.114 50.296 200.794 49.928 199.882 49.704L198.554 49.368C197.21 49.032 196.554 48.328 196.554 47.272C196.554 45.912 197.69 45.048 199.354 45.048C200.986 45.048 202.042 45.944 202.09 47.384H201.018C200.986 46.488 200.362 45.96 199.322 45.96C198.234 45.96 197.626 46.424 197.626 47.256C197.626 47.848 198.042 48.264 198.89 48.472L200.218 48.808C201.562 49.144 202.17 49.768 202.17 50.888C202.17 52.28 200.986 53.192 199.226 53.192C197.482 53.192 196.394 52.264 196.394 50.824Z" fill="#141111"/>
</svg>
