<svg width="330" height="64" viewBox="0 0 330 64" fill="none" xmlns="http://www.w3.org/2000/svg">
<path d="M26.5709 25.288C21.4589 25.288 18.1469 21.736 18.1469 16.24C18.1469 10.792 21.5789 7.168 26.7149 7.168C30.8669 7.168 33.9629 9.592 34.5629 13.36H31.3229C30.7229 11.32 28.9709 10.12 26.6429 10.12C23.4029 10.12 21.3629 12.472 21.3629 16.216C21.3629 19.936 23.4269 22.336 26.6429 22.336C29.0189 22.336 30.8429 21.088 31.4189 19.144H34.6109C33.9389 22.84 30.7229 25.288 26.5709 25.288ZM44.3739 13.096V15.808H43.2939C41.1819 15.808 39.8619 16.936 39.8619 19.24V25H36.9339V13.168H39.6939L39.8619 14.896C40.3659 13.72 41.4939 12.928 43.0779 12.928C43.4859 12.928 43.8939 12.976 44.3739 13.096ZM51.2613 25.312C47.7333 25.312 45.2613 22.744 45.2613 19.072C45.2613 15.352 47.6853 12.784 51.1653 12.784C54.7173 12.784 56.9733 15.16 56.9733 18.856V19.744L48.0453 19.768C48.2613 21.856 49.3653 22.912 51.3093 22.912C52.9173 22.912 53.9733 22.288 54.3093 21.16H57.0213C56.5173 23.752 54.3573 25.312 51.2613 25.312ZM51.1893 15.184C49.4613 15.184 48.4053 16.12 48.1173 17.896H54.0693C54.0693 16.264 52.9413 15.184 51.1893 15.184ZM62.7275 25.312C60.2075 25.312 58.6715 23.848 58.6715 21.616C58.6715 19.432 60.2555 18.064 63.0635 17.848L66.6155 17.584V17.32C66.6155 15.712 65.6555 15.064 64.1675 15.064C62.4395 15.064 61.4795 15.784 61.4795 17.032H58.9835C58.9835 14.464 61.0955 12.784 64.3115 12.784C67.5035 12.784 69.4715 14.512 69.4715 17.8V25H66.9035L66.6875 23.248C66.1835 24.472 64.5755 25.312 62.7275 25.312ZM63.6875 23.104C65.4875 23.104 66.6395 22.024 66.6395 20.2V19.576L64.1675 19.768C62.3435 19.936 61.6475 20.536 61.6475 21.496C61.6475 22.576 62.3675 23.104 63.6875 23.104ZM76.2159 25H73.2879V15.592H71.0079V13.144H73.2879V9.448H76.2159V13.144H78.5199V15.592H76.2159V25ZM85.5269 25.312C81.9989 25.312 79.5269 22.744 79.5269 19.072C79.5269 15.352 81.9509 12.784 85.4309 12.784C88.9829 12.784 91.2389 15.16 91.2389 18.856V19.744L82.3109 19.768C82.5269 21.856 83.6309 22.912 85.5749 22.912C87.1829 22.912 88.2389 22.288 88.5749 21.16H91.2869C90.7829 23.752 88.6229 25.312 85.5269 25.312ZM85.4549 15.184C83.7269 15.184 82.6709 16.12 82.3829 17.896H88.3349C88.3349 16.264 87.2069 15.184 85.4549 15.184ZM99.0191 30.496V28.048H100.771C101.923 28.048 102.643 27.784 103.147 26.392L103.483 25.504L98.7071 13.144H101.803L104.851 21.784L108.067 13.144H111.091L105.283 27.64C104.395 29.848 103.147 30.76 101.203 30.76C100.387 30.76 99.6671 30.664 99.0191 30.496ZM111.519 19.048C111.519 15.352 114.183 12.808 117.855 12.808C121.527 12.808 124.191 15.352 124.191 19.048C124.191 22.744 121.527 25.288 117.855 25.288C114.183 25.288 111.519 22.744 111.519 19.048ZM114.447 19.048C114.447 21.208 115.839 22.672 117.855 22.672C119.871 22.672 121.263 21.208 121.263 19.048C121.263 16.888 119.871 15.424 117.855 15.424C115.839 15.424 114.447 16.888 114.447 19.048ZM134.271 13.144H137.199V25H134.487L134.271 23.416C133.551 24.544 132.015 25.312 130.431 25.312C127.695 25.312 126.087 23.464 126.087 20.56V13.144H129.015V19.528C129.015 21.784 129.903 22.696 131.535 22.696C133.383 22.696 134.271 21.616 134.271 19.36V13.144ZM147.663 13.096V15.808H146.583C144.471 15.808 143.151 16.936 143.151 19.24V25H140.223V13.168H142.983L143.151 14.896C143.655 13.72 144.783 12.928 146.367 12.928C146.775 12.928 147.183 12.976 147.663 13.096ZM159.042 25H156.114V13.144H158.826L159.066 14.68C159.81 13.48 161.25 12.784 162.858 12.784C165.834 12.784 167.37 14.632 167.37 17.704V25H164.442V18.4C164.442 16.408 163.458 15.448 161.946 15.448C160.146 15.448 159.042 16.696 159.042 18.616V25ZM175.55 25.312C172.022 25.312 169.55 22.744 169.55 19.072C169.55 15.352 171.974 12.784 175.454 12.784C179.006 12.784 181.262 15.16 181.262 18.856V19.744L172.334 19.768C172.55 21.856 173.654 22.912 175.598 22.912C177.206 22.912 178.262 22.288 178.598 21.16H181.31C180.806 23.752 178.646 25.312 175.55 25.312ZM175.478 15.184C173.75 15.184 172.694 16.12 172.406 17.896H178.358C178.358 16.264 177.23 15.184 175.478 15.184ZM185.706 25L181.866 13.144H184.914L186.474 18.232C186.738 19.168 186.978 20.2 187.194 21.304C187.41 20.152 187.626 19.408 188.01 18.232L189.642 13.144H192.618L194.202 18.232C194.346 18.712 194.826 20.488 194.97 21.28C195.162 20.392 195.546 18.976 195.762 18.232L197.346 13.144H200.442L196.338 25H193.602L191.97 19.864C191.49 18.304 191.226 17.176 191.13 16.576C191.01 17.128 190.794 17.968 190.194 19.912L188.562 25H185.706ZM208.684 30.496V13.144H211.396L211.588 14.944C212.308 13.576 213.868 12.784 215.668 12.784C219.004 12.784 221.212 15.208 221.212 18.928C221.212 22.624 219.196 25.312 215.668 25.312C213.892 25.312 212.356 24.616 211.612 23.416V30.496H208.684ZM211.636 19.072C211.636 21.208 212.956 22.672 214.972 22.672C217.036 22.672 218.26 21.184 218.26 19.072C218.26 16.96 217.036 15.448 214.972 15.448C212.956 15.448 211.636 16.936 211.636 19.072ZM227.071 25.312C224.551 25.312 223.015 23.848 223.015 21.616C223.015 19.432 224.599 18.064 227.407 17.848L230.959 17.584V17.32C230.959 15.712 229.999 15.064 228.511 15.064C226.783 15.064 225.823 15.784 225.823 17.032H223.327C223.327 14.464 225.439 12.784 228.655 12.784C231.847 12.784 233.815 14.512 233.815 17.8V25H231.247L231.031 23.248C230.527 24.472 228.919 25.312 227.071 25.312ZM228.031 23.104C229.831 23.104 230.983 22.024 230.983 20.2V19.576L228.511 19.768C226.687 19.936 225.991 20.536 225.991 21.496C225.991 22.576 226.711 23.104 228.031 23.104ZM235.78 21.4H238.564C238.588 22.432 239.356 23.08 240.7 23.08C242.068 23.08 242.812 22.528 242.812 21.664C242.812 21.064 242.5 20.632 241.444 20.392L239.308 19.888C237.172 19.408 236.14 18.4 236.14 16.504C236.14 14.176 238.108 12.784 240.844 12.784C243.508 12.784 245.308 14.32 245.332 16.624H242.548C242.524 15.616 241.852 14.968 240.724 14.968C239.572 14.968 238.9 15.496 238.9 16.384C238.9 17.056 239.428 17.488 240.436 17.728L242.572 18.232C244.564 18.688 245.572 19.6 245.572 21.424C245.572 23.824 243.532 25.312 240.604 25.312C237.652 25.312 235.78 23.728 235.78 21.4ZM246.889 21.4H249.673C249.697 22.432 250.465 23.08 251.809 23.08C253.177 23.08 253.921 22.528 253.921 21.664C253.921 21.064 253.609 20.632 252.553 20.392L250.417 19.888C248.281 19.408 247.249 18.4 247.249 16.504C247.249 14.176 249.217 12.784 251.953 12.784C254.617 12.784 256.417 14.32 256.441 16.624H253.657C253.633 15.616 252.961 14.968 251.833 14.968C250.681 14.968 250.009 15.496 250.009 16.384C250.009 17.056 250.537 17.488 251.545 17.728L253.681 18.232C255.673 18.688 256.681 19.6 256.681 21.424C256.681 23.824 254.641 25.312 251.713 25.312C248.761 25.312 246.889 23.728 246.889 21.4ZM261.198 25L257.358 13.144H260.406L261.966 18.232C262.23 19.168 262.47 20.2 262.686 21.304C262.902 20.152 263.118 19.408 263.502 18.232L265.134 13.144H268.11L269.694 18.232C269.838 18.712 270.318 20.488 270.462 21.28C270.654 20.392 271.038 18.976 271.254 18.232L272.838 13.144H275.934L271.83 25H269.094L267.462 19.864C266.982 18.304 266.718 17.176 266.622 16.576C266.502 17.128 266.286 17.968 265.686 19.912L264.054 25H261.198ZM276.425 19.048C276.425 15.352 279.089 12.808 282.761 12.808C286.433 12.808 289.097 15.352 289.097 19.048C289.097 22.744 286.433 25.288 282.761 25.288C279.089 25.288 276.425 22.744 276.425 19.048ZM279.353 19.048C279.353 21.208 280.745 22.672 282.761 22.672C284.777 22.672 286.169 21.208 286.169 19.048C286.169 16.888 284.777 15.424 282.761 15.424C280.745 15.424 279.353 16.888 279.353 19.048ZM298.858 13.096V15.808H297.778C295.666 15.808 294.346 16.936 294.346 19.24V25H291.418V13.168H294.178L294.346 14.896C294.85 13.72 295.978 12.928 297.562 12.928C297.97 12.928 298.378 12.976 298.858 13.096ZM305.314 25.312C301.882 25.312 299.746 22.792 299.746 19.12C299.746 15.424 301.906 12.784 305.482 12.784C307.138 12.784 308.602 13.48 309.346 14.656V7.144H312.25V25H309.562L309.37 23.152C308.65 24.52 307.114 25.312 305.314 25.312ZM305.962 22.624C308.002 22.624 309.322 21.16 309.322 19.024C309.322 16.888 308.002 15.4 305.962 15.4C303.922 15.4 302.674 16.912 302.674 19.024C302.674 21.136 303.922 22.624 305.962 22.624Z" fill="#141111"/>
<path opacity="0.5" d="M57.3909 53.728H53.9189V58H53.1509V46.64H57.3909C59.5509 46.64 60.8789 48.048 60.8789 50.16C60.8789 52.16 59.5349 53.728 57.3909 53.728ZM57.3589 47.344H53.9189V53.024H57.2629C59.0389 53.024 60.0949 51.824 60.0949 50.128C60.0949 48.416 59.0229 47.344 57.3589 47.344ZM63.3676 58H62.6316V46.448H63.3676V58ZM68.9844 58.192C66.7604 58.192 65.2884 56.592 65.2884 54.176C65.2884 51.776 66.7444 50.128 68.8884 50.128C70.8884 50.128 72.2644 51.568 72.2644 53.664V54.176H66.0244C66.0884 56.272 67.1764 57.52 68.9844 57.52C70.3444 57.52 71.2084 56.928 71.5124 55.792H72.2644C71.8164 57.376 70.7124 58.192 68.9844 58.192ZM68.8884 50.8C67.3204 50.8 66.2164 51.888 66.0404 53.568H71.5124C71.5124 51.904 70.4724 50.8 68.8884 50.8ZM76.2123 58.192C74.5643 58.192 73.6203 57.28 73.6203 55.968C73.6203 54.56 74.7083 53.664 76.5003 53.52L79.1403 53.312V53.024C79.1403 51.296 78.1163 50.8 76.9003 50.8C75.4763 50.8 74.6283 51.472 74.6283 52.592H73.8923C73.8923 51.088 75.1083 50.128 76.9163 50.128C78.5643 50.128 79.8763 50.928 79.8763 52.912V58H79.2843L79.1403 56.56C78.6123 57.6 77.5403 58.192 76.2123 58.192ZM76.3083 57.536C78.1163 57.536 79.1403 56.224 79.1403 54.336V53.92L76.5643 54.128C75.0123 54.256 74.3563 55.008 74.3563 55.952C74.3563 57.008 75.1563 57.536 76.3083 57.536ZM81.5202 55.92H82.2402C82.2402 56.912 82.9762 57.52 84.1602 57.52C85.4562 57.52 86.2562 56.944 86.2562 56C86.2562 55.248 85.8882 54.864 84.8962 54.608L83.6002 54.272C82.2882 53.936 81.6642 53.2 81.6642 52.256C81.6642 50.976 82.7202 50.128 84.3042 50.128C85.8882 50.128 86.8802 50.976 86.9282 52.368H86.2082C86.1602 51.376 85.4562 50.8 84.3042 50.8C83.0722 50.8 82.4002 51.312 82.4002 52.256C82.4002 52.912 82.8482 53.376 83.7762 53.616L85.0562 53.952C86.4002 54.304 86.9922 54.928 86.9922 56C86.9922 57.312 85.8722 58.192 84.1922 58.192C82.5602 58.192 81.5202 57.312 81.5202 55.92ZM92.0782 58.192C89.8542 58.192 88.3822 56.592 88.3822 54.176C88.3822 51.776 89.8382 50.128 91.9822 50.128C93.9822 50.128 95.3582 51.568 95.3582 53.664V54.176H89.1182C89.1822 56.272 90.2702 57.52 92.0782 57.52C93.4382 57.52 94.3022 56.928 94.6062 55.792H95.3582C94.9102 57.376 93.8062 58.192 92.0782 58.192ZM91.9822 50.8C90.4142 50.8 89.3102 51.888 89.1342 53.568H94.6062C94.6062 51.904 93.5662 50.8 91.9822 50.8ZM101.117 54.192C101.117 51.76 102.557 50.128 104.765 50.128C106.413 50.128 107.645 51.104 107.997 52.56H107.245C106.925 51.424 105.901 50.784 104.765 50.784C103.053 50.784 101.837 52.096 101.837 54.176C101.837 56.16 102.957 57.52 104.669 57.52C105.901 57.52 106.925 56.816 107.277 55.776H108.029C107.613 57.232 106.301 58.192 104.669 58.192C102.557 58.192 101.117 56.592 101.117 54.192ZM113.466 50.208V50.848H112.89C111.466 50.848 110.538 51.888 110.538 53.328V58H109.802V50.32H110.49L110.554 51.552C110.858 50.688 111.706 50.128 112.794 50.128C113.034 50.128 113.21 50.144 113.466 50.208ZM117.813 58.192C115.589 58.192 114.117 56.592 114.117 54.176C114.117 51.776 115.573 50.128 117.717 50.128C119.717 50.128 121.093 51.568 121.093 53.664V54.176H114.853C114.917 56.272 116.005 57.52 117.813 57.52C119.173 57.52 120.037 56.928 120.341 55.792H121.093C120.645 57.376 119.541 58.192 117.813 58.192ZM117.717 50.8C116.149 50.8 115.045 51.888 114.869 53.568H120.341C120.341 51.904 119.301 50.8 117.717 50.8ZM125.04 58.192C123.392 58.192 122.448 57.28 122.448 55.968C122.448 54.56 123.536 53.664 125.328 53.52L127.968 53.312V53.024C127.968 51.296 126.944 50.8 125.728 50.8C124.304 50.8 123.456 51.472 123.456 52.592H122.72C122.72 51.088 123.936 50.128 125.744 50.128C127.392 50.128 128.704 50.928 128.704 52.912V58H128.112L127.968 56.56C127.44 57.6 126.368 58.192 125.04 58.192ZM125.136 57.536C126.944 57.536 127.968 56.224 127.968 54.336V53.92L125.392 54.128C123.84 54.256 123.184 55.008 123.184 55.952C123.184 57.008 123.984 57.536 125.136 57.536ZM132.272 58H131.536V50.96H129.984V50.32H131.536V47.888H132.272V50.32H133.824V50.96H132.272V58ZM138.406 58.192C136.182 58.192 134.71 56.592 134.71 54.176C134.71 51.776 136.166 50.128 138.31 50.128C140.31 50.128 141.686 51.568 141.686 53.664V54.176H135.446C135.51 56.272 136.598 57.52 138.406 57.52C139.766 57.52 140.63 56.928 140.934 55.792H141.686C141.238 57.376 140.134 58.192 138.406 58.192ZM138.31 50.8C136.742 50.8 135.638 51.888 135.462 53.568H140.934C140.934 51.904 139.894 50.8 138.31 50.8ZM147.189 61.248V60.656H147.909C148.533 60.656 149.301 60.656 149.701 59.568L150.085 58.528L146.965 50.32H147.733L150.437 57.52L153.029 50.32H153.781L150.373 59.776C149.973 60.88 149.269 61.344 148.229 61.344C147.813 61.344 147.509 61.312 147.189 61.248ZM154.351 54.16C154.351 51.84 155.967 50.128 158.159 50.128C160.351 50.128 161.967 51.84 161.967 54.16C161.967 56.48 160.351 58.192 158.159 58.192C155.967 58.192 154.351 56.48 154.351 54.16ZM155.103 54.16C155.103 56.128 156.367 57.52 158.159 57.52C159.951 57.52 161.215 56.128 161.215 54.16C161.215 52.192 159.951 50.8 158.159 50.8C156.367 50.8 155.103 52.192 155.103 54.16ZM169.102 50.32H169.838V58H169.246L169.102 56.576C168.686 57.536 167.598 58.192 166.318 58.192C164.478 58.192 163.534 56.928 163.534 55.056V50.304H164.286V54.864C164.286 56.832 165.214 57.52 166.494 57.52C168.11 57.52 169.102 56.4 169.102 54.416V50.32ZM175.935 50.208V50.848H175.359C173.935 50.848 173.007 51.888 173.007 53.328V58H172.271V50.32H172.959L173.023 51.552C173.327 50.688 174.175 50.128 175.263 50.128C175.503 50.128 175.679 50.144 175.935 50.208ZM182.694 58H181.958V50.32H182.55L182.71 51.808C183.222 50.736 184.278 50.128 185.43 50.128C187.606 50.128 188.422 51.408 188.422 53.328V58H187.686V53.472C187.686 51.44 186.806 50.8 185.414 50.8C183.67 50.8 182.694 52.096 182.694 54.032V58ZM193.875 58.192C191.651 58.192 190.179 56.592 190.179 54.176C190.179 51.776 191.635 50.128 193.779 50.128C195.779 50.128 197.155 51.568 197.155 53.664V54.176H190.915C190.979 56.272 192.067 57.52 193.875 57.52C195.235 57.52 196.099 56.928 196.403 55.792H197.155C196.707 57.376 195.603 58.192 193.875 58.192ZM193.779 50.8C192.211 50.8 191.107 51.888 190.931 53.568H196.403C196.403 51.904 195.363 50.8 193.779 50.8ZM200.433 58L197.873 50.32H198.625L200.353 55.536C200.513 56 200.657 56.464 200.817 57.056C200.945 56.48 201.249 55.568 201.265 55.536L202.993 50.32H203.745L205.473 55.536C205.633 56 205.777 56.448 205.937 57.04C206.113 56.384 206.065 56.512 206.385 55.536L208.129 50.32H208.881L206.305 58H205.553L203.729 52.512C203.601 52.144 203.489 51.792 203.377 51.28C203.265 51.728 203.137 52.144 203.009 52.512L201.185 58H200.433ZM214.818 61.248V50.32H215.41L215.522 52.048C216.098 50.736 217.202 50.128 218.53 50.128C220.786 50.128 222.066 51.888 222.066 54.16C222.066 56.432 220.786 58.192 218.53 58.192C217.17 58.192 216.114 57.584 215.554 56.336V61.248H214.818ZM215.57 54.16C215.57 56.096 216.61 57.52 218.45 57.52C220.274 57.52 221.314 56.096 221.314 54.16C221.314 52.208 220.274 50.8 218.45 50.8C216.61 50.8 215.57 52.208 215.57 54.16ZM226.103 58.192C224.455 58.192 223.511 57.28 223.511 55.968C223.511 54.56 224.599 53.664 226.391 53.52L229.031 53.312V53.024C229.031 51.296 228.007 50.8 226.791 50.8C225.367 50.8 224.519 51.472 224.519 52.592H223.783C223.783 51.088 224.999 50.128 226.807 50.128C228.455 50.128 229.767 50.928 229.767 52.912V58H229.175L229.031 56.56C228.503 57.6 227.431 58.192 226.103 58.192ZM226.199 57.536C228.007 57.536 229.031 56.224 229.031 54.336V53.92L226.455 54.128C224.903 54.256 224.247 55.008 224.247 55.952C224.247 57.008 225.047 57.536 226.199 57.536ZM231.411 55.92H232.131C232.131 56.912 232.867 57.52 234.051 57.52C235.347 57.52 236.147 56.944 236.147 56C236.147 55.248 235.779 54.864 234.787 54.608L233.491 54.272C232.179 53.936 231.555 53.2 231.555 52.256C231.555 50.976 232.611 50.128 234.195 50.128C235.779 50.128 236.771 50.976 236.819 52.368H236.099C236.051 51.376 235.347 50.8 234.195 50.8C232.963 50.8 232.291 51.312 232.291 52.256C232.291 52.912 232.739 53.376 233.667 53.616L234.947 53.952C236.291 54.304 236.883 54.928 236.883 56C236.883 57.312 235.763 58.192 234.083 58.192C232.451 58.192 231.411 57.312 231.411 55.92ZM238.161 55.92H238.881C238.881 56.912 239.617 57.52 240.801 57.52C242.097 57.52 242.897 56.944 242.897 56C242.897 55.248 242.529 54.864 241.537 54.608L240.241 54.272C238.929 53.936 238.305 53.2 238.305 52.256C238.305 50.976 239.361 50.128 240.945 50.128C242.529 50.128 243.521 50.976 243.569 52.368H242.849C242.801 51.376 242.097 50.8 240.945 50.8C239.713 50.8 239.041 51.312 239.041 52.256C239.041 52.912 239.489 53.376 240.417 53.616L241.697 53.952C243.041 54.304 243.633 54.928 243.633 56C243.633 57.312 242.513 58.192 240.833 58.192C239.201 58.192 238.161 57.312 238.161 55.92ZM247.027 58L244.467 50.32H245.219L246.947 55.536C247.107 56 247.251 56.464 247.411 57.056C247.539 56.48 247.843 55.568 247.859 55.536L249.587 50.32H250.339L252.067 55.536C252.227 56 252.371 56.448 252.531 57.04C252.707 56.384 252.659 56.512 252.979 55.536L254.723 50.32H255.475L252.899 58H252.147L250.323 52.512C250.195 52.144 250.083 51.792 249.971 51.28C249.859 51.728 249.731 52.144 249.603 52.512L247.779 58H247.027ZM256.038 54.16C256.038 51.84 257.654 50.128 259.846 50.128C262.038 50.128 263.654 51.84 263.654 54.16C263.654 56.48 262.038 58.192 259.846 58.192C257.654 58.192 256.038 56.48 256.038 54.16ZM256.79 54.16C256.79 56.128 258.054 57.52 259.846 57.52C261.638 57.52 262.902 56.128 262.902 54.16C262.902 52.192 261.638 50.8 259.846 50.8C258.054 50.8 256.79 52.192 256.79 54.16ZM269.169 50.208V50.848H268.593C267.169 50.848 266.241 51.888 266.241 53.328V58H265.505V50.32H266.193L266.257 51.552C266.561 50.688 267.409 50.128 268.497 50.128C268.737 50.128 268.913 50.144 269.169 50.208ZM273.356 58.192C271.1 58.192 269.82 56.432 269.82 54.16C269.82 51.888 271.1 50.128 273.356 50.128C274.716 50.128 275.772 50.736 276.332 51.984V46.448H277.068V58H276.476L276.364 56.272C275.788 57.584 274.684 58.192 273.356 58.192ZM273.436 57.52C275.276 57.52 276.316 56.112 276.316 54.16C276.316 52.224 275.276 50.8 273.436 50.8C271.612 50.8 270.572 52.224 270.572 54.16C270.572 56.112 271.612 57.52 273.436 57.52Z" fill="#222222"/>
</svg>
