<svg width="326" height="104" viewBox="0 0 326 104" fill="none" xmlns="http://www.w3.org/2000/svg">
<g filter="url(#filter0_d_148_5574)">
<rect x="16" y="8" width="294" height="72" rx="16" fill="white" shape-rendering="crispEdges"/>
<g opacity="0.56" filter="url(#filter1_f_148_5574)">
<rect x="259" y="62" width="31" height="10" fill="#FF9446"/>
</g>
<path d="M32.704 28.52C32.704 26.6 34.24 25.336 36.544 25.336C38.608 25.336 39.968 26.488 40.144 28.408H38.976C38.848 27.112 37.968 26.376 36.528 26.376C34.912 26.376 33.856 27.208 33.856 28.504C33.856 29.512 34.448 30.152 35.648 30.456L37.616 30.936C39.408 31.368 40.336 32.392 40.336 33.944C40.336 35.928 38.8 37.192 36.432 37.192C34.208 37.192 32.704 36.024 32.56 34.152H33.744C33.808 35.352 34.864 36.136 36.432 36.136C38.112 36.136 39.184 35.32 39.184 34.008C39.184 32.984 38.608 32.312 37.376 32.024L35.44 31.544C33.648 31.112 32.704 30.088 32.704 28.52ZM43.9436 37H42.8556V30.184H41.3036V29.256H42.8556V26.808H43.9436V29.256H45.4956V30.184H43.9436V37ZM49.0323 37.192C47.3843 37.192 46.4083 36.264 46.4083 34.904C46.4083 33.48 47.4963 32.584 49.3043 32.44L51.8643 32.232V31.976C51.8643 30.456 50.9523 29.976 49.8163 29.976C48.4723 29.976 47.6723 30.584 47.6723 31.624H46.6643C46.6643 30.056 47.9443 29.048 49.8483 29.048C51.6403 29.048 52.9523 29.944 52.9523 31.992V37H52.0243L51.8803 35.64C51.4003 36.616 50.3443 37.192 49.0323 37.192ZM49.2883 36.296C50.9203 36.296 51.8643 35.16 51.8643 33.48V33.064L49.5763 33.24C48.1203 33.368 47.5283 34.008 47.5283 34.872C47.5283 35.816 48.2323 36.296 49.2883 36.296ZM56.2716 37H55.1676V29.256H56.1276L56.2556 30.36C56.6396 29.544 57.5036 29.048 58.5916 29.048C59.8076 29.048 60.7196 29.688 61.0876 30.696C61.4396 29.688 62.3836 29.048 63.6316 29.048C65.3116 29.048 66.4156 30.136 66.4156 31.928V37H65.3436V32.152C65.3436 30.824 64.6076 30.04 63.4236 30.04C62.1276 30.04 61.3596 31.016 61.3596 32.216V37H60.2716V32.136C60.2716 30.824 59.5196 30.056 58.3516 30.056C57.0556 30.056 56.2716 31.016 56.2716 32.2V37ZM68.6364 40.376V29.256H69.5964L69.7084 30.824C70.2524 29.624 71.3404 29.048 72.6364 29.048C74.8764 29.048 76.2204 30.76 76.2204 33.096C76.2204 35.432 74.9244 37.192 72.6364 37.192C71.3244 37.192 70.2844 36.632 69.7404 35.512V40.376H68.6364ZM69.7564 33.128C69.7564 34.904 70.7484 36.2 72.4444 36.2C74.1244 36.2 75.1004 34.904 75.1004 33.128C75.1004 31.336 74.1244 30.056 72.4444 30.056C70.7484 30.056 69.7564 31.336 69.7564 33.128ZM87.0256 32.792H83.8096V37H82.6576V25.544H87.0256C89.2336 25.544 90.6256 26.984 90.6256 29.144C90.6256 31.224 89.2176 32.792 87.0256 32.792ZM86.8656 26.584H83.8096V31.752H86.8016C88.4656 31.752 89.4256 30.696 89.4256 29.128C89.4256 27.544 88.4496 26.584 86.8656 26.584ZM94.1573 37.192C92.5093 37.192 91.5333 36.264 91.5333 34.904C91.5333 33.48 92.6213 32.584 94.4293 32.44L96.9893 32.232V31.976C96.9893 30.456 96.0773 29.976 94.9413 29.976C93.5973 29.976 92.7973 30.584 92.7973 31.624H91.7893C91.7893 30.056 93.0693 29.048 94.9733 29.048C96.7653 29.048 98.0773 29.944 98.0773 31.992V37H97.1493L97.0053 35.64C96.5253 36.616 95.4693 37.192 94.1573 37.192ZM94.4133 36.296C96.0453 36.296 96.9893 35.16 96.9893 33.48V33.064L94.7013 33.24C93.2453 33.368 92.6533 34.008 92.6533 34.872C92.6533 35.816 93.3573 36.296 94.4133 36.296ZM99.6366 34.824H100.693C100.693 35.72 101.365 36.28 102.453 36.28C103.653 36.28 104.357 35.768 104.357 34.936C104.357 34.296 104.037 33.928 103.125 33.704L101.797 33.368C100.453 33.032 99.7966 32.328 99.7966 31.272C99.7966 29.912 100.933 29.048 102.597 29.048C104.229 29.048 105.285 29.944 105.333 31.384H104.261C104.229 30.488 103.605 29.96 102.565 29.96C101.477 29.96 100.869 30.424 100.869 31.256C100.869 31.848 101.285 32.264 102.133 32.472L103.461 32.808C104.805 33.144 105.413 33.768 105.413 34.888C105.413 36.28 104.229 37.192 102.469 37.192C100.725 37.192 99.6366 36.264 99.6366 34.824ZM106.574 34.824H107.63C107.63 35.72 108.302 36.28 109.39 36.28C110.59 36.28 111.294 35.768 111.294 34.936C111.294 34.296 110.974 33.928 110.062 33.704L108.734 33.368C107.39 33.032 106.734 32.328 106.734 31.272C106.734 29.912 107.87 29.048 109.534 29.048C111.166 29.048 112.222 29.944 112.27 31.384H111.198C111.166 30.488 110.542 29.96 109.502 29.96C108.414 29.96 107.806 30.424 107.806 31.256C107.806 31.848 108.222 32.264 109.07 32.472L110.398 32.808C111.742 33.144 112.35 33.768 112.35 34.888C112.35 36.28 111.166 37.192 109.406 37.192C107.662 37.192 106.574 36.264 106.574 34.824ZM114.168 40.376V29.256H115.128L115.24 30.824C115.784 29.624 116.872 29.048 118.168 29.048C120.408 29.048 121.752 30.76 121.752 33.096C121.752 35.432 120.456 37.192 118.168 37.192C116.856 37.192 115.816 36.632 115.272 35.512V40.376H114.168ZM115.288 33.128C115.288 34.904 116.28 36.2 117.976 36.2C119.656 36.2 120.632 34.904 120.632 33.128C120.632 31.336 119.656 30.056 117.976 30.056C116.28 30.056 115.288 31.336 115.288 33.128ZM122.967 33.128C122.967 30.76 124.631 29.048 126.903 29.048C129.175 29.048 130.839 30.76 130.839 33.128C130.839 35.48 129.175 37.192 126.903 37.192C124.631 37.192 122.967 35.48 122.967 33.128ZM124.087 33.112C124.087 34.936 125.239 36.2 126.903 36.2C128.551 36.2 129.719 34.936 129.719 33.112C129.719 31.32 128.551 30.04 126.903 30.04C125.239 30.04 124.087 31.32 124.087 33.112ZM136.653 29.16V30.152H136.045C134.621 30.152 133.709 31.112 133.709 32.584V37H132.605V29.256H133.645L133.725 30.456C134.029 29.624 134.845 29.08 135.933 29.08C136.173 29.08 136.381 29.096 136.653 29.16ZM140.209 37H139.121V30.184H137.569V29.256H139.121V26.808H140.209V29.256H141.761V30.184H140.209V37Z" fill="black" fill-opacity="0.5"/>
<path d="M37.504 63H33.296V51.304H37.392C40.848 51.304 43.232 53.688 43.232 57.176C43.232 60.616 40.896 63 37.504 63ZM37.2 53.192H35.344V61.112H37.312C39.648 61.112 41.072 59.608 41.072 57.176C41.072 54.696 39.616 53.192 37.2 53.192ZM48.3878 63.208C46.0358 63.208 44.3878 61.496 44.3878 59.048C44.3878 56.568 46.0038 54.856 48.3238 54.856C50.6918 54.856 52.1958 56.44 52.1958 58.904V59.496L46.2438 59.512C46.3878 60.904 47.1238 61.608 48.4198 61.608C49.4918 61.608 50.1958 61.192 50.4198 60.44H52.2278C51.8918 62.168 50.4518 63.208 48.3878 63.208ZM48.3398 56.456C47.1878 56.456 46.4838 57.08 46.2918 58.264H50.2598C50.2598 57.176 49.5078 56.456 48.3398 56.456ZM53.758 66.664V55.096H55.566L55.694 56.296C56.174 55.384 57.214 54.856 58.414 54.856C60.638 54.856 62.11 56.472 62.11 58.952C62.11 61.416 60.766 63.208 58.414 63.208C57.23 63.208 56.206 62.744 55.71 61.944V66.664H53.758ZM55.726 59.048C55.726 60.472 56.606 61.448 57.95 61.448C59.326 61.448 60.142 60.456 60.142 59.048C60.142 57.64 59.326 56.632 57.95 56.632C56.606 56.632 55.726 57.624 55.726 59.048ZM66.0163 63.208C64.3363 63.208 63.3123 62.232 63.3123 60.744C63.3123 59.288 64.3683 58.376 66.2403 58.232L68.6083 58.056V57.88C68.6083 56.808 67.9683 56.376 66.9763 56.376C65.8243 56.376 65.1843 56.856 65.1843 57.688H63.5203C63.5203 55.976 64.9283 54.856 67.0723 54.856C69.2003 54.856 70.5123 56.008 70.5123 58.2V63H68.8003L68.6563 61.832C68.3203 62.648 67.2483 63.208 66.0163 63.208ZM66.6562 61.736C67.8563 61.736 68.6243 61.016 68.6243 59.8V59.384L66.9763 59.512C65.7603 59.624 65.2963 60.024 65.2963 60.664C65.2963 61.384 65.7763 61.736 66.6562 61.736ZM77.3899 55.064V56.872H76.6699C75.2619 56.872 74.3819 57.624 74.3819 59.16V63H72.4299V55.112H74.2699L74.3819 56.264C74.7179 55.48 75.4699 54.952 76.5259 54.952C76.7979 54.952 77.0699 54.984 77.3899 55.064ZM81.7116 63H79.7596V56.728H78.2396V55.096H79.7596V52.632H81.7116V55.096H83.2476V56.728H81.7116V63ZM89.8211 55.096H91.7731V63H89.9651L89.8211 61.944C89.3411 62.696 88.3171 63.208 87.2611 63.208C85.4371 63.208 84.3651 61.976 84.3651 60.04V55.096H86.3171V59.352C86.3171 60.856 86.9091 61.464 87.9971 61.464C89.2291 61.464 89.8211 60.744 89.8211 59.24V55.096ZM98.7493 55.064V56.872H98.0293C96.6213 56.872 95.7413 57.624 95.7413 59.16V63H93.7893V55.112H95.6293L95.7413 56.264C96.0773 55.48 96.8293 54.952 97.8853 54.952C98.1573 54.952 98.4293 54.984 98.7493 55.064ZM103.341 63.208C100.989 63.208 99.3409 61.496 99.3409 59.048C99.3409 56.568 100.957 54.856 103.277 54.856C105.645 54.856 107.149 56.44 107.149 58.904V59.496L101.197 59.512C101.341 60.904 102.077 61.608 103.373 61.608C104.445 61.608 105.149 61.192 105.373 60.44H107.181C106.845 62.168 105.405 63.208 103.341 63.208ZM103.293 56.456C102.141 56.456 101.437 57.08 101.245 58.264H105.213C105.213 57.176 104.461 56.456 103.293 56.456Z" fill="#F65734"/>
<rect x="254" y="24" width="40" height="40" rx="20" fill="url(#paint0_linear_148_5574)"/>
<path d="M276.43 50.8201C276.24 50.8201 276.05 50.7501 275.9 50.6001C275.61 50.3101 275.61 49.8301 275.9 49.5401L281.44 44.0001L275.9 38.4601C275.61 38.1701 275.61 37.6901 275.9 37.4001C276.19 37.1101 276.67 37.1101 276.96 37.4001L283.03 43.4701C283.32 43.7601 283.32 44.2401 283.03 44.5301L276.96 50.6001C276.81 50.7501 276.62 50.8201 276.43 50.8201Z" fill="white"/>
<path d="M282.33 44.75H265.5C265.09 44.75 264.75 44.41 264.75 44C264.75 43.59 265.09 43.25 265.5 43.25H282.33C282.74 43.25 283.08 43.59 283.08 44C283.08 44.41 282.74 44.75 282.33 44.75Z" fill="white"/>
</g>
<defs>
<filter id="filter0_d_148_5574" x="0" y="0" width="326" height="104" filterUnits="userSpaceOnUse" color-interpolation-filters="sRGB">
<feFlood flood-opacity="0" result="BackgroundImageFix"/>
<feColorMatrix in="SourceAlpha" type="matrix" values="0 0 0 0 0 0 0 0 0 0 0 0 0 0 0 0 0 0 127 0" result="hardAlpha"/>
<feOffset dy="8"/>
<feGaussianBlur stdDeviation="8"/>
<feComposite in2="hardAlpha" operator="out"/>
<feColorMatrix type="matrix" values="0 0 0 0 0.195833 0 0 0 0 0.183491 0 0 0 0 0.13906 0 0 0 0.06 0"/>
<feBlend mode="normal" in2="BackgroundImageFix" result="effect1_dropShadow_148_5574"/>
<feBlend mode="normal" in="SourceGraphic" in2="effect1_dropShadow_148_5574" result="shape"/>
</filter>
<filter id="filter1_f_148_5574" x="243" y="46" width="63" height="42" filterUnits="userSpaceOnUse" color-interpolation-filters="sRGB">
<feFlood flood-opacity="0" result="BackgroundImageFix"/>
<feBlend mode="normal" in="SourceGraphic" in2="BackgroundImageFix" result="shape"/>
<feGaussianBlur stdDeviation="8" result="effect1_foregroundBlur_148_5574"/>
</filter>
<linearGradient id="paint0_linear_148_5574" x1="274" y1="21" x2="274" y2="64" gradientUnits="userSpaceOnUse">
<stop stop-color="#FF8D74"/>
<stop offset="1" stop-color="#F75734"/>
</linearGradient>
</defs>
</svg>
