<svg width="298" height="24" viewBox="0 0 298 24" fill="none" xmlns="http://www.w3.org/2000/svg">
<path d="M8.82875 18.288C3.71675 18.288 0.40475 14.736 0.40475 9.24C0.40475 3.792 3.83675 0.167999 8.97275 0.167999C13.1248 0.167999 16.2208 2.592 16.8208 6.36H13.5807C12.9808 4.32 11.2288 3.12 8.90075 3.12C5.66075 3.12 3.62075 5.472 3.62075 9.216C3.62075 12.936 5.68475 15.336 8.90075 15.336C11.2768 15.336 13.1008 14.088 13.6768 12.144H16.8688C16.1968 15.84 12.9808 18.288 8.82875 18.288ZM22.0025 18H19.0745V0.144H22.0265V7.68C22.7705 6.528 24.1625 5.784 25.8665 5.784C28.7945 5.784 30.3305 7.632 30.3305 10.704V18H27.4025V11.4C27.4025 9.408 26.4185 8.448 24.9305 8.448C23.0825 8.448 22.0025 9.744 22.0025 11.52V18ZM32.5113 12.048C32.5113 8.352 35.1753 5.808 38.8473 5.808C42.5193 5.808 45.1833 8.352 45.1833 12.048C45.1833 15.744 42.5193 18.288 38.8473 18.288C35.1753 18.288 32.5113 15.744 32.5113 12.048ZM35.4393 12.048C35.4393 14.208 36.8313 15.672 38.8473 15.672C40.8633 15.672 42.2553 14.208 42.2553 12.048C42.2553 9.888 40.8633 8.424 38.8473 8.424C36.8313 8.424 35.4393 9.888 35.4393 12.048ZM46.8082 12.048C46.8082 8.352 49.4722 5.808 53.1442 5.808C56.8162 5.808 59.4802 8.352 59.4802 12.048C59.4802 15.744 56.8162 18.288 53.1442 18.288C49.4722 18.288 46.8082 15.744 46.8082 12.048ZM49.7362 12.048C49.7362 14.208 51.1282 15.672 53.1442 15.672C55.1602 15.672 56.5522 14.208 56.5522 12.048C56.5522 9.888 55.1602 8.424 53.1442 8.424C51.1282 8.424 49.7362 9.888 49.7362 12.048ZM60.8891 14.4H63.6731C63.6971 15.432 64.4651 16.08 65.8091 16.08C67.1771 16.08 67.9211 15.528 67.9211 14.664C67.9211 14.064 67.6091 13.632 66.5531 13.392L64.4171 12.888C62.2811 12.408 61.2491 11.4 61.2491 9.504C61.2491 7.176 63.2171 5.784 65.9531 5.784C68.6171 5.784 70.4171 7.32 70.4411 9.624H67.6571C67.6331 8.616 66.9611 7.968 65.8331 7.968C64.6811 7.968 64.0091 8.496 64.0091 9.384C64.0091 10.056 64.5371 10.488 65.5451 10.728L67.6811 11.232C69.6731 11.688 70.6811 12.6 70.6811 14.424C70.6811 16.824 68.6411 18.312 65.7131 18.312C62.7611 18.312 60.8891 16.728 60.8891 14.4ZM78.2144 18.312C74.6864 18.312 72.2144 15.744 72.2144 12.072C72.2144 8.352 74.6384 5.784 78.1184 5.784C81.6704 5.784 83.9264 8.16 83.9264 11.856V12.744L74.9984 12.768C75.2144 14.856 76.3184 15.912 78.2624 15.912C79.8704 15.912 80.9264 15.288 81.2624 14.16H83.9744C83.4704 16.752 81.3104 18.312 78.2144 18.312ZM78.1424 8.184C76.4144 8.184 75.3584 9.12 75.0704 10.896H81.0224C81.0224 9.264 79.8944 8.184 78.1424 8.184ZM97.3946 11.088L91.4666 0.456H94.8986L98.3546 6.84C98.6186 7.32 98.7866 7.704 98.9786 8.136C99.1946 7.704 99.2906 7.416 99.6026 6.84L103.035 0.456H106.371L100.467 11.088V18H97.3946V11.088ZM104.933 12.048C104.933 8.352 107.597 5.808 111.269 5.808C114.941 5.808 117.605 8.352 117.605 12.048C117.605 15.744 114.941 18.288 111.269 18.288C107.597 18.288 104.933 15.744 104.933 12.048ZM107.861 12.048C107.861 14.208 109.253 15.672 111.269 15.672C113.285 15.672 114.677 14.208 114.677 12.048C114.677 9.888 113.285 8.424 111.269 8.424C109.253 8.424 107.861 9.888 107.861 12.048ZM127.685 6.144H130.613V18H127.901L127.685 16.416C126.965 17.544 125.429 18.312 123.845 18.312C121.109 18.312 119.501 16.464 119.501 13.56V6.144H122.429V12.528C122.429 14.784 123.317 15.696 124.949 15.696C126.797 15.696 127.685 14.616 127.685 12.36V6.144ZM141.077 6.096V8.808H139.997C137.885 8.808 136.565 9.936 136.565 12.24V18H133.637V6.168H136.397L136.565 7.896C137.069 6.72 138.197 5.928 139.781 5.928C140.189 5.928 140.597 5.976 141.077 6.096ZM157.376 18.288C152.264 18.288 148.952 14.736 148.952 9.24C148.952 3.792 152.384 0.167999 157.52 0.167999C161.672 0.167999 164.768 2.592 165.368 6.36H162.128C161.528 4.32 159.776 3.12 157.448 3.12C154.208 3.12 152.168 5.472 152.168 9.216C152.168 12.936 154.232 15.336 157.448 15.336C159.824 15.336 161.648 14.088 162.224 12.144H165.416C164.744 15.84 161.528 18.288 157.376 18.288ZM167.043 12.048C167.043 8.352 169.707 5.808 173.379 5.808C177.051 5.808 179.715 8.352 179.715 12.048C179.715 15.744 177.051 18.288 173.379 18.288C169.707 18.288 167.043 15.744 167.043 12.048ZM169.971 12.048C169.971 14.208 171.363 15.672 173.379 15.672C175.395 15.672 176.787 14.208 176.787 12.048C176.787 9.888 175.395 8.424 173.379 8.424C171.363 8.424 169.971 9.888 169.971 12.048ZM184.81 18L180.106 6.144H183.226L185.29 11.592C185.794 13.008 186.202 14.232 186.346 14.88C186.514 14.136 186.946 12.888 187.45 11.592L189.61 6.144H192.634L187.69 18H184.81ZM199.035 18.312C195.507 18.312 193.035 15.744 193.035 12.072C193.035 8.352 195.459 5.784 198.939 5.784C202.491 5.784 204.747 8.16 204.747 11.856V12.744L195.819 12.768C196.035 14.856 197.139 15.912 199.083 15.912C200.691 15.912 201.747 15.288 202.083 14.16H204.795C204.291 16.752 202.131 18.312 199.035 18.312ZM198.963 8.184C197.235 8.184 196.179 9.12 195.891 10.896H201.843C201.843 9.264 200.715 8.184 198.963 8.184ZM214.53 6.096V8.808H213.45C211.338 8.808 210.018 9.936 210.018 12.24V18H207.09V6.168H209.85L210.018 7.896C210.522 6.72 211.65 5.928 213.234 5.928C213.642 5.928 214.05 5.976 214.53 6.096ZM229.725 18H223.413V0.456H229.557C234.741 0.456 238.317 4.032 238.317 9.264C238.317 14.424 234.813 18 229.725 18ZM229.269 3.288H226.485V15.168H229.437C232.941 15.168 235.077 12.912 235.077 9.264C235.077 5.544 232.893 3.288 229.269 3.288ZM246.05 18.312C242.522 18.312 240.05 15.744 240.05 12.072C240.05 8.352 242.474 5.784 245.954 5.784C249.506 5.784 251.762 8.16 251.762 11.856V12.744L242.834 12.768C243.05 14.856 244.154 15.912 246.098 15.912C247.706 15.912 248.762 15.288 249.098 14.16H251.81C251.306 16.752 249.146 18.312 246.05 18.312ZM245.978 8.184C244.25 8.184 243.194 9.12 242.906 10.896H248.858C248.858 9.264 247.73 8.184 245.978 8.184ZM253.194 14.4H255.978C256.002 15.432 256.77 16.08 258.114 16.08C259.482 16.08 260.226 15.528 260.226 14.664C260.226 14.064 259.914 13.632 258.858 13.392L256.722 12.888C254.586 12.408 253.554 11.4 253.554 9.504C253.554 7.176 255.522 5.784 258.258 5.784C260.922 5.784 262.722 7.32 262.746 9.624H259.962C259.938 8.616 259.266 7.968 258.138 7.968C256.986 7.968 256.314 8.496 256.314 9.384C256.314 10.056 256.842 10.488 257.85 10.728L259.986 11.232C261.978 11.688 262.986 12.6 262.986 14.424C262.986 16.824 260.946 18.312 258.018 18.312C255.066 18.312 253.194 16.728 253.194 14.4ZM266.679 3.768C265.671 3.768 264.879 2.976 264.879 1.992C264.879 1.008 265.671 0.24 266.679 0.24C267.639 0.24 268.431 1.008 268.431 1.992C268.431 2.976 267.639 3.768 266.679 3.768ZM265.215 18V6.144H268.143V18H265.215ZM270.496 11.808C270.496 8.352 272.752 5.76 276.136 5.76C277.912 5.76 279.304 6.504 280 7.776L280.168 6.144H282.88V17.4C282.88 21.36 280.504 23.832 276.664 23.832C273.256 23.832 270.928 21.888 270.568 18.72H273.496C273.688 20.256 274.864 21.168 276.664 21.168C278.68 21.168 279.976 19.896 279.976 17.928V15.96C279.232 17.064 277.768 17.76 276.064 17.76C272.704 17.76 270.496 15.24 270.496 11.808ZM273.448 11.736C273.448 13.728 274.72 15.216 276.64 15.216C278.656 15.216 279.904 13.8 279.904 11.736C279.904 9.72 278.68 8.328 276.64 8.328C274.696 8.328 273.448 9.792 273.448 11.736ZM288.838 18H285.91V6.144H288.622L288.862 7.68C289.606 6.48 291.046 5.784 292.654 5.784C295.63 5.784 297.166 7.632 297.166 10.704V18H294.238V11.4C294.238 9.408 293.254 8.448 291.742 8.448C289.942 8.448 288.838 9.696 288.838 11.616V18Z" fill="#F65734"/>
</svg>
