<svg width="169" height="169" viewBox="0 0 169 169" fill="none" xmlns="http://www.w3.org/2000/svg">
<g clip-path="url(#clip0_133_2984)">
<path d="M153.553 136.011C149.565 127.358 124.046 119.652 109.174 115.63C99.6422 113.061 102.448 70.98 102.448 70.98H66.5858C66.5858 70.98 69.3912 113.027 59.8596 115.63C44.9876 119.652 19.4686 127.325 15.4802 136.011C12.0664 143.413 13.486 170.521 13.486 170.521H155.514C155.514 170.555 156.933 143.413 153.553 136.011Z" fill="white"/>
<path d="M52.1533 39.715C46.5763 40.4586 41.5063 44.954 44.3455 54.8912C46.4749 62.4286 42.8245 70.304 53.8095 70.6758L52.1533 39.715Z" fill="white"/>
<path d="M116.542 39.6812C122.119 40.2896 127.291 44.6498 124.722 54.6884C122.762 62.2934 126.615 70.0674 115.664 70.7096L116.542 39.6812Z" fill="white"/>
<path d="M117.117 37.1124C117.151 36.335 117.185 35.5238 117.185 34.7126C117.151 12.7764 104.104 0 87.8799 0C86.7307 0 85.6153 0.0676 84.4999 0.2028C83.3845 0.0676 82.2691 0 81.1199 0C64.8959 0 51.8153 12.7764 51.8153 34.7126C51.8153 35.5238 51.8491 36.3012 51.8829 37.1124C51.2069 51.714 49.1451 74.529 55.7361 83.4522C62.2257 92.2402 72.5685 101.839 77.4695 101.839H91.5303C96.3975 101.839 106.774 92.274 113.264 83.4522C119.855 74.529 117.793 51.714 117.117 37.1124Z" fill="white"/>
<path d="M113.264 80.3764C106.774 89.1644 96.4314 96.7018 91.5304 96.7018H77.4696C72.6024 96.7018 62.2258 89.1982 55.7362 80.3764C52.1872 75.543 51.1394 66.6874 51.0718 57.2572C50.9704 67.8028 51.8154 78.1456 55.7362 83.486C62.2258 92.274 72.5686 101.873 77.4696 101.873H91.5304C96.3976 101.873 106.774 92.3078 113.264 83.486C117.185 78.1456 118.03 67.8366 117.928 57.2572C117.861 66.6874 116.813 75.543 113.264 80.3764Z" fill="url(#paint0_linear_133_2984)"/>
<path d="M153.553 136.011C150.106 128.541 130.637 121.781 115.799 117.489C108.43 127.257 97.1411 133.544 84.4999 133.544C71.8587 133.544 60.5695 127.291 53.2011 117.489C38.3629 121.781 18.8941 128.508 15.4465 136.011C12.0327 143.413 13.4523 170.521 13.4523 170.521H155.48C155.514 170.555 156.933 143.413 153.553 136.011Z" fill="white"/>
<path d="M153.553 136.011C150.951 130.367 139.222 125.128 127.223 121.072C123.336 119.753 119.415 118.537 115.799 117.489C110.729 124.181 103.834 129.251 95.9243 131.752L87.0687 148.923L84.6689 170.521H155.514C155.514 170.555 156.933 143.413 153.553 136.011Z" fill="#9C9999"/>
<path d="M82.3028 148.957L73.5486 131.921C65.4366 129.454 58.3724 124.35 53.201 117.523C49.6858 118.537 45.9002 119.686 42.1484 120.97C30.048 125.06 18.1166 130.333 15.4802 136.045C12.0664 143.447 13.486 170.555 13.486 170.555H84.7026L82.3028 148.957Z" fill="#9C9999"/>
<path d="M73.5486 131.921L63.5438 112.486V111.675C64.9634 108.566 65.8084 104.003 66.3154 99.034H63.5438C63.5438 99.034 58.271 97.8172 53.1334 99.034C47.2522 100.42 39.681 106.74 41.8104 119.618C41.878 120.058 42.0132 120.497 42.1484 120.936C45.427 130.536 66.89 141.69 77.03 146.523C80.241 148.044 82.3366 148.957 82.3366 148.957L73.5486 131.921Z" fill="#525252"/>
<path d="M116.272 99.0678C111.134 97.851 105.862 99.0678 105.862 99.0678H102.684C103.225 104.476 104.205 109.411 105.862 112.52L95.9581 131.786L87.1025 148.957C87.1025 148.957 89.1981 148.078 92.4091 146.523C102.515 141.723 123.809 130.637 127.223 121.072C127.392 120.598 127.527 120.125 127.595 119.652C129.724 106.774 122.153 100.42 116.272 99.0678Z" fill="#525252"/>
<path d="M108.701 113.298L104.915 102.414C105.659 102.346 110.323 101.637 111.303 101.637C112.892 101.637 114.379 101.806 115.697 102.11C119.956 103.09 126.716 107.822 124.823 119.145C124.789 119.382 124.688 119.686 124.587 119.99C122.525 125.702 111.033 134.085 93.6597 142.602L108.701 113.298Z" fill="#9C9999"/>
<path d="M60.2991 113.298L64.0847 102.38C63.3411 102.313 58.6767 101.603 57.6965 101.603C56.1079 101.603 54.6207 101.772 53.3025 102.076C49.0437 103.056 42.2837 107.788 44.1765 119.111C44.2103 119.348 44.3117 119.652 44.4131 119.956C46.4749 125.668 57.9669 134.051 75.3401 142.568L60.2991 113.298Z" fill="#9C9999"/>
<path opacity="0.2" d="M133.983 170.555V151.965L131.752 170.555H133.983ZM35.0168 170.555V151.965L37.2476 170.555H35.0168Z" fill="black"/>
<path d="M87.6096 95.6878H82.2692C81.0186 95.6878 80.5116 94.3358 81.0186 92.9838L82.3368 89.57C82.5058 89.0968 83.1142 88.7588 83.6888 88.7588H86.1224C86.697 88.7588 87.3053 89.0968 87.4743 89.57L88.7926 92.9838C89.3672 94.302 88.894 95.6878 87.6096 95.6878Z" fill="url(#paint1_linear_133_2984)"/>
<path fill-rule="evenodd" clip-rule="evenodd" d="M50.4614 38.1196C50.8758 37.6145 51.6212 37.541 52.1263 37.9555L58.7173 43.3635C59.2224 43.7779 59.2959 44.5233 58.8815 45.0284C58.467 45.5335 57.7216 45.607 57.2165 45.1925L50.6255 39.7845C50.1204 39.3701 50.0469 38.6247 50.4614 38.1196Z" fill="url(#paint2_linear_133_2984)"/>
<path fill-rule="evenodd" clip-rule="evenodd" d="M119.121 38.8333C119.552 39.3243 119.504 40.0718 119.013 40.5027L112.658 46.0797C112.167 46.5107 111.42 46.462 110.989 45.971C110.558 45.4799 110.606 44.7325 111.097 44.3015L117.452 38.7245C117.943 38.2935 118.69 38.3422 119.121 38.8333Z" fill="url(#paint3_linear_133_2984)"/>
<path fill-rule="evenodd" clip-rule="evenodd" d="M67.3634 40.391C61.8565 40.391 57.3924 44.8552 57.3924 50.362C57.3924 55.8688 61.8565 60.333 67.3634 60.333C72.8702 60.333 77.3344 55.8688 77.3344 50.362C77.3344 44.8552 72.8702 40.391 67.3634 40.391ZM55.0264 50.362C55.0264 43.5485 60.5498 38.025 67.3634 38.025C74.1769 38.025 79.7004 43.5485 79.7004 50.362C79.7004 57.1755 74.1769 62.699 67.3634 62.699C60.5498 62.699 55.0264 57.1755 55.0264 50.362Z" fill="url(#paint4_linear_133_2984)"/>
<path fill-rule="evenodd" clip-rule="evenodd" d="M101.637 40.391C96.1297 40.391 91.6656 44.8552 91.6656 50.362C91.6656 55.8688 96.1297 60.333 101.637 60.333C107.143 60.333 111.608 55.8688 111.608 50.362C111.608 44.8552 107.143 40.391 101.637 40.391ZM89.2996 50.362C89.2996 43.5485 94.823 38.025 101.637 38.025C108.45 38.025 113.974 43.5485 113.974 50.362C113.974 57.1755 108.45 62.699 101.637 62.699C94.823 62.699 89.2996 57.1755 89.2996 50.362Z" fill="url(#paint5_linear_133_2984)"/>
<path fill-rule="evenodd" clip-rule="evenodd" d="M77.3342 50.362C77.3342 49.7086 77.8639 49.179 78.5172 49.179H90.4824C91.1358 49.179 91.6654 49.7086 91.6654 50.362C91.6654 51.0154 91.1358 51.545 90.4824 51.545H78.5172C77.8639 51.545 77.3342 51.0154 77.3342 50.362Z" fill="url(#paint6_linear_133_2984)"/>
</g>
<defs>
<linearGradient id="paint0_linear_133_2984" x1="51.0465" y1="79.5344" x2="117.954" y2="79.5344" gradientUnits="userSpaceOnUse">
<stop stop-color="#665242"/>
<stop offset="1" stop-color="#2A1B00"/>
</linearGradient>
<linearGradient id="paint1_linear_133_2984" x1="84.9505" y1="95.2035" x2="84.9505" y2="89.7208" gradientUnits="userSpaceOnUse">
<stop stop-color="#665242"/>
<stop offset="1" stop-color="#2A1B00"/>
</linearGradient>
<linearGradient id="paint2_linear_133_2984" x1="50.1929" y1="41.574" x2="59.1499" y2="41.574" gradientUnits="userSpaceOnUse">
<stop/>
<stop offset="1" stop-color="#111111"/>
</linearGradient>
<linearGradient id="paint3_linear_133_2984" x1="110.695" y1="42.3909" x2="119.426" y2="42.3909" gradientUnits="userSpaceOnUse">
<stop/>
<stop offset="1" stop-color="#111111"/>
</linearGradient>
<linearGradient id="paint4_linear_133_2984" x1="67.3745" y1="62.699" x2="67.3745" y2="38.025" gradientUnits="userSpaceOnUse">
<stop/>
<stop offset="1" stop-color="#111111"/>
</linearGradient>
<linearGradient id="paint5_linear_133_2984" x1="101.625" y1="62.699" x2="101.625" y2="38.025" gradientUnits="userSpaceOnUse">
<stop/>
<stop offset="1" stop-color="#111111"/>
</linearGradient>
<linearGradient id="paint6_linear_133_2984" x1="78.5172" y1="50.531" x2="90.4824" y2="50.531" gradientUnits="userSpaceOnUse">
<stop/>
<stop offset="1" stop-color="#111111"/>
</linearGradient>
<clipPath id="clip0_133_2984">
<rect width="169" height="169" fill="white"/>
</clipPath>
</defs>
</svg>
