<svg width="122" height="121" viewBox="0 0 122 121" fill="none" xmlns="http://www.w3.org/2000/svg">
<path d="M62.2622 73.7937V96.4166C68.1234 95.4494 73.1785 87.7824 75.7652 76.9543C71.5453 75.0486 66.9598 73.9602 62.2622 73.7937ZM46.2357 44.2638C48.7886 45.4151 51.4681 46.273 54.2578 46.8074C56.1615 47.1833 58.1906 47.3906 60.2893 47.4377V24.7156C54.1939 25.2832 48.9017 33.0964 46.2357 44.2638ZM77.6112 43.3562C81.1645 41.4981 84.4219 39.0509 87.2132 36.067C82.0123 30.515 75.2878 26.8307 67.9637 25.3753C72.1911 28.7664 75.6047 35.1768 77.6112 43.3562ZM77.6056 61.1668C77.6457 55.8539 77.143 50.7937 76.215 46.2194C71.8443 48.1408 67.113 49.2303 62.2622 49.3916V71.8201C67.1046 71.9833 71.8329 73.0793 76.2021 74.9966C77.0711 70.7462 77.5698 66.0719 77.6056 61.1668Z" fill="black"/>
<path d="M62.2622 24.7886V47.4198C66.9717 47.2547 71.5597 46.1618 75.7838 44.2487C73.2155 33.4321 68.1783 25.7642 62.2622 24.7886ZM79.5784 61.1816C79.5401 66.4228 78.9994 71.3796 78.0497 75.8657C81.9284 77.8218 85.4737 80.4444 88.5047 83.6452C93.7949 77.3457 96.7923 69.4173 96.9221 61.1629C97.0522 52.4817 94.0714 44.1375 88.5214 37.5365C85.4832 40.7539 81.9402 43.3882 78.0631 45.3482C79.0762 50.1646 79.6212 55.5161 79.5784 61.1816ZM45.7977 46.2274C44.9308 50.4735 44.4333 55.1422 44.3976 60.041C44.3579 65.2758 44.8525 70.3502 45.8015 74.9862C50.3304 72.9987 55.2489 71.9023 60.2894 71.8065V49.4123C58.0594 49.3642 55.9038 49.1432 53.8815 48.7441C51.0775 48.2069 48.3781 47.3577 45.7977 46.2274ZM44.4063 43.3777C46.4271 35.173 49.8604 28.7525 54.0814 25.3632C46.3924 26.8799 39.7408 30.7706 34.793 36.0791C37.7262 39.2126 40.9128 41.556 44.4063 43.3777ZM42.4248 60.0263C42.4628 54.7908 43.0022 49.8394 43.95 45.3573C40.148 43.4395 36.7737 41.0185 33.505 37.5626C28.2125 43.8638 25.2141 51.7935 25.085 60.0494C24.9425 68.7059 27.9232 77.0489 33.485 83.6741C36.5267 80.4488 40.0786 77.81 43.9681 75.849C42.9246 70.9456 42.3831 65.565 42.4248 60.0263ZM44.4265 77.836C40.859 79.6959 37.5918 82.1489 34.7956 85.1417C40.0963 90.8079 46.7788 94.4284 54.1038 95.845C49.011 91.7643 45.9868 84.1389 44.4265 77.836Z" fill="black"/>
<path d="M60.2894 96.4676V73.7791C55.3918 73.8771 50.6179 74.9747 46.2385 76.9538C48.0398 84.471 52.6397 95.7205 60.2894 96.4676ZM32.9968 23.4277C32.099 24.105 31.9876 25.3259 32.6448 26.1981C33.309 27.0778 34.5156 27.2934 35.4056 26.622C36.3015 25.9461 36.4161 24.7248 35.7575 23.8509C35.0942 22.9724 33.8885 22.7548 32.9968 23.4277Z" fill="black"/>
<path d="M78.1504 20.2148L78.0597 17.7317L76.2881 19.473L78.1504 20.2148Z" fill="black"/>
<path d="M67.9171 95.8505C72.7761 94.891 77.1944 93.0059 81.1342 90.3342C83.4458 88.7662 85.4015 87.0723 87.2128 85.1325C84.4227 82.1541 81.1578 79.7047 77.5929 77.8465C75.5705 86.0482 72.1374 92.4649 67.9171 95.8505ZM46.2036 17.5726C45.9147 16.8068 45.42 16.86 44.6231 17.1609L43.5153 17.579L44.2121 19.4247L45.2974 19.015C46.0985 18.7131 46.5066 18.3762 46.2036 17.5726Z" fill="black"/>
<path d="M119.761 57.0252C118.709 38.8752 109.502 22.5007 94.4428 12.0709L87.8536 8.11213C79.7781 3.96933 71.0582 1.79908 61.9175 1.65454C50.5409 1.47028 39.5062 4.54802 29.8788 10.5454L23.4605 15.175C10.19 26.1832 2.41705 42.3735 2.154 59.5897C2.04879 66.6261 3.16672 73.531 5.52096 80.186L9.45359 88.9321C14.3857 97.8493 21.5799 105.372 30.3129 110.725L35.4554 113.54C43.1758 117.262 51.4616 119.222 60.1026 119.353H61.0233C70.1246 119.353 78.8576 117.328 87.0383 113.303L94.4955 108.897C110.081 98.0992 119.564 80.3437 119.853 61.3783L119.761 57.0252ZM113.766 48.3056C114.068 49.613 114.324 50.9501 114.527 52.2795C114.61 52.8183 114.24 53.3211 113.702 53.4033C113.159 53.4857 112.659 53.1135 112.578 52.5775C112.382 51.297 112.135 50.0094 111.844 48.75C111.721 48.2195 112.052 47.6896 112.583 47.5664C113.116 47.4495 113.643 47.7751 113.766 48.3056ZM111.357 40.5858C111.852 41.8342 112.306 43.1173 112.707 44.4004C112.869 44.9206 112.58 45.4735 112.059 45.6361C111.546 45.7972 110.988 45.5135 110.824 44.9887C110.438 43.7525 110 42.5162 109.523 41.3141C109.322 40.8074 109.57 40.2339 110.076 40.033C110.581 39.8344 111.156 40.0797 111.357 40.5858ZM106.472 32.9641C106.944 32.6905 107.547 32.8491 107.822 33.3192C108.497 34.4778 109.137 35.678 109.726 36.8872C109.964 37.3773 109.76 37.9674 109.27 38.2056C108.782 38.4429 108.192 38.2419 107.952 37.7503C107.385 36.5854 106.768 35.4288 106.117 34.3132C105.843 33.8426 106.002 33.2383 106.472 32.9641ZM96.334 20.8003C96.7045 20.3995 97.3287 20.3764 97.7276 20.7451C98.7113 21.6537 99.6759 22.6138 100.595 23.5989C100.967 23.9971 100.945 24.6213 100.547 24.9932C100.149 25.3645 99.5241 25.3437 99.1526 24.9451C98.2664 23.9952 97.3371 23.0698 96.3892 22.1939C95.9891 21.8239 95.964 21.2004 96.334 20.8003ZM101.538 85.1479L99.5885 84.1231L97.6391 85.1481L98.0114 82.9773L96.4343 81.4401L98.6139 81.1234L99.5886 79.1485L100.563 81.1234L102.743 81.4401L101.166 82.9773L101.538 85.1479ZM94.3014 30.4011L93.71 30.9817L91.8585 29.0942L90.8053 30.1281L92.9329 32.2967L92.3074 32.91L89.528 30.0767L93.4653 26.2132L96.1786 28.9791L95.5538 29.5924L93.4923 27.4917L92.45 28.514L94.3014 30.4011ZM90.027 15.9709C90.3346 15.5194 90.9492 15.4038 91.3974 15.7103C92.509 16.4674 93.6053 17.2747 94.6559 18.1101C95.0823 18.4492 95.1529 19.0696 94.8138 19.496C94.4741 19.9232 93.8524 19.9926 93.428 19.6539C92.4153 18.8486 91.3589 18.0703 90.2876 17.3414C89.8369 17.0344 89.7206 16.4211 90.027 15.9709ZM90.7089 23.6735C91.3801 24.2033 91.7454 24.8936 91.8045 25.7439L90.9388 25.8852C90.8438 25.2013 90.6427 24.7865 90.1264 24.3799C89.2731 23.7068 88.1036 23.7578 87.3875 24.6664C86.6695 25.5741 86.8728 26.7673 87.6604 27.3899C88.1012 27.7374 88.5241 27.8868 89.3012 27.8201L89.3905 28.6749C88.5313 28.8213 87.7748 28.6357 87.1197 28.1193C85.8233 27.0952 85.5683 25.4053 86.6033 24.0928C87.5942 22.8369 89.3212 22.5779 90.7089 23.6735ZM83.072 12.1313C83.3077 11.6407 83.8978 11.432 84.3878 11.6695C85.6003 12.252 86.8051 12.8878 87.9688 13.5588C88.4408 13.8311 88.6026 14.4348 88.331 14.9061C88.0562 15.3813 87.4516 15.5382 86.9837 15.2684C85.8618 14.621 84.7013 14.0084 83.5339 13.447C83.0424 13.2115 82.8356 12.622 83.072 12.1313ZM83.2216 18.8551L83.9358 24.0248L85.996 20.4581L86.8026 20.9237L84.0431 25.6996L83.1685 25.1948L82.4755 20.1465L80.4628 23.6317L79.6562 23.1654L82.4157 18.3895L83.2216 18.8551ZM75.6167 9.37434C75.7759 8.8522 76.3269 8.5568 76.8484 8.72055C78.136 9.11551 79.4236 9.56373 80.6746 10.0538C81.1819 10.2522 81.4324 10.8244 81.2333 11.3318C81.0339 11.8414 80.4601 12.088 79.9553 11.8905C78.7499 11.4191 77.5104 10.9869 76.2703 10.606C75.7496 10.4468 75.4569 9.89517 75.6167 9.37434ZM79.1564 22.8914L78.2324 22.5234L78.1836 21.1536L75.6173 20.1318L74.6398 21.0932L73.7164 20.7252L78.0154 16.4995L78.9388 16.8675L79.1564 22.8914ZM74.2161 17.0268C73.9971 17.9105 73.4731 18.371 72.6453 18.4095L73.5636 20.7028L72.4148 20.4177L71.5831 18.2997L70.3958 18.0049L69.9489 19.8051L69.0453 19.5803L70.3746 14.227L72.3661 14.7215C73.7611 15.0679 74.5595 15.6445 74.2161 17.0268ZM68.9603 6.93909C70.2909 7.13558 71.6293 7.38547 72.9387 7.68153C73.4698 7.80161 73.8031 8.32953 73.683 8.86128C73.5615 9.39946 73.0258 9.72472 72.5033 9.60556C71.2426 9.32108 69.9537 9.08026 68.6726 8.89139C68.1331 8.81182 67.7613 8.3102 67.8403 7.77136C67.92 7.23133 68.4235 6.85754 68.9603 6.93909ZM68.2032 16.267L68.0991 17.1211L65.671 16.8257L65.3968 19.0817L64.472 18.9694L65.1379 13.4933L68.7882 13.9378L68.6759 14.7983L65.9574 14.4675L65.775 15.9716L68.2032 16.267ZM60.8988 6.35671C61.9706 6.34895 63.4822 6.39261 64.9402 6.49796C65.4836 6.53716 65.8919 7.00984 65.8527 7.55303C65.8121 8.10976 65.3228 8.50709 64.7977 8.46553C63.5448 8.37504 62.2687 8.32874 61.0049 8.32874C60.4602 8.32874 59.9658 7.88762 59.9658 7.34299C59.9657 6.79783 60.3542 6.35671 60.8988 6.35671ZM61.0087 15.0752C61.0543 15.9845 60.6857 16.5766 59.9042 16.8528L61.4454 18.7833L60.2639 18.8417L58.8555 17.0551L57.6341 17.1154L57.7259 18.9675L56.7954 19.0138L56.5225 13.5044L58.5717 13.403C60.0063 13.3316 60.9386 13.6526 61.0087 15.0752ZM52.8349 6.97131C54.1616 6.76969 55.5141 6.6162 56.8549 6.51401C57.3925 6.47284 57.8715 6.88069 57.9133 7.42335C57.9545 7.96666 57.5473 8.43988 57.004 8.4817C55.7126 8.57929 54.4094 8.72765 53.1316 8.9223C52.5688 9.00161 52.0872 8.61586 52.0077 8.09516C51.926 7.55632 52.296 7.05351 52.8349 6.97131ZM54.7344 13.7085L54.8879 14.571L51.9897 15.0848L52.2446 16.5227L54.8474 16.0609L54.9919 16.8765L52.3891 17.3382L52.6466 18.7916L55.638 18.2611L55.7915 19.1237L51.883 19.8166L50.9198 14.3856L54.7344 13.7085ZM45.1657 21.9498L44.2942 22.2786L42.3459 17.1179L44.2654 16.3935C45.6126 15.8848 46.5965 15.9089 47.0981 17.2387C47.4198 18.0903 47.251 18.7671 46.5914 19.2692L48.6502 20.6339L47.5424 21.052L45.655 19.7831L44.5106 20.2146L45.1657 21.9498ZM48.1448 15.1117L49.0432 14.8671L50.4894 20.1903L49.5903 20.4349L48.1448 15.1117ZM44.9545 8.78355C46.2401 8.38346 47.5548 8.02835 48.8609 7.72848C49.3998 7.60459 49.9218 7.93918 50.0432 8.46895C50.1652 9.00003 49.8338 9.52927 49.3027 9.65119C48.0447 9.94015 46.7789 10.2818 45.5401 10.6677C45.0261 10.8277 44.4686 10.5437 44.3051 10.0184C44.1434 9.49837 44.4343 8.94532 44.9545 8.78355ZM37.4375 11.7582C38.6397 11.175 39.8843 10.6272 41.1378 10.1302C41.6426 9.92792 42.2174 10.1765 42.4183 10.6838C42.6193 11.1899 42.3715 11.7633 41.8648 11.9643C40.6567 12.4434 39.4571 12.9712 38.2993 13.5332C37.8163 13.7681 37.2219 13.5723 36.981 13.0765C36.7433 12.5866 36.9476 11.9965 37.4375 11.7582ZM37.1857 19.751L38.6467 22.4322C39.0933 23.2508 39.8473 23.6468 40.6658 23.2016C41.4808 22.7581 41.5609 21.9093 41.114 21.0882L39.6524 18.4063L40.47 17.9613L41.9502 20.6771C42.7286 22.1063 42.2547 23.333 41.0852 23.9709C39.9227 24.603 38.6325 24.3518 37.8479 22.9125L36.3683 20.1961L37.1857 19.751ZM36.5198 23.2759C37.5143 24.594 37.2223 26.32 35.9188 27.3018C34.6166 28.2848 32.8766 28.0913 31.8827 26.7727C30.8797 25.4433 31.1918 23.7209 32.4837 22.7468C33.7858 21.7638 35.5259 21.9573 36.5198 23.2759ZM30.4517 15.8201C31.5615 15.0591 32.7116 14.3322 33.8694 13.6584C34.3388 13.3861 34.9445 13.5441 35.218 14.0155C35.4916 14.4862 35.3317 15.0899 34.861 15.3641C33.7449 16.0128 32.6371 16.714 31.5665 17.4474C31.1204 17.7539 30.505 17.6431 30.1954 17.1912C29.8872 16.7423 30.0022 16.1284 30.4517 15.8201ZM29.9649 25.9488L30.0048 26.8248C29.3198 26.8392 28.8836 26.9871 28.4153 27.4567C27.652 28.2213 27.5573 29.3877 28.3813 30.2105C29.2018 31.0298 30.4095 30.9655 31.1184 30.2555C31.5143 29.8585 31.713 29.4573 31.7361 28.6757L32.5954 28.6859C32.641 29.5567 32.3693 30.287 31.7805 30.8771C30.6177 32.0425 28.9079 32.108 27.7212 30.9227C26.5913 29.7965 26.5301 28.05 27.7809 26.7966C28.3851 26.1915 29.1127 25.909 29.9649 25.9488ZM24.1415 20.8754C25.1266 19.9583 26.1567 19.0683 27.2035 18.2302C27.6286 17.8912 28.2503 17.9592 28.59 18.3837C28.9304 18.8088 28.8616 19.4298 28.4365 19.7702C27.4276 20.5782 26.4348 21.4354 25.4862 22.3191C25.0848 22.6934 24.4593 22.6649 24.092 22.2697C23.7208 21.8709 23.7426 21.2467 24.1415 20.8754ZM18.6468 26.8087C19.4849 25.7568 20.3724 24.7241 21.2844 23.7397C21.6549 23.3389 22.2797 23.3171 22.6786 23.6864C23.0781 24.0569 23.1019 24.6811 22.7319 25.0807C21.8527 26.0292 20.9974 27.0239 20.1894 28.0379C19.8534 28.4604 19.2324 28.5371 18.8036 28.1946C18.3771 27.8555 18.3071 27.2345 18.6468 26.8087ZM20.2639 61.8439L17.7239 60.5085L15.184 61.8439L15.669 59.0156L13.6143 57.0127L16.454 56.6001L17.7239 54.0269L18.9939 56.6001L21.8336 57.0127L19.7788 59.0156L20.2639 61.8439ZM14.0886 33.492C14.7602 32.329 15.4853 31.1756 16.2438 30.064C16.5521 29.6132 17.166 29.4982 17.6149 29.8052C18.0645 30.1122 18.1807 30.7261 17.8737 31.1763C17.1429 32.2476 16.4442 33.3585 15.7969 34.4784C15.5246 34.9511 14.9195 35.1112 14.4496 34.8393C13.9774 34.5671 13.8163 33.9634 14.0886 33.492ZM10.5751 40.7836C11.0645 39.5365 11.6096 38.2874 12.1953 37.0716C12.4316 36.5811 13.0211 36.3748 13.5125 36.6112C14.0031 36.8482 14.2093 37.4377 13.9729 37.9284C13.4085 39.0997 12.8832 40.3026 12.4118 41.5042C12.2116 42.0132 11.6383 42.2599 11.1331 42.0622C10.6258 41.8631 10.376 41.2909 10.5751 40.7836ZM8.19572 48.5174C8.49177 47.2118 8.84241 45.8966 9.23869 44.6077C9.39862 44.0862 9.95022 43.7934 10.471 43.9546C10.9919 44.1145 11.2841 44.6661 11.1242 45.1869C10.7428 46.4289 10.4049 47.696 10.1197 48.9528C9.99822 49.4882 9.46609 49.817 8.94 49.6971C8.40839 49.5771 8.07498 49.0485 8.19572 48.5174ZM7.44946 52.4947C7.52903 51.9552 8.03645 51.5815 8.57016 51.6644C9.10901 51.7446 9.48082 52.2462 9.40046 52.7851C9.20975 54.0637 9.06587 55.3674 8.97143 56.6594C8.93145 57.2076 8.45061 57.6136 7.91571 57.5714C7.37239 57.5315 6.96402 57.059 7.00374 56.5157C7.10146 55.1745 7.25179 53.8213 7.44946 52.4947ZM7.01215 64.5987C6.91193 63.261 6.86064 61.9015 6.85933 60.5562C6.85867 60.0115 7.29992 59.5697 7.84508 59.5691C9.21685 59.5691 8.7197 60.9932 8.97985 64.451C9.0222 65.0193 8.57437 65.5114 7.99475 65.5114C7.48353 65.5112 7.05135 65.1169 7.01215 64.5987ZM8.21952 72.5941C7.91965 71.2846 7.66595 69.9476 7.46564 68.6188C7.38475 68.08 7.75525 67.5778 8.2941 67.4963C8.83741 67.4115 9.33509 67.7866 9.41663 68.3247C9.60931 69.6046 9.85329 70.8928 10.1424 72.1535C10.2844 72.772 9.81383 73.3602 9.18042 73.3602C8.73009 73.3602 8.32421 73.0507 8.21952 72.5941ZM10.6136 80.319C10.1204 79.0693 9.66889 77.7848 9.27143 76.5018C8.88529 75.2541 10.7691 74.6715 11.1556 75.9175C11.539 77.1537 11.9738 78.3913 12.449 79.5947C12.9288 80.812 11.093 81.5307 10.6136 80.319ZM15.4828 87.9508C15.0076 88.2246 14.4062 88.061 14.1342 87.5924C13.4599 86.4294 12.8216 85.2278 12.2378 84.0212C12.0001 83.5312 12.205 82.941 12.6956 82.7034C13.185 82.4677 13.7758 82.6713 14.0135 83.1618C14.576 84.3242 15.1906 85.4815 15.8411 86.6021C16.114 87.0737 15.9542 87.6772 15.4828 87.9508ZM20.0861 94.4166C19.662 94.7567 19.0403 94.6891 18.7002 94.2624C17.8609 93.2137 17.0504 92.1194 16.2919 91.0109C15.9843 90.5614 16.0993 89.9474 16.5495 89.6398C16.999 89.3348 17.6129 89.4478 17.9206 89.8973C18.6514 90.9653 19.4316 92.0192 20.2402 93.0306C20.5805 93.4558 20.5118 94.0768 20.0861 94.4166ZM25.5974 100.135C25.2262 100.534 24.6032 100.557 24.2031 100.187C23.2187 99.2729 22.2559 98.3108 21.3414 97.327C20.9703 96.9276 20.9934 96.3034 21.3922 95.9327C21.791 95.5609 22.4145 95.5841 22.7865 95.9835C23.6682 96.932 24.5962 97.8601 25.5454 98.7405C25.9447 99.111 25.9679 99.7352 25.5974 100.135ZM31.8948 104.976C31.5871 105.425 30.9741 105.541 30.5236 105.234C29.4185 104.478 28.3234 103.668 27.2703 102.827C26.8446 102.487 26.7745 101.867 27.1149 101.441C27.4539 101.014 28.075 100.945 28.5007 101.285C29.5167 102.096 30.5718 102.877 31.6372 103.605C32.0868 103.913 32.2024 104.527 31.8948 104.976ZM38.842 108.829C38.603 109.324 38.0103 109.523 37.5248 109.288C36.3162 108.704 35.1127 108.066 33.9478 107.391C33.4764 107.119 33.3158 106.515 33.5889 106.043C33.8624 105.571 34.4668 105.411 34.9368 105.685C36.0594 106.334 37.2186 106.95 38.3829 107.512C38.8734 107.749 39.079 108.339 38.842 108.829ZM46.2915 111.602C46.1307 112.122 45.5806 112.413 45.0578 112.254C43.7747 111.857 42.4884 111.407 41.2354 110.913C40.7281 110.714 40.4789 110.141 40.6787 109.635C40.8785 109.127 41.4544 108.879 41.9573 109.078C43.1647 109.552 44.4035 109.987 45.6397 110.368C46.1599 110.529 46.452 111.081 46.2915 111.602ZM46.6999 104.047L44.4072 103.193L43.6141 105.323L42.7414 104.998L44.6674 99.8295L48.1134 101.113L47.8026 101.924L45.237 100.967L44.7079 102.387L47.0006 103.241L46.6999 104.047ZM48.9142 101.361L50.9082 101.845C52.3019 102.183 53.1075 102.754 52.7712 104.14C52.5567 105.024 52.0352 105.488 51.2074 105.531L52.1386 107.819L50.9884 107.54L50.1446 105.427L48.9559 105.139L48.5186 106.941L47.6137 106.722L48.9142 101.361ZM52.9427 114.05C51.6108 113.85 50.2731 113.597 48.9669 113.3C48.4352 113.178 48.1032 112.65 48.224 112.119C48.3454 111.588 48.872 111.258 49.4049 111.376C50.6636 111.663 51.9525 111.906 53.2356 112.099C53.7744 112.18 54.1456 112.682 54.0647 113.221C53.9828 113.768 53.4692 114.132 52.9427 114.05ZM53.8874 108.083L52.899 107.976L55.9077 102.753L56.8968 102.86L58.7206 108.605L57.7322 108.499L57.3174 107.192L54.5713 106.895L53.8874 108.083ZM61.2167 114.649C61.08 114.647 59.4067 114.681 56.9635 114.5C56.4201 114.459 56.0124 113.987 56.0521 113.444C56.0926 112.9 56.5774 112.489 57.1085 112.532C59.2978 112.695 61.0832 112.674 61.2166 112.676C61.7612 112.676 62.203 113.118 62.203 113.663C62.203 114.207 61.7614 114.649 61.2167 114.649ZM60.7358 104.574L60.8558 108.597L59.9247 108.624L59.7609 103.111L60.6914 103.084L64.0167 107.106L63.894 102.988L64.8245 102.96L64.9889 108.473L63.9794 108.504L60.7358 104.574ZM69.2814 114.018C67.9579 114.222 66.606 114.379 65.2631 114.483C64.7456 114.534 64.2466 114.136 64.2028 113.577C64.1598 113.034 64.5657 112.559 65.109 112.517C66.403 112.415 67.706 112.264 68.9807 112.068C69.5131 111.984 70.023 112.354 70.1059 112.892C70.1888 113.431 69.8196 113.935 69.2814 114.018ZM69.4671 107.891C67.8386 108.166 66.412 107.222 66.1334 105.574C65.8663 103.994 66.8355 102.542 68.5756 102.247C69.4188 102.104 70.1753 102.296 70.8465 102.824L70.3707 103.56C69.7964 103.17 69.3581 103.043 68.7093 103.153C67.6391 103.334 66.8916 104.233 67.0844 105.377C67.2775 106.514 68.2931 107.169 69.2885 107C69.8461 106.906 70.2378 106.691 70.7077 106.072L71.4019 106.579C70.9338 107.314 70.2891 107.752 69.4671 107.891ZM73.0434 103.761L75.575 103.001L75.8133 103.795L73.2818 104.555L73.7056 105.968L76.6154 105.095L76.8678 105.934L73.0661 107.075L71.4798 101.792L75.1911 100.678L75.4428 101.517L72.6235 102.363L73.0434 103.761ZM77.158 112.189C75.8729 112.592 74.559 112.95 73.2533 113.252C72.7195 113.375 72.1918 113.043 72.0698 112.514C71.9464 111.983 72.2772 111.453 72.8076 111.331C74.0651 111.039 75.3302 110.694 76.5684 110.306C77.0834 110.142 77.6408 110.433 77.8045 110.953C77.9672 111.473 77.6781 112.026 77.158 112.189ZM84.6692 109.199C83.4651 109.787 82.2212 110.337 80.9727 110.835C80.4669 111.035 79.8935 110.791 79.6909 110.284C79.4893 109.777 79.7359 109.204 80.2419 109.002C81.4453 108.523 82.6437 107.993 83.8048 107.426C84.2922 107.19 84.8843 107.391 85.1232 107.881C85.362 108.37 85.1591 108.961 84.6692 109.199ZM60.423 98.5041C39.1913 98.1139 22.7732 80.6742 23.112 60.018C23.2546 50.9284 26.6637 42.1914 32.7108 35.4166L32.7115 35.4154C45.2076 21.3444 61.2078 22.7892 61.5975 22.7083C82.1792 23.0359 99.2123 39.9579 98.8951 61.1931C98.7253 71.9679 94.0127 81.801 86.458 88.6629C74.4187 99.5985 60.8013 98.4373 60.423 98.5041ZM91.6491 105.123C90.5458 105.883 89.3976 106.612 88.2352 107.292C87.7681 107.566 87.1624 107.411 86.886 106.938C86.6111 106.468 86.7697 105.864 87.2398 105.589C88.3598 104.934 89.4669 104.231 90.5291 103.498C90.9786 103.191 91.5926 103.303 91.9015 103.751C92.2104 104.2 92.0974 104.814 91.6491 105.123ZM97.9477 100.055C96.9709 100.968 95.9428 101.86 94.8922 102.706C94.4692 103.047 93.8478 102.982 93.5057 102.556C93.164 102.132 93.2308 101.511 93.6554 101.17C94.6681 100.354 95.659 99.4943 96.6005 98.6138C96.998 98.242 97.6224 98.2625 97.9948 98.6606C98.3665 99.059 98.346 99.6832 97.9477 100.055ZM103.431 94.1114C102.593 95.1665 101.708 96.2012 100.798 97.1856C100.432 97.5841 99.8065 97.6124 99.4049 97.2409C99.0048 96.8715 98.9798 96.2473 99.3496 95.8473C100.225 94.8987 101.078 93.902 101.886 92.8848C102.225 92.4585 102.844 92.3872 103.271 92.7256C103.698 93.064 103.77 93.6844 103.431 94.1114ZM101.704 27.8934C101.363 27.4688 101.431 26.8479 101.855 26.5062C102.282 26.1665 102.901 26.2346 103.243 26.6577C104.085 27.7065 104.897 28.7988 105.656 29.9041C105.964 30.3536 105.851 30.9676 105.402 31.2759C104.957 31.5819 104.341 31.4741 104.03 31.0215C103.299 29.956 102.516 28.9035 101.704 27.8934ZM107.975 87.4197C107.306 88.5834 106.583 89.7381 105.828 90.851C105.522 91.3013 104.908 91.4186 104.457 91.113C104.006 90.8067 103.889 90.1934 104.195 89.7425C104.923 88.6701 105.62 87.5578 106.266 86.4358C106.537 85.9631 107.141 85.8007 107.612 86.0729C108.084 86.3448 108.247 86.9478 107.975 87.4197ZM111.474 80.1212C110.987 81.3709 110.444 82.6213 109.862 83.8363C109.624 84.3316 109.031 84.5328 108.546 84.2992C108.055 84.0636 107.847 83.4747 108.083 82.9834C108.644 81.8127 109.167 80.6085 109.636 79.4044C109.835 78.8965 110.408 78.6459 110.914 78.8437C111.421 79.0417 111.672 79.6139 111.474 80.1212ZM113.839 72.3822C113.545 73.691 113.197 75.0075 112.803 76.2944C112.642 76.8222 112.084 77.1067 111.571 76.9494C111.051 76.7901 110.757 76.2385 110.916 75.7177C111.295 74.4783 111.631 73.2105 111.914 71.95C112.033 71.4189 112.559 71.0857 113.092 71.2038C113.624 71.3232 113.958 71.851 113.839 72.3822ZM114.576 68.405C114.496 68.948 113.991 69.3163 113.457 69.2379C112.917 69.1583 112.545 68.6574 112.624 68.1185C112.812 66.838 112.954 65.5344 113.046 64.2428C113.084 63.6995 113.572 63.2936 114.1 63.329C114.643 63.3676 115.052 63.8396 115.013 64.3829C114.919 65.7233 114.771 67.0763 114.576 68.405ZM114.167 61.3292H114.165C113.621 61.3292 113.179 60.8893 113.178 60.3455C113.174 59.0494 113.122 57.7388 113.023 56.4499C112.981 55.9066 113.387 55.4327 113.931 55.3909C114.469 55.3472 114.948 55.7551 114.99 56.2983C115.093 57.636 115.147 58.9955 115.151 60.3402C115.152 60.885 114.712 61.3281 114.167 61.3292Z" fill="black"/>
<path d="M58.7507 16.2144C59.6042 16.1727 60.0979 15.977 60.055 15.1189C60.0143 14.3043 59.5306 14.2011 58.6763 14.2429L57.494 14.302L57.5916 16.2722L58.7507 16.2144ZM51.8439 103.911C52.0373 103.118 51.599 102.881 50.7701 102.68L49.62 102.401L49.155 104.319L50.282 104.592C51.1196 104.795 51.643 104.742 51.8439 103.911ZM71.0744 15.271L70.5993 17.1855L71.7251 17.4655C72.5517 17.6702 73.0832 17.6295 73.2907 16.7931C73.4872 16.0001 73.0511 15.7621 72.2234 15.5563L71.0744 15.271Z" fill="black"/>
<path d="M55.0408 106.08L57.0333 106.296L56.281 103.928L55.0408 106.08Z" fill="black"/>
</svg>
