<svg width="24" height="24" viewBox="0 0 24 24" fill="none" xmlns="http://www.w3.org/2000/svg">
<path d="M15.4502 11.136C15.4981 11.0225 15.5784 10.9256 15.6811 10.8574C15.7837 10.7893 15.9042 10.7529 16.0274 10.7529C16.1506 10.7529 16.2711 10.7893 16.3738 10.8574C16.4765 10.9256 16.5568 11.0225 16.6046 11.136L20.0126 19.1904C20.0773 19.3437 20.0785 19.5163 20.0159 19.6704C19.9534 19.8246 19.8322 19.9476 19.679 20.0124C19.6033 20.0454 19.5216 20.0625 19.439 20.0628H12.623C12.5196 20.0626 12.4178 20.0369 12.3268 19.9878C12.2357 19.9388 12.1581 19.8681 12.101 19.7818C12.0439 19.6956 12.009 19.5966 11.9993 19.4936C11.9897 19.3907 12.0057 19.2869 12.0458 19.1916L15.4502 11.136ZM11.381 10.7532C11.4844 10.7534 11.5862 10.7792 11.6773 10.8282C11.7684 10.8772 11.8459 10.948 11.903 11.0342C11.9601 11.1204 11.9951 11.2194 12.0047 11.3224C12.0143 11.4253 11.9984 11.5291 11.9582 11.6244L8.55022 19.68C8.50235 19.7935 8.42206 19.8904 8.31939 19.9586C8.21673 20.0267 8.09624 20.0631 7.97302 20.0631C7.8498 20.0631 7.72932 20.0267 7.62665 19.9586C7.52398 19.8904 7.44369 19.7935 7.39582 19.68L3.98782 11.6244C3.95523 11.5485 3.93797 11.4669 3.93705 11.3843C3.93613 11.3016 3.95156 11.2197 3.98246 11.143C4.01335 11.0664 4.0591 10.9966 4.11707 10.9378C4.17504 10.8789 4.24408 10.8321 4.32022 10.8C4.39596 10.7671 4.47763 10.7499 4.56022 10.7496L11.381 10.7532ZM16.0274 12.9888L13.5662 18.8088H18.4862L16.025 12.9888H16.0274ZM10.4402 12.0072H5.52022L7.98262 17.8272L10.4402 12.0072ZM7.97302 3.9372C8.52602 3.9372 9.0666 4.10119 9.5264 4.40841C9.9862 4.71564 10.3446 5.15232 10.5562 5.66322C10.7678 6.17412 10.8232 6.7363 10.7153 7.27868C10.6074 7.82105 10.3411 8.31925 9.95009 8.71027C9.55907 9.1013 9.06087 9.36759 8.5185 9.47548C7.97612 9.58336 7.41394 9.52799 6.90304 9.31637C6.39214 9.10475 5.95546 8.74638 5.64823 8.28658C5.34101 7.82678 5.17702 7.2862 5.17702 6.7332C5.17687 6.36598 5.24908 6.00233 5.38954 5.66303C5.52999 5.32374 5.73594 5.01544 5.9956 4.75578C6.25526 4.49612 6.56356 4.29017 6.90285 4.14971C7.24215 4.00926 7.6058 3.93705 7.97302 3.9372ZM16.0274 3.9372C16.769 3.9372 17.4801 4.23178 18.0045 4.75613C18.5288 5.28048 18.8234 5.99166 18.8234 6.7332C18.8234 7.2862 18.6594 7.82678 18.3522 8.28658C18.045 8.74638 17.6083 9.10475 17.0974 9.31637C16.5865 9.52799 16.0243 9.58336 15.482 9.47548C14.9396 9.36759 14.4414 9.1013 14.0504 8.71027C13.6593 8.31925 13.393 7.82105 13.2851 7.27868C13.1773 6.7363 13.2326 6.17412 13.4443 5.66322C13.6559 5.15232 14.0142 4.71564 14.474 4.40841C14.9338 4.10119 15.4744 3.9372 16.0274 3.9372ZM7.97302 5.1912C7.77053 5.1912 7.57001 5.23109 7.38293 5.30858C7.19584 5.38607 7.02585 5.49966 6.88266 5.64284C6.73948 5.78603 6.62589 5.95602 6.5484 6.1431C6.47091 6.33019 6.43102 6.5307 6.43102 6.7332C6.43102 6.9357 6.47091 7.13622 6.5484 7.3233C6.62589 7.51038 6.73948 7.68037 6.88266 7.82356C7.02585 7.96675 7.19584 8.08033 7.38293 8.15782C7.57001 8.23532 7.77053 8.2752 7.97302 8.2752C8.38199 8.2752 8.7742 8.11274 9.06338 7.82356C9.35256 7.53438 9.51502 7.14217 9.51502 6.7332C9.51502 6.32424 9.35256 5.93202 9.06338 5.64284C8.7742 5.35366 8.38199 5.1912 7.97302 5.1912ZM16.0274 5.1912C15.6185 5.1912 15.2262 5.35366 14.9371 5.64284C14.6479 5.93202 14.4854 6.32424 14.4854 6.7332C14.4854 7.14217 14.6479 7.53438 14.9371 7.82356C15.2262 8.11274 15.6185 8.2752 16.0274 8.2752C16.4364 8.2752 16.8286 8.11274 17.1178 7.82356C17.407 7.53438 17.5694 7.14217 17.5694 6.7332C17.5694 6.32424 17.407 5.93202 17.1178 5.64284C16.8286 5.35366 16.4364 5.1912 16.0274 5.1912Z" fill="#E0E0E5"/>
</svg>
