<svg width="120" height="65" viewBox="0 0 120 65" fill="none" xmlns="http://www.w3.org/2000/svg">
<g id="google-pay" clip-path="url(#clip0_406_4054)">
<g id="Group 34253">
<path id="Vector" d="M40.395 37.5C40.395 36.095 40.28 34.69 40.04 33.31H20.605V41.245H31.735C31.275 43.805 29.79 46.07 27.62 47.505V52.66H34.265C38.155 49.08 40.395 43.775 40.395 37.5Z" fill="#4285F4"/>
<path id="Vector_2" d="M20.6051 57.64C26.1701 57.64 30.8551 55.815 34.2651 52.665L27.6201 47.51C25.7701 48.765 23.3901 49.48 20.6001 49.48C15.2251 49.48 10.6651 45.86 9.03507 40.975H2.19507V46.285C5.69507 53.25 12.8201 57.64 20.6051 57.64Z" fill="#34A853"/>
<path id="Vector_3" d="M9.04006 40.975C8.18006 38.42 8.18006 35.645 9.04006 33.085V27.78H2.19506C-0.734941 33.605 -0.734941 40.465 2.19506 46.29L9.04006 40.975Z" fill="#FBBC04"/>
<path id="Vector_4" d="M20.6051 24.585C23.5451 24.54 26.3801 25.645 28.5101 27.675L34.3951 21.795C30.6651 18.29 25.7251 16.37 20.6051 16.425C12.8201 16.425 5.69507 20.825 2.19507 27.78L9.04007 33.09C10.6701 28.205 15.2301 24.585 20.6051 24.585Z" fill="#EA4335"/>
</g>
<path id="Vector_5" d="M54.5851 36.485V51.005H49.9751V15.135H62.1951C65.1451 15.075 67.9951 16.19 70.1101 18.24C72.2551 20.17 73.4601 22.93 73.4151 25.81C73.4801 28.71 72.2701 31.495 70.1101 33.425C67.9701 35.465 65.3351 36.485 62.1951 36.475L54.5851 36.485ZM54.5851 19.55V32.075H62.3101C64.0251 32.125 65.6751 31.45 66.8701 30.215C69.2901 27.865 69.3451 23.99 66.9901 21.57L66.8701 21.45C65.6951 20.19 64.0301 19.5 62.3101 19.545L54.5851 19.55ZM84.0351 25.66C87.4451 25.66 90.1301 26.57 92.1001 28.39C94.0701 30.21 95.0501 32.71 95.0501 35.875V51.005H90.6501V47.595H90.4501C88.5451 50.4 86.0001 51.8 82.8351 51.8C80.1351 51.8 77.8701 51 76.0501 49.395C74.2851 47.905 73.2801 45.7 73.3251 43.385C73.3251 40.845 74.2851 38.825 76.2051 37.325C78.1251 35.825 80.6851 35.075 83.8951 35.075C86.6301 35.075 88.8901 35.575 90.6551 36.575V35.52C90.6651 33.94 89.9651 32.445 88.7501 31.44C87.5301 30.345 85.9401 29.74 84.3001 29.76C81.7251 29.76 79.6901 30.85 78.1901 33.015L74.1351 30.46C76.3551 27.26 79.6601 25.66 84.0351 25.66ZM78.0701 43.49C78.0651 44.68 78.6351 45.8 79.5951 46.495C80.6151 47.295 81.8801 47.72 83.1751 47.695C85.1201 47.69 86.9851 46.915 88.3601 45.54C89.8851 44.1 90.6501 42.42 90.6501 40.485C89.2151 39.34 87.2101 38.765 84.6351 38.765C82.7651 38.765 81.2001 39.215 79.9501 40.12C78.7001 41.04 78.0701 42.155 78.0701 43.49ZM120.355 26.46L104.97 61.825H100.215L105.925 49.45L95.8051 26.46H100.81L108.12 44.09H108.22L115.335 26.46H120.355Z" fill="#5F6368"/>
</g>
<defs>
<clipPath id="clip0_406_4054">
<rect width="120" height="65" fill="white"/>
</clipPath>
</defs>
</svg>
