<svg width="79" height="57" viewBox="0 0 79 57" fill="none" xmlns="http://www.w3.org/2000/svg">
<g id="ccbceecb-de15-46ba-8ec1-89a5081b382d">
<g id="Group">
<g id="Group_2">
<path id="Vector" d="M37.6132 56.7709C22.1705 56.7709 9.66479 44.2846 9.66479 28.8659C9.66479 13.4472 22.1705 0.960892 37.6132 0.960892C44.0556 0.960892 50.4032 3.23113 55.4244 7.29864C58.5509 9.85266 61.1089 13.1634 62.8142 16.758C63.1931 17.4201 62.8142 18.2715 62.151 18.6498C61.4878 19.0282 60.6352 18.6498 60.2562 17.9877C58.6456 14.7715 56.3718 11.8391 53.6244 9.47429C49.1716 5.78515 43.4871 3.7041 37.6132 3.7041C23.7811 3.7041 12.507 14.9607 12.507 28.7713C12.507 42.582 23.7811 53.9331 37.6132 53.9331C47.3715 53.9331 56.2771 48.2575 60.4457 39.3658C60.7299 38.609 61.5826 38.3253 62.3405 38.7036C63.0984 38.9874 63.3826 39.8387 63.0037 40.5955C58.4561 50.4332 48.5084 56.7709 37.6132 56.7709Z" fill="black"/>
<path id="Vector_2" d="M16.4861 46.9332C8.14897 46.9332 2.27506 44.663 0.664474 40.4063C-1.04085 35.7712 2.3698 29.8119 10.328 23.8525C10.9912 23.3795 11.8438 23.4741 12.3175 24.1363C12.7913 24.7984 12.6965 25.6497 12.0333 26.1227C5.4015 31.1362 2.18032 36.1496 3.31721 39.4604C5.21202 44.5684 18.2862 46.3657 37.0448 40.5955C37.8027 40.4063 38.5606 40.7847 38.8449 41.5414C39.0344 42.2982 38.6554 43.0549 37.8975 43.3387C29.9393 45.7981 22.5495 46.9332 16.4861 46.9332ZM73.2357 15.4337C72.6672 15.4337 72.0988 15.0553 71.9093 14.4877C70.6777 11.177 64.9932 9.47429 56.6561 9.85266H54.477C53.7191 9.85266 53.0559 9.19051 53.0559 8.43376C53.0559 7.67702 53.7191 7.01486 54.477 7.01486H56.5613C66.4143 6.5419 72.8567 8.81214 74.562 13.5418C74.8462 14.2985 74.4673 15.0553 73.7094 15.3391C73.5199 15.4337 73.4251 15.4337 73.2357 15.4337Z" fill="black"/>
<path id="Vector_3" d="M37.6133 43.1495C37.4238 43.1495 37.2343 43.1495 37.0448 43.0549L30.1288 39.8387C29.3708 39.555 29.0866 38.7036 29.4656 37.9469C29.8446 37.1901 30.6025 36.9064 31.3604 37.2847L38.2764 40.5009C39.0344 40.7847 39.3186 41.636 38.9396 42.3928C38.6554 42.8657 38.1817 43.1495 37.6133 43.1495Z" fill="black"/>
<path id="Vector_4" d="M34.392 50.0548C34.2026 50.0548 34.0131 50.0548 33.8236 49.9602C33.0657 49.6764 32.7815 48.8251 33.1604 48.0684L36.3816 41.163C36.7606 40.4063 37.5185 40.1225 38.2764 40.5009C39.0343 40.7847 39.3185 41.636 38.9396 42.3928L35.7184 49.2035C35.4342 49.771 34.9605 50.0548 34.392 50.0548Z" fill="black"/>
<g id="Group_3">
<path id="Vector_5" d="M45.761 40.2171C45.5715 40.2171 45.382 40.2171 45.1925 40.1225L33.8237 34.9199C33.2552 34.6361 32.8763 33.974 33.0658 33.3118C33.2553 32.6497 33.729 32.1767 34.3921 32.1767L45.6662 31.7983L49.7401 29.3389L43.3925 22.5282C43.1083 22.2444 43.0135 21.866 43.0135 21.4876C43.0135 21.1093 43.203 20.7309 43.4872 20.4471C43.6767 20.3525 45.0978 19.1228 47.94 19.1228C51.4454 19.1228 55.5193 20.9201 60.0668 24.3254L69.7303 19.8796C70.2988 19.5958 71.1514 19.5012 72.0988 19.5012C73.8989 19.5012 77.2148 19.9741 78.0675 21.9606C78.4464 22.8119 78.8254 24.3254 77.1201 25.7443C76.2674 26.4065 74.941 27.0686 73.3305 27.8254L46.3294 40.1225C46.14 40.2171 45.9505 40.2171 45.761 40.2171ZM40.4555 34.8253L45.761 37.1901L72.0041 25.2714C73.4252 24.6092 75.2253 23.8525 75.4147 23.3795C75.4147 23.3795 75.4147 23.2849 75.32 23.1903C75.1305 22.9065 73.7094 22.4336 71.9093 22.4336C71.2462 22.4336 70.8672 22.5282 70.6777 22.6228L60.2563 27.3524C59.7826 27.5416 59.2141 27.5416 58.7404 27.1632C53.435 22.9065 49.8348 22.0552 47.7505 22.0552C47.3716 22.0552 46.9926 22.0552 46.6137 22.1498L52.7718 28.6767C53.056 28.9605 53.2455 29.4335 53.1507 29.8119C53.056 30.1902 52.8665 30.5686 52.4876 30.8524L46.6137 34.4469C46.4242 34.5415 46.1399 34.6361 45.9505 34.6361L40.4555 34.8253Z" fill="black"/>
</g>
</g>
</g>
</g>
</svg>
