<svg width="32" height="32" viewBox="0 0 32 32" fill="none" xmlns="http://www.w3.org/2000/svg">
<g id="vuesax/outline/import">
<g id="vuesax/outline/import_2">
<g id="import">
<path id="Vector" d="M20.3467 29.6666H11.6533C5.10667 29.6666 2.30667 26.8666 2.30667 20.32V20.1466C2.30667 14.2266 4.64 11.3733 9.86667 10.88C10.4 10.84 10.9067 11.24 10.96 11.7866C11.0133 12.3333 10.6133 12.8266 10.0533 12.88C5.86667 13.2666 4.30667 15.24 4.30667 20.16V20.3333C4.30667 25.76 6.22667 27.68 11.6533 27.68H20.3467C25.7733 27.68 27.6933 25.76 27.6933 20.3333V20.16C27.6933 15.2133 26.1067 13.24 21.84 12.88C21.2933 12.8266 20.88 12.3466 20.9333 11.8C20.9867 11.2533 21.4533 10.84 22.0133 10.8933C27.32 11.3466 29.6933 14.2133 29.6933 20.1733V20.3466C29.6933 26.8666 26.8933 29.6666 20.3467 29.6666Z" fill="white"/>
<path id="Vector_2" d="M16 20.8401C15.4533 20.8401 15 20.3867 15 19.8401V2.66675C15 2.12008 15.4533 1.66675 16 1.66675C16.5467 1.66675 17 2.12008 17 2.66675V19.8401C17 20.4001 16.5467 20.8401 16 20.8401Z" fill="white"/>
<path id="Vector_3" d="M16 22.3335C15.7467 22.3335 15.4933 22.2401 15.2933 22.0401L10.8267 17.5735C10.44 17.1868 10.44 16.5468 10.8267 16.1601C11.2133 15.7735 11.8533 15.7735 12.24 16.1601L16 19.9201L19.76 16.1601C20.1467 15.7735 20.7867 15.7735 21.1733 16.1601C21.56 16.5468 21.56 17.1868 21.1733 17.5735L16.7067 22.0401C16.5067 22.2401 16.2533 22.3335 16 22.3335Z" fill="white"/>
</g>
</g>
</g>
</svg>
