<svg width="121" height="121" viewBox="0 0 121 121" fill="none" xmlns="http://www.w3.org/2000/svg">
<path d="M88.4891 105.917H90.4948L89.4913 103.646L88.4891 105.917Z" fill="black"/>
<path d="M61.1514 7.96007C60.7832 7.63127 60.2045 7.63127 59.8362 7.97322C28.8365 36.0134 11.6729 73.3131 11.502 112.993C11.502 113.243 11.6072 113.506 11.7913 113.69C11.9754 113.875 12.2253 113.98 12.4884 113.98H108.499C108.762 113.98 109.012 113.875 109.196 113.69C109.38 113.506 109.486 113.243 109.486 112.993C109.315 73.2999 92.1511 36.0005 61.1514 7.96007ZM62.7365 35.7953C62.9981 35.7953 63.5211 36.023 63.9076 36.2388C63.6916 35.8637 63.4528 35.3407 63.4528 35.0791C63.4528 34.6475 63.7598 34.3062 64.135 34.3062C64.5215 34.3062 64.8285 34.6475 64.8285 35.0791C64.8285 35.3408 64.567 35.8639 64.3624 36.2388C64.7489 36.023 65.2833 35.7953 65.5333 35.7953C65.9654 35.7953 66.2951 36.0911 66.2951 36.4661C66.2951 36.8526 65.9654 37.1596 65.5333 37.1596C65.2833 37.1596 64.7489 36.8983 64.3624 36.7049C64.567 37.08 64.8285 37.6143 64.8285 37.8644C64.8285 38.2966 64.5215 38.6373 64.135 38.6373C63.7598 38.6373 63.4528 38.2966 63.4528 37.8644C63.4528 37.6143 63.6915 37.08 63.9076 36.7049C63.5211 36.8983 62.9981 37.1596 62.7365 37.1596C62.3046 37.1596 61.9634 36.8526 61.9634 36.4661C61.9634 36.0911 62.3046 35.7953 62.7365 35.7953ZM26.2043 108.034L24.8864 106.179H23.6637V108.034H22.7325V102.516H24.7837C26.2287 102.516 27.1354 102.889 27.1354 104.309C27.1354 105.218 26.7385 105.791 25.9448 106.028L27.3885 108.034H26.2043ZM32.4464 108.034H28.4776V102.516H32.3526V103.392H29.4088V104.854H32.0521V105.681H29.4088V107.158H32.4464V108.034ZM33.303 89.0632C33.303 88.7251 33.6259 88.0026 33.918 87.4956C33.3952 87.7569 32.6881 88.1105 32.3345 88.1105C31.7504 88.1105 31.2892 87.6953 31.2892 87.1726C31.2892 86.6656 31.7504 86.2655 32.3345 86.2655C32.6881 86.2655 33.3952 86.5731 33.918 86.865C33.6259 86.3577 33.303 85.6506 33.303 85.2971C33.303 84.713 33.7181 84.2519 34.2255 84.2519C34.748 84.2519 35.1633 84.713 35.1633 85.2971C35.1633 85.6506 34.8097 86.3577 34.533 86.865C35.0557 86.5731 35.7782 86.2655 36.1164 86.2655C36.7006 86.2655 37.1463 86.6656 37.1463 87.1726C37.1463 87.6954 36.7006 88.1105 36.1164 88.1105C35.7782 88.1105 35.0557 87.7569 34.533 87.4956C34.8097 88.0026 35.1633 88.7251 35.1633 89.0632C35.1633 89.6476 34.7482 90.1087 34.2255 90.1087C33.7181 90.1088 33.303 89.6477 33.303 89.0632ZM35.5482 106.415H34.5696V108.034H33.6384V102.516H35.5328C37.0128 102.516 37.9385 103.001 37.9385 104.481C37.9385 105.936 37.0192 106.415 35.5482 106.415ZM43.636 105.611C43.636 107.245 42.6284 108.088 41.2997 108.088C39.9767 108.088 38.9646 107.249 38.9646 105.611V102.516H39.8958V105.57C39.8958 106.518 40.3798 107.212 41.2997 107.212C42.2273 107.212 42.7048 106.509 42.7048 105.57V102.516H43.636V105.611ZM47.511 108.034H45.0964V102.516H47.2426C48.6323 102.516 49.1923 103.155 49.1923 103.978C49.1923 104.647 48.9029 104.929 48.3792 105.17C49.0439 105.31 49.4993 105.786 49.4993 106.503C49.4993 107.331 48.9433 108.034 47.511 108.034ZM54.1167 108.034H50.6681V102.516H51.5993V107.15H54.1167V108.034ZM56.0651 108.034H55.1339V102.516H56.0651V108.034ZM60.1136 107.189C60.6758 107.189 61.1004 107.043 61.6676 106.51L62.2675 107.124C61.6843 107.772 60.9754 108.095 60.1405 108.095C58.468 108.095 57.2404 106.908 57.2404 105.254C57.2404 103.661 58.436 102.382 60.2047 102.382C61.0588 102.382 61.773 102.698 62.3471 103.33L61.755 103.978C61.2188 103.46 60.7937 103.3 60.1842 103.3C59.1007 103.3 58.2114 104.058 58.2114 105.221C58.2114 106.383 59.114 107.189 60.1136 107.189ZM68.1141 108.088C66.4831 108.088 65.2101 106.885 65.2101 105.236C65.2101 103.592 66.475 102.382 68.1141 102.382C69.7618 102.382 71.0181 103.598 71.0181 105.236C71.0181 106.881 69.752 108.088 68.1141 108.088ZM75.864 103.384H73.1257V104.9H75.5725V105.76H73.1257V108.034H72.1945V102.516H75.8717L75.864 103.384ZM80.0537 108.034H79.1226V102.516H80.0537V108.034ZM85.0564 108.034L83.7387 106.179H82.5159V108.034H81.5848V102.516H83.636C85.081 102.516 85.9877 102.889 85.9877 104.309C85.9877 105.218 85.5908 105.791 84.7971 106.028L86.2408 108.034H85.0564ZM91.4258 108.034L90.8735 106.778H88.1107L87.5585 108.034H86.5643L88.9944 102.516H89.9886L92.4199 108.034H91.4258ZM90.2222 87.4809C90.17 88.5284 88.9571 88.3892 88.8248 88.4339C88.8045 88.8353 88.7304 89.362 88.7361 89.6001C88.8799 95.4055 79.4173 90.7333 77.156 90.4965C76.4946 90.3129 75.7457 90.1022 75.0535 89.6745C73.658 88.8161 73.7358 86.0522 72.2228 86.6845C69.6077 87.7647 66.411 87.6299 63.968 86.3312C61.973 85.2725 57.8455 81.6201 56.7779 79.1412C55.619 76.4678 56.335 77.2235 53.6799 76.304C53.152 76.1396 52.7025 76.1859 52.7025 76.1859C52.5227 76.4839 52.2298 76.7036 51.8638 76.6457C50.9889 76.6361 50.9135 75.7036 49.6842 73.7841C47.8452 70.6002 49.6493 69.4766 47.0704 67.6216C46.2091 67.001 45.5053 66.3072 44.6944 65.966C44.2204 65.7669 43.979 65.2365 44.1395 64.7484C44.1433 64.7381 44.2191 64.471 43.4189 63.7542C40.8867 61.4798 42.2902 60.1895 43.5345 58.6591C45.6966 55.9921 42.3004 58.3282 40.1656 51.234C38.7662 46.5837 38.5874 46.2054 38.6294 45.2924C38.6915 43.8768 39.7402 42.3897 41.1211 42.3897C43.1102 42.3897 42.8848 44.7429 44.8921 45.0279C47.4479 45.3775 48.1459 41.1972 51.0212 42.4823C51.7251 42.7995 52.2298 43.497 52.3095 44.2624C52.4357 45.4899 51.7546 45.9354 51.91 46.1684C52.1619 46.4203 52.6525 46.6438 53.0711 47.1163C54.2693 48.4694 53.0973 48.7845 56.1241 50.4596C59.2625 52.1903 60.6072 52.7152 64.682 52.0368C65.0197 51.9803 65.2959 51.7016 65.418 51.2906C65.7502 50.176 66.6016 49.4165 67.6027 48.8232C73.4065 45.3831 78.8999 48.1411 84.0108 51.2725C91.6016 55.9324 83.7857 59.5179 85.6497 62.8732C86.9632 65.2033 85.3239 66.7653 86.0453 67.4867C86.6048 67.5894 86.9953 68.1977 86.6657 68.8302C86.8133 69.0734 87.0687 69.1716 87.2026 69.2708C89.1754 70.4789 89.0865 72.1967 87.9475 73.3782C85.831 75.5953 86.3426 78.1139 89.1253 79.3918C91.6488 80.5484 91.6112 81.3718 91.8199 83.042C92.4302 83.2639 92.9383 83.5008 93.175 84.2378C93.9581 86.6971 90.4058 87.068 90.2222 87.4809ZM98.2509 108.034H97.2414L94.1164 104.009V108.034H93.1853V102.516H94.1164L97.3196 106.636V102.516H98.2508L98.2509 108.034ZM97.8025 95.4294C97.5523 95.4294 97.0181 95.1681 96.6314 94.9747C96.836 95.3498 97.0976 95.8841 97.0976 96.1342C97.0976 97.3317 94.8565 97.266 96.1767 94.9747C95.7902 95.1681 95.267 95.4294 95.0056 95.4294C93.8163 95.4294 93.8563 93.2134 96.1767 94.5085C94.8641 92.2305 97.0976 92.1378 97.0976 93.3487C97.0976 93.6105 96.836 94.1335 96.6314 94.5085C98.0876 93.6957 98.5641 94.2433 98.5641 94.7359C98.5641 95.1224 98.2345 95.4294 97.8025 95.4294Z" fill="black"/>
<path d="M68.1141 103.235C67.0053 103.235 66.1657 104.127 66.1657 105.236C66.1657 106.338 66.9977 107.235 68.1141 107.235C69.2326 107.235 70.0637 106.337 70.0637 105.236C70.0637 104.129 69.2259 103.235 68.1141 103.235ZM89.8036 82.3831C89.6689 81.6276 88.3315 81.2738 87.3941 80.7288C84.4608 79.0222 83.5246 75.1486 86.5233 72.0129C87.5685 70.9265 84.8059 71.075 84.6661 68.9072C83.1597 67.4471 84.3859 65.2176 84.2255 64.4748C84.0274 63.5738 82.2021 62.4419 84.3861 58.4202C85.893 55.6531 85.9139 54.753 82.9797 52.9551C78.3758 50.1328 73.616 47.5538 68.6099 50.5211C68.0839 50.8326 67.4818 51.2673 67.3088 51.8531C66.971 52.9859 66.0898 53.8014 65.0071 53.9825C60.4741 54.738 58.697 54.1331 55.1713 52.1857C51.4537 50.1349 52.4551 48.9927 51.1666 48.0821C48.5824 46.2647 50.9023 44.5923 50.2136 44.2816C48.7328 44.2581 48.098 47.4808 44.6136 46.9802C42.1643 46.6355 41.4518 44.5356 41.0905 44.3549C39.851 45.5044 41.3003 47.0699 42.0538 50.6664C43.5888 55.7557 44.704 54.37 45.7798 56.0506C46.9896 57.9257 45.3104 59.6008 44.2463 60.912C43.396 61.9539 45.8795 62.4516 46.1086 64.4723C52.0099 67.8819 49.8165 70.0599 51.394 72.8016L52.2378 74.2671C53.4216 73.9645 56.154 74.9624 56.6522 75.2638C57.8589 75.9935 58.1671 77.3803 58.5891 78.3605C59.4449 80.3451 63.2455 83.7139 64.8941 84.5898C70.0044 87.3082 73.185 82.3484 75.1359 86.167L76.0247 87.9021C76.5462 88.2784 77.1267 88.4403 77.6879 88.597C86.9468 91.2086 86.5651 91.3609 86.8122 88.8358C86.8392 88.5636 86.8893 88.0561 86.8405 87.9008C86.6293 87.2339 87.1213 86.6144 87.6663 86.5625L88.5191 86.4816C89.2149 85.2893 90.6536 85.2439 91.1649 84.9017C89.5917 84.3297 89.8993 82.9127 89.8036 82.3831ZM83.7002 103.361H82.516V105.334H83.6757C84.533 105.334 85.0333 105.163 85.0333 104.304C85.0333 103.489 84.5534 103.361 83.7002 103.361ZM47.3685 105.665H46.0276V107.173H47.488C48.122 107.173 48.5451 107.031 48.5451 106.4C48.5451 105.909 48.1533 105.665 47.3685 105.665ZM24.848 103.361H23.6638V105.334H24.8235C25.6808 105.334 26.1811 105.163 26.1811 104.304C26.1812 103.489 25.7012 103.361 24.848 103.361ZM48.2214 104.119C48.2214 103.531 47.8108 103.376 47.2196 103.376H46.0276V104.805H47.2118C47.8848 104.805 48.2214 104.576 48.2214 104.119ZM35.5161 103.361H34.5696V105.57H35.6511C36.5346 105.57 36.9843 105.301 36.9843 104.407C36.9842 103.547 36.3798 103.361 35.5161 103.361Z" fill="black"/>
<path d="M8.67386 102.511L8.67255 102.515L8.67386 102.524V102.511Z" fill="black"/>
<path d="M18.8538 57.6612C19.3336 57.875 19.9283 57.6502 20.1433 57.1487H20.1562C20.3669 56.6491 20.1433 56.0699 19.6425 55.8464C19.1429 55.637 18.565 55.8605 18.3414 56.3601C18.3543 56.3601 18.3543 56.3601 18.3543 56.3601C18.1178 56.8597 18.3541 57.4376 18.8538 57.6612ZM7.60893 103.418C8.28495 103.418 8.63506 102.997 8.67255 102.515C8.70727 101.966 8.30337 101.497 7.76689 101.459C7.22739 101.406 6.75351 101.813 6.7009 102.366C6.66224 102.905 7.06943 103.379 7.60893 103.418ZM27.8895 40.169C28.288 40.4347 28.9461 40.3413 29.2445 39.8543V39.8402C29.5335 39.3804 29.3884 38.7754 28.9286 38.4865C28.4546 38.1962 27.8497 38.3542 27.5735 38.8153C27.2845 39.2751 27.4297 39.8799 27.8895 40.169ZM20.472 54.0584C20.9906 54.3177 21.5654 54.0651 21.7732 53.5973C22.0108 53.0976 21.8001 52.5197 21.3134 52.282C20.8266 52.0457 20.2345 52.2564 19.9981 52.7432C19.9981 52.7561 19.9981 52.7561 19.9981 52.7561C19.7618 53.2428 19.9712 53.8207 20.472 54.0584ZM23.9964 47.0212C24.4786 47.2857 25.0786 47.0875 25.3245 46.614C25.5878 46.14 25.4041 45.548 24.9302 45.2859C24.4562 45.0226 23.8513 45.2063 23.588 45.6802C23.3388 46.153 23.5096 46.7592 23.9964 47.0212ZM10.4101 83.9C10.9789 84.0227 11.4797 83.6575 11.5801 83.1513H11.5942C11.7123 82.6246 11.3694 82.098 10.8441 81.9799C10.3046 81.8489 9.77812 82.1906 9.65988 82.7171C9.54191 83.2565 9.8836 83.7818 10.4101 83.9ZM14.6063 68.6966C15.0583 68.8696 15.682 68.6326 15.8547 68.0789C16.0396 67.5651 15.7635 67.0129 15.2497 66.8291C14.7373 66.6442 14.1721 66.9203 13.9871 67.4469C13.8164 67.9593 14.0924 68.5117 14.6063 68.6966ZM25.8897 43.5623C26.3341 43.8224 26.9585 43.6982 27.2447 43.2078C27.5209 42.7338 27.3501 42.129 26.8903 41.8528C26.4163 41.5895 25.8114 41.7474 25.5352 42.2214C25.259 42.6941 25.4299 43.299 25.8897 43.5623ZM11.304 80.0596C11.9506 80.1639 12.3808 79.7914 12.5011 79.3365C12.6335 78.8099 12.3047 78.2717 11.778 78.1394C11.2514 78.0084 10.7121 78.3243 10.5809 78.8496C10.5809 78.8625 10.5809 78.8625 10.5809 78.8625C10.4499 79.3892 10.7647 79.9286 11.304 80.0596ZM11.647 116.768C11.1075 116.768 10.6606 117.214 10.6606 117.754C10.6606 118.306 11.1075 118.74 11.647 118.74C12.1993 118.74 12.6335 118.306 12.6335 117.754C12.6335 117.214 12.1993 116.768 11.647 116.768ZM31.3355 36.5393C31.6373 36.0795 31.5063 35.4745 31.0465 35.1715C30.5983 34.8825 29.9805 35.0006 29.6914 35.4604C29.3883 35.9215 29.5206 36.5264 29.9676 36.8282C30.4624 37.1334 31.0569 36.9745 31.3355 36.5393ZM15.5927 116.768C15.0532 116.768 14.6063 117.214 14.6063 117.754C14.6063 118.306 15.0532 118.74 15.5927 118.74C16.145 118.74 16.5791 118.306 16.5791 117.754C16.5791 117.214 16.145 116.768 15.5927 116.768ZM12.2904 76.2322C12.8146 76.385 13.3556 76.0829 13.5145 75.5617C13.6584 75.0364 13.3566 74.4828 12.8299 74.3389C12.3047 74.1937 11.7651 74.4969 11.6072 75.0222C11.462 75.536 11.7651 76.0883 12.2904 76.2322ZM13.3951 72.4445C13.8091 72.6228 14.4538 72.3725 14.6319 71.7997C14.8028 71.2873 14.5009 70.7349 13.9872 70.5641C13.4619 70.4061 12.9097 70.6951 12.7516 71.2088C12.5807 71.7342 12.8698 72.2865 13.3951 72.4445ZM15.9215 64.9744C16.4219 65.1659 16.9954 64.926 17.1841 64.3952C17.3806 63.8955 17.1173 63.3176 16.6176 63.1326C16.1052 62.9361 15.5259 63.1994 15.3423 63.6991C15.1445 64.2115 15.4076 64.7908 15.9215 64.9744ZM19.5383 116.768C18.9988 116.768 18.5519 117.214 18.5519 117.754C18.5519 118.306 18.9988 118.74 19.5383 118.74C20.0906 118.74 20.5248 118.306 20.5248 117.754C20.5248 117.214 20.0906 116.768 19.5383 116.768ZM17.3279 61.2921C17.8926 61.5168 18.4251 61.217 18.6174 60.7526C18.8281 60.2529 18.5776 59.6737 18.0779 59.4772C17.5783 59.2665 16.9991 59.5029 16.7884 60.0154C16.5919 60.5164 16.8282 61.0943 17.3279 61.2921ZM8.16119 97.5261C7.62169 97.4734 7.13493 97.8678 7.08232 98.4071C7.01682 98.9466 7.41112 99.4334 7.95062 99.486C8.30639 99.6007 8.97544 99.2527 9.04239 98.6177C9.09486 98.0656 8.70056 97.5916 8.16119 97.5261ZM7.26724 111.323C7.28013 111.323 7.28013 111.323 7.29288 111.323C7.8195 111.323 8.26641 110.889 8.2793 110.35C8.29219 109.81 7.85803 109.363 7.30577 109.35C6.76627 109.336 6.31936 109.757 6.30647 110.31C6.29371 110.849 6.71498 111.309 7.26724 111.323ZM7.70139 116.768C7.16189 116.768 6.71498 117.214 6.71498 117.754C6.71498 118.306 7.16189 118.74 7.70139 118.74C8.25365 118.74 8.6878 118.306 8.6878 117.754C8.6878 117.214 8.25365 116.768 7.70139 116.768ZM8.22669 114.282C8.22669 113.743 7.79254 113.296 7.25316 113.296C6.7009 113.296 6.26675 113.73 6.26675 114.282C6.25386 114.822 6.7009 115.269 7.24028 115.269C7.79254 115.269 8.22669 114.822 8.22669 114.282ZM10.003 85.8343C9.46352 85.7289 8.94979 86.0835 8.84445 86.61C8.7391 87.1495 9.09486 87.6619 9.63437 87.7673C10.1365 87.8658 10.6836 87.5284 10.7916 86.9916C10.8841 86.4521 10.5412 85.9383 10.003 85.8343ZM9.2786 89.7131C8.7391 89.622 8.23958 89.9893 8.1483 90.5287C8.05584 91.0553 8.4245 91.5677 8.96387 91.6603C9.39513 91.7655 9.99842 91.4396 10.0942 90.8447C10.1866 90.3053 9.81797 89.8056 9.2786 89.7131ZM8.66084 93.6061C8.12134 93.5406 7.63458 93.922 7.55632 94.4615C7.47675 94.9881 7.85816 95.4877 8.39754 95.566C9.085 95.566 9.43735 95.2069 9.51626 94.7248C9.58176 94.1854 9.20021 93.6858 8.66084 93.6061ZM7.38534 107.363C7.39823 107.363 7.41099 107.363 7.43795 107.363C7.95036 107.363 8.3974 106.956 8.42437 106.429C8.45001 105.891 8.03006 105.43 7.49056 105.39C6.9383 105.365 6.47719 105.786 6.45154 106.324C6.42471 106.878 6.84597 107.338 7.38534 107.363ZM94.6238 42.7467C95.0836 42.4705 95.2416 41.8657 94.9655 41.393C94.6893 40.9319 94.0972 40.7739 93.6234 41.0501C93.1507 41.3263 92.9927 41.9312 93.2689 42.3923C93.5552 42.8851 94.1815 43.0057 94.6238 42.7467ZM88.2841 32.7387C88.731 32.4228 88.8364 31.8049 88.5204 31.3567C88.2186 30.9098 87.6008 30.8044 87.1526 31.1203C86.7057 31.4235 86.6004 32.0412 86.9034 32.4882C87.24 32.9612 87.8718 33.024 88.2841 32.7387ZM92.5984 39.3533C93.0582 39.0644 93.2034 38.4594 92.9131 37.9996C92.6242 37.5256 92.0192 37.3946 91.5594 37.6837C91.0854 37.9726 90.9544 38.5776 91.2435 39.0387C91.5568 39.5538 92.223 39.6036 92.5984 39.3533ZM90.4804 36.0127C90.9402 35.7108 91.0596 35.1058 90.7566 34.6449C90.4676 34.1979 89.8497 34.0668 89.4015 34.3687C88.9417 34.6718 88.8107 35.2767 89.1125 35.7365C89.4511 36.2334 90.0944 36.3047 90.4804 36.0127ZM81.1685 23.2419C81.5898 22.9002 81.6553 22.2825 81.3137 21.8612C80.9579 21.4413 80.3402 21.3744 79.9189 21.7173C79.499 22.059 79.4462 22.6897 79.7879 23.1109C80.1028 23.5163 80.7597 23.5936 81.1685 23.2419ZM83.6282 26.3464C84.0495 26.0176 84.1279 25.3869 83.7991 24.9656C83.4574 24.5315 82.8396 24.4519 82.4055 24.7948C81.9842 25.1236 81.9058 25.7414 82.2346 26.1755C82.5776 26.6106 83.203 26.6823 83.6282 26.3464ZM85.9954 29.5163C86.4295 29.1875 86.522 28.5697 86.2061 28.1356C85.8773 27.6887 85.2595 27.5961 84.8253 27.9249C84.3784 28.2408 84.2858 28.8714 84.6146 29.3056C84.9567 29.7611 85.5719 29.8092 85.9954 29.5163ZM110.025 86.1104C110.12 86.6037 110.601 87.0001 111.182 86.8861C111.722 86.7807 112.063 86.2541 111.958 85.7288C111.853 85.1893 111.326 84.8478 110.801 84.9518C110.261 85.0571 109.92 85.571 110.025 86.1104ZM106.079 70.9584C106.241 71.4319 106.717 71.7524 107.329 71.6031C107.842 71.4323 108.131 70.8659 107.96 70.3534C107.789 69.8409 107.237 69.5506 106.723 69.7227C106.197 69.8795 105.921 70.446 106.079 70.9584ZM77.25 20.0991C77.6055 20.5265 78.2502 20.5427 78.6436 20.2044C79.0519 19.8487 79.1034 19.2309 78.7489 18.8108C78.3802 18.4024 77.7625 18.3626 77.3553 18.7184C76.934 19.0728 76.8942 19.6919 77.25 20.112V20.0991ZM110.735 89.9636C110.85 90.558 111.444 90.8726 111.88 90.7664C112.418 90.6739 112.774 90.1614 112.681 89.622C112.59 89.0954 112.089 88.7267 111.551 88.8192C111.011 88.9116 110.656 89.4242 110.735 89.9636ZM97.0565 49.2702C97.2753 49.6915 97.8217 49.9478 98.3846 49.6915C98.8713 49.441 99.0563 48.8503 98.8187 48.3634C98.5554 47.8766 97.9646 47.6929 97.4906 47.9421C97.0039 48.1784 96.8074 48.7834 97.0565 49.2702ZM102.028 59.9242C102.224 60.3955 102.76 60.6873 103.317 60.4638C103.816 60.2531 104.054 59.6738 103.843 59.1742C103.633 58.6618 103.055 58.4241 102.554 58.6347C102.054 58.8454 101.818 59.4246 102.028 59.9242ZM33.519 33.2911C33.8337 32.8442 33.7155 32.2251 33.2686 31.9233C32.8216 31.6074 32.2038 31.7255 31.9007 32.1725C31.5848 32.6207 31.7042 33.2385 32.1511 33.5403C32.5917 33.8451 33.225 33.7299 33.519 33.2911ZM96.5568 46.1927C97.0308 45.9294 97.2015 45.3244 96.9382 44.8519C96.6749 44.3779 96.0699 44.2071 95.5961 44.4704C95.1234 44.7337 94.9525 45.3245 95.2146 45.8113C95.4478 46.2394 96.0222 46.4623 96.5568 46.1927ZM48.2881 15.0617C48.6695 14.6674 48.6438 14.0354 48.2482 13.6681C47.8539 13.2866 47.2362 13.3123 46.8546 13.7066C46.486 14.1022 46.5002 14.7329 46.8945 15.1014C47.2754 15.4574 47.913 15.4639 48.2881 15.0617ZM45.632 17.9425C45.9993 17.5341 45.9608 16.9162 45.5652 16.5477C45.158 16.1933 44.5273 16.2189 44.1716 16.6273C43.8029 17.0345 43.8428 17.6522 44.2371 18.0209C44.6804 18.4038 45.3162 18.3242 45.632 17.9425ZM51.0239 12.2476C51.4053 11.8533 51.3925 11.2342 51.011 10.8528C50.6296 10.4585 49.9976 10.4714 49.6162 10.8528C49.2348 11.2342 49.2348 11.8662 49.6162 12.2476C49.9912 12.6201 50.5951 12.6457 51.0239 12.2476ZM53.8123 9.48488C54.2066 9.11754 54.2194 8.48557 53.8379 8.09127C53.4565 7.70986 52.8386 7.69697 52.4443 8.06431C52.05 8.44572 52.0371 9.0648 52.4186 9.4591C52.7713 9.83709 53.391 9.87878 53.8123 9.48488ZM73.3569 14.3257C73.7512 13.957 73.7769 13.3252 73.3954 12.9309C73.014 12.5366 72.3961 12.5237 72.0018 12.9052C71.6075 13.2868 71.5935 13.9045 71.962 14.2988C72.3523 14.6891 72.9739 14.706 73.3569 14.3257ZM35.7808 30.1083V30.0942C36.0967 29.6614 36.0042 29.0423 35.5701 28.7264C35.1231 28.3976 34.5053 28.5029 34.1893 28.9371C33.8734 29.3712 33.9659 29.9903 34.4 30.3191C34.8201 30.6186 35.4429 30.5558 35.7808 30.1083ZM40.5549 23.8995C40.8966 23.4796 40.8311 22.8605 40.4097 22.5188C39.9897 22.1771 39.3578 22.2426 39.0161 22.664C38.6744 23.0854 38.7399 23.703 39.1613 24.0447C39.5492 24.3785 40.2029 24.3451 40.5549 23.8995ZM43.0543 20.9018C43.4088 20.4805 43.3561 19.8627 42.949 19.507C42.5277 19.1525 41.9099 19.2051 41.5542 19.6123C41.1997 20.0336 41.2523 20.6513 41.6595 21.0071C42.0679 21.3531 42.6847 21.3192 43.0543 20.9018ZM56.6663 6.81591C57.0735 6.44725 57.1004 5.81542 56.7318 5.42112C56.3644 5.01393 55.7325 4.98696 55.3382 5.35562C54.9298 5.72428 54.904 6.34203 55.2727 6.74922C55.6596 7.16391 56.3022 7.15444 56.6663 6.81591ZM64.9261 6.02599C65.2934 5.63168 65.2678 5.00104 64.8606 4.63238C64.4522 4.27662 63.8343 4.30358 63.4658 4.71077C63.0972 5.10507 63.137 5.73703 63.5313 6.10556C63.9315 6.45133 64.5509 6.44988 64.9261 6.02599ZM70.6211 11.4976C71.0025 11.1033 71.0025 10.4855 70.6211 10.1039C70.2255 9.70833 69.6077 9.72254 69.2134 10.1039C68.832 10.4854 68.832 11.116 69.2263 11.4976C69.5703 11.8653 70.2168 11.9019 70.6211 11.4976ZM67.8058 8.72192C68.1744 8.32762 68.1615 7.70986 67.7672 7.32831C67.3716 6.95966 66.7539 6.97386 66.3724 7.36817C66.0038 7.76247 66.018 8.39311 66.4123 8.76177C66.7741 9.12622 67.4099 9.14621 67.8058 8.72192ZM59.5857 4.15851C59.994 3.80406 60.0198 3.1721 59.6525 2.77779C59.2838 2.3706 58.6661 2.33088 58.2577 2.69941C57.8634 3.06675 57.8235 3.68582 58.1922 4.09301C58.5764 4.50481 59.1829 4.53295 59.5857 4.15851ZM62.5848 3.90928C62.9534 3.5009 62.9136 2.88301 62.5193 2.51449C62.1109 2.14583 61.4802 2.18568 61.1245 2.57999C60.7571 2.98836 60.7828 3.61901 61.1913 3.97477C61.5844 4.34054 62.1865 4.3308 62.5848 3.90928ZM76.0399 17.2323C76.4342 16.8636 76.4599 16.2459 76.1054 15.8375C75.7368 15.4303 75.1061 15.4034 74.7107 15.772C74.3035 16.1407 74.2765 16.7584 74.6452 17.1668C75.0163 17.5597 75.5934 17.6179 76.0399 17.2323ZM102.397 116.768C101.858 116.768 101.411 117.214 101.411 117.754C101.411 118.306 101.858 118.74 102.397 118.74C102.949 118.74 103.383 118.306 103.383 117.754C103.383 117.214 102.949 116.768 102.397 116.768ZM98.4514 116.768C97.9119 116.768 97.465 117.214 97.465 117.754C97.465 118.306 97.9119 118.74 98.4514 118.74C99.0036 118.74 99.4378 118.306 99.4378 117.754C99.4378 117.214 99.0036 116.768 98.4514 116.768ZM98.8187 52.7817C99.0375 53.2565 99.6271 53.4736 100.134 53.2428C100.621 52.9924 100.831 52.4144 100.581 51.9147C100.357 51.4279 99.7666 51.2173 99.2656 51.4536C98.7802 51.6913 98.5695 52.282 98.8187 52.7817ZM100.463 56.333C100.696 56.8368 101.267 57.038 101.778 56.8327C102.265 56.6092 102.488 56.0171 102.265 55.5175C102.041 55.0178 101.462 54.8073 100.962 55.0307C100.463 55.2555 100.239 55.8334 100.463 56.333ZM103.475 63.5667C103.66 64.0286 104.158 64.3263 104.75 64.1332C105.264 63.9354 105.513 63.3703 105.316 62.8565C105.132 62.3569 104.553 62.0936 104.041 62.2914C103.54 62.4892 103.291 63.0543 103.475 63.5667ZM104.83 67.2491C105.024 67.7966 105.634 68.027 106.092 67.8541C106.605 67.6705 106.881 67.1053 106.697 66.5915C106.514 66.0791 105.947 65.8029 105.435 65.9865C104.922 66.1715 104.659 66.7367 104.83 67.2491ZM82.6688 116.768C82.1293 116.768 81.6824 117.214 81.6824 117.754C81.6824 118.306 82.1293 118.74 82.6688 118.74C83.221 118.74 83.6552 118.306 83.6552 117.754C83.6552 117.214 83.221 116.768 82.6688 116.768ZM94.5057 116.768C93.9662 116.768 93.5193 117.214 93.5193 117.754C93.5193 118.306 93.9662 118.74 94.5057 118.74C95.058 118.74 95.4921 118.306 95.4921 117.754C95.4921 117.214 95.058 116.768 94.5057 116.768ZM78.7231 116.768C78.1836 116.768 77.7367 117.214 77.7367 117.754C77.7367 118.306 78.1836 118.74 78.7231 118.74C79.2754 118.74 79.7095 118.306 79.7095 117.754C79.7095 117.214 79.2754 116.768 78.7231 116.768ZM74.7775 116.768C74.238 116.768 73.7911 117.214 73.7911 117.754C73.7911 118.306 74.238 118.74 74.7775 118.74C75.3297 118.74 75.7639 118.306 75.7639 117.754C75.7639 117.214 75.3297 116.768 74.7775 116.768ZM86.6144 116.768C86.0749 116.768 85.628 117.214 85.628 117.754C85.628 118.306 86.0749 118.74 86.6144 118.74C87.1667 118.74 87.6008 118.306 87.6008 117.754C87.6008 117.214 87.1667 116.768 86.6144 116.768ZM90.5601 116.768C90.0206 116.768 89.5737 117.214 89.5737 117.754C89.5737 118.306 90.0206 118.74 90.5601 118.74C91.1123 118.74 91.5465 118.306 91.5465 117.754C91.5465 117.214 91.1123 116.768 90.5601 116.768ZM106.343 116.768C105.803 116.768 105.356 117.214 105.356 117.754C105.356 118.306 105.803 118.74 106.343 118.74C106.895 118.74 107.329 118.306 107.329 117.754C107.329 117.214 106.895 116.768 106.343 116.768ZM114.483 105.39C114.457 104.852 113.983 104.431 113.444 104.457C112.905 104.496 112.485 104.958 112.51 105.51C112.611 106.801 114.549 106.705 114.483 105.39ZM113.68 110.375C113.68 110.375 113.694 110.375 113.707 110.375C114.247 110.349 114.667 109.902 114.654 109.35C114.641 108.811 114.194 108.377 113.642 108.402C113.102 108.416 112.668 108.863 112.681 109.416C112.708 109.941 113.142 110.375 113.68 110.375ZM113.221 102.511C113.767 102.511 114.251 102.018 114.194 101.432C114.154 100.892 113.68 100.485 113.128 100.538C112.59 100.578 112.194 101.063 112.234 101.603C112.274 102.117 112.708 102.511 113.221 102.511ZM113.747 116.281C113.208 116.294 112.761 116.728 112.761 117.28C112.761 117.82 113.208 118.254 113.747 118.254H113.76C114.3 118.254 114.734 117.807 114.734 117.267C114.734 116.728 114.285 116.281 113.747 116.281ZM113.733 114.321C114.285 114.308 114.719 113.861 114.719 113.321C114.719 112.782 114.273 112.335 113.733 112.348C113.181 112.348 112.747 112.782 112.747 113.334C112.747 113.874 113.195 114.321 113.733 114.321ZM110.288 116.768C109.749 116.768 109.302 117.214 109.302 117.754C109.302 118.306 109.749 118.74 110.288 118.74C110.841 118.74 111.275 118.306 111.275 117.754C111.275 117.214 110.841 116.768 110.288 116.768ZM108.263 78.481C108.383 78.9368 108.821 79.3069 109.473 79.1913C109.998 79.0474 110.314 78.508 110.183 77.9814C110.038 77.4561 109.498 77.1402 108.973 77.2852C108.447 77.4164 108.13 77.9557 108.263 78.481ZM109.197 82.2829C109.339 82.9062 110.035 83.1606 110.379 83.0189C110.919 82.9008 111.248 82.3742 111.13 81.8489C110.997 81.3094 110.472 80.9806 109.945 81.0989C109.406 81.2168 109.077 81.7563 109.197 82.2829ZM107.224 74.7076C107.375 75.2076 107.896 75.531 108.447 75.3781C108.973 75.2201 109.275 74.6806 109.117 74.154C109.13 74.154 109.13 74.154 109.13 74.154C108.973 73.6287 108.42 73.3255 107.907 73.4835C107.38 73.6287 107.079 74.1809 107.224 74.7076ZM112.47 94.6722C113.01 94.5926 113.378 94.0929 113.299 93.5534C113.22 93.0153 112.721 92.6338 112.181 92.7122C111.642 92.7918 111.275 93.2915 111.353 93.8296C111.415 94.2926 111.766 94.6722 112.47 94.6722ZM112.944 98.578C113.484 98.5125 113.865 98.0257 113.813 97.4862C113.747 96.9467 113.26 96.5524 112.721 96.6179C112.181 96.6705 111.787 97.1702 111.853 97.7097C111.903 98.1829 112.26 98.578 112.944 98.578ZM51.1036 116.768C50.5641 116.768 50.1171 117.214 50.1171 117.754C50.1171 118.306 50.5641 118.74 51.1036 118.74C51.6558 118.74 52.09 118.306 52.09 117.754C52.09 117.214 51.6558 116.768 51.1036 116.768ZM23.484 116.768C22.9445 116.768 22.4976 117.214 22.4976 117.754C22.4976 118.306 22.9445 118.74 23.484 118.74C24.0363 118.74 24.4704 118.306 24.4704 117.754C24.4704 117.214 24.0363 116.768 23.484 116.768ZM55.0492 116.768C54.5097 116.768 54.0628 117.214 54.0628 117.754C54.0628 118.306 54.5097 118.74 55.0492 118.74C55.6015 118.74 56.0356 118.306 56.0356 117.754C56.0356 117.214 55.6015 116.768 55.0492 116.768ZM58.9949 116.768C58.4554 116.768 58.0084 117.214 58.0084 117.754C58.0084 118.306 58.4554 118.74 58.9949 118.74C59.5471 118.74 59.9813 118.306 59.9813 117.754C59.9813 117.214 59.5471 116.768 58.9949 116.768ZM27.4297 116.768C26.8902 116.768 26.4432 117.214 26.4432 117.754C26.4432 118.306 26.8902 118.74 27.4297 118.74C27.9819 118.74 28.4161 118.306 28.4161 117.754C28.4161 117.214 27.9819 116.768 27.4297 116.768ZM43.2123 116.768C42.6728 116.768 42.2258 117.214 42.2258 117.754C42.2258 118.306 42.6728 118.74 43.2123 118.74C43.7645 118.74 44.1987 118.306 44.1987 117.754C44.1987 117.214 43.7645 116.768 43.2123 116.768ZM22.1815 50.5199C22.7314 50.7703 23.2666 50.5378 23.5096 50.0858C23.746 49.599 23.5623 49.0082 23.0755 48.7577C22.5887 48.5071 21.9966 48.7051 21.7474 49.1918C21.497 49.6786 21.6948 50.2707 22.1815 50.5199ZM47.1579 116.768C46.6184 116.768 46.1715 117.214 46.1715 117.754C46.1715 118.306 46.6184 118.74 47.1579 118.74C47.7102 118.74 48.1443 118.306 48.1443 117.754C48.1443 117.214 47.7102 116.768 47.1579 116.768ZM31.3753 116.768C30.8358 116.768 30.3889 117.214 30.3889 117.754C30.3889 118.306 30.8358 118.74 31.3753 118.74C31.9276 118.74 32.3617 118.306 32.3617 117.754C32.3617 117.214 31.9276 116.768 31.3753 116.768ZM39.2666 116.768C38.7271 116.768 38.2802 117.214 38.2802 117.754C38.2802 118.306 38.7271 118.74 39.2666 118.74C39.8189 118.74 40.253 118.306 40.253 117.754C40.253 117.214 39.8189 116.768 39.2666 116.768ZM38.1222 26.9783H38.1351C38.4639 26.5442 38.3844 25.9251 37.9515 25.5835C37.5174 25.2547 36.8983 25.3343 36.5695 25.7671C36.2278 26.2013 36.3075 26.8204 36.7403 27.1492C37.1965 27.504 37.8205 27.3846 38.1222 26.9783ZM35.321 116.768C34.7815 116.768 34.3345 117.214 34.3345 117.754C34.3345 118.306 34.7815 118.74 35.321 118.74C35.8732 118.74 36.3074 118.306 36.3074 117.754C36.3074 117.214 35.8732 116.768 35.321 116.768ZM66.8862 116.768C66.3467 116.768 65.8998 117.214 65.8998 117.754C65.8998 118.306 66.3467 118.74 66.8862 118.74C67.4384 118.74 67.8726 118.306 67.8726 117.754C67.8726 117.214 67.4384 116.768 66.8862 116.768ZM62.9405 116.768C62.401 116.768 61.9541 117.214 61.9541 117.754C61.9541 118.306 62.401 118.74 62.9405 118.74C63.4928 118.74 63.9269 118.306 63.9269 117.754C63.9269 117.214 63.4928 116.768 62.9405 116.768ZM70.8318 116.768C70.2923 116.768 69.8454 117.214 69.8454 117.754C69.8454 118.306 70.2923 118.74 70.8318 118.74C71.3841 118.74 71.8182 118.306 71.8182 117.754C71.8182 117.214 71.3841 116.768 70.8318 116.768Z" fill="black"/>
</svg>
