<svg width="277" height="111" viewBox="0 0 277 111" fill="none" xmlns="http://www.w3.org/2000/svg">
<path d="M17.7611 72.8529C16.3662 72.6824 15.2844 72.654 13.6618 72.654H3.72644V100.111H9.98939V90.0777H13.6618C15.2844 90.0777 16.3662 90.0493 17.7611 89.8788C21.7467 89.3956 25.2482 86.5816 25.2482 81.3801C25.2482 76.1501 21.8605 73.3361 17.7611 72.8529ZM15.5976 85.1036C15.0567 85.1889 14.2881 85.1889 13.4056 85.1889H9.98939V77.5429H13.4056C14.2881 77.5429 15.0567 77.5429 15.5976 77.6281C17.4765 77.8555 18.7006 79.0209 18.7006 81.3801C18.7006 83.7108 17.4765 84.8762 15.5976 85.1036ZM40.3078 100.111H46.3999C46.0868 97.7522 46.0014 96.331 46.0014 94.7392V88.287C46.0014 87.0648 45.9729 85.871 45.8875 84.8762C45.5744 81.0958 43.2969 78.3387 37.0055 78.3387C31.8243 78.3387 27.7249 81.0958 27.6111 85.9563H33.5893C33.7317 83.8245 34.8135 82.6307 36.7778 82.6307C38.6282 82.6307 39.5961 83.6824 39.71 84.9615C39.7954 85.6721 39.7954 86.2121 39.7954 86.7806V87.1501H38.4289C30.9418 87.1501 26.8424 89.8503 26.8424 94.455C26.8424 98.4912 30.0593 100.68 33.6463 100.68C35.6106 100.68 37.404 100.225 38.9129 99.287L39.8808 97.0131L40.3078 100.111ZM36.123 96.3594C34.4149 96.3594 33.2477 95.5351 33.2477 93.9434C33.2477 91.4705 35.9237 90.5325 39.7954 90.8452V92.3801C39.7954 95.0235 38.0019 96.3594 36.123 96.3594ZM58.8974 78.3387C53.5454 78.3387 50.0438 80.8969 50.0438 85.0183C50.0438 88.6566 52.6344 90.4472 56.6199 91.4421C60.3492 92.3232 61.7157 93.1475 61.7157 94.654C61.7157 96.0183 60.52 96.6436 59.0112 96.6436C57.2462 96.6436 55.8228 95.5635 55.3673 93.5739H49.1898C49.7591 98.3491 53.5454 100.68 58.9543 100.68C63.9362 100.68 67.9786 98.6049 67.9786 94.1708C67.9786 90.1914 65.3311 88.486 61.2317 87.4628C57.4455 86.4963 56.3068 85.7005 56.3068 84.2793C56.3068 83.1708 57.1324 82.3181 58.4988 82.3181C60.0361 82.3181 60.9471 83.3129 61.3171 85.0752H67.4947C66.9823 81.2095 64.0216 78.3387 58.8974 78.3387ZM79.252 78.3387C73.9 78.3387 70.3984 80.8969 70.3984 85.0183C70.3984 88.6566 72.989 90.4472 76.9745 91.4421C80.7323 92.3232 82.0703 93.1475 82.0703 94.654C82.0703 96.0183 80.8746 96.6436 79.3658 96.6436C77.6293 96.6436 76.1774 95.5635 75.7504 93.5739H69.5729C70.1137 98.3491 73.9 100.68 79.3374 100.68C84.3193 100.68 88.3332 98.6049 88.3332 94.1708C88.3332 90.1914 85.7142 88.486 81.6148 87.4628C77.8286 86.4963 76.6614 85.7005 76.6614 84.2793C76.6614 83.1708 77.4869 82.3181 78.8534 82.3181C80.4192 82.3181 81.3301 83.3129 81.6717 85.0752H87.8493C87.3369 81.2095 84.4047 78.3387 79.252 78.3387ZM104.788 78.3387C102.653 78.3387 100.546 78.8219 99.3503 79.7315L97.7561 82.0907V78.9072H91.4932V107.899H97.7561V97.3258L99.1511 99.5428C100.204 100.225 102.339 100.68 104.076 100.68C109.542 100.68 114.211 96.7005 114.211 89.0545C114.211 82.8013 110.652 78.3387 104.788 78.3387ZM102.596 96.3594C100.204 96.3594 97.7561 94.7677 97.7561 90.1914V89.2535C97.7561 84.393 99.9482 82.6307 102.795 82.6307C105.756 82.6307 107.777 85.2741 107.777 89.4524C107.777 94.0571 105.642 96.3594 102.596 96.3594ZM127.477 78.3387C120.417 78.3387 116.289 82.8865 116.289 89.4808C116.289 96.1036 120.417 100.68 127.477 100.68C134.48 100.68 138.665 96.1036 138.665 89.4808C138.665 82.8865 134.48 78.3387 127.477 78.3387ZM127.477 96.3594C124.488 96.3594 122.694 93.9149 122.694 89.4808C122.694 85.0752 124.488 82.6307 127.477 82.6307C130.437 82.6307 132.231 85.0752 132.231 89.4808C132.231 93.9149 130.437 96.3594 127.477 96.3594ZM153.753 78.3387C152.5 78.3387 150.963 78.9072 149.881 80.0157L148.287 82.9718V78.9072H142.024V100.111H148.287V91.2431C148.287 85.2173 150.393 83.2276 155.347 83.5687V78.5093C154.863 78.424 154.407 78.3387 153.753 78.3387ZM165.368 83.0286H169.894V79.0493H165.368V73.7341H159.133V79.0493H155.888V83.0286H159.133V92.778C159.133 93.9718 159.133 94.9382 159.19 96.0183C159.446 99.1165 160.955 100.623 165.624 100.623C166.962 100.623 168.214 100.509 169.495 100.31V96.331C166.307 96.5299 165.567 96.0467 165.425 93.9434C165.368 93.3749 165.368 92.6643 165.368 91.9537V83.0286ZM180.456 83.0286H184.954V79.0493H180.456V73.7341H174.193V79.0493H170.947V83.0286H174.193V92.778C174.193 93.9718 174.193 94.9382 174.278 96.0183C174.506 99.1165 176.015 100.623 180.683 100.623C182.05 100.623 183.274 100.509 184.555 100.31V96.331C181.367 96.5299 180.655 96.0467 180.484 93.9434C180.456 93.3749 180.456 92.6643 180.456 91.9537V83.0286ZM200.412 100.111H206.504C206.191 97.7522 206.105 96.331 206.105 94.7392V88.287C206.105 87.0648 206.077 85.871 205.991 84.8762C205.678 81.0958 203.401 78.3387 197.109 78.3387C191.928 78.3387 187.829 81.0958 187.686 85.9563H193.665C193.836 83.8245 194.917 82.6307 196.853 82.6307C198.732 82.6307 199.7 83.6824 199.814 84.9615C199.899 85.6721 199.899 86.2121 199.899 86.7806V87.1501H198.533C191.046 87.1501 186.946 89.8503 186.946 94.455C186.946 98.4912 190.163 100.68 193.75 100.68C195.714 100.68 197.508 100.225 199.017 99.287L199.985 97.0131L200.412 100.111ZM196.227 96.3594C194.519 96.3594 193.352 95.5351 193.352 93.9434C193.352 91.4705 196.028 90.5325 199.899 90.8452V92.3801C199.899 95.0235 198.106 96.3594 196.227 96.3594ZM218.973 78.3387C213.649 78.3387 210.148 80.8969 210.148 85.0183C210.148 88.6566 212.738 90.4472 216.724 91.4421C220.453 92.3232 221.82 93.1475 221.82 94.654C221.82 96.0183 220.624 96.6436 219.115 96.6436C217.35 96.6436 215.927 95.5635 215.471 93.5739H209.294C209.863 98.3491 213.649 100.68 219.058 100.68C224.04 100.68 228.083 98.6049 228.083 94.1708C228.083 90.1914 225.435 88.486 221.336 87.4628C217.549 86.4963 216.382 85.7005 216.382 84.2793C216.382 83.1708 217.236 82.3181 218.574 82.3181C220.14 82.3181 221.051 83.3129 221.421 85.0752H227.599C227.086 81.2095 224.125 78.3387 218.973 78.3387ZM238.701 83.0286H243.227V79.0493H238.701V73.7341H232.467V79.0493H229.221V83.0286H232.467V92.778C232.467 93.9718 232.467 94.9382 232.523 96.0183C232.78 99.1165 234.289 100.623 238.957 100.623C240.295 100.623 241.548 100.509 242.829 100.31V96.331C239.641 96.5299 238.9 96.0467 238.758 93.9434C238.701 93.3749 238.701 92.6643 238.701 91.9537V83.0286ZM249.405 70.6927C247.412 70.6927 246.074 71.9434 246.074 73.8478C246.074 75.809 247.412 77.0312 249.405 77.0312C251.398 77.0312 252.736 75.809 252.736 73.8478C252.736 71.9434 251.398 70.6927 249.405 70.6927ZM252.536 100.111V78.9072H246.274V100.111H252.536ZM266.856 78.3387C260.821 78.3387 255.981 82.4033 255.981 89.6798C255.981 96.8994 260.422 100.68 266.343 100.68C271.866 100.68 275.937 97.9227 276.763 92.579H270.585C270.13 95.0519 268.592 96.3594 266.685 96.3594C264.094 96.3594 262.386 94.2276 262.386 89.2819C262.386 84.7909 264.066 82.6307 266.685 82.6307C268.763 82.6307 270.244 83.8245 270.671 86.7522H276.763C276.45 82.0054 272.777 78.3387 266.856 78.3387Z" fill="black"/>
<path d="M138.613 60.7709C123.171 60.7709 110.665 48.2846 110.665 32.8659C110.665 17.4472 123.171 4.96089 138.613 4.96089C145.056 4.96089 151.403 7.23113 156.424 11.2986C159.551 13.8527 162.109 17.1634 163.814 20.758C164.193 21.4201 163.814 22.2715 163.151 22.6498C162.488 23.0282 161.635 22.6498 161.256 21.9877C159.646 18.7715 157.372 15.8391 154.624 13.4743C150.172 9.78515 144.487 7.7041 138.613 7.7041C124.781 7.7041 113.507 18.9607 113.507 32.7713C113.507 46.582 124.781 57.9331 138.613 57.9331C148.371 57.9331 157.277 52.2575 161.446 43.3658C161.73 42.609 162.583 42.3253 163.34 42.7036C164.098 42.9874 164.383 43.8387 164.004 44.5955C159.456 54.4332 149.508 60.7709 138.613 60.7709Z" fill="black"/>
<path d="M117.486 50.9332C109.149 50.9332 103.275 48.663 101.664 44.4063C99.9591 39.7712 103.37 33.8119 111.328 27.8525C111.991 27.3795 112.844 27.4741 113.318 28.1363C113.791 28.7984 113.697 29.6497 113.033 30.1227C106.401 35.1362 103.18 40.1496 104.317 43.4604C106.212 48.5684 119.286 50.3657 138.045 44.5955C138.803 44.4063 139.561 44.7847 139.845 45.5414C140.034 46.2982 139.655 47.0549 138.897 47.3387C130.939 49.7981 123.55 50.9332 117.486 50.9332ZM174.236 19.4337C173.667 19.4337 173.099 19.0553 172.909 18.4877C171.678 15.177 165.993 13.4743 157.656 13.8527H155.477C154.719 13.8527 154.056 13.1905 154.056 12.4338C154.056 11.677 154.719 11.0149 155.477 11.0149H157.561C167.414 10.5419 173.857 12.8121 175.562 17.5418C175.846 18.2985 175.467 19.0553 174.709 19.3391C174.52 19.4337 174.425 19.4337 174.236 19.4337Z" fill="black"/>
<path d="M138.613 47.1495C138.424 47.1495 138.234 47.1495 138.045 47.0549L131.129 43.8387C130.371 43.555 130.087 42.7036 130.466 41.9469C130.845 41.1901 131.602 40.9064 132.36 41.2847L139.276 44.5009C140.034 44.7847 140.319 45.636 139.94 46.3928C139.655 46.8657 139.182 47.1495 138.613 47.1495Z" fill="black"/>
<path d="M135.392 54.0548C135.203 54.0548 135.013 54.0548 134.824 53.9602C134.066 53.6764 133.781 52.8251 134.16 52.0684L137.382 45.163C137.761 44.4063 138.518 44.1225 139.276 44.5009C140.034 44.7847 140.319 45.636 139.94 46.3928L136.718 53.2035C136.434 53.771 135.96 54.0548 135.392 54.0548Z" fill="black"/>
<path d="M146.761 44.2171C146.572 44.2171 146.382 44.2171 146.193 44.1225L134.824 38.9199C134.255 38.6361 133.876 37.974 134.066 37.3118C134.255 36.6497 134.729 36.1767 135.392 36.1767L146.666 35.7983L150.74 33.3389L144.392 26.5282C144.108 26.2444 144.014 25.866 144.014 25.4876C144.014 25.1093 144.203 24.7309 144.487 24.4471C144.677 24.3525 146.098 23.1228 148.94 23.1228C152.445 23.1228 156.519 24.9201 161.067 28.3254L170.73 23.8796C171.299 23.5958 172.151 23.5012 173.099 23.5012C174.899 23.5012 178.215 23.9741 179.067 25.9606C179.446 26.8119 179.825 28.3254 178.12 29.7443C177.267 30.4065 175.941 31.0686 174.33 31.8254L147.329 44.1225C147.14 44.2171 146.95 44.2171 146.761 44.2171ZM141.456 38.8253L146.761 41.1901L173.004 29.2714C174.425 28.6092 176.225 27.8525 176.415 27.3795C176.415 27.3795 176.415 27.2849 176.32 27.1903C176.131 26.9065 174.709 26.4336 172.909 26.4336C172.246 26.4336 171.867 26.5282 171.678 26.6228L161.256 31.3524C160.783 31.5416 160.214 31.5416 159.74 31.1632C154.435 26.9065 150.835 26.0552 148.751 26.0552C148.372 26.0552 147.993 26.0552 147.614 26.1498L153.772 32.6767C154.056 32.9605 154.245 33.4335 154.151 33.8119C154.056 34.1902 153.867 34.5686 153.488 34.8524L147.614 38.4469C147.424 38.5415 147.14 38.6361 146.95 38.6361L141.456 38.8253Z" fill="black"/>
</svg>
