<svg width="111" height="207" viewBox="0 0 111 207" fill="none" xmlns="http://www.w3.org/2000/svg">
<path d="M38.4052 158.497C30.7107 158.366 5.57663 158.717 4.29139 145.339C1.35732 114.723 17.575 68.6794 17.575 68.6794H59.0156C59.0156 68.6794 69.7879 114.723 70.8703 137.241C71.7496 155.453 63.8564 158.929 38.4052 158.497Z" fill="#A28230"/>
<path d="M23.3544 66.093C23.3544 66.093 17.0381 81.9262 12.5271 117.885" stroke="#EDB31C" stroke-width="1.8391" stroke-miterlimit="10"/>
<path d="M17.9386 123.787C17.9386 123.787 18.8391 147.625 17.0085 150.834C15.1778 154.043 1.74621 147.625 0.680817 143.807C-0.388807 139.988 0.376425 128.13 2.81585 120.764L17.9386 123.787Z" fill="#9F906A"/>
<path d="M20.3654 127.148C20.3654 127.148 20.1962 118.702 18.7546 117.885C17.3129 117.064 5.80492 113.3 4.08 114.723C2.35507 116.145 0.000204086 123.177 0.000204086 123.177C0.000204086 123.177 10.5992 128.067 20.3654 127.148Z" fill="#D5AB41"/>
<path d="M84.3822 78.5393C89.3667 78.5393 93.4084 73.5565 93.4084 67.4053C93.4084 61.2583 89.3667 56.2712 84.3822 56.2712H19.2365V78.5393H84.3822Z" fill="#F26E24"/>
<path d="M19.2408 78.5393C14.2557 78.5393 10.2145 73.5544 10.2145 67.4053C10.2145 61.2561 14.2557 56.2712 19.2408 56.2712C24.2259 56.2712 28.2671 61.2561 28.2671 67.4053C28.2671 73.5544 24.2259 78.5393 19.2408 78.5393Z" fill="#B8A67A"/>
<path d="M19.2407 75.6055C19.8073 75.5378 20.3569 75.3473 20.8853 75.1102C21.3969 74.8435 21.8958 74.5429 22.3439 74.1704C23.2529 73.438 24.0054 72.5066 24.555 71.4482C25.0962 70.3899 25.4006 69.2045 25.4894 68.0064C25.5739 66.7999 25.3625 65.6103 25.0708 64.4545C24.7368 63.2988 24.1872 62.1642 23.3459 61.2244C22.513 60.2846 21.3758 59.5691 20.1201 59.2728C18.8687 58.9679 17.5327 59.0865 16.3405 59.5395C15.144 59.9882 14.0871 60.7926 13.3134 61.8001C12.544 62.7992 12.0324 64.01 11.8548 65.2631C11.6773 66.5162 11.8083 67.799 12.2396 68.9801C12.6666 70.1528 13.3684 71.2577 14.4169 72.0452C14.9284 72.4473 15.5372 72.7479 16.2221 72.8792C16.3997 72.9003 16.5772 72.9427 16.7506 72.9342L17.2748 72.9003C17.6088 72.8241 17.9513 72.7522 18.243 72.5955C18.5558 72.4727 18.818 72.2738 19.0885 72.096C19.3337 71.8885 19.5874 71.6895 19.7861 71.444C20.0102 71.2196 20.1793 70.9529 20.3653 70.6989C20.4499 70.5677 20.5217 70.4237 20.5936 70.2883C20.6697 70.1528 20.7374 70.0089 20.7881 69.8607C21.046 69.2892 21.1475 68.6542 21.1728 68.0276C21.1771 67.3926 21.0375 66.7618 20.7712 66.1945C20.4668 65.6399 20.1159 65.1446 19.6297 64.7551C19.1646 64.3614 18.5136 64.0608 17.8583 64.1921C17.2072 64.3106 16.7337 64.7932 16.4504 65.3055C16.1672 65.8219 16.0868 66.4654 16.3024 66.9989C16.1629 66.4443 16.332 65.8643 16.6533 65.4282C16.9662 64.9964 17.427 64.645 17.9217 64.6196C18.4121 64.59 18.8687 64.8398 19.2281 65.2039C19.3126 65.3012 19.4141 65.3817 19.4902 65.4917L19.7185 65.8177C19.803 65.9193 19.8453 66.0463 19.9087 66.1564C19.9637 66.2749 20.0356 66.3808 20.0736 66.5035C20.2427 66.9819 20.323 67.4857 20.2808 67.9937C20.2174 68.4933 20.1032 68.9971 19.858 69.4458C19.8073 69.5643 19.7481 69.6744 19.672 69.7803C19.6001 69.8861 19.5409 69.9962 19.469 70.102C19.3084 70.2967 19.1646 70.5084 18.9744 70.6735C18.8053 70.8598 18.5981 70.9995 18.4036 71.1519C18.1923 71.2704 17.9893 71.4144 17.7652 71.4821C17.3298 71.6557 16.8732 71.7192 16.4715 71.6049C16.3701 71.5964 16.2644 71.5541 16.1545 71.5075C16.0488 71.4609 15.9388 71.4355 15.8374 71.372C15.6344 71.2493 15.4273 71.1434 15.2455 70.9741C14.4845 70.3687 13.9349 69.4627 13.622 68.4975C13.305 67.5323 13.195 66.4951 13.3515 65.496C13.5037 64.4969 13.9138 63.5528 14.5395 62.7527C15.1398 61.9526 15.9515 61.3218 16.8816 60.9619C17.8075 60.5978 18.8264 60.5132 19.7903 60.7121C20.7543 60.9069 21.6463 61.4191 22.3397 62.1515C23.033 62.8882 23.5531 63.811 23.9082 64.8186C24.2295 65.8431 24.462 66.9057 24.4663 67.981C24.4705 69.0521 24.2718 70.1274 23.8575 71.1307C23.4558 72.1383 22.8301 73.0654 22.0522 73.8529C21.2785 74.6318 20.34 75.2965 19.2407 75.6055Z" fill="#F26E24"/>
<g style="mix-blend-mode:multiply">
<path d="M73.9057 74.4542C78.0236 71.2113 90.5758 75.7623 101.437 86.0962C112.298 96.4302 109.609 106.375 102.003 108.864C94.3977 111.353 80.3784 101.485 74.0748 93.5048C67.7712 85.5247 69.0396 78.2897 73.9057 74.4542Z" fill="#B28473"/>
</g>
<path d="M101.441 38.0082C104.185 47.7918 111.664 86.5154 110.924 97.7764C110.184 109.037 94.237 114.689 89.3962 100.185C84.5512 85.6814 90.1192 47.3388 92.0386 35.7645C94.0425 23.6652 98.7015 28.2247 101.441 38.0082Z" fill="#FFCFAA"/>
<path d="M87.498 79.6232C87.7094 74.4202 88.0857 69.2257 88.6099 64.0482C89.113 58.8664 89.7387 53.7016 90.449 48.5452C90.8084 45.967 91.1888 43.3931 91.5778 40.8234L92.1866 36.9709C92.3938 35.6839 92.6094 34.4139 92.9349 33.1735C93.2605 31.9415 93.6621 30.6927 94.3639 29.7147C94.7148 29.2448 95.1714 28.8469 95.6661 28.868C95.7887 28.8511 95.9155 28.8977 96.0381 28.9146C96.1607 28.9696 96.2875 28.9993 96.4101 29.0797L96.5919 29.1855L96.7653 29.321C96.8837 29.4014 96.9893 29.5157 97.0993 29.6173C97.9533 30.4852 98.5874 31.6198 99.1371 32.7671C99.6782 33.927 100.135 35.1336 100.536 36.357C101.335 38.8082 101.906 41.3483 102.498 43.8757C103.077 46.4115 103.627 48.9516 104.147 51.5002C105.2 56.5973 106.159 61.7113 107.094 66.8296C108.011 71.9521 108.865 77.0873 109.584 82.2395C109.952 84.8134 110.286 87.3958 110.539 89.9867C110.662 91.2822 110.793 92.5776 110.844 93.8773L110.899 94.851L110.928 95.3378V95.8247L110.92 97.7763L110.987 95.8247L111.004 95.3378L110.992 94.851L110.966 93.873C110.945 92.5691 110.844 91.2695 110.751 89.9698C110.552 87.3704 110.277 84.7795 109.964 82.1929C109.318 77.0238 108.535 71.8717 107.686 66.728C106.844 61.5843 105.863 56.4661 104.845 51.3562C104.333 48.8035 103.796 46.2507 103.225 43.7064C102.638 41.1663 102.084 38.6177 101.276 36.1115C100.862 34.8626 100.393 33.6307 99.8262 32.4368C99.247 31.2515 98.6001 30.0703 97.6193 29.0797C97.4925 28.9612 97.3698 28.8342 97.2219 28.7326L97.0063 28.5717L96.7653 28.432C96.6131 28.3304 96.4228 28.2753 96.2453 28.2076C96.0508 28.1737 95.8605 28.1145 95.6534 28.1314C95.4504 28.1229 95.256 28.1822 95.0573 28.233C94.8839 28.3177 94.6852 28.3854 94.5457 28.5082L94.3174 28.6775L94.1229 28.8723C93.9876 28.9993 93.8862 29.1432 93.7762 29.2829C92.9687 30.4344 92.5798 31.7256 92.2458 32.9999C91.9203 34.2784 91.7046 35.5823 91.5017 36.8651L90.9098 40.7302C90.5251 43.3084 90.1784 45.8908 89.8529 48.4733C89.2145 53.6466 88.6522 58.8283 88.2252 64.0186C87.8362 69.2088 87.5361 74.416 87.498 79.6232Z" fill="#5F3732"/>
<path d="M25.5908 160.889C25.5908 160.889 20.1327 175.884 16.091 207.004H82.3189C82.3189 207.004 84.6696 183.161 82.9658 160.889H25.5908Z" fill="#4C2843"/>
<g opacity="0.3">
<g opacity="0.3">
<path opacity="0.3" d="M24.0562 207L26.0221 195.455L28.0176 183.923L30.0638 172.404L32.165 160.885C31.9156 161.829 31.6746 162.777 31.4421 163.721C31.2053 164.669 30.9686 165.618 30.7487 166.566C30.309 168.467 29.8863 170.376 29.4804 172.286C29.0492 174.191 28.6983 176.113 28.3093 178.026C27.95 179.944 27.5906 181.866 27.2524 183.788C26.5886 187.636 25.9587 191.493 25.4344 195.362C25.1723 197.297 24.9144 199.232 24.6692 201.171C24.4536 203.114 24.2168 205.053 24.0562 207Z" fill="white"/>
</g>
<g opacity="0.3">
<path opacity="0.3" d="M30.2964 169.678C31.9072 170.19 33.6279 170.351 35.3359 170.254C37.0439 170.152 38.7477 169.729 40.3077 168.971C41.0814 168.577 41.8128 168.107 42.4893 167.565C43.1572 167.011 43.7576 166.384 44.2903 165.707C45.3345 164.335 46.0829 162.769 46.5183 161.139C45.7785 162.659 44.9033 164.081 43.8252 165.317C42.7302 166.537 41.4281 167.553 39.9695 168.272C38.5109 168.996 36.9171 169.432 35.2851 169.652C33.6448 169.86 31.9706 169.873 30.2964 169.678Z" fill="white"/>
</g>
<g opacity="0.3">
<path opacity="0.3" d="M62.3006 161.139C62.1484 163.869 62.0511 166.6 62.0004 169.331C61.9666 170.698 61.9581 172.061 61.937 173.429C61.937 173.771 61.9116 174.093 61.9623 174.504C62.0131 174.893 62.1695 175.308 62.4612 175.63C62.7572 175.952 63.163 176.142 63.5562 176.218C63.9536 176.295 64.3468 176.278 64.7188 176.206C65.4629 176.058 66.1478 175.71 66.7101 175.207C66.9892 174.953 67.2386 174.656 67.4246 174.309C67.6106 173.975 67.729 173.564 67.7502 173.191C67.8389 171.79 67.8263 170.435 67.8009 169.064C67.7502 166.329 67.598 163.598 67.3781 160.872C67.2978 163.607 67.2471 166.337 67.1963 169.064C67.154 170.423 67.1498 171.799 67.0188 173.124C66.9342 174.305 65.7462 175.219 64.5751 175.444C63.9874 175.566 63.3617 175.482 63.0193 175.113C62.8502 174.927 62.7445 174.682 62.7064 174.398C62.6684 174.131 62.6811 173.767 62.6726 173.429C62.6515 172.061 62.643 170.698 62.6092 169.331C62.5542 166.6 62.4528 163.869 62.3006 161.139Z" fill="white"/>
</g>
<g opacity="0.3">
<path opacity="0.3" d="M77.0216 160.876C76.6496 161.969 76.5227 163.146 76.5988 164.314C76.6749 165.482 76.9836 166.668 77.605 167.705C77.9179 168.217 78.2984 168.696 78.7338 169.111C79.182 169.513 79.6766 169.856 80.2093 170.122C81.279 170.647 82.4416 170.893 83.5916 170.897C82.4881 170.575 81.4354 170.169 80.5095 169.593C79.5921 169.005 78.8142 168.238 78.273 167.307C77.7107 166.388 77.3936 165.33 77.2034 164.242C77.0174 163.15 76.9666 162.02 77.0216 160.876Z" fill="white"/>
</g>
<g opacity="0.3">
<path opacity="0.3" d="M67.4965 180.892C66.5072 181.201 65.5306 181.531 64.5497 181.862C63.5689 182.183 62.5923 182.522 61.6156 182.865C59.6666 183.546 57.7219 184.245 55.7813 184.96L55.5784 185.037L55.5488 185.261C55.3205 187.069 55.1091 188.876 54.9019 190.684C54.699 192.492 54.5003 194.304 54.3185 196.116C54.1325 197.928 53.9634 199.739 53.8112 201.556C53.7309 202.462 53.6632 203.372 53.5998 204.278C53.5322 205.188 53.4645 206.094 53.4138 207.004C53.5744 206.107 53.7139 205.205 53.8535 204.307C53.9972 203.406 54.1367 202.508 54.2636 201.606C54.5257 199.803 54.7709 198 55.0034 196.196C55.2402 194.393 55.4558 192.585 55.6714 190.777C55.8786 188.97 56.0815 187.158 56.2717 185.35L56.0392 185.646C57.9629 184.893 59.8823 184.122 61.7932 183.339C62.7487 182.945 63.7042 182.552 64.6512 182.141C65.5982 181.722 66.5494 181.32 67.4965 180.892Z" fill="white"/>
</g>
</g>
<path d="M82.746 74.3271C88.9904 81.0287 89.4555 113.745 86.9526 129.019C84.454 144.294 83.8114 164.479 83.8114 164.479C83.8114 164.479 61.6537 179.499 23.1894 162.32C23.1894 162.32 25.4386 130.645 22.5637 112.119C19.6889 93.5894 21.6886 76.9392 33.8138 70.3053C45.9475 63.6715 73.8423 64.7679 82.746 74.3271Z" fill="#FFAC30"/>
<g opacity="0.3">
<path opacity="0.3" d="M88.3224 111.815C88.3097 112.378 88.297 112.941 88.2801 113.495C84.2806 114.672 79.4272 115.824 73.8719 116.624C69.4666 117.259 64.3425 117.703 58.6435 117.703C48.2389 117.703 35.9066 116.218 22.5045 111.696C22.4158 111.116 22.3354 110.536 22.2551 109.96C50.6403 119.752 74.7851 115.824 88.3224 111.815Z" fill="white"/>
<path opacity="0.3" d="M87.8658 121.154C87.8193 121.734 87.7728 122.305 87.7179 122.864C83.8283 123.982 79.1693 125.065 73.8719 125.827C69.4666 126.462 64.3468 126.907 58.6435 126.907C48.5053 126.907 36.5408 125.489 23.5404 121.234C23.5023 120.671 23.4601 120.117 23.4136 119.566C50.9786 128.744 74.4342 125.061 87.8658 121.154Z" fill="white"/>
<path opacity="0.3" d="M86.6904 130.687C86.6016 131.259 86.5213 131.839 86.4368 132.423C82.8178 133.414 78.5985 134.349 73.8718 135.031C69.4665 135.666 64.3425 136.11 58.6434 136.11C48.6152 136.11 36.7943 134.718 23.9546 130.569C23.9419 130.023 23.9292 129.472 23.9123 128.926C50.4754 137.639 73.1785 134.434 86.6904 130.687Z" fill="white"/>
<path opacity="0.3" d="M58.6434 145.31C48.6321 145.31 36.8324 143.921 24.018 139.789C24.0223 139.252 24.0265 138.71 24.0265 138.164C49.7651 146.58 71.8721 143.811 85.4897 140.213C85.4306 140.784 85.3714 141.352 85.3164 141.919C81.9553 142.795 78.1207 143.612 73.8718 144.226C69.4665 144.861 64.3425 145.31 58.6434 145.31Z" fill="white"/>
<path opacity="0.3" d="M23.5318 156.406C48.5983 164.729 70.2571 162.413 84.0565 158.984C84.0269 159.589 83.9973 160.148 83.972 160.665C80.9449 161.41 77.5627 162.1 73.8718 162.629C69.4665 163.264 64.3467 163.708 58.6434 163.708C48.4841 163.708 36.4857 162.282 23.4473 158.006C23.4769 157.511 23.5065 156.977 23.5318 156.406Z" fill="white"/>
<path opacity="0.3" d="M84.0058 76.1815C84.2468 76.6345 84.4751 77.1298 84.6949 77.6717C81.4861 78.4887 77.8586 79.2423 73.8719 79.818C69.4665 80.4531 64.3425 80.8976 58.6435 80.8976C49.4269 80.8976 38.6926 79.7207 27.0494 76.3127C27.3749 75.8597 27.7131 75.4194 28.0725 74.9961C51.1772 81.6173 71.0477 79.3947 84.0058 76.1815Z" fill="white"/>
<path opacity="0.3" d="M86.6101 84.7035C86.7074 85.22 86.8004 85.7491 86.8892 86.291C83.173 87.324 78.7972 88.3146 73.8719 89.0216C69.4665 89.6566 64.3467 90.1011 58.6435 90.1011C48.4207 90.1011 36.3378 88.6618 23.2063 84.3224C23.3585 83.8229 23.5149 83.3276 23.6841 82.845C50.2936 91.6337 73.0475 88.4543 86.6101 84.7035Z" fill="white"/>
<path opacity="0.3" d="M88.297 102.62C88.3139 103.17 88.3224 103.725 88.3351 104.279C84.3272 105.46 79.4525 106.62 73.8719 107.425C69.4666 108.06 64.3425 108.504 58.6435 108.504C47.9811 108.504 35.2935 106.934 21.5068 102.145C21.4772 101.587 21.456 101.032 21.4391 100.482C50.1583 110.621 74.6287 106.667 88.297 102.62Z" fill="white"/>
<path opacity="0.3" d="M58.6435 154.509C48.5857 154.509 36.7225 153.108 23.8321 148.93C23.849 148.4 23.8659 147.863 23.8786 147.317C49.1606 155.619 70.9421 153.125 84.6443 149.632C84.602 150.208 84.5597 150.771 84.5217 151.326C81.3551 152.126 77.7868 152.867 73.8677 153.43C69.4666 154.065 64.3426 154.509 58.6435 154.509Z" fill="white"/>
<path opacity="0.3" d="M87.7812 93.5725C87.8277 94.1101 87.8742 94.652 87.9165 95.1981C83.9889 96.3369 79.2623 97.4461 73.8719 98.2208C69.4665 98.8559 64.3425 99.3004 58.6434 99.3004C48.0106 99.3004 35.3654 97.7382 21.6251 92.984C21.6716 92.4506 21.7224 91.9214 21.7858 91.3965C49.9934 101.26 74.0706 97.5477 87.7812 93.5725Z" fill="white"/>
</g>
<path d="M22.7244 150.746C23.2824 150.746 23.8532 150.61 24.3774 150.326C25.3667 149.793 48.649 136.881 51.2195 105.807C53.4687 78.5649 40.3964 67.8542 39.758 67.4097C37.4581 65.8136 31.9113 69.6873 33.4206 70.8938C33.8899 71.2791 46.1715 81.9262 44.2479 105.232C42.003 132.41 24.6818 141.995 22.7201 143.049C20.7584 144.099 21.4053 151.101 22.7244 150.746Z" fill="#D5AB41"/>
<path d="M71.8215 68.3494C72.3627 69.7761 72.5022 71.3975 71.9314 72.7777C71.8638 72.9512 71.8004 73.1248 71.6989 73.2814C71.6017 73.4381 71.5256 73.6074 71.4199 73.7556C71.1916 74.0435 70.9802 74.344 70.6927 74.5811C70.1684 75.0976 69.5258 75.4871 68.8663 75.8258C67.5515 76.4735 66.0252 76.6386 64.5286 76.6598C63.0235 76.6682 61.51 76.5285 60.0176 76.2533C57.037 75.7242 54.1072 74.7759 51.4394 73.3407C50.1119 72.6168 48.8605 71.7405 47.7909 70.6694C47.2624 70.1275 46.7889 69.5348 46.3957 68.8829C46.0279 68.2182 45.7404 67.507 45.5713 66.7534C45.6559 67.5197 45.8799 68.2732 46.2139 68.9802C46.5648 69.6788 47.0045 70.3265 47.5076 70.9276C48.5434 72.1003 49.7948 73.074 51.135 73.8657C53.8239 75.4532 56.8172 76.4608 59.8781 77.0196C61.4127 77.2863 62.9728 77.4303 64.5371 77.3964C65.3192 77.3625 66.1056 77.3075 66.8835 77.1466C67.6572 76.9942 68.4393 76.7614 69.1411 76.3634C69.8302 75.9739 70.5109 75.5379 71.0478 74.941C71.3438 74.6658 71.5594 74.3271 71.7877 73.9969C71.8976 73.8276 71.9737 73.6413 72.0667 73.4635C72.1639 73.2899 72.2274 73.0994 72.2866 72.9047C72.777 71.3764 72.5233 69.7126 71.8215 68.3494Z" fill="#CB7F0F"/>
<path d="M82.9701 160.889C80.6195 161.892 78.1885 162.676 75.7279 163.344C73.2716 164.013 70.7814 164.559 68.2701 164.974C65.7589 165.381 63.2349 165.694 60.6982 165.868C58.1616 166.058 55.6207 166.109 53.0798 166.037C51.8072 166.028 50.5431 165.935 49.2706 165.868C48.0065 165.749 46.7381 165.664 45.4783 165.491C42.95 165.22 40.4472 164.746 37.9528 164.246C36.7141 163.958 35.4669 163.704 34.2408 163.357L32.3975 162.862L30.5711 162.299C29.3409 161.956 28.1486 161.503 26.9395 161.101C26.3307 160.906 25.7473 160.652 25.1469 160.428L23.3543 159.75C24.5212 160.267 25.6796 160.817 26.8676 161.291C28.0599 161.748 29.2394 162.256 30.4528 162.659L32.2707 163.277L34.1098 163.827C35.3316 164.212 36.583 164.504 37.8218 164.826C40.3161 165.415 42.8401 165.897 45.3852 166.219C46.6536 166.41 47.9346 166.494 49.2114 166.625C50.4924 166.697 51.7734 166.799 53.0544 166.816C58.1869 166.947 63.3321 166.528 68.3716 165.563C73.4027 164.572 78.3787 163.154 82.9701 160.889Z" fill="#80C6A7"/>
<path d="M83.4605 72.5108C81.3128 69.6786 72.519 67.981 72.3795 68.5187C72.0624 69.7337 73.5802 69.8565 75.7448 71.8928C93.4254 88.5515 85.549 127.3 87.4431 127.673C87.6714 127.715 98.2831 92.0441 83.4605 72.5108Z" fill="#D5AB41"/>
<path d="M47.5879 66.0931V16.6418H84.6654C84.6654 16.6418 84.6654 37.8981 84.6654 47.2541C84.6654 56.6101 79.0002 62.2829 70.2445 62.2829C70.2445 62.2829 70.2445 63.426 70.2445 69.5603C70.2445 76.1052 60.8589 75.0723 53.2235 71.9014C48.8774 70.0852 47.7317 69.8482 47.5879 66.0931Z" fill="#FFCFAA"/>
<path d="M47.5118 36.8525C47.5118 36.8525 54.6737 35.8153 56.851 25.1088C56.851 25.1088 82.8982 30.0959 87.1556 23.86C91.413 17.6241 88.5042 14.1949 80.4123 12.5312C72.3161 10.8674 47.6006 10.2493 42.8866 16.6377C38.1727 23.026 36.8874 33.3768 39.3099 41.1452C41.5972 48.4734 47.516 47.2033 47.516 47.2033V36.8525H47.5118Z" fill="#CD543D"/>
<path opacity="0.5" d="M70.2445 62.2788C70.2445 62.2788 64.0931 62.4354 60.8969 60.9622C60.8969 60.9622 63.0911 63.9637 70.2445 63.9552V62.2788Z" fill="#B28473"/>
<path d="M38.5404 26.743C38.5404 26.743 61.4676 18.6063 86.2888 19.9694C86.2888 19.9694 82.302 7.1801 80.7631 3.64092C79.2242 0.101734 67.3315 -0.351249 59.4763 0.19487C51.6169 0.740988 43.4108 3.84412 41.8127 7.1801C39.0393 12.9546 38.5404 26.743 38.5404 26.743Z" fill="#F15231"/>
<path opacity="0.3" d="M54.4918 6.08774C55.2486 3.14124 65.0232 0.241308 65.5982 0C65.6193 0 65.6405 0 65.6616 0C66.338 0.19474 76.9455 3.61962 77.7572 5.71096C78.4125 7.40012 79.2158 15.5411 79.2158 19.8254C69.7076 19.9439 60.8039 21.2563 53.7604 22.7084C53.7647 22.7084 53.8915 8.43308 54.4918 6.08774Z" fill="#F3D07F"/>
<path d="M48.1967 23.9657C48.1967 23.9657 54.9442 11.079 60.1951 8.71668C65.4502 6.35863 87.8235 6.81161 92.8969 8.71668C97.9702 10.6217 88.8889 20.3206 88.8889 20.3206C88.8889 20.3206 69.0819 18.441 48.1967 23.9657Z" fill="#CF391A"/>
<path d="M73.5168 34.4563C73.4026 35.7856 73.4618 37.1234 73.6732 38.4527C73.9057 39.7693 74.2355 41.1283 75.1529 42.2798C75.3854 42.5592 75.6814 42.809 76.0238 42.991C76.1253 43.0418 76.1591 43.0714 76.2056 43.1011C76.2521 43.1265 76.2986 43.1561 76.3198 43.1942C76.3494 43.2281 76.3874 43.2577 76.3959 43.3043C76.4085 43.3424 76.4424 43.3805 76.4339 43.4313C76.4635 43.6133 76.3874 43.8673 76.2098 44.0705C76.0365 44.2737 75.8124 44.4642 75.5461 44.5955C75.0218 44.8707 74.3919 44.9892 73.7577 44.9977C73.1151 45.0273 72.4725 44.8834 71.8214 44.7648C72.4175 45.0485 73.0517 45.3025 73.7366 45.3829C74.413 45.4676 75.136 45.4337 75.8082 45.1501C76.1464 45.0188 76.4635 44.8029 76.7299 44.515C76.992 44.2314 77.1991 43.825 77.1653 43.3508C77.1695 43.2323 77.123 43.118 77.0765 43.0037C77.0385 42.8852 76.9624 42.7963 76.8821 42.7031C76.8102 42.6015 76.7172 42.538 76.6242 42.4787C76.5312 42.4152 76.4255 42.3517 76.3832 42.3263C76.1464 42.1951 75.9308 42.0088 75.7448 41.7802C75.3601 41.3357 75.0768 40.7642 74.8443 40.1757C74.6033 39.5873 74.43 38.965 74.2651 38.3342C73.948 37.0641 73.7239 35.7687 73.5168 34.4563Z" fill="#5F3732"/>
<path d="M76.214 35.4511C76.214 36.4714 76.7425 37.2969 77.3936 37.2969C78.0446 37.2969 78.5731 36.4714 78.5731 35.4511C78.5731 34.4308 78.0446 33.6011 77.3936 33.6011C76.7425 33.6053 76.214 34.4308 76.214 35.4511Z" fill="#4C2843"/>
<path d="M63.9704 35.4511C63.9704 36.4714 64.4988 37.2969 65.1499 37.2969C65.801 37.2969 66.3295 36.4714 66.3295 35.4511C66.3295 34.4308 65.801 33.6011 65.1499 33.6011C64.4988 33.6011 63.9704 34.4308 63.9704 35.4511Z" fill="#4C2843"/>
<path d="M79.8415 32.742C79.6724 32.2509 79.3299 31.8826 78.9367 31.6117C78.5435 31.328 78.0785 31.1502 77.5965 31.0782C77.1146 31.0105 76.6157 31.0274 76.1591 31.1883C75.6982 31.3238 75.2755 31.5905 74.9542 31.98L74.9415 31.9969C74.9288 32.0138 74.9288 32.035 74.9457 32.0477C74.9542 32.0562 74.9668 32.0562 74.9795 32.0562C75.3896 31.9419 75.7997 31.8403 76.2183 31.8064C76.6368 31.7598 77.0596 31.7852 77.4739 31.8487C77.8925 31.9038 78.2983 32.0223 78.6873 32.1832C79.0762 32.3483 79.4525 32.5515 79.7865 32.8013C79.8034 32.814 79.8245 32.8097 79.8372 32.7928C79.8457 32.7843 79.8457 32.7716 79.8415 32.7589V32.742Z" fill="#5F3732"/>
<path d="M62.6345 32.8009C62.9685 32.5469 63.3448 32.3437 63.7337 32.1829C64.1227 32.022 64.5328 31.9035 64.9471 31.8484C65.3614 31.7849 65.7842 31.7595 66.2027 31.8061C66.6255 31.8399 67.0356 31.9416 67.4415 32.0559C67.4626 32.0601 67.4795 32.0516 67.488 32.0305C67.4922 32.0178 67.488 32.0051 67.4795 31.9966L67.4668 31.9797C67.1455 31.5902 66.727 31.3235 66.2619 31.188C65.8011 31.0271 65.3022 31.006 64.8245 31.0779C64.3425 31.1499 63.8775 31.3277 63.4843 31.6113C63.0911 31.8865 62.7444 32.2506 62.5795 32.7417L62.5753 32.7586C62.5668 32.7798 62.5795 32.8009 62.5964 32.8052C62.6133 32.8094 62.626 32.8052 62.6345 32.8009Z" fill="#5F3732"/>
<path d="M75.9562 51.6398C75.2924 52.1182 74.5695 52.3934 73.8254 52.5415C73.0855 52.6813 72.3245 52.6982 71.6016 52.55C70.8744 52.4188 70.1853 52.114 69.5765 51.6822C68.9635 51.2419 68.4434 50.6661 67.9446 50.0142C68.1475 50.8016 68.5703 51.5594 69.1875 52.1478C69.8005 52.7448 70.6081 53.1469 71.4536 53.312C72.3034 53.4687 73.1828 53.4094 73.986 53.1258C74.7851 52.8464 75.5292 52.3426 75.9562 51.6398Z" fill="#5F3732"/>
<path d="M66.7947 50.01C66.9553 50.2047 67.1667 50.2936 67.3823 50.3402C67.5979 50.3825 67.8262 50.3656 68.0419 50.2936C68.4689 50.1539 68.8494 49.7602 68.824 49.2649C68.5746 49.3157 68.4097 49.3792 68.2406 49.4173L67.7924 49.557C67.5007 49.6628 67.209 49.7687 66.7947 50.01Z" fill="#5F3732"/>
<path d="M47.7317 33.6054V46.0772C47.7317 46.0772 43.2164 46.1873 41.3139 42.0808C38.8238 36.7043 42.8824 31.205 47.7317 33.6054Z" fill="#B28473"/>
<path d="M47.0341 35.4512C46.4971 35.121 45.8545 34.9643 45.1865 35.0024C45.0216 35.0278 44.8525 35.0405 44.6876 35.0871C44.527 35.1464 44.3537 35.1845 44.2015 35.2691C44.0535 35.358 43.8886 35.4385 43.7618 35.5528C43.6349 35.6713 43.4912 35.7856 43.3813 35.9169C42.9247 36.4672 42.764 37.1403 42.6837 37.7754C42.6795 38.0971 42.671 38.4146 42.7048 38.7279C42.7598 39.0412 42.8147 39.346 42.9035 39.6466C42.9881 39.3375 43.0346 39.0369 43.0853 38.7406C43.1445 38.4485 43.2291 38.1648 43.2798 37.8812C43.3263 37.7457 43.377 37.6145 43.4193 37.479C43.4616 37.3435 43.4996 37.2081 43.5715 37.0938C43.6349 36.9752 43.6814 36.8482 43.7491 36.7297L43.9774 36.4122C44.2987 36.01 44.7468 35.7475 45.2795 35.5951C45.8207 35.4681 46.4126 35.43 47.0341 35.4512Z" fill="#5F3732"/>
<path d="M94.4907 45.8399L80.928 41.3186C80.928 41.3186 78.3407 36.1156 80.928 30.6502L94.4907 26.8655V45.8399Z" fill="#3B5000"/>
<path d="M96.2029 46.0644C91.7362 46.0644 88.1152 41.7182 88.1152 36.357C88.1152 30.9958 91.7362 26.6497 96.2029 26.6497C100.67 26.6497 104.291 30.9958 104.291 36.357C104.291 41.7182 100.67 46.0644 96.2029 46.0644Z" fill="#64653D"/>
<path opacity="0.6" d="M96.203 44.5997C92.411 44.5997 89.3371 40.9093 89.3371 36.3571C89.3371 31.8048 92.411 28.1145 96.203 28.1145C99.9949 28.1145 103.069 31.8048 103.069 36.3571C103.069 40.9093 99.9949 44.5997 96.203 44.5997Z" fill="white"/>
<g opacity="0.3">
<path opacity="0.3" d="M94.0976 28.5122L101.932 40.9036C101.416 41.835 100.748 42.6309 99.97 43.2447L91.6962 30.1506C92.3896 29.4224 93.2013 28.8594 94.0976 28.5122Z" fill="white"/>
<path opacity="0.3" d="M90.7576 31.3486L98.7523 44.0025C97.9617 44.3793 97.1035 44.5952 96.203 44.5952C95.5942 44.5952 95.0107 44.4893 94.4485 44.3115L89.3413 36.2298C89.3624 34.3967 89.8867 32.7076 90.7576 31.3486Z" fill="white"/>
<path opacity="0.3" d="M102.562 39.4685L95.4208 28.1694C95.6787 28.1355 95.9409 28.1101 96.203 28.1101C96.7526 28.1101 97.2895 28.1948 97.8011 28.3429L103.06 36.666C103.027 37.6524 102.857 38.6007 102.562 39.4685Z" fill="white"/>
</g>
<path d="M49.3593 67.6213C54.9104 67.833 56.0984 70.4832 56.3098 79.2803C56.407 83.4037 58.0009 85.2622 60.4107 85.2622C60.4234 85.2622 60.4361 85.2622 60.4487 85.2622C62.6599 85.2368 64.3848 84.4663 64.5454 77.9425L65.7081 42.3051C65.7081 41.8395 67.0314 42.0596 67.0314 42.5295L67.4584 77.9468C67.4584 88.4331 63.8098 89.3221 61.214 89.3221C61.1971 89.3221 61.1759 89.3221 61.159 89.3221C56.5042 89.3221 54.3481 85.8761 54.2212 80.7028C54.0394 73.1884 52.4033 69.1369 49.3551 68.6289C49.3593 67.6213 49.3593 67.6213 49.3593 67.6213Z" fill="#3B5000"/>
<path d="M74.8782 45.8399L61.3155 41.3186C61.3155 41.3186 58.7281 36.1156 61.3155 30.6502L74.8782 26.8655V45.8399Z" fill="#3B5000"/>
<path d="M76.5904 46.0644C72.1237 46.0644 68.5027 41.7182 68.5027 36.357C68.5027 30.9958 72.1237 26.6497 76.5904 26.6497C81.0571 26.6497 84.6781 30.9958 84.6781 36.357C84.6781 41.7182 81.0571 46.0644 76.5904 46.0644Z" fill="#64653D"/>
<path opacity="0.6" d="M76.5904 44.5997C72.7985 44.5997 69.7245 40.9093 69.7245 36.3571C69.7245 31.8048 72.7985 28.1145 76.5904 28.1145C80.3823 28.1145 83.4563 31.8048 83.4563 36.3571C83.4563 40.9093 80.3823 44.5997 76.5904 44.5997Z" fill="white"/>
<g opacity="0.3">
<path opacity="0.3" d="M74.485 28.5122L82.3148 40.9036C81.799 41.835 81.131 42.6309 80.3531 43.2447L72.0794 30.1506C72.7727 29.4224 73.5887 28.8594 74.485 28.5122Z" fill="white"/>
<path opacity="0.3" d="M71.1408 31.3486L79.1355 44.0025C78.3449 44.3793 77.4867 44.5952 76.5862 44.5952C75.9774 44.5952 75.3939 44.4893 74.8316 44.3115L69.7245 36.2298C69.7499 34.3967 70.2741 32.7076 71.1408 31.3486Z" fill="white"/>
<path opacity="0.3" d="M82.949 39.4685L75.8083 28.1694C76.0661 28.1355 76.3283 28.1101 76.5904 28.1101C77.14 28.1101 77.6769 28.1948 78.1885 28.3429L83.4436 36.666C83.414 37.6524 83.2449 38.6007 82.949 39.4685Z" fill="white"/>
</g>
<g style="mix-blend-mode:multiply" opacity="0.25">
<path d="M33.8181 70.3053C37.3609 68.3664 42.244 67.0921 47.6091 66.4909C47.6006 66.3597 47.5921 66.2327 47.5837 66.093L51.376 46.1322C56.8848 43.4481 57.5189 36.5984 63.9198 36.8609C63.9198 36.8609 66.1182 94.5292 58.0263 109.262C49.1226 125.467 32.9894 119.503 27.0325 97.7806C27.282 85.8041 25.1681 75.0383 33.8181 70.3053Z" fill="#B28473"/>
</g>
<path d="M32.0043 70.0385C36.5111 67.3629 45.4486 79.695 52.2004 93.0897C58.9521 106.484 53.0755 114.939 45.0724 114.719C37.0734 114.498 27.1931 100.477 23.942 90.8375C20.6908 81.1979 27.0494 72.9807 32.0043 70.0385Z" fill="#FFCFAA"/>
<path d="M66.4056 29.0415C66.4056 29.0415 63.0742 36.467 63.0742 46.6273C63.0742 56.7877 59.823 96.0955 56.073 106.738C52.323 117.381 37.2552 119.079 35.34 103.906C33.3741 88.3313 44.4931 46.9068 52.1961 37.1317C59.7892 27.4963 62.0764 28.47 66.4056 29.0415Z" fill="#FFCFAA"/>
<path d="M63.4336 40.3535C63.2391 41.7336 63.0954 43.1222 63.015 44.5193C62.9728 45.2178 62.9432 45.9163 62.9305 46.6148L62.8502 48.7019C62.7191 51.4833 62.5458 54.2647 62.3217 57.0419C61.8989 62.5962 61.4381 68.1505 60.8673 73.6964C60.3516 79.2465 59.7343 84.7838 59.0325 90.3085L58.4744 94.4489C58.2588 95.8247 58.0643 97.2049 57.8276 98.5765C57.5781 99.9439 57.3837 101.328 57.0708 102.683C56.9186 103.36 56.8002 104.05 56.6184 104.719L56.073 106.739C57.8868 101.451 58.7577 95.8967 59.6244 90.389C60.4488 84.8685 61.066 79.3184 61.641 73.7683C62.1483 68.2098 62.6219 62.6512 62.9178 57.0757C63.07 54.2901 63.1757 51.5003 63.2307 48.7062L63.2222 46.6106C63.2095 45.9163 63.2095 45.2178 63.2222 44.5235C63.2476 43.1349 63.3194 41.7421 63.4336 40.3535Z" fill="#5F3732"/>
<path d="M35.9108 89.377C36.4435 86.3924 36.9973 83.4163 37.6357 80.4529C38.2572 77.4894 38.9294 74.5387 39.6735 71.6049C41.1701 65.7416 42.8105 59.9121 44.8187 54.2096C45.8207 51.3604 46.8607 48.5198 48.0487 45.7426C48.6364 44.354 49.2663 42.9824 49.9385 41.6361C50.6192 40.2941 51.3295 38.9648 52.175 37.7371C53.0248 36.5094 53.938 35.2944 54.8893 34.1302C55.849 32.9745 56.8636 31.8568 58.0051 30.8916C59.1424 29.9391 60.4361 29.1135 61.9158 28.8638C63.3913 28.5971 64.9091 28.9019 66.4099 29.0458C64.926 28.8087 63.4251 28.4277 61.882 28.6352C60.3431 28.8299 58.9352 29.6173 57.743 30.5698C56.5465 31.5308 55.4854 32.64 54.4834 33.7831C53.4856 34.9388 52.5428 36.1199 51.6423 37.3646C50.7629 38.6304 50.0315 39.9724 49.3297 41.3271C48.6364 42.6861 47.9938 44.0662 47.3892 45.459C46.1843 48.2531 45.0808 51.0853 44.1042 53.9598C43.1191 56.8343 42.2229 59.7343 41.39 62.6553C40.5571 65.5764 39.7877 68.5102 39.1197 71.4737C38.4432 74.4329 37.8218 77.4005 37.2848 80.3894C36.7564 83.374 36.2786 86.367 35.9108 89.377Z" fill="#5F3732"/>
<path d="M63.2602 48.2489C63.2602 48.2489 55.6671 50.4969 48.37 43.825C48.37 43.825 45.6769 45.3067 46.4252 48.7951C46.4252 48.7951 53.1093 55.6829 63.4504 53.2402C63.4546 53.2402 64.6257 50.5011 63.2602 48.2489Z" fill="#3B5000"/>
<path d="M49.9681 52.5417C51.4774 53.0243 53.2912 51.5553 54.0226 49.265C54.754 46.9747 54.1198 44.7267 52.6105 44.2441L51.9763 43.9858L49.1226 52.1988L49.9681 52.5417Z" fill="#D3D3D3"/>
<path d="M49.3382 52.2846C47.83 51.803 47.199 49.5545 47.929 47.2624C48.6589 44.9703 50.4732 43.5026 51.9814 43.9842C53.4896 44.4658 54.1206 46.7143 53.3906 49.0064C52.6607 51.2985 50.8464 52.7662 49.3382 52.2846Z" fill="white"/>
<path d="M48.5392 47.4574C47.9727 49.2312 48.4631 50.9754 49.63 51.3479C50.7968 51.7205 52.2047 50.5859 52.7712 48.8079C53.3377 47.0298 52.8473 45.2898 51.6804 44.9173C50.5136 44.5447 49.1057 45.6835 48.5392 47.4574Z" fill="#FDD673"/>
<path d="M51.0377 49.6926C50.9997 49.1507 50.9151 48.6215 50.801 48.0966C50.7841 48.0161 50.7037 47.9653 50.6234 47.9823C50.5853 47.9907 50.5558 48.0119 50.5346 48.0373L50.5304 48.0415C50.0061 48.7401 49.5073 49.4597 49.1183 50.2599C49.7525 49.6375 50.2767 48.939 50.7714 48.2193L50.505 48.1685C50.653 48.685 50.8221 49.193 51.0377 49.6926Z" fill="#4C2843"/>
<path d="M70.2444 67.6213C75.7955 67.833 76.9835 70.4832 77.1949 79.2803C77.2921 83.4037 78.886 85.2622 81.2958 85.2622C81.3085 85.2622 81.3212 85.2622 81.3339 85.2622C83.545 85.2368 85.2699 84.4663 85.4306 77.9425L86.5932 42.3051C86.5932 41.8395 87.9165 42.0596 87.9165 42.5295L88.3435 77.9425C88.3435 88.4289 84.6949 89.3179 82.0991 89.3179C82.0822 89.3179 82.061 89.3179 82.0441 89.3179C77.3894 89.3179 75.2332 85.8718 75.1064 80.6985C74.9246 73.1841 73.2884 69.1327 70.2402 68.6247C70.2444 67.6213 70.2444 67.6213 70.2444 67.6213Z" fill="#3B5000"/>
</svg>
