<svg width="254" height="212" viewBox="0 0 254 212" fill="none" xmlns="http://www.w3.org/2000/svg">
<g clip-path="url(#clip0_152_6127)">
<path d="M96.9746 184.723C96.9746 184.723 96.4566 184.523 95.5105 184.136C85.0852 179.908 22.6966 153.481 32.3297 130.554C33.9553 126.682 36.2113 124.457 38.9223 123.61L38.9289 123.607C53.7071 118.973 82.0635 154.941 96.9746 184.723Z" fill="#96C258"/>
<g opacity="0.43">
<path opacity="0.43" d="M33.0918 128.94C39.0177 132.813 44.7576 136.969 50.3562 141.304C51.7526 142.389 53.1555 143.471 54.5398 144.581L58.6746 147.918C61.3985 150.182 64.1197 152.457 66.7883 154.784C69.4713 157.098 72.0832 159.493 74.716 161.872L78.5856 165.521L80.514 167.35L82.4027 169.223C87.4934 174.161 92.3027 179.391 96.976 184.717C94.3879 182.295 91.9403 179.738 89.327 177.348L85.4871 173.69L81.6012 170.081C76.4138 165.278 71.1632 160.547 65.8176 155.924C60.4972 151.269 55.0935 146.72 49.6373 142.223C44.1703 137.745 38.6811 133.29 33.0918 128.94Z" fill="#467238"/>
</g>
<g style="mix-blend-mode:multiply" opacity="0.08">
<path d="M46.3843 127.944C48.3991 126.722 57.6466 133.664 54.8772 136.184C52.1166 138.713 42.7602 130.147 46.3843 127.944Z" fill="#2D480B"/>
</g>
<path d="M100.003 180.148C99.2355 181.843 98.7878 182.796 98.7878 182.796C88.2463 146.143 85.0223 91.3893 106.877 97.451C107.657 97.6598 108.473 97.9564 109.323 98.3341C131.06 107.994 105.976 166.902 100.003 180.148Z" fill="#96C258"/>
<g opacity="0.18">
<path opacity="0.18" d="M111.992 108.454C114.736 108.589 116.642 120.473 112.792 121.815C108.942 123.157 109.426 108.328 111.992 108.454Z" fill="#66C281"/>
<path opacity="0.18" d="M108.327 125.843C110.083 125.463 109.776 132.373 107.263 132.951C104.756 133.53 106.572 126.218 108.327 125.843Z" fill="#66C281"/>
</g>
<g opacity="0.43">
<path opacity="0.43" d="M107.68 97.6941C106.543 104.749 105.551 111.815 104.597 118.885C103.659 125.954 102.789 133.036 102.054 140.126C101.276 147.216 100.643 154.317 100.106 161.427L99.7095 166.762L99.384 172.1C99.0957 175.658 99.0403 179.229 98.7879 182.796C98.6008 175.659 98.5726 168.503 98.9474 161.361L99.0601 158.684L99.2334 156.007L99.585 150.654C99.9018 147.092 100.186 143.528 100.578 139.975C100.954 136.418 101.399 132.869 101.86 129.324L102.623 124.015C102.883 122.244 103.174 120.482 103.459 118.719C104.603 111.661 105.978 104.642 107.68 97.6941Z" fill="#93C356"/>
</g>
<path d="M98.6681 183.12C98.6763 183.294 98.135 182.771 97.1743 181.68C88.2258 171.489 42.7493 111.379 61.8838 97.9127C62.204 97.6817 62.5471 97.4679 62.9093 97.2648C86.9111 83.9301 97.4586 140.662 98.6681 183.12Z" fill="#96C258"/>
<g opacity="0.43">
<path opacity="0.43" d="M64.9775 96.2737C68.7409 103.068 72.1224 110.078 75.3066 117.168C78.4958 124.259 81.4704 131.454 84.2751 138.708C87.0303 145.983 89.7036 153.298 92.0812 160.711C93.3238 164.401 94.4173 168.134 95.5523 171.857C96.114 173.72 96.6096 175.603 97.14 177.48C97.6654 179.355 98.174 181.231 98.6695 183.114C96.1219 175.762 93.6131 168.408 90.9822 161.1L89.0168 155.615L86.9955 150.154C86.3351 148.332 85.6514 146.514 84.9612 144.701C84.271 142.887 83.599 141.067 82.8906 139.26L80.7888 133.833L78.6376 128.427C77.9358 126.615 77.1948 124.827 76.4618 123.03L74.2496 117.646L73.1344 114.957L71.9945 112.278C71.2499 110.483 70.4726 108.707 69.7032 106.923C68.1826 103.347 66.5917 99.8078 64.9775 96.2737Z" fill="#467238"/>
</g>
<g opacity="0.18">
<g style="mix-blend-mode:multiply" opacity="0.24">
<path d="M74.4594 100.782C77.0513 99.1697 84.4156 110.576 82.0778 112.901C79.74 115.226 72.4595 102.03 74.4594 100.782Z" fill="#2D480B"/>
</g>
<g style="mix-blend-mode:multiply" opacity="0.24">
<path d="M82.8624 116.352C84.7899 115.312 90.0587 124.077 87.2383 125.64C84.4231 127.203 80.2669 117.752 82.8624 116.352Z" fill="#2D480B"/>
</g>
</g>
</g>
<g clip-path="url(#clip1_152_6127)">
<path d="M115.405 163.497C107.711 163.366 82.5766 163.717 81.2914 150.339C78.3573 119.723 94.575 73.6794 94.575 73.6794H136.016C136.016 73.6794 146.788 119.723 147.87 142.241C148.75 160.453 140.856 163.929 115.405 163.497Z" fill="#A28230"/>
<path d="M100.354 71.093C100.354 71.093 94.0381 86.9262 89.5271 122.885" stroke="#EDB31C" stroke-width="1.8391" stroke-miterlimit="10"/>
<path d="M94.9386 128.787C94.9386 128.787 95.8391 152.625 94.0085 155.834C92.1778 159.043 78.7462 152.625 77.6808 148.807C76.6112 144.988 77.3764 133.13 79.8158 125.764L94.9386 128.787Z" fill="#9F906A"/>
<path d="M97.3654 132.148C97.3654 132.148 97.1962 123.702 95.7546 122.885C94.3129 122.064 82.8049 118.3 81.08 119.723C79.3551 121.145 77.0002 128.177 77.0002 128.177C77.0002 128.177 87.5992 133.067 97.3654 132.148Z" fill="#D5AB41"/>
<path d="M161.382 83.5393C166.367 83.5393 170.408 78.5565 170.408 72.4053C170.408 66.2583 166.367 61.2712 161.382 61.2712H96.2365V83.5393H161.382Z" fill="#F26E24"/>
<path d="M96.2408 83.5393C91.2557 83.5393 87.2145 78.5544 87.2145 72.4053C87.2145 66.2561 91.2557 61.2712 96.2408 61.2712C101.226 61.2712 105.267 66.2561 105.267 72.4053C105.267 78.5544 101.226 83.5393 96.2408 83.5393Z" fill="#B8A67A"/>
<path d="M96.2407 80.6055C96.8073 80.5378 97.3569 80.3473 97.8853 80.1102C98.3969 79.8435 98.8958 79.5429 99.3439 79.1704C100.253 78.438 101.005 77.5066 101.555 76.4482C102.096 75.3899 102.401 74.2045 102.489 73.0064C102.574 71.7999 102.363 70.6103 102.071 69.4545C101.737 68.2988 101.187 67.1642 100.346 66.2244C99.513 65.2846 98.3758 64.5691 97.1201 64.2728C95.8687 63.9679 94.5327 64.0865 93.3405 64.5395C92.144 64.9882 91.0871 65.7926 90.3134 66.8001C89.544 67.7992 89.0324 69.01 88.8548 70.2631C88.6773 71.5162 88.8083 72.799 89.2396 73.9801C89.6666 75.1528 90.3684 76.2577 91.4169 77.0452C91.9284 77.4473 92.5372 77.7479 93.2221 77.8792C93.3997 77.9003 93.5772 77.9427 93.7506 77.9342L94.2748 77.9003C94.6088 77.8241 94.9513 77.7522 95.243 77.5955C95.5558 77.4727 95.818 77.2738 96.0885 77.096C96.3337 76.8885 96.5874 76.6895 96.7861 76.444C97.0102 76.2196 97.1793 75.9529 97.3653 75.6989C97.4499 75.5677 97.5217 75.4237 97.5936 75.2883C97.6697 75.1528 97.7374 75.0089 97.7881 74.8607C98.046 74.2892 98.1475 73.6542 98.1728 73.0276C98.1771 72.3926 98.0375 71.7618 97.7712 71.1945C97.4668 70.6399 97.1159 70.1446 96.6297 69.7551C96.1646 69.3614 95.5136 69.0608 94.8583 69.1921C94.2072 69.3106 93.7337 69.7932 93.4504 70.3055C93.1672 70.8219 93.0868 71.4654 93.3024 71.9989C93.1629 71.4443 93.332 70.8643 93.6533 70.4282C93.9662 69.9964 94.427 69.645 94.9217 69.6196C95.4121 69.59 95.8687 69.8398 96.2281 70.2039C96.3126 70.3012 96.4141 70.3817 96.4902 70.4917L96.7185 70.8177C96.803 70.9193 96.8453 71.0463 96.9087 71.1564C96.9637 71.2749 97.0356 71.3808 97.0736 71.5035C97.2427 71.9819 97.323 72.4857 97.2808 72.9937C97.2174 73.4933 97.1032 73.9971 96.858 74.4458C96.8073 74.5643 96.7481 74.6744 96.672 74.7803C96.6001 74.8861 96.5409 74.9962 96.469 75.102C96.3084 75.2967 96.1646 75.5084 95.9744 75.6735C95.8053 75.8598 95.5981 75.9995 95.4036 76.1519C95.1923 76.2704 94.9893 76.4144 94.7652 76.4821C94.3298 76.6557 93.8732 76.7192 93.4715 76.6049C93.3701 76.5964 93.2644 76.5541 93.1545 76.5075C93.0488 76.4609 92.9388 76.4355 92.8374 76.372C92.6344 76.2493 92.4273 76.1434 92.2455 75.9741C91.4845 75.3687 90.9349 74.4627 90.622 73.4975C90.305 72.5323 90.195 71.4951 90.3515 70.496C90.5037 69.4969 90.9138 68.5528 91.5395 67.7527C92.1398 66.9526 92.9515 66.3218 93.8816 65.9619C94.8075 65.5978 95.8264 65.5132 96.7903 65.7121C97.7543 65.9069 98.6463 66.4191 99.3397 67.1515C100.033 67.8882 100.553 68.811 100.908 69.8186C101.23 70.8431 101.462 71.9057 101.466 72.981C101.47 74.0521 101.272 75.1274 100.857 76.1307C100.456 77.1383 99.8301 78.0654 99.0522 78.8529C98.2785 79.6318 97.34 80.2965 96.2407 80.6055Z" fill="#F26E24"/>
<g style="mix-blend-mode:multiply">
<path d="M150.906 79.4542C155.024 76.2113 167.576 80.7623 178.437 91.0962C189.298 101.43 186.609 111.375 179.003 113.864C171.398 116.353 157.378 106.485 151.075 98.5048C144.771 90.5247 146.04 83.2897 150.906 79.4542Z" fill="#B28473"/>
</g>
<path d="M178.441 43.0082C181.185 52.7918 188.664 91.5154 187.924 102.776C187.184 114.037 171.237 119.689 166.396 105.185C161.551 90.6814 167.119 52.3388 169.039 40.7645C171.043 28.6652 175.702 33.2247 178.441 43.0082Z" fill="#FFCFAA"/>
<path d="M164.498 84.6232C164.709 79.4202 165.086 74.2257 165.61 69.0482C166.113 63.8664 166.739 58.7016 167.449 53.5452C167.808 50.967 168.189 48.3931 168.578 45.8234L169.187 41.9709C169.394 40.6839 169.609 39.4139 169.935 38.1735C170.26 36.9415 170.662 35.6927 171.364 34.7147C171.715 34.2448 172.171 33.8469 172.666 33.868C172.789 33.8511 172.915 33.8977 173.038 33.9146C173.161 33.9696 173.288 33.9993 173.41 34.0797L173.592 34.1855L173.765 34.321C173.884 34.4014 173.989 34.5157 174.099 34.6173C174.953 35.4852 175.587 36.6198 176.137 37.7671C176.678 38.927 177.135 40.1336 177.536 41.357C178.335 43.8082 178.906 46.3483 179.498 48.8757C180.077 51.4115 180.627 53.9516 181.147 56.5002C182.2 61.5973 183.159 66.7113 184.094 71.8296C185.011 76.9521 185.865 82.0873 186.584 87.2395C186.952 89.8134 187.286 92.3958 187.539 94.9867C187.662 96.2822 187.793 97.5776 187.844 98.8773L187.899 99.851L187.928 100.338V100.825L187.92 102.776L187.987 100.825L188.004 100.338L187.992 99.851L187.966 98.873C187.945 97.5691 187.844 96.2695 187.751 94.9698C187.552 92.3704 187.277 89.7795 186.964 87.1929C186.318 82.0238 185.535 76.8717 184.686 71.728C183.844 66.5843 182.863 61.4661 181.845 56.3562C181.333 53.8035 180.796 51.2507 180.225 48.7064C179.638 46.1663 179.084 43.6177 178.276 41.1115C177.862 39.8626 177.393 38.6307 176.826 37.4368C176.247 36.2515 175.6 35.0703 174.619 34.0797C174.492 33.9612 174.37 33.8342 174.222 33.7326L174.006 33.5717L173.765 33.432C173.613 33.3304 173.423 33.2753 173.245 33.2076C173.051 33.1737 172.861 33.1145 172.653 33.1314C172.45 33.1229 172.256 33.1822 172.057 33.233C171.884 33.3177 171.685 33.3854 171.546 33.5082L171.317 33.6775L171.123 33.8723C170.988 33.9993 170.886 34.1432 170.776 34.2829C169.969 35.4344 169.58 36.7256 169.246 37.9999C168.92 39.2784 168.705 40.5823 168.502 41.8651L167.91 45.7302C167.525 48.3084 167.178 50.8908 166.853 53.4733C166.214 58.6466 165.652 63.8283 165.225 69.0186C164.836 74.2088 164.536 79.416 164.498 84.6232Z" fill="#5F3732"/>
<path d="M102.591 165.889C102.591 165.889 97.1327 180.884 93.091 212.004H159.319C159.319 212.004 161.67 188.161 159.966 165.889H102.591Z" fill="#4C2843"/>
<g opacity="0.3">
<g opacity="0.3">
<path opacity="0.3" d="M101.056 212L103.022 200.455L105.018 188.923L107.064 177.404L109.165 165.885C108.916 166.829 108.675 167.777 108.442 168.721C108.205 169.669 107.969 170.618 107.749 171.566C107.309 173.467 106.886 175.376 106.48 177.286C106.049 179.191 105.698 181.113 105.309 183.026C104.95 184.944 104.591 186.866 104.252 188.788C103.589 192.636 102.959 196.493 102.434 200.362C102.172 202.297 101.914 204.232 101.669 206.171C101.454 208.114 101.217 210.053 101.056 212Z" fill="white"/>
</g>
<g opacity="0.3">
<path opacity="0.3" d="M107.296 174.678C108.907 175.19 110.628 175.351 112.336 175.254C114.044 175.152 115.748 174.729 117.308 173.971C118.081 173.577 118.813 173.107 119.489 172.565C120.157 172.011 120.758 171.384 121.29 170.707C122.335 169.335 123.083 167.769 123.518 166.139C122.778 167.659 121.903 169.081 120.825 170.317C119.73 171.537 118.428 172.553 116.97 173.272C115.511 173.996 113.917 174.432 112.285 174.652C110.645 174.86 108.971 174.873 107.296 174.678Z" fill="white"/>
</g>
<g opacity="0.3">
<path opacity="0.3" d="M139.301 166.139C139.148 168.869 139.051 171.6 139 174.331C138.967 175.698 138.958 177.061 138.937 178.429C138.937 178.771 138.912 179.093 138.962 179.504C139.013 179.893 139.17 180.308 139.461 180.63C139.757 180.952 140.163 181.142 140.556 181.218C140.954 181.295 141.347 181.278 141.719 181.206C142.463 181.058 143.148 180.71 143.71 180.207C143.989 179.953 144.239 179.656 144.425 179.309C144.611 178.975 144.729 178.564 144.75 178.191C144.839 176.79 144.826 175.435 144.801 174.064C144.75 171.329 144.598 168.598 144.378 165.872C144.298 168.607 144.247 171.337 144.196 174.064C144.154 175.423 144.15 176.799 144.019 178.124C143.934 179.305 142.746 180.219 141.575 180.444C140.987 180.566 140.362 180.482 140.019 180.113C139.85 179.927 139.744 179.682 139.706 179.398C139.668 179.131 139.681 178.767 139.673 178.429C139.651 177.061 139.643 175.698 139.609 174.331C139.554 171.6 139.453 168.869 139.301 166.139Z" fill="white"/>
</g>
<g opacity="0.3">
<path opacity="0.3" d="M154.022 165.876C153.65 166.969 153.523 168.146 153.599 169.314C153.675 170.482 153.984 171.668 154.605 172.705C154.918 173.217 155.298 173.696 155.734 174.111C156.182 174.513 156.677 174.856 157.209 175.122C158.279 175.647 159.442 175.893 160.592 175.897C159.488 175.575 158.435 175.169 157.51 174.593C156.592 174.005 155.814 173.238 155.273 172.307C154.711 171.388 154.394 170.33 154.203 169.242C154.017 168.15 153.967 167.02 154.022 165.876Z" fill="white"/>
</g>
<g opacity="0.3">
<path opacity="0.3" d="M144.496 185.892C143.507 186.201 142.531 186.531 141.55 186.862C140.569 187.183 139.592 187.522 138.616 187.865C136.667 188.546 134.722 189.245 132.781 189.96L132.578 190.037L132.549 190.261C132.32 192.069 132.109 193.876 131.902 195.684C131.699 197.492 131.5 199.304 131.319 201.116C131.132 202.928 130.963 204.739 130.811 206.556C130.731 207.462 130.663 208.372 130.6 209.278C130.532 210.188 130.465 211.094 130.414 212.004C130.574 211.107 130.714 210.205 130.853 209.307C130.997 208.406 131.137 207.508 131.264 206.606C131.526 204.803 131.771 203 132.003 201.196C132.24 199.393 132.456 197.585 132.671 195.777C132.879 193.97 133.081 192.158 133.272 190.35L133.039 190.646C134.963 189.893 136.882 189.122 138.793 188.339C139.749 187.945 140.704 187.552 141.651 187.141C142.598 186.722 143.549 186.32 144.496 185.892Z" fill="white"/>
</g>
</g>
<path d="M159.746 79.3271C165.99 86.0287 166.455 118.745 163.953 134.019C161.454 149.294 160.811 169.479 160.811 169.479C160.811 169.479 138.654 184.499 100.189 167.32C100.189 167.32 102.439 135.645 99.5637 117.119C96.6889 98.5894 98.6886 81.9392 110.814 75.3053C122.948 68.6715 150.842 69.7679 159.746 79.3271Z" fill="#FFAC30"/>
<g opacity="0.3">
<path opacity="0.3" d="M165.322 116.815C165.31 117.378 165.297 117.941 165.28 118.495C161.281 119.672 156.427 120.824 150.872 121.624C146.467 122.259 141.343 122.703 135.643 122.703C125.239 122.703 112.907 121.218 99.5045 116.696C99.4158 116.116 99.3354 115.536 99.2551 114.96C127.64 124.752 151.785 120.824 165.322 116.815Z" fill="white"/>
<path opacity="0.3" d="M164.866 126.154C164.819 126.734 164.773 127.305 164.718 127.864C160.828 128.982 156.169 130.065 150.872 130.827C146.467 131.462 141.347 131.907 135.644 131.907C125.505 131.907 113.541 130.489 100.54 126.234C100.502 125.671 100.46 125.117 100.414 124.566C127.979 133.744 151.434 130.061 164.866 126.154Z" fill="white"/>
<path opacity="0.3" d="M163.69 135.687C163.602 136.259 163.521 136.839 163.437 137.423C159.818 138.414 155.598 139.349 150.872 140.031C146.467 140.666 141.342 141.11 135.643 141.11C125.615 141.11 113.794 139.718 100.955 135.569C100.942 135.023 100.929 134.472 100.912 133.926C127.475 142.639 150.178 139.434 163.69 135.687Z" fill="white"/>
<path opacity="0.3" d="M135.643 150.31C125.632 150.31 113.832 148.921 101.018 144.789C101.022 144.252 101.026 143.71 101.026 143.164C126.765 151.58 148.872 148.811 162.49 145.213C162.431 145.784 162.371 146.352 162.316 146.919C158.955 147.795 155.121 148.612 150.872 149.226C146.467 149.861 141.342 150.31 135.643 150.31Z" fill="white"/>
<path opacity="0.3" d="M100.532 161.406C125.598 169.729 147.257 167.413 161.057 163.984C161.027 164.589 160.997 165.148 160.972 165.665C157.945 166.41 154.563 167.1 150.872 167.629C146.467 168.264 141.347 168.708 135.643 168.708C125.484 168.708 113.486 167.282 100.447 163.006C100.477 162.511 100.506 161.977 100.532 161.406Z" fill="white"/>
<path opacity="0.3" d="M161.006 81.1815C161.247 81.6345 161.475 82.1298 161.695 82.6717C158.486 83.4887 154.859 84.2423 150.872 84.818C146.467 85.4531 141.342 85.8976 135.643 85.8976C126.427 85.8976 115.693 84.7207 104.049 81.3127C104.375 80.8597 104.713 80.4194 105.072 79.9961C128.177 86.6173 148.048 84.3947 161.006 81.1815Z" fill="white"/>
<path opacity="0.3" d="M163.61 89.7035C163.707 90.22 163.8 90.7491 163.889 91.291C160.173 92.324 155.797 93.3146 150.872 94.0216C146.467 94.6566 141.347 95.1011 135.643 95.1011C125.421 95.1011 113.338 93.6618 100.206 89.3224C100.359 88.8229 100.515 88.3276 100.684 87.845C127.294 96.6337 150.047 93.4543 163.61 89.7035Z" fill="white"/>
<path opacity="0.3" d="M165.297 107.62C165.314 108.17 165.322 108.725 165.335 109.279C161.327 110.46 156.453 111.62 150.872 112.425C146.467 113.06 141.343 113.504 135.643 113.504C124.981 113.504 112.294 111.934 98.5068 107.145C98.4772 106.587 98.456 106.032 98.4391 105.482C127.158 115.621 151.629 111.667 165.297 107.62Z" fill="white"/>
<path opacity="0.3" d="M135.644 159.509C125.586 159.509 113.723 158.108 100.832 153.93C100.849 153.4 100.866 152.863 100.879 152.317C126.161 160.619 147.942 158.125 161.644 154.632C161.602 155.208 161.56 155.771 161.522 156.326C158.355 157.126 154.787 157.867 150.868 158.43C146.467 159.065 141.343 159.509 135.644 159.509Z" fill="white"/>
<path opacity="0.3" d="M164.781 98.5725C164.828 99.1101 164.874 99.652 164.917 100.198C160.989 101.337 156.262 102.446 150.872 103.221C146.467 103.856 141.342 104.3 135.643 104.3C125.011 104.3 112.365 102.738 98.6251 97.984C98.6716 97.4506 98.7224 96.9214 98.7858 96.3965C126.993 106.26 151.071 102.548 164.781 98.5725Z" fill="white"/>
</g>
<path d="M99.7244 155.746C100.282 155.746 100.853 155.61 101.377 155.326C102.367 154.793 125.649 141.881 128.219 110.807C130.469 83.5649 117.396 72.8542 116.758 72.4097C114.458 70.8136 108.911 74.6873 110.421 75.8938C110.89 76.2791 123.172 86.9262 121.248 110.232C119.003 137.41 101.682 146.995 99.7201 148.049C97.7584 149.099 98.4053 156.101 99.7244 155.746Z" fill="#D5AB41"/>
<path d="M148.821 73.3494C149.363 74.7761 149.502 76.3975 148.931 77.7777C148.864 77.9512 148.8 78.1248 148.699 78.2814C148.602 78.4381 148.526 78.6074 148.42 78.7556C148.192 79.0435 147.98 79.344 147.693 79.5811C147.168 80.0976 146.526 80.4871 145.866 80.8258C144.551 81.4735 143.025 81.6386 141.529 81.6598C140.024 81.6682 138.51 81.5285 137.018 81.2533C134.037 80.7242 131.107 79.7759 128.439 78.3407C127.112 77.6168 125.861 76.7405 124.791 75.6694C124.262 75.1275 123.789 74.5348 123.396 73.8829C123.028 73.2182 122.74 72.507 122.571 71.7534C122.656 72.5197 122.88 73.2732 123.214 73.9802C123.565 74.6788 124.005 75.3265 124.508 75.9276C125.543 77.1003 126.795 78.074 128.135 78.8657C130.824 80.4532 133.817 81.4608 136.878 82.0196C138.413 82.2863 139.973 82.4303 141.537 82.3964C142.319 82.3625 143.106 82.3075 143.883 82.1466C144.657 81.9942 145.439 81.7614 146.141 81.3634C146.83 80.9739 147.511 80.5379 148.048 79.941C148.344 79.6658 148.559 79.3271 148.788 78.9969C148.898 78.8276 148.974 78.6413 149.067 78.4635C149.164 78.2899 149.227 78.0994 149.287 77.9047C149.777 76.3764 149.523 74.7126 148.821 73.3494Z" fill="#CB7F0F"/>
<path d="M159.97 165.889C157.619 166.892 155.188 167.676 152.728 168.344C150.272 169.013 147.781 169.559 145.27 169.974C142.759 170.381 140.235 170.694 137.698 170.868C135.162 171.058 132.621 171.109 130.08 171.037C128.807 171.028 127.543 170.935 126.271 170.868C125.006 170.749 123.738 170.664 122.478 170.491C119.95 170.22 117.447 169.746 114.953 169.246C113.714 168.958 112.467 168.704 111.241 168.357L109.398 167.862L107.571 167.299C106.341 166.956 105.149 166.503 103.939 166.101C103.331 165.906 102.747 165.652 102.147 165.428L100.354 164.75C101.521 165.267 102.68 165.817 103.868 166.291C105.06 166.748 106.239 167.256 107.453 167.659L109.271 168.277L111.11 168.827C112.332 169.212 113.583 169.504 114.822 169.826C117.316 170.415 119.84 170.897 122.385 171.219C123.654 171.41 124.935 171.494 126.211 171.625C127.492 171.697 128.773 171.799 130.054 171.816C135.187 171.947 140.332 171.528 145.372 170.563C150.403 169.572 155.379 168.154 159.97 165.889Z" fill="#80C6A7"/>
<path d="M160.461 77.5108C158.313 74.6786 149.519 72.981 149.38 73.5187C149.062 74.7337 150.58 74.8565 152.745 76.8928C170.425 93.5515 162.549 132.3 164.443 132.673C164.671 132.715 175.283 97.0441 160.461 77.5108Z" fill="#D5AB41"/>
<path d="M124.588 71.0931V21.6418H161.665C161.665 21.6418 161.665 42.8981 161.665 52.2541C161.665 61.6101 156 67.2829 147.244 67.2829C147.244 67.2829 147.244 68.426 147.244 74.5603C147.244 81.1052 137.859 80.0723 130.224 76.9014C125.877 75.0852 124.732 74.8482 124.588 71.0931Z" fill="#FFCFAA"/>
<path d="M124.512 41.8525C124.512 41.8525 131.674 40.8153 133.851 30.1088C133.851 30.1088 159.898 35.0959 164.156 28.86C168.413 22.6241 165.504 19.1949 157.412 17.5312C149.316 15.8674 124.601 15.2493 119.887 21.6377C115.173 28.026 113.887 38.3768 116.31 46.1452C118.597 53.4734 124.516 52.2033 124.516 52.2033V41.8525H124.512Z" fill="#CD543D"/>
<path opacity="0.5" d="M147.245 67.2788C147.245 67.2788 141.093 67.4354 137.897 65.9622C137.897 65.9622 140.091 68.9637 147.245 68.9552V67.2788Z" fill="#B28473"/>
<path d="M115.54 31.743C115.54 31.743 138.468 23.6063 163.289 24.9694C163.289 24.9694 159.302 12.1801 157.763 8.64092C156.224 5.10173 144.332 4.64875 136.476 5.19487C128.617 5.74099 120.411 8.84412 118.813 12.1801C116.039 17.9546 115.54 31.743 115.54 31.743Z" fill="#F15231"/>
<path opacity="0.3" d="M131.492 11.0877C132.249 8.14124 142.023 5.24131 142.598 5C142.619 5 142.64 5 142.662 5C143.338 5.19474 153.946 8.61962 154.757 10.711C155.413 12.4001 156.216 20.5411 156.216 24.8254C146.708 24.9439 137.804 26.2563 130.76 27.7084C130.765 27.7084 130.892 13.4331 131.492 11.0877Z" fill="#F3D07F"/>
<path d="M125.197 28.9657C125.197 28.9657 131.944 16.079 137.195 13.7167C142.45 11.3586 164.824 11.8116 169.897 13.7167C174.97 15.6217 165.889 25.3206 165.889 25.3206C165.889 25.3206 146.082 23.441 125.197 28.9657Z" fill="#CF391A"/>
<path d="M150.517 39.4563C150.403 40.7856 150.462 42.1234 150.673 43.4527C150.906 44.7693 151.235 46.1283 152.153 47.2798C152.385 47.5592 152.681 47.809 153.024 47.991C153.125 48.0418 153.159 48.0714 153.206 48.1011C153.252 48.1265 153.299 48.1561 153.32 48.1942C153.349 48.2281 153.387 48.2577 153.396 48.3043C153.409 48.3424 153.442 48.3805 153.434 48.4313C153.464 48.6133 153.387 48.8673 153.21 49.0705C153.037 49.2737 152.812 49.4642 152.546 49.5955C152.022 49.8707 151.392 49.9892 150.758 49.9977C150.115 50.0273 149.473 49.8834 148.821 49.7648C149.418 50.0485 150.052 50.3025 150.737 50.3829C151.413 50.4676 152.136 50.4337 152.808 50.1501C153.146 50.0188 153.464 49.8029 153.73 49.515C153.992 49.2314 154.199 48.825 154.165 48.3508C154.17 48.2323 154.123 48.118 154.077 48.0037C154.038 47.8852 153.962 47.7963 153.882 47.7031C153.81 47.6015 153.717 47.538 153.624 47.4787C153.531 47.4152 153.425 47.3517 153.383 47.3263C153.146 47.1951 152.931 47.0088 152.745 46.7802C152.36 46.3357 152.077 45.7642 151.844 45.1757C151.603 44.5873 151.43 43.965 151.265 43.3342C150.948 42.0641 150.724 40.7687 150.517 39.4563Z" fill="#5F3732"/>
<path d="M153.214 40.4511C153.214 41.4714 153.742 42.2969 154.394 42.2969C155.045 42.2969 155.573 41.4714 155.573 40.4511C155.573 39.4308 155.045 38.6011 154.394 38.6011C153.742 38.6053 153.214 39.4308 153.214 40.4511Z" fill="#4C2843"/>
<path d="M140.97 40.4511C140.97 41.4714 141.499 42.2969 142.15 42.2969C142.801 42.2969 143.329 41.4714 143.329 40.4511C143.329 39.4308 142.801 38.6011 142.15 38.6011C141.499 38.6011 140.97 39.4308 140.97 40.4511Z" fill="#4C2843"/>
<path d="M156.841 37.742C156.672 37.2509 156.33 36.8826 155.937 36.6117C155.544 36.328 155.078 36.1502 154.597 36.0782C154.115 36.0105 153.616 36.0274 153.159 36.1883C152.698 36.3238 152.275 36.5905 151.954 36.98L151.941 36.9969C151.929 37.0138 151.929 37.035 151.946 37.0477C151.954 37.0562 151.967 37.0562 151.98 37.0562C152.39 36.9419 152.8 36.8403 153.218 36.8064C153.637 36.7598 154.06 36.7852 154.474 36.8487C154.892 36.9038 155.298 37.0223 155.687 37.1832C156.076 37.3483 156.453 37.5515 156.787 37.8013C156.803 37.814 156.825 37.8097 156.837 37.7928C156.846 37.7843 156.846 37.7716 156.841 37.7589V37.742Z" fill="#5F3732"/>
<path d="M139.634 37.8009C139.968 37.5469 140.345 37.3437 140.734 37.1829C141.123 37.022 141.533 36.9035 141.947 36.8484C142.361 36.7849 142.784 36.7595 143.203 36.8061C143.626 36.8399 144.036 36.9416 144.441 37.0559C144.463 37.0601 144.48 37.0516 144.488 37.0305C144.492 37.0178 144.488 37.0051 144.48 36.9966L144.467 36.9797C144.146 36.5902 143.727 36.3235 143.262 36.188C142.801 36.0271 142.302 36.006 141.824 36.0779C141.343 36.1499 140.877 36.3277 140.484 36.6113C140.091 36.8865 139.744 37.2506 139.58 37.7417L139.575 37.7586C139.567 37.7798 139.58 37.8009 139.596 37.8052C139.613 37.8094 139.626 37.8052 139.634 37.8009Z" fill="#5F3732"/>
<path d="M152.956 56.6398C152.292 57.1182 151.569 57.3934 150.825 57.5415C150.086 57.6813 149.325 57.6982 148.602 57.55C147.874 57.4188 147.185 57.114 146.576 56.6822C145.963 56.2419 145.443 55.6661 144.945 55.0142C145.147 55.8016 145.57 56.5594 146.188 57.1478C146.801 57.7448 147.608 58.1469 148.454 58.312C149.303 58.4687 150.183 58.4094 150.986 58.1258C151.785 57.8464 152.529 57.3426 152.956 56.6398Z" fill="#5F3732"/>
<path d="M143.795 55.01C143.955 55.2047 144.167 55.2936 144.382 55.3402C144.598 55.3825 144.826 55.3656 145.042 55.2936C145.469 55.1539 145.849 54.7602 145.824 54.2649C145.575 54.3157 145.41 54.3792 145.241 54.4173L144.792 54.557C144.501 54.6628 144.209 54.7687 143.795 55.01Z" fill="#5F3732"/>
<path d="M124.732 38.6054V51.0772C124.732 51.0772 120.216 51.1873 118.314 47.0808C115.824 41.7043 119.882 36.205 124.732 38.6054Z" fill="#B28473"/>
<path d="M124.034 40.4512C123.497 40.121 122.855 39.9643 122.187 40.0024C122.022 40.0278 121.853 40.0405 121.688 40.0871C121.527 40.1464 121.354 40.1845 121.201 40.2691C121.053 40.358 120.889 40.4385 120.762 40.5528C120.635 40.6713 120.491 40.7856 120.381 40.9169C119.925 41.4672 119.764 42.1403 119.684 42.7754C119.679 43.0971 119.671 43.4146 119.705 43.7279C119.76 44.0412 119.815 44.346 119.904 44.6466C119.988 44.3375 120.035 44.0369 120.085 43.7406C120.145 43.4485 120.229 43.1648 120.28 42.8812C120.326 42.7457 120.377 42.6145 120.419 42.479C120.462 42.3435 120.5 42.2081 120.572 42.0938C120.635 41.9752 120.681 41.8482 120.749 41.7297L120.977 41.4122C121.299 41.01 121.747 40.7475 122.28 40.5951C122.821 40.4681 123.413 40.43 124.034 40.4512Z" fill="#5F3732"/>
<path d="M171.491 50.8399L157.928 46.3186C157.928 46.3186 155.341 41.1156 157.928 35.6502L171.491 31.8655V50.8399Z" fill="#3B5000"/>
<path d="M173.203 51.0644C168.736 51.0644 165.115 46.7182 165.115 41.357C165.115 35.9958 168.736 31.6497 173.203 31.6497C177.67 31.6497 181.291 35.9958 181.291 41.357C181.291 46.7182 177.67 51.0644 173.203 51.0644Z" fill="#64653D"/>
<path opacity="0.6" d="M173.203 49.5997C169.411 49.5997 166.337 45.9093 166.337 41.3571C166.337 36.8048 169.411 33.1145 173.203 33.1145C176.995 33.1145 180.069 36.8048 180.069 41.3571C180.069 45.9093 176.995 49.5997 173.203 49.5997Z" fill="white"/>
<g opacity="0.3">
<path opacity="0.3" d="M171.098 33.5122L178.932 45.9036C178.416 46.835 177.748 47.6309 176.97 48.2447L168.696 35.1506C169.39 34.4224 170.201 33.8594 171.098 33.5122Z" fill="white"/>
<path opacity="0.3" d="M167.758 36.3486L175.752 49.0025C174.962 49.3793 174.103 49.5952 173.203 49.5952C172.594 49.5952 172.011 49.4893 171.448 49.3115L166.341 41.2298C166.362 39.3967 166.887 37.7076 167.758 36.3486Z" fill="white"/>
<path opacity="0.3" d="M179.562 44.4685L172.421 33.1694C172.679 33.1355 172.941 33.1101 173.203 33.1101C173.753 33.1101 174.29 33.1948 174.801 33.3429L180.06 41.666C180.027 42.6524 179.857 43.6007 179.562 44.4685Z" fill="white"/>
</g>
<path d="M126.359 72.6213C131.91 72.833 133.098 75.4832 133.31 84.2803C133.407 88.4037 135.001 90.2622 137.411 90.2622C137.423 90.2622 137.436 90.2622 137.449 90.2622C139.66 90.2368 141.385 89.4663 141.545 82.9425L142.708 47.3051C142.708 46.8395 144.031 47.0596 144.031 47.5295L144.458 82.9468C144.458 93.4331 140.81 94.3221 138.214 94.3221C138.197 94.3221 138.176 94.3221 138.159 94.3221C133.504 94.3221 131.348 90.8761 131.221 85.7028C131.039 78.1884 129.403 74.1369 126.355 73.6289C126.359 72.6213 126.359 72.6213 126.359 72.6213Z" fill="#3B5000"/>
<path d="M151.878 50.8399L138.316 46.3186C138.316 46.3186 135.728 41.1156 138.316 35.6502L151.878 31.8655V50.8399Z" fill="#3B5000"/>
<path d="M153.59 51.0644C149.124 51.0644 145.503 46.7182 145.503 41.357C145.503 35.9958 149.124 31.6497 153.59 31.6497C158.057 31.6497 161.678 35.9958 161.678 41.357C161.678 46.7182 158.057 51.0644 153.59 51.0644Z" fill="#64653D"/>
<path opacity="0.6" d="M153.59 49.5997C149.798 49.5997 146.725 45.9093 146.725 41.3571C146.725 36.8048 149.798 33.1145 153.59 33.1145C157.382 33.1145 160.456 36.8048 160.456 41.3571C160.456 45.9093 157.382 49.5997 153.59 49.5997Z" fill="white"/>
<g opacity="0.3">
<path opacity="0.3" d="M151.485 33.5122L159.315 45.9036C158.799 46.835 158.131 47.6309 157.353 48.2447L149.079 35.1506C149.773 34.4224 150.589 33.8594 151.485 33.5122Z" fill="white"/>
<path opacity="0.3" d="M148.141 36.3486L156.135 49.0025C155.345 49.3793 154.487 49.5952 153.586 49.5952C152.977 49.5952 152.394 49.4893 151.832 49.3115L146.725 41.2298C146.75 39.3967 147.274 37.7076 148.141 36.3486Z" fill="white"/>
<path opacity="0.3" d="M159.949 44.4685L152.808 33.1694C153.066 33.1355 153.328 33.1101 153.59 33.1101C154.14 33.1101 154.677 33.1948 155.188 33.3429L160.444 41.666C160.414 42.6524 160.245 43.6007 159.949 44.4685Z" fill="white"/>
</g>
<g style="mix-blend-mode:multiply" opacity="0.25">
<path d="M110.818 75.3053C114.361 73.3664 119.244 72.0921 124.609 71.4909C124.601 71.3597 124.592 71.2327 124.584 71.093L128.376 51.1322C133.885 48.4481 134.519 41.5984 140.92 41.8609C140.92 41.8609 143.118 99.5292 135.026 114.262C126.123 130.467 109.989 124.503 104.033 102.781C104.282 90.8041 102.168 80.0383 110.818 75.3053Z" fill="#B28473"/>
</g>
<path d="M109.004 75.0385C113.511 72.3629 122.449 84.695 129.2 98.0897C135.952 111.484 130.076 119.939 122.072 119.719C114.073 119.498 104.193 105.477 100.942 95.8375C97.6908 86.1979 104.049 77.9807 109.004 75.0385Z" fill="#FFCFAA"/>
<path d="M143.406 34.0415C143.406 34.0415 140.074 41.467 140.074 51.6273C140.074 61.7877 136.823 101.096 133.073 111.738C129.323 122.381 114.255 124.079 112.34 108.906C110.374 93.3313 121.493 51.9068 129.196 42.1317C136.789 32.4963 139.076 33.47 143.406 34.0415Z" fill="#FFCFAA"/>
<path d="M140.434 45.3535C140.239 46.7336 140.095 48.1222 140.015 49.5193C139.973 50.2178 139.943 50.9163 139.93 51.6148L139.85 53.7019C139.719 56.4833 139.546 59.2647 139.322 62.0419C138.899 67.5962 138.438 73.1505 137.867 78.6964C137.352 84.2465 136.734 89.7838 136.032 95.3085L135.474 99.4489C135.259 100.825 135.064 102.205 134.828 103.576C134.578 104.944 134.384 106.328 134.071 107.683C133.919 108.36 133.8 109.05 133.618 109.719L133.073 111.739C134.887 106.451 135.758 100.897 136.624 95.389C137.449 89.8685 138.066 84.3184 138.641 78.7683C139.148 73.2098 139.622 67.6512 139.918 62.0757C140.07 59.2901 140.176 56.5003 140.231 53.7062L140.222 51.6106C140.21 50.9163 140.21 50.2178 140.222 49.5235C140.248 48.1349 140.319 46.7421 140.434 45.3535Z" fill="#5F3732"/>
<path d="M112.911 94.377C113.444 91.3924 113.997 88.4163 114.636 85.4529C115.257 82.4894 115.929 79.5387 116.674 76.6049C118.17 70.7416 119.811 64.9121 121.819 59.2096C122.821 56.3604 123.861 53.5198 125.049 50.7426C125.636 49.354 126.266 47.9824 126.939 46.6361C127.619 45.2941 128.329 43.9648 129.175 42.7371C130.025 41.5094 130.938 40.2944 131.889 39.1302C132.849 37.9745 133.864 36.8568 135.005 35.8916C136.142 34.9391 137.436 34.1135 138.916 33.8638C140.391 33.5971 141.909 33.9019 143.41 34.0458C141.926 33.8087 140.425 33.4277 138.882 33.6352C137.343 33.8299 135.935 34.6173 134.743 35.5698C133.547 36.5308 132.485 37.64 131.483 38.7831C130.486 39.9388 129.543 41.1199 128.642 42.3646C127.763 43.6304 127.032 44.9724 126.33 46.3271C125.636 47.6861 124.994 49.0662 124.389 50.459C123.184 53.2531 122.081 56.0853 121.104 58.9598C120.119 61.8343 119.223 64.7343 118.39 67.6553C117.557 70.5764 116.788 73.5102 116.12 76.4737C115.443 79.4329 114.822 82.4005 114.285 85.3894C113.756 88.374 113.279 91.367 112.911 94.377Z" fill="#5F3732"/>
<path d="M140.26 53.2489C140.26 53.2489 132.667 55.4969 125.37 48.825C125.37 48.825 122.677 50.3067 123.425 53.7951C123.425 53.7951 130.109 60.6829 140.45 58.2402C140.455 58.2402 141.626 55.5011 140.26 53.2489Z" fill="#3B5000"/>
<path d="M126.968 57.5417C128.477 58.0243 130.291 56.5553 131.023 54.265C131.754 51.9747 131.12 49.7267 129.61 49.2441L128.976 48.9858L126.123 57.1988L126.968 57.5417Z" fill="#D3D3D3"/>
<path d="M126.338 57.2846C124.83 56.803 124.199 54.5545 124.929 52.2624C125.659 49.9703 127.473 48.5026 128.981 48.9842C130.49 49.4658 131.121 51.7143 130.391 54.0064C129.661 56.2985 127.846 57.7662 126.338 57.2846Z" fill="white"/>
<path d="M125.539 52.4574C124.973 54.2312 125.463 55.9754 126.63 56.3479C127.797 56.7205 129.205 55.5859 129.771 53.8079C130.338 52.0298 129.847 50.2898 128.68 49.9173C127.514 49.5447 126.106 50.6835 125.539 52.4574Z" fill="#FDD673"/>
<path d="M128.038 54.6926C128 54.1507 127.915 53.6215 127.801 53.0966C127.784 53.0161 127.704 52.9653 127.623 52.9823C127.585 52.9907 127.556 53.0119 127.535 53.0373L127.53 53.0415C127.006 53.7401 126.507 54.4597 126.118 55.2599C126.752 54.6375 127.277 53.939 127.771 53.2193L127.505 53.1685C127.653 53.685 127.822 54.193 128.038 54.6926Z" fill="#4C2843"/>
<path d="M147.244 72.6213C152.795 72.833 153.983 75.4832 154.195 84.2803C154.292 88.4037 155.886 90.2622 158.296 90.2622C158.309 90.2622 158.321 90.2622 158.334 90.2622C160.545 90.2368 162.27 89.4663 162.431 82.9425L163.593 47.3051C163.593 46.8395 164.917 47.0596 164.917 47.5295L165.344 82.9425C165.344 93.4289 161.695 94.3179 159.099 94.3179C159.082 94.3179 159.061 94.3179 159.044 94.3179C154.389 94.3179 152.233 90.8718 152.106 85.6985C151.925 78.1841 150.288 74.1327 147.24 73.6247C147.244 72.6213 147.244 72.6213 147.244 72.6213Z" fill="#3B5000"/>
</g>
<g clip-path="url(#clip2_152_6127)">
<path d="M165.471 178.657C165.471 178.657 165.316 178.308 165.044 177.658C162.023 170.517 144.498 127.233 160.366 120.754C163.045 119.659 165.229 119.675 166.963 120.583L166.968 120.585C176.428 125.529 172.718 156.877 165.471 178.657Z" fill="#96C258"/>
<g opacity="0.43">
<path opacity="0.43" d="M161.524 120.339C162.524 125.114 163.296 129.937 163.912 134.778C164.063 135.988 164.22 137.199 164.354 138.414L164.742 142.056C164.967 144.487 165.184 146.921 165.351 149.356C165.531 151.791 165.636 154.231 165.76 156.674L165.867 160.338L165.916 162.169L165.923 164.002C165.998 168.89 165.793 173.782 165.475 178.656C165.394 176.214 165.447 173.775 165.338 171.337L165.25 167.683L165.115 164.03C164.927 159.161 164.674 154.297 164.322 149.439C163.998 144.577 163.581 139.726 163.114 134.876C162.632 130.029 162.128 125.183 161.524 120.339Z" fill="#467238"/>
</g>
<g style="mix-blend-mode:multiply" opacity="0.24">
<path d="M168.487 126.332C170.065 126.718 171.189 134.608 168.61 134.487C166.033 134.374 165.647 125.639 168.487 126.332Z" fill="#2D480B"/>
</g>
<path d="M169.177 177.904C167.977 178.356 167.294 178.602 167.294 178.602C180.02 155.602 205.132 127.347 212.829 140.952C213.107 141.434 213.36 141.976 213.59 142.574C219.476 157.875 178.543 174.359 169.177 177.904Z" fill="#96C258"/>
<g style="mix-blend-mode:multiply" opacity="0.24">
<path d="M209.959 148.807C211.231 150.211 206.368 156.93 203.838 155.708C201.308 154.486 208.77 147.495 209.959 148.807Z" fill="#2D480B"/>
</g>
<g style="mix-blend-mode:multiply" opacity="0.24">
<path d="M199.699 155.495C200.74 156.166 197.222 159.384 195.716 158.441C194.212 157.501 198.661 154.823 199.699 155.495Z" fill="#2D480B"/>
</g>
<g opacity="0.43">
<path opacity="0.43" d="M213.102 141.462C209.109 144.346 205.183 147.306 201.272 150.286C197.369 153.274 193.494 156.302 189.681 159.399C185.846 162.475 182.077 165.627 178.351 168.831L175.557 171.238L172.797 173.68C170.923 175.274 169.156 176.987 167.294 178.602C170.681 175.033 174.155 171.532 177.818 168.234L179.178 166.984L180.567 165.764L183.347 163.327C185.237 161.745 187.113 160.147 189.035 158.606C190.951 157.056 192.898 155.543 194.85 154.04L197.81 151.825C198.799 151.089 199.8 150.372 200.798 149.651C204.796 146.769 208.886 144.019 213.102 141.462Z" fill="#467238"/>
</g>
<path d="M167.078 178.702C166.997 178.791 166.988 178.272 167.052 177.272C167.657 167.945 174.789 116.488 190.676 119.25C190.945 119.293 191.217 119.356 191.492 119.434C209.688 124.633 187.18 157.421 167.078 178.702Z" fill="#96C258"/>
<g opacity="0.43">
<path opacity="0.43" d="M192.983 119.959C191.506 125.104 189.738 130.168 187.834 135.175C185.933 140.185 183.876 145.141 181.707 150.044C179.504 154.932 177.243 159.799 174.789 164.571C173.596 166.975 172.309 169.327 171.048 171.695C170.414 172.876 169.738 174.036 169.082 175.208C168.424 176.378 167.758 177.54 167.081 178.7C169.423 173.875 171.784 169.069 174.063 164.225L175.779 160.594L177.455 156.948C178.021 155.738 178.574 154.519 179.121 153.299C179.669 152.078 180.228 150.864 180.764 149.638L182.384 145.969L183.971 142.286C184.511 141.061 185.022 139.828 185.54 138.595L187.086 134.893L187.853 133.039L188.603 131.178C189.115 129.941 189.601 128.696 190.096 127.452C191.098 124.968 192.047 122.468 192.983 119.959Z" fill="#467238"/>
</g>
<g style="mix-blend-mode:multiply" opacity="0.24">
<path d="M195.407 126.777C197.456 127.254 195.486 136.402 193.213 136.396C190.941 136.39 193.824 126.411 195.407 126.777Z" fill="#2D480B"/>
</g>
<g style="mix-blend-mode:multiply" opacity="0.24">
<path d="M191.914 138.46C193.36 138.892 191.656 145.732 189.52 145.119C187.386 144.509 189.967 137.877 191.914 138.46Z" fill="#78A144"/>
</g>
</g>
<g clip-path="url(#clip3_152_6127)">
<path d="M13.954 50.2165C13.954 50.2165 5.81947 54.9467 3.33451 55.2027C0.849559 55.4588 2.04602 52.9194 3.33451 51.8596C3.33451 51.8596 0.438939 51.9734 0.0283196 50.7357C-0.3823 49.5052 4.39646 48.6231 4.39646 48.6231C4.39646 48.6231 1.81947 47.7909 2.5062 46.226C3.19292 44.6541 12.6655 47.4708 12.6655 47.4708L13.954 50.2165Z" fill="#79E0B2"/>
<g opacity="0.5">
<g opacity="0.5">
<path opacity="0.5" d="M12.4459 49.0928C11.0441 49.043 9.69194 48.794 8.3468 48.4953C7.00875 48.1752 5.67778 47.8124 4.39636 47.2505C5.79813 47.3003 7.15034 47.5492 8.49548 47.848C9.83353 48.1681 11.1645 48.5308 12.4459 49.0928Z" fill="#082116"/>
</g>
<g opacity="0.5">
<path opacity="0.5" d="M1.26013 50.7359C3.13624 50.3091 4.99111 50.0886 6.84597 49.9179C8.70084 49.7685 10.5557 49.6618 12.446 49.7614C10.6053 50.1882 8.72916 50.4087 6.86013 50.5794C4.98403 50.7359 3.10792 50.8355 1.26013 50.7359Z" fill="#082116"/>
</g>
<g opacity="0.5">
<path opacity="0.5" d="M3.37695 54.0078C4.84952 53.1756 6.39288 52.5354 7.9504 51.9379C9.51501 51.3617 11.1008 50.8282 12.7575 50.4868C11.2849 51.319 9.74156 51.9663 8.18403 52.5567C6.61943 53.1329 5.03359 53.6664 3.37695 54.0078Z" fill="#082116"/>
</g>
</g>
<path d="M31.3274 46.8237C31.3274 46.8237 39.6035 49.9606 43.3274 47.7484C43.3274 47.7484 45.1681 50.5652 42.7752 52.1799C42.7752 52.1799 44.0637 55.8289 40.1982 56.8461C40.1982 56.8461 39.4619 60.6302 35.2354 59.5704C35.2354 59.5704 31.2849 63.5395 25.7699 58.2331L31.3274 46.8237Z" fill="#79E0B2"/>
<g opacity="0.5">
<g opacity="0.5">
<path opacity="0.5" d="M42.7681 52.1797C42.2654 52.6136 41.607 52.8199 40.977 52.9479C40.3327 53.076 39.6814 53.0902 39.0371 53.0546C38.3929 53.0048 37.7557 52.891 37.1398 52.7132C36.5239 52.5283 35.9292 52.2935 35.3699 51.9521C36.0212 51.9308 36.6442 51.9805 37.2672 52.0303C37.8831 52.0659 38.492 52.137 39.1008 52.1655C39.7097 52.2224 40.3115 52.2437 40.9203 52.258C41.5221 52.2651 42.1309 52.2722 42.7681 52.1797Z" fill="black"/>
</g>
<g opacity="0.5">
<path opacity="0.5" d="M40.1982 56.8459C39.7309 57.2371 39.1221 57.4078 38.5345 57.479C37.9327 57.5572 37.3309 57.4932 36.7504 57.3794C36.1699 57.2585 35.6106 57.0451 35.0867 56.7819C34.5628 56.5116 34.0814 56.1773 33.6566 55.7505C33.954 55.7861 34.2371 55.8643 34.5133 55.9283C34.7894 55.9923 35.0655 56.0564 35.3345 56.1346C35.8796 56.2555 36.4035 56.4191 36.9345 56.5116C37.4655 56.6325 37.9894 56.725 38.5274 56.789C39.0655 56.8459 39.6106 56.8886 40.1982 56.8459Z" fill="black"/>
</g>
<g opacity="0.5">
<path opacity="0.5" d="M35.2354 59.5701C34.931 59.7408 34.5982 59.755 34.2797 59.7195C33.9611 59.6839 33.6637 59.563 33.3805 59.4207C32.8496 59.0935 32.3965 58.6027 32.2761 57.9341C32.6089 58.0266 32.8637 58.1475 33.1186 58.2684C33.3664 58.3893 33.6 58.5174 33.8266 58.6525C34.2797 58.9157 34.6974 59.1789 35.2354 59.5701Z" fill="black"/>
</g>
</g>
<path d="M26.5912 40.3436C30.5558 40.2653 36.3327 48.2249 32.269 54.5697C28.2053 60.9146 16.3965 62.2732 12.0708 48.5876C12.0708 48.5876 17.5717 48.4596 19.7381 46.1692C21.9044 43.8717 22.0814 40.4289 26.5912 40.3436Z" fill="#FFD470"/>
<path opacity="0.3" d="M14.0885 53.1401C18.5416 56.6611 22.3646 54.8402 27.1009 50.2451C29.4867 47.9334 32.6726 48.0827 33.6283 49.0572C33.777 50.8782 33.4159 52.7845 32.2761 54.5627C28.7363 60.0896 19.3204 61.8323 14.0885 53.1401Z" fill="white"/>
<path d="M30.9594 43.9144L33.9894 43.3596L31.5045 45.2517C31.5116 45.2517 30.9735 45.0027 30.9594 43.9144Z" fill="#C44961"/>
<path d="M28.4318 43.8219C28.1911 43.4876 27.9787 43.1818 27.7593 42.947C27.5327 42.7123 27.3274 42.5771 27.1079 42.5629C26.8672 42.5274 26.6619 42.5558 26.4354 42.7265C26.2088 42.9043 25.9893 43.196 25.7628 43.5445C25.6354 43.1462 25.6566 42.6981 25.9044 42.2855C26.0177 42.0792 26.2301 41.8943 26.4708 41.7876C26.7185 41.688 26.9734 41.6524 27.2354 41.688C27.7734 41.7591 28.184 42.1788 28.3398 42.5843C28.5168 42.9897 28.5451 43.4165 28.4318 43.8219Z" fill="#754368"/>
<path d="M22.3646 42.3282C22.3646 42.3282 19.2425 41.8801 17.3522 38.2809C15.4691 34.6816 14.9664 32 14.9664 32C14.9664 32 12.7292 31.9075 12.0779 35.2293C12.0779 35.2293 8.94871 34.5394 9.26729 38.2737C9.26729 38.2737 6.41419 39.3549 7.75225 42.6127C7.75225 42.6127 6.51331 47.4638 12.0779 48.8011C16.9204 49.9747 22.1806 47.4852 22.3646 42.3282Z" fill="#79E0B2"/>
<g opacity="0.5">
<g opacity="0.5">
<path opacity="0.5" d="M12.0708 35.2292C12.6159 36.6376 13.2106 37.9322 13.9965 39.1201C14.3717 39.7176 14.8035 40.2795 15.2779 40.8201C15.7381 41.3749 16.2761 41.8515 16.8071 42.4063C16.092 42.1716 15.3912 41.816 14.8035 41.3252C14.1947 40.8557 13.685 40.2582 13.2531 39.6109C12.8354 38.9565 12.5027 38.2523 12.2974 37.5125C12.092 36.7728 11.9858 35.9975 12.0708 35.2292Z" fill="black"/>
</g>
<g opacity="0.5">
<path opacity="0.5" d="M9.26721 38.2808C10.0955 39.3762 10.8389 40.4218 11.6672 41.4034C12.0708 41.9084 12.5168 42.3566 12.9699 42.8189C13.423 43.2813 13.9256 43.6796 14.4424 44.149C13.7699 44.021 13.1115 43.7507 12.538 43.3666C11.9575 42.9825 11.4336 42.513 10.9946 41.9867C10.5557 41.4532 10.1663 40.877 9.87606 40.2582C9.57872 39.6251 9.34509 38.9707 9.26721 38.2808Z" fill="black"/>
</g>
<g opacity="0.5">
<path opacity="0.5" d="M7.74512 42.6196C8.53804 43.2456 9.26724 43.7435 10.0389 44.2343C10.4212 44.4761 10.8177 44.7109 11.2141 44.9527C11.6177 45.1946 12.0283 45.4293 12.4389 45.7423C11.4195 45.8347 10.4283 45.5075 9.56459 44.9812C9.14689 44.6966 8.74335 44.3766 8.42476 43.9782C8.11326 43.587 7.83715 43.1389 7.74512 42.6196Z" fill="black"/>
</g>
</g>
</g>
<g clip-path="url(#clip4_152_6127)">
<path d="M232.148 13.1914C232.148 13.1914 226.232 16.6167 224.425 16.8021C222.618 16.9875 223.488 15.1487 224.425 14.3812C224.425 14.3812 222.319 14.4636 222.021 13.5674C221.722 12.6763 225.197 12.0376 225.197 12.0376C225.197 12.0376 223.323 11.4349 223.823 10.3017C224.322 9.16339 231.211 11.2031 231.211 11.2031L232.148 13.1914Z" fill="#79E0B2"/>
<g opacity="0.5">
<g opacity="0.5">
<path opacity="0.5" d="M231.052 12.3775C230.032 12.3415 229.049 12.1612 228.07 11.9449C227.097 11.7131 226.129 11.4504 225.197 11.0435C226.217 11.0795 227.2 11.2598 228.179 11.4761C229.152 11.7079 230.12 11.9706 231.052 12.3775Z" fill="#082116"/>
</g>
<g opacity="0.5">
<path opacity="0.5" d="M222.917 13.5675C224.281 13.2584 225.63 13.0988 226.979 12.9751C228.328 12.867 229.677 12.7897 231.052 12.8618C229.713 13.1709 228.349 13.3305 226.989 13.4542C225.625 13.5675 224.26 13.6396 222.917 13.5675Z" fill="#082116"/>
</g>
<g opacity="0.5">
<path opacity="0.5" d="M224.456 15.9369C225.527 15.3342 226.649 14.8707 227.782 14.438C228.92 14.0208 230.073 13.6344 231.278 13.3872C230.207 13.9899 229.085 14.4586 227.952 14.8861C226.814 15.3033 225.661 15.6896 224.456 15.9369Z" fill="#082116"/>
</g>
</g>
<path d="M244.784 10.7344C244.784 10.7344 250.803 13.0059 253.511 11.404C253.511 11.404 254.85 13.4437 253.109 14.613C253.109 14.613 254.046 17.2553 251.235 17.9919C251.235 17.9919 250.7 20.7322 247.626 19.9647C247.626 19.9647 244.753 22.8389 240.742 18.9963L244.784 10.7344Z" fill="#79E0B2"/>
<g opacity="0.5">
<g opacity="0.5">
<path opacity="0.5" d="M253.104 14.6128C252.738 14.927 252.26 15.0764 251.801 15.1691C251.333 15.2618 250.859 15.2721 250.391 15.2464C249.922 15.2103 249.459 15.1279 249.011 14.9992C248.563 14.8652 248.13 14.6953 247.724 14.448C248.197 14.4326 248.65 14.4686 249.103 14.5047C249.551 14.5304 249.994 14.5819 250.437 14.6025C250.88 14.6437 251.317 14.6592 251.76 14.6695C252.198 14.6746 252.641 14.6798 253.104 14.6128Z" fill="black"/>
</g>
<g opacity="0.5">
<path opacity="0.5" d="M251.235 17.9917C250.895 18.275 250.452 18.3986 250.025 18.4501C249.587 18.5068 249.15 18.4604 248.728 18.378C248.305 18.2905 247.899 18.1359 247.518 17.9454C247.137 17.7496 246.786 17.5075 246.478 17.1985C246.694 17.2242 246.9 17.2809 247.101 17.3273C247.301 17.3736 247.502 17.42 247.698 17.4766C248.094 17.5642 248.475 17.6827 248.861 17.7496C249.248 17.8372 249.629 17.9042 250.02 17.9505C250.411 17.9917 250.808 18.0226 251.235 17.9917Z" fill="black"/>
</g>
<g opacity="0.5">
<path opacity="0.5" d="M247.626 19.9645C247.404 20.0881 247.162 20.0984 246.931 20.0726C246.699 20.0469 246.483 19.9593 246.277 19.8563C245.891 19.6194 245.561 19.264 245.474 18.7798C245.716 18.8467 245.901 18.9343 246.086 19.0219C246.266 19.1094 246.436 19.2022 246.601 19.3C246.931 19.4906 247.234 19.6812 247.626 19.9645Z" fill="black"/>
</g>
</g>
<path d="M241.339 6.04192C244.222 5.98526 248.424 11.7491 245.468 16.3436C242.513 20.9382 233.925 21.922 230.779 12.0117C230.779 12.0117 234.779 11.919 236.355 10.2605C237.931 8.59674 238.059 6.10373 241.339 6.04192Z" fill="#FFD470"/>
<path opacity="0.3" d="M232.246 15.3082C235.485 17.8579 238.265 16.5393 241.71 13.2118C243.445 11.5378 245.762 11.646 246.457 12.3516C246.565 13.6703 246.303 15.0507 245.474 16.3384C242.899 20.3406 236.051 21.6026 232.246 15.3082Z" fill="white"/>
<path d="M244.516 8.6276L246.72 8.22583L244.912 9.59595C244.917 9.59595 244.526 9.41568 244.516 8.6276Z" fill="#C44961"/>
<path d="M242.678 8.56061C242.503 8.31852 242.348 8.09703 242.189 7.92706C242.024 7.75708 241.875 7.65921 241.715 7.64891C241.54 7.62316 241.391 7.64376 241.226 7.76738C241.061 7.89615 240.901 8.10733 240.737 8.35973C240.644 8.07128 240.659 7.74678 240.84 7.44803C240.922 7.29865 241.076 7.16473 241.252 7.08747C241.432 7.01536 241.617 6.9896 241.808 7.01536C242.199 7.06686 242.498 7.37076 242.611 7.66436C242.74 7.95796 242.76 8.26701 242.678 8.56061Z" fill="#754368"/>
<path d="M238.265 7.47897C238.265 7.47897 235.995 7.15447 234.62 4.54814C233.25 1.94181 232.885 -5.78994e-05 232.885 -5.78994e-05C232.885 -5.78994e-05 231.258 -0.067019 230.784 2.33843C230.784 2.33843 228.508 1.83879 228.74 4.54299C228.74 4.54299 226.665 5.32592 227.638 7.685C227.638 7.685 226.737 11.1979 230.784 12.1662C234.306 13.0161 238.131 11.2133 238.265 7.47897Z" fill="#79E0B2"/>
<g opacity="0.5">
<g opacity="0.5">
<path opacity="0.5" d="M230.779 2.33838C231.175 3.35825 231.608 4.2957 232.179 5.15589C232.452 5.58856 232.766 5.99548 233.111 6.38694C233.446 6.78871 233.837 7.13382 234.223 7.53558C233.703 7.3656 233.194 7.10806 232.766 6.75265C232.323 6.4127 231.953 5.98003 231.639 5.5113C231.335 5.03742 231.093 4.52749 230.943 3.9918C230.794 3.45611 230.717 2.89467 230.779 2.33838Z" fill="black"/>
</g>
<g opacity="0.5">
<path opacity="0.5" d="M228.74 4.5481C229.342 5.34133 229.883 6.0985 230.485 6.80932C230.779 7.17503 231.103 7.49953 231.433 7.83434C231.762 8.16914 232.128 8.45759 232.504 8.79754C232.015 8.70483 231.536 8.5091 231.119 8.23095C230.696 7.9528 230.315 7.61285 229.996 7.23169C229.677 6.84537 229.394 6.42815 229.183 5.98003C228.966 5.52161 228.797 5.04773 228.74 4.5481Z" fill="black"/>
</g>
<g opacity="0.5">
<path opacity="0.5" d="M227.633 7.69019C228.209 8.14346 228.74 8.50402 229.301 8.85943C229.579 9.03456 229.867 9.20453 230.156 9.37966C230.449 9.55479 230.748 9.72477 231.046 9.95141C230.305 10.0184 229.584 9.78143 228.956 9.40027C228.652 9.19423 228.359 8.96244 228.127 8.674C227.901 8.3907 227.7 8.0662 227.633 7.69019Z" fill="black"/>
</g>
</g>
</g>
<defs>
<clipPath id="clip0_152_6127">
<rect width="81.9673" height="86.8608" fill="white" transform="translate(45.4812 81) rotate(15)"/>
</clipPath>
<clipPath id="clip1_152_6127">
<rect width="111" height="207" fill="white" transform="translate(77 5)"/>
</clipPath>
<clipPath id="clip2_152_6127">
<rect width="56.4926" height="59.8653" fill="white" transform="translate(190.925 103.014) rotate(60)"/>
</clipPath>
<clipPath id="clip3_152_6127">
<rect width="44" height="29" fill="white" transform="translate(0 32)"/>
</clipPath>
<clipPath id="clip4_152_6127">
<rect width="32" height="21" fill="white" transform="translate(222)"/>
</clipPath>
</defs>
</svg>
