<svg width="254" height="214" viewBox="0 0 254 214" fill="none" xmlns="http://www.w3.org/2000/svg">
<g clip-path="url(#clip0_401_3875)">
<path d="M165.471 165.657C165.471 165.657 165.316 165.308 165.044 164.658C162.023 157.517 144.498 114.233 160.366 107.754C163.045 106.659 165.229 106.675 166.963 107.583L166.968 107.585C176.428 112.529 172.718 143.877 165.471 165.657Z" fill="#96C258"/>
<g opacity="0.43">
<path opacity="0.43" d="M161.524 107.339C162.524 112.114 163.296 116.937 163.912 121.778C164.063 122.988 164.22 124.199 164.354 125.414L164.742 129.056C164.967 131.487 165.184 133.921 165.351 136.356C165.531 138.791 165.636 141.231 165.76 143.674L165.867 147.338L165.916 149.169L165.923 151.002C165.998 155.89 165.793 160.782 165.475 165.656C165.394 163.214 165.447 160.775 165.338 158.337L165.25 154.683L165.115 151.03C164.927 146.161 164.674 141.297 164.322 136.439C163.998 131.577 163.581 126.726 163.114 121.876C162.632 117.029 162.128 112.183 161.524 107.339Z" fill="#467238"/>
</g>
<g style="mix-blend-mode:multiply" opacity="0.24">
<path d="M168.487 113.332C170.065 113.718 171.189 121.608 168.61 121.487C166.033 121.374 165.647 112.639 168.487 113.332Z" fill="#2D480B"/>
</g>
<path d="M169.177 164.904C167.977 165.356 167.294 165.602 167.294 165.602C180.02 142.602 205.132 114.347 212.829 127.952C213.107 128.434 213.36 128.976 213.59 129.574C219.476 144.875 178.543 161.359 169.177 164.904Z" fill="#96C258"/>
<g style="mix-blend-mode:multiply" opacity="0.24">
<path d="M209.959 135.807C211.231 137.211 206.368 143.93 203.838 142.708C201.308 141.486 208.77 134.495 209.959 135.807Z" fill="#2D480B"/>
</g>
<g style="mix-blend-mode:multiply" opacity="0.24">
<path d="M199.699 142.495C200.74 143.166 197.222 146.384 195.716 145.441C194.212 144.501 198.661 141.823 199.699 142.495Z" fill="#2D480B"/>
</g>
<g opacity="0.43">
<path opacity="0.43" d="M213.102 128.462C209.109 131.346 205.183 134.306 201.272 137.286C197.369 140.274 193.494 143.302 189.681 146.399C185.846 149.475 182.077 152.627 178.351 155.831L175.557 158.238L172.797 160.68C170.923 162.274 169.156 163.987 167.294 165.602C170.681 162.033 174.155 158.532 177.818 155.234L179.178 153.984L180.567 152.764L183.347 150.327C185.237 148.745 187.113 147.147 189.035 145.606C190.951 144.056 192.898 142.543 194.85 141.04L197.81 138.825C198.799 138.089 199.8 137.372 200.798 136.651C204.796 133.769 208.886 131.019 213.102 128.462Z" fill="#467238"/>
</g>
<path d="M167.078 165.702C166.997 165.791 166.988 165.272 167.052 164.272C167.657 154.945 174.789 103.488 190.676 106.25C190.945 106.293 191.217 106.356 191.492 106.434C209.688 111.633 187.18 144.421 167.078 165.702Z" fill="#96C258"/>
<g opacity="0.43">
<path opacity="0.43" d="M192.983 106.959C191.506 112.104 189.738 117.168 187.834 122.175C185.933 127.185 183.876 132.141 181.707 137.044C179.504 141.932 177.243 146.799 174.789 151.571C173.596 153.975 172.309 156.327 171.048 158.695C170.414 159.876 169.738 161.036 169.082 162.208C168.424 163.378 167.758 164.54 167.081 165.7C169.423 160.875 171.784 156.069 174.063 151.225L175.779 147.594L177.455 143.948C178.021 142.738 178.574 141.519 179.121 140.299C179.669 139.078 180.228 137.864 180.764 136.638L182.384 132.969L183.971 129.286C184.511 128.061 185.022 126.828 185.54 125.595L187.086 121.893L187.853 120.039L188.603 118.178C189.115 116.941 189.601 115.696 190.096 114.452C191.098 111.968 192.047 109.468 192.983 106.959Z" fill="#467238"/>
</g>
<g style="mix-blend-mode:multiply" opacity="0.24">
<path d="M195.407 113.777C197.456 114.254 195.486 123.402 193.213 123.396C190.941 123.39 193.824 113.411 195.407 113.777Z" fill="#2D480B"/>
</g>
<g style="mix-blend-mode:multiply" opacity="0.24">
<path d="M191.914 125.46C193.36 125.892 191.656 132.732 189.52 132.119C187.386 131.509 189.967 124.877 191.914 125.46Z" fill="#78A144"/>
</g>
</g>
<g clip-path="url(#clip1_401_3875)">
<path d="M96.9746 167.723C96.9746 167.723 96.4566 167.523 95.5105 167.136C85.0852 162.908 22.6966 136.481 32.3297 113.554C33.9553 109.682 36.2113 107.457 38.9223 106.61L38.9289 106.607C53.7071 101.973 82.0635 137.941 96.9746 167.723Z" fill="#96C258"/>
<g opacity="0.43">
<path opacity="0.43" d="M33.0918 111.94C39.0177 115.813 44.7576 119.969 50.3562 124.304C51.7526 125.389 53.1555 126.471 54.5398 127.581L58.6746 130.918C61.3985 133.182 64.1197 135.457 66.7883 137.784C69.4713 140.098 72.0832 142.493 74.716 144.872L78.5856 148.521L80.514 150.35L82.4027 152.223C87.4934 157.161 92.3027 162.391 96.976 167.717C94.3879 165.295 91.9403 162.738 89.327 160.348L85.4871 156.69L81.6012 153.081C76.4138 148.278 71.1632 143.547 65.8176 138.924C60.4972 134.269 55.0935 129.72 49.6373 125.223C44.1703 120.745 38.6811 116.29 33.0918 111.94Z" fill="#467238"/>
</g>
<g style="mix-blend-mode:multiply" opacity="0.08">
<path d="M46.3843 110.944C48.3991 109.722 57.6466 116.664 54.8772 119.184C52.1166 121.713 42.7602 113.147 46.3843 110.944Z" fill="#2D480B"/>
</g>
<path d="M100.003 163.148C99.2355 164.843 98.7878 165.796 98.7878 165.796C88.2463 129.143 85.0223 74.3893 106.877 80.451C107.657 80.6598 108.473 80.9564 109.323 81.3341C131.06 90.9939 105.976 149.902 100.003 163.148Z" fill="#96C258"/>
<g opacity="0.18">
<path opacity="0.18" d="M111.992 91.4543C114.736 91.5895 116.642 103.473 112.792 104.815C108.942 106.157 109.426 91.3282 111.992 91.4543Z" fill="#66C281"/>
<path opacity="0.18" d="M108.327 108.843C110.083 108.463 109.776 115.373 107.263 115.951C104.756 116.53 106.572 109.218 108.327 108.843Z" fill="#66C281"/>
</g>
<g opacity="0.43">
<path opacity="0.43" d="M107.68 80.6941C106.543 87.7488 105.551 94.8146 104.597 101.885C103.659 108.954 102.789 116.036 102.054 123.126C101.276 130.216 100.643 137.317 100.106 144.427L99.7095 149.762L99.384 155.1C99.0957 158.658 99.0403 162.229 98.7879 165.796C98.6008 158.659 98.5726 151.503 98.9474 144.361L99.0601 141.684L99.2334 139.007L99.585 133.654C99.9018 130.092 100.186 126.528 100.578 122.975C100.954 119.418 101.399 115.869 101.86 112.324L102.623 107.015C102.883 105.244 103.174 103.482 103.459 101.719C104.603 94.6606 105.978 87.6419 107.68 80.6941Z" fill="#93C356"/>
</g>
<path d="M98.6681 166.12C98.6763 166.294 98.135 165.771 97.1743 164.68C88.2258 154.489 42.7493 94.3788 61.8838 80.9127C62.204 80.6817 62.5471 80.4679 62.9093 80.2648C86.9111 66.9301 97.4586 123.662 98.6681 166.12Z" fill="#96C258"/>
<g opacity="0.43">
<path opacity="0.43" d="M64.9775 79.2737C68.7409 86.0684 72.1224 93.0777 75.3066 100.168C78.4958 107.259 81.4704 114.454 84.2751 121.708C87.0303 128.983 89.7036 136.298 92.0812 143.711C93.3238 147.401 94.4173 151.135 95.5523 154.857C96.114 156.72 96.6096 158.603 97.14 160.48C97.6654 162.355 98.174 164.231 98.6695 166.114C96.1219 158.762 93.6131 151.408 90.9822 144.1L89.0168 138.615L86.9955 133.154C86.3351 131.332 85.6514 129.514 84.9612 127.701C84.271 125.887 83.599 124.067 82.8906 122.26L80.7888 116.833L78.6376 111.427C77.9358 109.615 77.1948 107.827 76.4618 106.03L74.2496 100.646L73.1344 97.9568L71.9945 95.278C71.2499 93.4831 70.4726 91.7074 69.7032 89.9226C68.1826 86.3468 66.5917 82.8078 64.9775 79.2737Z" fill="#467238"/>
</g>
<g opacity="0.18">
<g style="mix-blend-mode:multiply" opacity="0.24">
<path d="M74.4594 83.782C77.0513 82.1697 84.4156 93.5757 82.0778 95.9008C79.74 98.226 72.4595 85.0304 74.4594 83.782Z" fill="#2D480B"/>
</g>
<g style="mix-blend-mode:multiply" opacity="0.24">
<path d="M82.8624 99.3517C84.7899 98.3118 90.0587 107.077 87.2383 108.64C84.4231 110.203 80.2669 100.752 82.8624 99.3517Z" fill="#2D480B"/>
</g>
</g>
</g>
<g clip-path="url(#clip2_401_3875)">
<path d="M114.789 163.857C106.817 163.721 80.7774 164.084 79.4458 150.254C76.406 118.602 93.2082 71.0022 93.2082 71.0022H136.142C136.142 71.0022 147.303 118.602 148.424 141.882C149.335 160.71 141.157 164.303 114.789 163.857Z" fill="#A28230"/>
<path d="M99.1958 68.3281C99.1958 68.3281 92.6519 84.6967 87.9783 121.872" stroke="#EDB31C" stroke-width="1.8391" stroke-miterlimit="10"/>
<path d="M93.5849 127.973C93.5849 127.973 94.5178 152.618 92.6213 155.935C90.7247 159.253 76.809 152.618 75.7052 148.67C74.5971 144.722 75.3899 132.463 77.9172 124.848L93.5849 127.973Z" fill="#9F906A"/>
<path d="M96.0991 131.448C96.0991 131.448 95.9239 122.717 94.4303 121.872C92.9367 121.023 81.014 117.132 79.2269 118.603C77.4398 120.073 75.0001 127.343 75.0001 127.343C75.0001 127.343 85.981 132.398 96.0991 131.448Z" fill="#D5AB41"/>
<path d="M162.423 81.1954C167.587 81.1954 171.774 76.0441 171.774 69.6849C171.774 63.33 167.587 58.1743 162.423 58.1743H94.9296V81.1954H162.423V81.1954Z" fill="#F26E24"/>
<path d="M94.934 81.1954C89.7692 81.1954 85.5824 76.042 85.5824 69.6849C85.5824 63.3278 89.7692 58.1743 94.934 58.1743C100.099 58.1743 104.286 63.3278 104.286 69.6849C104.286 76.042 100.099 81.1954 94.934 81.1954Z" fill="#B8A67A"/>
<path d="M94.9339 78.1623C95.5209 78.0923 96.0903 77.8954 96.6378 77.6503C97.1678 77.3745 97.6847 77.0638 98.149 76.6786C99.0907 75.9215 99.8703 74.9586 100.44 73.8645C101 72.7703 101.316 71.5449 101.408 70.3063C101.495 69.0589 101.276 67.8291 100.974 66.6343C100.628 65.4394 100.059 64.2665 99.187 63.2949C98.3242 62.3233 97.1459 61.5836 95.845 61.2773C94.5485 60.9621 93.1644 61.0847 91.9292 61.553C90.6896 62.0169 89.5946 62.8485 88.793 63.8901C87.9958 64.923 87.4658 66.1747 87.2819 67.4702C87.0979 68.7657 87.2337 70.0918 87.6805 71.3129C88.1229 72.5252 88.85 73.6675 89.9362 74.4816C90.4662 74.8974 91.097 75.2081 91.8065 75.3438C91.9905 75.3657 92.1745 75.4094 92.3541 75.4007L92.8972 75.3657C93.2432 75.2869 93.598 75.2125 93.9002 75.0505C94.2244 74.9236 94.4959 74.7179 94.7763 74.5341C95.0303 74.3196 95.2931 74.1139 95.499 73.8601C95.7311 73.6281 95.9063 73.3524 96.0991 73.0898C96.1867 72.9541 96.2611 72.8053 96.3356 72.6653C96.4144 72.5252 96.4845 72.3764 96.5371 72.2232C96.8043 71.6324 96.9094 70.9759 96.9357 70.3281C96.94 69.6717 96.7955 69.0195 96.5196 68.4331C96.2042 67.8597 95.8406 67.3477 95.3369 66.945C94.8551 66.538 94.1806 66.2272 93.5016 66.3629C92.8271 66.4855 92.3365 66.9844 92.0431 67.514C91.7496 68.0479 91.6664 68.7132 91.8898 69.2646C91.7452 68.6913 91.9204 68.0917 92.2533 67.6409C92.5774 67.1945 93.0549 66.8312 93.5674 66.805C94.0754 66.7743 94.5485 67.0325 94.9208 67.4089C95.0084 67.5096 95.1135 67.5927 95.1924 67.7065L95.4289 68.0435C95.5165 68.1486 95.5603 68.2799 95.626 68.3937C95.683 68.5162 95.7574 68.6256 95.7968 68.7526C95.972 69.2471 96.0553 69.7679 96.0115 70.2931C95.9458 70.8096 95.8275 71.3304 95.5734 71.7943C95.5209 71.9169 95.4596 72.0307 95.3807 72.1401C95.3063 72.2495 95.2449 72.3633 95.1705 72.4727C95.004 72.674 94.8551 72.8929 94.658 73.0635C94.4828 73.2561 94.2682 73.4005 94.0667 73.5581C93.8477 73.6807 93.6374 73.8295 93.4053 73.8995C92.9541 74.0789 92.4811 74.1446 92.065 74.0264C91.9598 74.0177 91.8503 73.9739 91.7365 73.9257C91.627 73.8776 91.5131 73.8513 91.408 73.7857C91.1977 73.6588 90.9831 73.5493 90.7947 73.3743C90.0063 72.7484 89.4369 71.8118 89.1128 70.814C88.7843 69.8161 88.6704 68.7438 88.8324 67.7109C88.9901 66.678 89.415 65.702 90.0633 64.8749C90.6852 64.0477 91.5262 63.3955 92.4898 63.0235C93.4491 62.6471 94.5047 62.5596 95.5034 62.7653C96.502 62.9666 97.4262 63.4962 98.1446 64.2534C98.8629 65.0149 99.4017 65.969 99.7696 67.0107C100.102 68.0698 100.343 69.1683 100.348 70.28C100.352 71.3873 100.146 72.499 99.717 73.5362C99.3009 74.5779 98.6527 75.5363 97.8467 76.3504C97.0452 77.1557 96.0728 77.8428 94.9339 78.1623Z" fill="#F26E24"/>
<g style="mix-blend-mode:multiply">
<path d="M151.569 76.9719C155.835 73.6194 168.84 78.3243 180.092 89.0077C191.345 99.6911 188.559 109.972 180.679 112.545C172.799 115.119 158.275 104.917 151.744 96.6668C145.213 88.4169 146.527 80.9372 151.569 76.9719Z" fill="#B28473"/>
</g>
<path d="M180.097 39.2933C182.939 49.4077 190.688 89.4408 189.921 101.083C189.155 112.725 172.633 118.567 167.618 103.573C162.598 88.5786 168.367 48.9394 170.355 36.9737C172.432 24.4653 177.258 29.1789 180.097 39.2933Z" fill="#FFCFAA"/>
<path d="M165.651 82.3157C165.87 76.9368 166.26 71.5667 166.803 66.2141C167.324 60.8571 167.973 55.5176 168.708 50.1868C169.081 47.5214 169.475 44.8604 169.878 42.2038L170.509 38.2211C170.723 36.8906 170.947 35.5776 171.284 34.2952C171.621 33.0216 172.037 31.7305 172.764 30.7195C173.128 30.2337 173.601 29.8223 174.113 29.8442C174.24 29.8267 174.372 29.8748 174.499 29.8924C174.626 29.9492 174.757 29.9799 174.884 30.063L175.073 30.1725L175.252 30.3125C175.375 30.3957 175.484 30.5138 175.598 30.6189C176.483 31.5161 177.14 32.689 177.71 33.8751C178.27 35.0743 178.743 36.3216 179.159 37.5865C179.987 40.1205 180.578 42.7465 181.192 45.3594C181.792 47.981 182.361 50.607 182.9 53.2417C183.991 58.5112 184.985 63.7982 185.953 69.0895C186.903 74.3852 187.788 79.6941 188.533 85.0205C188.914 87.6815 189.26 90.3512 189.523 93.0297C189.65 94.369 189.786 95.7082 189.838 97.0518L189.895 98.0585L189.926 98.5618V99.0651L189.917 101.083L189.987 99.0651L190.005 98.5618L189.991 98.0585L189.965 97.0475C189.943 95.6995 189.838 94.3558 189.742 93.0122C189.536 90.3249 189.251 87.6464 188.927 84.9723C188.257 79.6284 187.447 74.3021 186.566 68.9845C185.694 63.6669 184.678 58.3755 183.623 53.0929C183.093 50.4538 182.536 47.8147 181.945 45.1843C181.336 42.5583 180.762 39.9236 179.926 37.3326C179.497 36.0415 179.01 34.7679 178.423 33.5337C177.823 32.3083 177.153 31.0872 176.137 30.063C176.006 29.9405 175.879 29.8092 175.725 29.7042L175.502 29.5378L175.252 29.3934C175.095 29.2884 174.897 29.2315 174.714 29.1615C174.512 29.1264 174.315 29.0652 174.1 29.0827C173.89 29.0739 173.689 29.1352 173.483 29.1877C173.303 29.2752 173.097 29.3453 172.953 29.4722L172.716 29.6473L172.515 29.8486C172.375 29.9799 172.269 30.1287 172.156 30.2731C171.319 31.4636 170.916 32.7984 170.57 34.1158C170.233 35.4375 170.009 36.7856 169.799 38.1117L169.186 42.1075C168.787 44.7729 168.428 47.4427 168.091 50.1124C167.429 55.4607 166.847 60.8177 166.404 66.1834C166.001 71.5492 165.69 76.9324 165.651 82.3157Z" fill="#5F3732"/>
<path d="M160.728 76.8407C167.197 83.7689 167.679 117.592 165.086 133.382C162.497 149.173 161.832 170.041 161.832 170.041C161.832 170.041 138.875 185.57 99.025 167.809C99.025 167.809 101.355 135.063 98.3768 115.911C95.3983 96.7544 97.4701 79.5411 110.032 72.6829C122.603 65.8247 151.503 66.9583 160.728 76.8407Z" fill="#FFAC30"/>
<g opacity="0.3">
<path opacity="0.3" d="M166.505 115.596C166.492 116.178 166.479 116.76 166.461 117.333C162.318 118.55 157.289 119.741 151.534 120.568C146.97 121.224 141.661 121.684 135.757 121.684C124.977 121.684 112.2 120.148 98.3155 115.473C98.2235 114.874 98.1403 114.274 98.057 113.679C127.465 123.802 152.48 119.741 166.505 115.596Z" fill="white"/>
<path opacity="0.3" d="M166.032 125.251C165.984 125.85 165.936 126.441 165.879 127.019C161.849 128.174 157.022 129.295 151.534 130.082C146.97 130.739 141.666 131.198 135.757 131.198C125.253 131.198 112.857 129.732 99.3886 125.334C99.3492 124.752 99.3054 124.178 99.2572 123.609C127.816 133.098 152.116 129.29 166.032 125.251Z" fill="white"/>
<path opacity="0.3" d="M164.814 135.107C164.722 135.698 164.639 136.297 164.552 136.901C160.802 137.925 156.431 138.893 151.534 139.597C146.97 140.254 141.661 140.713 135.757 140.713C125.367 140.713 113.12 139.273 99.8179 134.984C99.8047 134.42 99.7916 133.851 99.7741 133.286C127.294 142.293 150.816 138.98 164.814 135.107Z" fill="white"/>
<path opacity="0.3" d="M135.757 150.224C125.385 150.224 113.16 148.788 99.8835 144.517C99.8879 143.961 99.8923 143.401 99.8923 142.836C126.558 151.537 149.462 148.674 163.57 144.954C163.509 145.545 163.448 146.132 163.391 146.718C159.909 147.624 155.936 148.469 151.534 149.103C146.97 149.76 141.661 150.224 135.757 150.224Z" fill="white"/>
<path opacity="0.3" d="M99.3798 161.695C125.35 170.3 147.789 167.905 162.086 164.36C162.055 164.986 162.024 165.564 161.998 166.098C158.862 166.868 155.358 167.582 151.534 168.129C146.97 168.785 141.665 169.245 135.757 169.245C125.231 169.245 112.8 167.77 99.2922 163.349C99.3229 162.837 99.3535 162.286 99.3798 161.695Z" fill="white"/>
<path opacity="0.3" d="M162.033 78.7577C162.283 79.226 162.519 79.7381 162.747 80.2983C159.423 81.143 155.664 81.922 151.534 82.5172C146.97 83.1737 141.661 83.6333 135.757 83.6333C126.208 83.6333 115.087 82.4166 103.024 78.8934C103.361 78.4251 103.712 77.9699 104.084 77.5322C128.021 84.3773 148.608 82.0796 162.033 78.7577Z" fill="white"/>
<path opacity="0.3" d="M164.731 87.5678C164.832 88.1018 164.928 88.6489 165.02 89.2091C161.17 90.277 156.637 91.3011 151.534 92.032C146.97 92.6885 141.665 93.148 135.757 93.148C125.166 93.148 112.647 91.66 99.0425 87.1739C99.2002 86.6575 99.3623 86.1454 99.5375 85.6465C127.106 94.7324 150.68 91.4455 164.731 87.5678Z" fill="white"/>
<path opacity="0.3" d="M166.479 106.09C166.496 106.659 166.505 107.232 166.518 107.805C162.366 109.027 157.316 110.226 151.534 111.057C146.97 111.714 141.661 112.173 135.757 112.173C124.71 112.173 111.565 110.55 97.2818 105.6C97.2511 105.022 97.2292 104.449 97.2117 103.88C126.966 114.362 152.318 110.274 166.479 106.09Z" fill="white"/>
<path opacity="0.3" d="M135.757 159.734C125.336 159.734 113.046 158.286 99.6908 153.966C99.7084 153.419 99.7259 152.863 99.739 152.298C125.932 160.881 148.498 158.303 162.694 154.692C162.651 155.288 162.607 155.87 162.567 156.443C159.287 157.27 155.59 158.036 151.53 158.618C146.97 159.275 141.661 159.734 135.757 159.734Z" fill="white"/>
<path opacity="0.3" d="M165.945 96.7369C165.993 97.2927 166.041 97.8529 166.085 98.4175C162.016 99.5948 157.119 100.742 151.534 101.542C146.97 102.199 141.661 102.658 135.757 102.658C124.741 102.658 111.64 101.044 97.4044 96.1285C97.4526 95.5771 97.5052 95.03 97.5709 94.4873C126.795 104.685 151.74 100.847 165.945 96.7369Z" fill="white"/>
</g>
<path d="M98.5432 155.843C99.1214 155.843 99.7127 155.703 100.256 155.41C101.281 154.859 125.402 141.51 128.065 109.385C130.395 81.2218 116.852 70.1489 116.191 69.6894C113.808 68.0394 108.061 72.044 109.625 73.2913C110.111 73.6896 122.835 84.6968 120.842 108.79C118.517 136.888 100.571 146.797 98.5389 147.887C96.5065 148.972 97.1766 156.211 98.5432 155.843Z" fill="#D5AB41"/>
<path d="M149.41 70.661C149.97 72.1359 150.115 73.8122 149.523 75.2389C149.453 75.4184 149.388 75.5978 149.283 75.7598C149.182 75.9217 149.103 76.0968 148.993 76.2499C148.757 76.5476 148.538 76.8583 148.24 77.1034C147.697 77.6373 147.031 78.04 146.348 78.3901C144.986 79.0598 143.404 79.2304 141.854 79.2523C140.295 79.2611 138.726 79.1166 137.18 78.8322C134.092 78.2851 131.057 77.3047 128.293 75.821C126.918 75.0726 125.621 74.1667 124.513 73.0594C123.965 72.4992 123.475 71.8864 123.068 71.2124C122.686 70.5253 122.389 69.79 122.213 69.011C122.301 69.8032 122.533 70.5822 122.879 71.3131C123.243 72.0352 123.698 72.7049 124.22 73.3264C125.293 74.5387 126.589 75.5453 127.978 76.3637C130.763 78.005 133.865 79.0466 137.036 79.6243C138.626 79.9001 140.242 80.0489 141.863 80.0139C142.673 79.9788 143.488 79.9219 144.294 79.7556C145.095 79.5981 145.906 79.3574 146.633 78.946C147.347 78.5433 148.052 78.0925 148.608 77.4754C148.915 77.1909 149.138 76.8408 149.375 76.4994C149.488 76.3243 149.567 76.1318 149.664 75.948C149.764 75.7685 149.83 75.5716 149.891 75.3702C150.399 73.7903 150.137 72.0703 149.41 70.661Z" fill="#CB7F0F"/>
<path d="M160.96 166.33C158.525 167.367 156.006 168.177 153.457 168.868C150.912 169.56 148.332 170.124 145.73 170.553C143.128 170.974 140.514 171.297 137.885 171.477C135.257 171.674 132.625 171.726 129.993 171.652C128.674 171.643 127.364 171.547 126.046 171.477C124.736 171.354 123.422 171.267 122.117 171.087C119.498 170.807 116.905 170.317 114.32 169.801C113.037 169.503 111.745 169.24 110.475 168.881L108.565 168.369L106.673 167.787C105.398 167.433 104.163 166.965 102.91 166.549C102.28 166.347 101.675 166.085 101.053 165.853L99.1959 165.153C100.405 165.687 101.605 166.255 102.836 166.746C104.071 167.218 105.293 167.744 106.55 168.159L108.434 168.798L110.339 169.367C111.605 169.766 112.901 170.068 114.185 170.4C116.769 171.009 119.384 171.507 122.021 171.84C123.335 172.037 124.662 172.125 125.985 172.26C127.312 172.335 128.639 172.44 129.966 172.457C135.284 172.593 140.614 172.16 145.835 171.162C151.048 170.138 156.203 168.671 160.96 166.33Z" fill="#80C6A7"/>
<path d="M161.468 74.9632C159.243 72.0352 150.132 70.2802 149.988 70.836C149.659 72.0921 151.232 72.219 153.474 74.3242C171.792 91.5462 163.632 131.606 165.594 131.991C165.831 132.034 176.825 95.1569 161.468 74.9632Z" fill="#D5AB41"/>
<path d="M124.303 68.3281V17.2046H162.716C162.716 17.2046 162.716 39.1797 162.716 48.852C162.716 58.5244 156.847 64.3891 147.776 64.3891C147.776 64.3891 147.776 65.5708 147.776 71.9125C147.776 78.6788 138.052 77.6109 130.141 74.3328C125.639 72.4552 124.452 72.2102 124.303 68.3281Z" fill="#FFCFAA"/>
<path d="M124.224 38.0987C124.224 38.0987 131.644 37.0264 133.899 25.9579C133.899 25.9579 160.885 31.1136 165.296 24.6668C169.707 18.22 166.693 14.675 158.31 12.9549C149.922 11.2349 124.316 10.5959 119.432 17.2003C114.548 23.8046 113.217 34.5055 115.726 42.5366C118.096 50.1126 124.228 48.7996 124.228 48.7996V38.0987H124.224Z" fill="#CD543D"/>
<path opacity="0.5" d="M147.776 64.3848C147.776 64.3848 141.403 64.5468 138.091 63.0237C138.091 63.0237 140.364 66.1267 147.776 66.118V64.3848Z" fill="#B28473"/>
<path d="M114.929 27.6473C114.929 27.6473 138.683 19.2354 164.398 20.6447C164.398 20.6447 160.268 7.42285 158.674 3.76398C157.079 0.105116 144.758 -0.363184 136.62 0.201402C128.477 0.765988 119.975 3.97406 118.319 7.42285C115.446 13.3926 114.929 27.6473 114.929 27.6473Z" fill="#F15231"/>
<path opacity="0.3" d="M131.455 6.2936C132.239 3.24746 142.366 0.249468 142.962 0C142.984 0 143.006 0 143.028 0C143.728 0.201325 154.718 3.74202 155.559 5.90408C156.238 7.65036 157.07 16.0666 157.07 20.4958C147.219 20.6183 137.995 21.9751 130.698 23.4763C130.702 23.4763 130.833 8.71826 131.455 6.2936Z" fill="#F3D07F"/>
<path d="M124.933 24.7763C124.933 24.7763 131.924 11.4538 137.364 9.01161C142.809 6.57383 165.988 7.04213 171.244 9.01161C176.501 10.9811 167.092 21.008 167.092 21.008C167.092 21.008 146.571 19.0647 124.933 24.7763Z" fill="#CF391A"/>
<path d="M151.166 35.6213C151.048 36.9956 151.109 38.3786 151.328 39.7529C151.569 41.114 151.911 42.5189 152.861 43.7094C153.102 43.9982 153.409 44.2564 153.763 44.4446C153.868 44.4972 153.903 44.5278 153.952 44.5584C154 44.5847 154.048 44.6153 154.07 44.6547C154.101 44.6897 154.14 44.7204 154.149 44.7685C154.162 44.8079 154.197 44.8473 154.188 44.8998C154.219 45.088 154.14 45.3506 153.956 45.5607C153.776 45.7708 153.544 45.9677 153.268 46.1034C152.725 46.3879 152.073 46.5104 151.416 46.5192C150.75 46.5498 150.084 46.401 149.409 46.2785C150.027 46.5717 150.684 46.8343 151.394 46.9174C152.094 47.005 152.843 46.97 153.54 46.6767C153.89 46.5411 154.219 46.3178 154.495 46.0202C154.766 45.727 154.981 45.3068 154.946 44.8167C154.95 44.6941 154.902 44.5759 154.854 44.4578C154.815 44.3352 154.736 44.2433 154.652 44.147C154.578 44.042 154.482 43.9763 154.385 43.9151C154.289 43.8494 154.179 43.7838 154.136 43.7575C153.89 43.6218 153.667 43.4293 153.474 43.1929C153.076 42.7334 152.782 42.1425 152.541 41.5342C152.292 40.9258 152.112 40.2825 151.941 39.6303C151.613 38.3173 151.381 36.9781 151.166 35.6213Z" fill="#5F3732"/>
<path d="M153.96 36.6499C153.96 37.7047 154.508 38.5581 155.182 38.5581C155.857 38.5581 156.405 37.7047 156.405 36.6499C156.405 35.5951 155.857 34.7373 155.182 34.7373C154.508 34.7417 153.96 35.5951 153.96 36.6499Z" fill="#4C2843"/>
<path d="M141.276 36.6499C141.276 37.7047 141.823 38.5581 142.498 38.5581C143.172 38.5581 143.72 37.7047 143.72 36.6499C143.72 35.5951 143.172 34.7373 142.498 34.7373C141.823 34.7373 141.276 35.5951 141.276 36.6499Z" fill="#4C2843"/>
<path d="M157.719 33.8491C157.543 33.3414 157.189 32.9606 156.781 32.6805C156.374 32.3873 155.892 32.2035 155.393 32.1291C154.893 32.059 154.377 32.0766 153.903 32.2429C153.426 32.3829 152.988 32.6586 152.655 33.0613L152.642 33.0788C152.629 33.0963 152.629 33.1182 152.646 33.1313C152.655 33.1401 152.668 33.1401 152.681 33.1401C153.106 33.0219 153.531 32.9169 153.965 32.8819C154.398 32.8337 154.836 32.86 155.266 32.9256C155.699 32.9825 156.12 33.1051 156.523 33.2714C156.926 33.4421 157.316 33.6521 157.662 33.9104C157.679 33.9235 157.701 33.9191 157.714 33.9016C157.723 33.8928 157.723 33.8797 157.719 33.8666V33.8491Z" fill="#5F3732"/>
<path d="M139.892 33.9101C140.238 33.6475 140.627 33.4374 141.03 33.2711C141.433 33.1048 141.858 32.9823 142.287 32.9254C142.717 32.8597 143.155 32.8335 143.588 32.8816C144.026 32.9166 144.451 33.0216 144.872 33.1398C144.894 33.1442 144.911 33.1354 144.92 33.1136C144.924 33.1004 144.92 33.0873 144.911 33.0785L144.898 33.061C144.565 32.6584 144.131 32.3827 143.65 32.2426C143.172 32.0763 142.655 32.0544 142.16 32.1288C141.661 32.2032 141.179 32.387 140.772 32.6803C140.365 32.9648 140.005 33.3411 139.835 33.8488L139.83 33.8663C139.821 33.8882 139.835 33.9101 139.852 33.9145C139.87 33.9189 139.883 33.9145 139.892 33.9101Z" fill="#5F3732"/>
<path d="M153.693 53.3862C153.006 53.8808 152.257 54.1652 151.486 54.3184C150.719 54.4629 149.931 54.4804 149.182 54.3272C148.428 54.1915 147.714 53.8764 147.084 53.43C146.449 52.9748 145.91 52.3796 145.393 51.7056C145.603 52.5196 146.041 53.303 146.681 53.9114C147.316 54.5285 148.152 54.9443 149.028 55.115C149.909 55.2769 150.82 55.2156 151.652 54.9224C152.48 54.6335 153.251 54.1127 153.693 53.3862Z" fill="#5F3732"/>
<path d="M144.201 51.7012C144.368 51.9025 144.587 51.9944 144.81 52.0426C145.034 52.0863 145.27 52.0688 145.494 51.9944C145.936 51.85 146.33 51.443 146.304 50.9309C146.046 50.9834 145.875 51.0491 145.699 51.0885L145.235 51.2329C144.933 51.3423 144.631 51.4517 144.201 51.7012Z" fill="#5F3732"/>
<path d="M124.452 34.7417V47.6352C124.452 47.6352 119.774 47.749 117.803 43.5037C115.223 37.9454 119.428 32.2601 124.452 34.7417Z" fill="#B28473"/>
<path d="M123.729 36.6499C123.173 36.3085 122.507 36.1466 121.815 36.186C121.644 36.2122 121.469 36.2254 121.298 36.2735C121.131 36.3348 120.952 36.3742 120.794 36.4617C120.641 36.5536 120.47 36.6368 120.339 36.7549C120.207 36.8775 120.058 36.9957 119.944 37.1313C119.471 37.7003 119.305 38.3962 119.222 39.0527C119.217 39.3853 119.209 39.7135 119.244 40.0374C119.301 40.3613 119.358 40.6764 119.45 40.9871C119.537 40.6676 119.585 40.3569 119.638 40.0505C119.699 39.7486 119.787 39.4553 119.839 39.1621C119.888 39.022 119.94 38.8864 119.984 38.7463C120.028 38.6063 120.067 38.4662 120.142 38.348C120.207 38.2255 120.255 38.0942 120.326 37.9716L120.562 37.6434C120.895 37.2276 121.359 36.9563 121.911 36.7987C122.472 36.6674 123.085 36.628 123.729 36.6499Z" fill="#5F3732"/>
<path d="M172.896 47.3902L158.844 42.716C158.844 42.716 156.164 37.3371 158.844 31.6869L172.896 27.7742V47.3902Z" fill="#3B5000"/>
<path d="M174.67 47.6223C170.042 47.6223 166.291 43.1292 166.291 37.5867C166.291 32.0441 170.042 27.551 174.67 27.551C179.297 27.551 183.049 32.0441 183.049 37.5867C183.049 43.1292 179.297 47.6223 174.67 47.6223Z" fill="#64653D"/>
<path opacity="0.6" d="M174.67 46.108C170.741 46.108 167.556 42.2929 167.556 37.5867C167.556 32.8805 170.741 29.0654 174.67 29.0654C178.598 29.0654 181.783 32.8805 181.783 37.5867C181.783 42.2929 178.598 46.108 174.67 46.108Z" fill="white"/>
<g opacity="0.3">
<path opacity="0.3" d="M172.488 29.4768L180.605 42.2872C180.07 43.2501 179.378 44.0729 178.572 44.7075L170 31.1706C170.719 30.4178 171.56 29.8357 172.488 29.4768Z" fill="white"/>
<path opacity="0.3" d="M169.028 32.4092L177.311 45.4909C176.492 45.8805 175.603 46.1037 174.67 46.1037C174.039 46.1037 173.434 45.9943 172.852 45.8104L167.561 37.4554C167.583 35.5604 168.126 33.8141 169.028 32.4092Z" fill="white"/>
<path opacity="0.3" d="M181.257 40.8035L173.859 29.1223C174.126 29.0873 174.398 29.061 174.67 29.061C175.239 29.061 175.795 29.1486 176.325 29.3017L181.774 37.9062C181.739 38.926 181.564 39.9063 181.257 40.8035Z" fill="white"/>
</g>
<path d="M126.138 69.908C131.889 70.1269 133.12 72.8666 133.339 81.9613C133.44 86.2241 135.091 88.1455 137.588 88.1455C137.601 88.1455 137.614 88.1455 137.627 88.1455C139.918 88.1192 141.705 87.3227 141.871 80.5783L143.076 43.7357C143.076 43.2543 144.447 43.4819 144.447 43.9677L144.889 80.5826C144.889 91.4236 141.109 92.3427 138.42 92.3427C138.402 92.3427 138.38 92.3427 138.363 92.3427C133.54 92.3427 131.307 88.7801 131.175 83.4318C130.987 75.6633 129.292 71.4749 126.134 70.9497C126.138 69.908 126.138 69.908 126.138 69.908Z" fill="#3B5000"/>
<path d="M152.576 47.3902L138.525 42.716C138.525 42.716 135.844 37.3371 138.525 31.6869L152.576 27.7742V47.3902Z" fill="#3B5000"/>
<path d="M154.35 47.6223C149.723 47.6223 145.971 43.1292 145.971 37.5867C145.971 32.0441 149.723 27.551 154.35 27.551C158.978 27.551 162.729 32.0441 162.729 37.5867C162.729 43.1292 158.978 47.6223 154.35 47.6223Z" fill="#64653D"/>
<path opacity="0.6" d="M154.35 46.108C150.422 46.108 147.237 42.2929 147.237 37.5867C147.237 32.8805 150.422 29.0654 154.35 29.0654C158.279 29.0654 161.464 32.8805 161.464 37.5867C161.464 42.2929 158.279 46.108 154.35 46.108Z" fill="white"/>
<g opacity="0.3">
<path opacity="0.3" d="M152.169 29.4768L160.281 42.2872C159.747 43.2501 159.054 44.0729 158.249 44.7075L149.677 31.1706C150.395 30.4178 151.24 29.8357 152.169 29.4768Z" fill="white"/>
<path opacity="0.3" d="M148.704 32.4092L156.987 45.4909C156.168 45.8805 155.279 46.1037 154.346 46.1037C153.715 46.1037 153.111 45.9943 152.528 45.8104L147.237 37.4554C147.263 35.5604 147.806 33.8141 148.704 32.4092Z" fill="white"/>
<path opacity="0.3" d="M160.938 40.8035L153.54 29.1223C153.807 29.0873 154.079 29.061 154.35 29.061C154.92 29.061 155.476 29.1486 156.006 29.3017L161.45 37.9062C161.42 38.926 161.245 39.9063 160.938 40.8035Z" fill="white"/>
</g>
<g style="mix-blend-mode:multiply" opacity="0.25">
<path d="M110.037 72.6829C113.707 70.6784 118.766 69.361 124.325 68.7395C124.316 68.6038 124.307 68.4725 124.298 68.3281L128.227 47.6923C133.935 44.9175 134.592 37.8361 141.223 38.1074C141.223 38.1074 143.501 97.726 135.117 112.957C125.893 129.71 109.178 123.544 103.007 101.087C103.265 88.7057 101.075 77.5759 110.037 72.6829Z" fill="#B28473"/>
</g>
<path d="M108.158 72.4069C112.827 69.6408 122.086 82.39 129.081 96.2377C136.076 110.085 129.988 118.825 121.697 118.598C113.409 118.37 103.173 103.875 99.8047 93.9093C96.4364 83.9437 103.024 75.4486 108.158 72.4069Z" fill="#FFCFAA"/>
<path d="M143.799 30.0237C143.799 30.0237 140.347 37.7004 140.347 48.2043C140.347 58.7082 136.979 99.3453 133.094 110.348C129.208 121.351 113.598 123.106 111.613 107.42C109.577 91.3185 121.096 48.4931 129.077 38.3875C136.944 28.4263 139.313 29.4329 143.799 30.0237Z" fill="#FFCFAA"/>
<path d="M140.719 41.718C140.518 43.1448 140.369 44.5803 140.286 46.0246C140.242 46.7468 140.211 47.4689 140.198 48.1911L140.115 50.3487C139.979 53.2242 139.8 56.0996 139.567 58.9707C139.129 64.7129 138.652 70.455 138.061 76.1884C137.526 81.9262 136.887 87.6508 136.16 93.3623L135.581 97.6427C135.358 99.0651 135.157 100.492 134.911 101.91C134.653 103.324 134.451 104.755 134.127 106.155C133.97 106.856 133.847 107.569 133.659 108.26L133.094 110.348C134.973 104.882 135.875 99.1395 136.773 93.4455C137.627 87.7383 138.266 82.0006 138.862 76.2628C139.388 70.5163 139.878 64.7698 140.185 59.0057C140.343 56.1259 140.452 53.2417 140.509 50.3531L140.5 48.1867C140.487 47.4689 140.487 46.7468 140.5 46.029C140.527 44.5935 140.601 43.1536 140.719 41.718Z" fill="#5F3732"/>
<path d="M112.205 92.3994C112.757 89.3139 113.33 86.2371 113.992 83.1735C114.636 80.1098 115.332 77.0593 116.103 74.0263C117.654 67.9647 119.353 61.9381 121.434 56.0427C122.472 53.0973 123.549 50.1605 124.78 47.2895C125.389 45.8539 126.042 44.4359 126.738 43.0441C127.443 41.6567 128.179 40.2825 129.055 39.0132C129.936 37.744 130.882 36.4879 131.867 35.2844C132.861 34.0895 133.913 32.9341 135.095 31.9362C136.274 30.9515 137.614 30.098 139.147 29.8398C140.676 29.5641 142.248 29.8792 143.803 30.028C142.266 29.7829 140.711 29.389 139.112 29.6035C137.518 29.8048 136.059 30.6189 134.824 31.6036C133.584 32.5971 132.485 33.7438 131.447 34.9255C130.413 36.1203 129.436 37.3414 128.503 38.6281C127.592 39.9367 126.834 41.3241 126.107 42.7246C125.389 44.1295 124.723 45.5563 124.097 46.9962C122.848 49.8848 121.705 52.8128 120.693 55.7845C119.673 58.7562 118.744 61.7542 117.881 64.7741C117.019 67.794 116.221 70.827 115.529 73.8906C114.828 76.9499 114.185 80.0179 113.628 83.1078C113.081 86.1934 112.586 89.2877 112.205 92.3994Z" fill="#5F3732"/>
<path d="M140.54 49.8805C140.54 49.8805 132.673 52.2045 125.113 45.3069C125.113 45.3069 122.323 46.8387 123.098 50.4451C123.098 50.4451 130.023 57.5658 140.737 55.0405C140.741 55.0405 141.955 52.2088 140.54 49.8805Z" fill="#3B5000"/>
<path d="M126.769 54.3183C128.332 54.8173 130.211 53.2986 130.969 50.9308C131.727 48.563 131.07 46.2391 129.506 45.7401L128.849 45.4731L125.893 53.9638L126.769 54.3183Z" fill="#D3D3D3"/>
<path d="M126.116 54.0526C124.554 53.5548 123.9 51.2302 124.656 48.8606C125.412 46.491 127.292 44.9737 128.855 45.4716C130.417 45.9694 131.071 48.294 130.315 50.6636C129.558 53.0332 127.679 54.5505 126.116 54.0526Z" fill="white"/>
<path d="M125.288 49.062C124.701 50.8958 125.209 52.699 126.418 53.0841C127.627 53.4693 129.086 52.2963 129.673 50.4582C130.26 48.62 129.752 46.8212 128.543 46.436C127.334 46.0509 125.875 47.2282 125.288 49.062Z" fill="#FDD673"/>
<path d="M127.877 51.3728C127.837 50.8126 127.75 50.2656 127.632 49.7229C127.614 49.6397 127.531 49.5872 127.448 49.6047C127.408 49.6134 127.377 49.6353 127.356 49.6616L127.351 49.666C126.808 50.3881 126.291 51.1321 125.888 51.9593C126.545 51.3159 127.088 50.5938 127.601 49.8498L127.325 49.7973C127.478 50.3312 127.653 50.8564 127.877 51.3728Z" fill="#4C2843"/>
<path d="M147.776 69.908C153.527 70.1268 154.758 72.8666 154.977 81.9613C155.077 86.2241 156.729 88.1455 159.225 88.1455C159.239 88.1455 159.252 88.1455 159.265 88.1455C161.556 88.1192 163.343 87.3227 163.509 80.5783L164.714 43.7357C164.714 43.2543 166.085 43.4819 166.085 43.9677L166.527 80.5783C166.527 91.4192 162.747 92.3383 160.058 92.3383C160.04 92.3383 160.018 92.3383 160.001 92.3383C155.178 92.3383 152.944 88.7757 152.813 83.4274C152.625 75.6589 150.93 71.4705 147.771 70.9453C147.776 69.908 147.776 69.908 147.776 69.908Z" fill="#3B5000"/>
</g>
<g clip-path="url(#clip3_401_3875)">
<path d="M13.954 50.2165C13.954 50.2165 5.81947 54.9467 3.33451 55.2027C0.849559 55.4588 2.04602 52.9194 3.33451 51.8596C3.33451 51.8596 0.438939 51.9734 0.0283196 50.7357C-0.3823 49.5052 4.39646 48.6231 4.39646 48.6231C4.39646 48.6231 1.81947 47.7909 2.5062 46.226C3.19292 44.6541 12.6655 47.4708 12.6655 47.4708L13.954 50.2165Z" fill="#79E0B2"/>
<g opacity="0.5">
<g opacity="0.5">
<path opacity="0.5" d="M12.4459 49.0928C11.0441 49.043 9.69194 48.794 8.3468 48.4953C7.00875 48.1752 5.67778 47.8124 4.39636 47.2505C5.79813 47.3003 7.15034 47.5492 8.49548 47.848C9.83353 48.1681 11.1645 48.5308 12.4459 49.0928Z" fill="#082116"/>
</g>
<g opacity="0.5">
<path opacity="0.5" d="M1.26013 50.7359C3.13624 50.3091 4.99111 50.0886 6.84597 49.9179C8.70084 49.7685 10.5557 49.6618 12.446 49.7614C10.6053 50.1882 8.72916 50.4087 6.86013 50.5794C4.98403 50.7359 3.10792 50.8355 1.26013 50.7359Z" fill="#082116"/>
</g>
<g opacity="0.5">
<path opacity="0.5" d="M3.37695 54.0078C4.84952 53.1756 6.39288 52.5354 7.9504 51.9379C9.51501 51.3617 11.1008 50.8282 12.7575 50.4868C11.2849 51.319 9.74156 51.9663 8.18403 52.5567C6.61943 53.1329 5.03359 53.6664 3.37695 54.0078Z" fill="#082116"/>
</g>
</g>
<path d="M31.3274 46.8237C31.3274 46.8237 39.6035 49.9606 43.3274 47.7484C43.3274 47.7484 45.1681 50.5652 42.7752 52.1799C42.7752 52.1799 44.0637 55.8289 40.1982 56.8461C40.1982 56.8461 39.4619 60.6302 35.2354 59.5704C35.2354 59.5704 31.2849 63.5395 25.7699 58.2331L31.3274 46.8237Z" fill="#79E0B2"/>
<g opacity="0.5">
<g opacity="0.5">
<path opacity="0.5" d="M42.7681 52.1797C42.2654 52.6136 41.607 52.8199 40.977 52.9479C40.3327 53.076 39.6814 53.0902 39.0371 53.0546C38.3929 53.0048 37.7557 52.891 37.1398 52.7132C36.5239 52.5283 35.9292 52.2935 35.3699 51.9521C36.0212 51.9308 36.6442 51.9805 37.2672 52.0303C37.8831 52.0659 38.492 52.137 39.1008 52.1655C39.7097 52.2224 40.3115 52.2437 40.9203 52.258C41.5221 52.2651 42.1309 52.2722 42.7681 52.1797Z" fill="black"/>
</g>
<g opacity="0.5">
<path opacity="0.5" d="M40.1982 56.8459C39.7309 57.2371 39.1221 57.4078 38.5345 57.479C37.9327 57.5572 37.3309 57.4932 36.7504 57.3794C36.1699 57.2585 35.6106 57.0451 35.0867 56.7819C34.5628 56.5116 34.0814 56.1773 33.6566 55.7505C33.954 55.7861 34.2371 55.8643 34.5133 55.9283C34.7894 55.9923 35.0655 56.0564 35.3345 56.1346C35.8796 56.2555 36.4035 56.4191 36.9345 56.5116C37.4655 56.6325 37.9894 56.725 38.5274 56.789C39.0655 56.8459 39.6106 56.8886 40.1982 56.8459Z" fill="black"/>
</g>
<g opacity="0.5">
<path opacity="0.5" d="M35.2354 59.5701C34.931 59.7408 34.5982 59.755 34.2797 59.7195C33.9611 59.6839 33.6637 59.563 33.3805 59.4207C32.8496 59.0935 32.3965 58.6027 32.2761 57.9341C32.6089 58.0266 32.8637 58.1475 33.1186 58.2684C33.3664 58.3893 33.6 58.5174 33.8266 58.6525C34.2797 58.9157 34.6974 59.1789 35.2354 59.5701Z" fill="black"/>
</g>
</g>
<path d="M26.5912 40.3436C30.5558 40.2653 36.3327 48.2249 32.269 54.5697C28.2053 60.9146 16.3965 62.2732 12.0708 48.5876C12.0708 48.5876 17.5717 48.4596 19.7381 46.1692C21.9044 43.8717 22.0814 40.4289 26.5912 40.3436Z" fill="#FFD470"/>
<path opacity="0.3" d="M14.0885 53.1401C18.5416 56.6611 22.3646 54.8402 27.1009 50.2451C29.4867 47.9334 32.6726 48.0827 33.6283 49.0572C33.777 50.8782 33.4159 52.7845 32.2761 54.5627C28.7363 60.0896 19.3204 61.8323 14.0885 53.1401Z" fill="white"/>
<path d="M30.9594 43.9144L33.9894 43.3596L31.5045 45.2517C31.5116 45.2517 30.9735 45.0027 30.9594 43.9144Z" fill="#C44961"/>
<path d="M28.4318 43.8219C28.1911 43.4876 27.9787 43.1818 27.7593 42.947C27.5327 42.7123 27.3274 42.5771 27.1079 42.5629C26.8672 42.5274 26.6619 42.5558 26.4354 42.7265C26.2088 42.9043 25.9893 43.196 25.7628 43.5445C25.6354 43.1462 25.6566 42.6981 25.9044 42.2855C26.0177 42.0792 26.2301 41.8943 26.4708 41.7876C26.7185 41.688 26.9734 41.6524 27.2354 41.688C27.7734 41.7591 28.184 42.1788 28.3398 42.5843C28.5168 42.9897 28.5451 43.4165 28.4318 43.8219Z" fill="#754368"/>
<path d="M22.3646 42.3282C22.3646 42.3282 19.2425 41.8801 17.3522 38.2809C15.4691 34.6816 14.9664 32 14.9664 32C14.9664 32 12.7292 31.9075 12.0779 35.2293C12.0779 35.2293 8.94871 34.5394 9.26729 38.2737C9.26729 38.2737 6.41419 39.3549 7.75225 42.6127C7.75225 42.6127 6.51331 47.4638 12.0779 48.8011C16.9204 49.9747 22.1806 47.4852 22.3646 42.3282Z" fill="#79E0B2"/>
<g opacity="0.5">
<g opacity="0.5">
<path opacity="0.5" d="M12.0708 35.2292C12.6159 36.6376 13.2106 37.9322 13.9965 39.1201C14.3717 39.7176 14.8035 40.2795 15.2779 40.8201C15.7381 41.3749 16.2761 41.8515 16.8071 42.4063C16.092 42.1716 15.3912 41.816 14.8035 41.3252C14.1947 40.8557 13.685 40.2582 13.2531 39.6109C12.8354 38.9565 12.5027 38.2523 12.2974 37.5125C12.092 36.7728 11.9858 35.9975 12.0708 35.2292Z" fill="black"/>
</g>
<g opacity="0.5">
<path opacity="0.5" d="M9.26721 38.2808C10.0955 39.3762 10.8389 40.4218 11.6672 41.4034C12.0708 41.9084 12.5168 42.3566 12.9699 42.8189C13.423 43.2813 13.9256 43.6796 14.4424 44.149C13.7699 44.021 13.1115 43.7507 12.538 43.3666C11.9575 42.9825 11.4336 42.513 10.9946 41.9867C10.5557 41.4532 10.1663 40.877 9.87606 40.2582C9.57872 39.6251 9.34509 38.9707 9.26721 38.2808Z" fill="black"/>
</g>
<g opacity="0.5">
<path opacity="0.5" d="M7.74512 42.6196C8.53804 43.2456 9.26724 43.7435 10.0389 44.2343C10.4212 44.4761 10.8177 44.7109 11.2141 44.9527C11.6177 45.1946 12.0283 45.4293 12.4389 45.7423C11.4195 45.8347 10.4283 45.5075 9.56459 44.9812C9.14689 44.6966 8.74335 44.3766 8.42476 43.9782C8.11326 43.587 7.83715 43.1389 7.74512 42.6196Z" fill="black"/>
</g>
</g>
</g>
<g clip-path="url(#clip4_401_3875)">
<path d="M232.148 13.1914C232.148 13.1914 226.232 16.6167 224.425 16.8021C222.618 16.9875 223.488 15.1487 224.425 14.3812C224.425 14.3812 222.319 14.4636 222.021 13.5674C221.722 12.6763 225.197 12.0376 225.197 12.0376C225.197 12.0376 223.323 11.4349 223.823 10.3017C224.322 9.16339 231.211 11.2031 231.211 11.2031L232.148 13.1914Z" fill="#79E0B2"/>
<g opacity="0.5">
<g opacity="0.5">
<path opacity="0.5" d="M231.052 12.3775C230.032 12.3415 229.049 12.1612 228.07 11.9449C227.097 11.7131 226.129 11.4504 225.197 11.0435C226.217 11.0795 227.2 11.2598 228.179 11.4761C229.152 11.7079 230.12 11.9706 231.052 12.3775Z" fill="#082116"/>
</g>
<g opacity="0.5">
<path opacity="0.5" d="M222.917 13.5675C224.281 13.2584 225.63 13.0988 226.979 12.9751C228.328 12.867 229.677 12.7897 231.052 12.8618C229.713 13.1709 228.349 13.3305 226.989 13.4542C225.625 13.5675 224.26 13.6396 222.917 13.5675Z" fill="#082116"/>
</g>
<g opacity="0.5">
<path opacity="0.5" d="M224.456 15.9369C225.527 15.3342 226.649 14.8707 227.782 14.438C228.92 14.0208 230.073 13.6344 231.278 13.3872C230.207 13.9899 229.085 14.4586 227.952 14.8861C226.814 15.3033 225.661 15.6896 224.456 15.9369Z" fill="#082116"/>
</g>
</g>
<path d="M244.784 10.7344C244.784 10.7344 250.803 13.0059 253.511 11.404C253.511 11.404 254.85 13.4437 253.109 14.613C253.109 14.613 254.046 17.2553 251.235 17.9919C251.235 17.9919 250.7 20.7322 247.626 19.9647C247.626 19.9647 244.753 22.8389 240.742 18.9963L244.784 10.7344Z" fill="#79E0B2"/>
<g opacity="0.5">
<g opacity="0.5">
<path opacity="0.5" d="M253.104 14.6128C252.738 14.927 252.26 15.0764 251.801 15.1691C251.333 15.2618 250.859 15.2721 250.391 15.2464C249.922 15.2103 249.459 15.1279 249.011 14.9992C248.563 14.8652 248.13 14.6953 247.724 14.448C248.197 14.4326 248.65 14.4686 249.103 14.5047C249.551 14.5304 249.994 14.5819 250.437 14.6025C250.88 14.6437 251.317 14.6592 251.76 14.6695C252.198 14.6746 252.641 14.6798 253.104 14.6128Z" fill="black"/>
</g>
<g opacity="0.5">
<path opacity="0.5" d="M251.235 17.9917C250.895 18.275 250.452 18.3986 250.025 18.4501C249.587 18.5068 249.15 18.4604 248.728 18.378C248.305 18.2905 247.899 18.1359 247.518 17.9454C247.137 17.7496 246.786 17.5075 246.478 17.1985C246.694 17.2242 246.9 17.2809 247.101 17.3273C247.301 17.3736 247.502 17.42 247.698 17.4766C248.094 17.5642 248.475 17.6827 248.861 17.7496C249.248 17.8372 249.629 17.9042 250.02 17.9505C250.411 17.9917 250.808 18.0226 251.235 17.9917Z" fill="black"/>
</g>
<g opacity="0.5">
<path opacity="0.5" d="M247.626 19.9645C247.404 20.0881 247.162 20.0984 246.931 20.0726C246.699 20.0469 246.483 19.9593 246.277 19.8563C245.891 19.6194 245.561 19.264 245.474 18.7798C245.716 18.8467 245.901 18.9343 246.086 19.0219C246.266 19.1094 246.436 19.2022 246.601 19.3C246.931 19.4906 247.234 19.6812 247.626 19.9645Z" fill="black"/>
</g>
</g>
<path d="M241.339 6.04192C244.222 5.98526 248.424 11.7491 245.468 16.3436C242.513 20.9382 233.925 21.922 230.779 12.0117C230.779 12.0117 234.779 11.919 236.355 10.2605C237.931 8.59674 238.059 6.10373 241.339 6.04192Z" fill="#FFD470"/>
<path opacity="0.3" d="M232.246 15.3082C235.485 17.8579 238.265 16.5393 241.71 13.2118C243.445 11.5378 245.762 11.646 246.457 12.3516C246.565 13.6703 246.303 15.0507 245.474 16.3384C242.899 20.3406 236.051 21.6026 232.246 15.3082Z" fill="white"/>
<path d="M244.516 8.6276L246.72 8.22583L244.912 9.59595C244.917 9.59595 244.526 9.41568 244.516 8.6276Z" fill="#C44961"/>
<path d="M242.678 8.56061C242.503 8.31852 242.348 8.09703 242.189 7.92706C242.024 7.75708 241.875 7.65921 241.715 7.64891C241.54 7.62316 241.391 7.64376 241.226 7.76738C241.061 7.89615 240.901 8.10733 240.737 8.35973C240.644 8.07128 240.659 7.74678 240.84 7.44803C240.922 7.29865 241.076 7.16473 241.252 7.08747C241.432 7.01536 241.617 6.9896 241.808 7.01536C242.199 7.06686 242.498 7.37076 242.611 7.66436C242.74 7.95796 242.76 8.26701 242.678 8.56061Z" fill="#754368"/>
<path d="M238.265 7.47897C238.265 7.47897 235.995 7.15447 234.62 4.54814C233.25 1.94181 232.885 -5.78994e-05 232.885 -5.78994e-05C232.885 -5.78994e-05 231.258 -0.067019 230.784 2.33843C230.784 2.33843 228.508 1.83879 228.74 4.54299C228.74 4.54299 226.665 5.32592 227.638 7.685C227.638 7.685 226.737 11.1979 230.784 12.1662C234.306 13.0161 238.131 11.2133 238.265 7.47897Z" fill="#79E0B2"/>
<g opacity="0.5">
<g opacity="0.5">
<path opacity="0.5" d="M230.779 2.33838C231.175 3.35825 231.608 4.2957 232.179 5.15589C232.452 5.58856 232.766 5.99548 233.111 6.38694C233.446 6.78871 233.837 7.13382 234.223 7.53558C233.703 7.3656 233.194 7.10806 232.766 6.75265C232.323 6.4127 231.953 5.98003 231.639 5.5113C231.335 5.03742 231.093 4.52749 230.943 3.9918C230.794 3.45611 230.717 2.89467 230.779 2.33838Z" fill="black"/>
</g>
<g opacity="0.5">
<path opacity="0.5" d="M228.74 4.5481C229.342 5.34133 229.883 6.0985 230.485 6.80932C230.779 7.17503 231.103 7.49953 231.433 7.83434C231.762 8.16914 232.128 8.45759 232.504 8.79754C232.015 8.70483 231.536 8.5091 231.119 8.23095C230.696 7.9528 230.315 7.61285 229.996 7.23169C229.677 6.84537 229.394 6.42815 229.183 5.98003C228.966 5.52161 228.797 5.04773 228.74 4.5481Z" fill="black"/>
</g>
<g opacity="0.5">
<path opacity="0.5" d="M227.633 7.69019C228.209 8.14346 228.74 8.50402 229.301 8.85943C229.579 9.03456 229.867 9.20453 230.156 9.37966C230.449 9.55479 230.748 9.72477 231.046 9.95141C230.305 10.0184 229.584 9.78143 228.956 9.40027C228.652 9.19423 228.359 8.96244 228.127 8.674C227.901 8.3907 227.7 8.0662 227.633 7.69019Z" fill="black"/>
</g>
</g>
</g>
<defs>
<clipPath id="clip0_401_3875">
<rect width="56.4926" height="59.8653" fill="white" transform="translate(190.925 90.0139) rotate(60)"/>
</clipPath>
<clipPath id="clip1_401_3875">
<rect width="81.9673" height="86.8608" fill="white" transform="translate(45.4812 64) rotate(15)"/>
</clipPath>
<clipPath id="clip2_401_3875">
<rect width="115" height="214" fill="white" transform="translate(75)"/>
</clipPath>
<clipPath id="clip3_401_3875">
<rect width="44" height="29" fill="white" transform="translate(0 32)"/>
</clipPath>
<clipPath id="clip4_401_3875">
<rect width="32" height="21" fill="white" transform="translate(222)"/>
</clipPath>
</defs>
</svg>
