<svg width="40" height="40" viewBox="0 0 40 40" fill="none" xmlns="http://www.w3.org/2000/svg">
<rect width="40" height="40" rx="20" fill="#F0F0F0"/>
<path d="M29 15.75H11C10.59 15.75 10.25 15.41 10.25 15C10.25 14.59 10.59 14.25 11 14.25H29C29.41 14.25 29.75 14.59 29.75 15C29.75 15.41 29.41 15.75 29 15.75Z" fill="black"/>
<path d="M29 20.75H11C10.59 20.75 10.25 20.41 10.25 20C10.25 19.59 10.59 19.25 11 19.25H29C29.41 19.25 29.75 19.59 29.75 20C29.75 20.41 29.41 20.75 29 20.75Z" fill="black"/>
<path d="M29 25.75H11C10.59 25.75 10.25 25.41 10.25 25C10.25 24.59 10.59 24.25 11 24.25H29C29.41 24.25 29.75 24.59 29.75 25C29.75 25.41 29.41 25.75 29 25.75Z" fill="black"/>
</svg>
