<svg width="32" height="32" viewBox="0 0 32 32" fill="none" xmlns="http://www.w3.org/2000/svg">
<path d="M15.8933 30.3334C8 30.3334 1.56 23.9067 1.56 16.0001C1.56 8.09342 8 1.66675 15.8933 1.66675C23.7867 1.66675 30.2267 8.09342 30.2267 16.0001C30.2267 23.9067 23.8 30.3334 15.8933 30.3334ZM15.8933 3.66675C9.09333 3.66675 3.56 9.20008 3.56 16.0001C3.56 22.8001 9.09333 28.3334 15.8933 28.3334C22.6933 28.3334 28.2267 22.8001 28.2267 16.0001C28.2267 9.20008 22.6933 3.66675 15.8933 3.66675Z" fill="#E0E0E5"/>
<path d="M21.2267 17H10.56C10.0133 17 9.56 16.5467 9.56 16C9.56 15.4533 10.0133 15 10.56 15H21.2267C21.7733 15 22.2267 15.4533 22.2267 16C22.2267 16.5467 21.7867 17 21.2267 17Z" fill="#E0E0E5"/>
</svg>
