<svg width="40" height="40" viewBox="0 0 40 40" fill="none" xmlns="http://www.w3.org/2000/svg">
<rect width="40" height="40" rx="20" fill="#F0F0F0"/>
<path d="M18.0699 29.0032C17.7435 28.7119 17.2426 28.6939 16.8941 28.9797C16.5107 29.2942 16.457 29.8573 16.774 30.2374C17.5556 31.2511 18.7648 31.8507 20.0515 31.8627L20.3069 31.8519C21.4931 31.7658 22.5911 31.1809 23.3185 30.2374L23.3958 30.1295C23.623 29.7569 23.5469 29.2656 23.1984 28.9797C22.8151 28.6653 22.2473 28.7186 21.9302 29.0988C21.791 29.2834 21.6258 29.4472 21.4397 29.5853C20.9422 29.9526 20.3174 30.1078 19.7041 30.0165C19.0907 29.9252 18.5395 29.5948 18.1727 29.0988H18.1623L18.0699 29.0032ZM20.041 8.33325C16.4296 8.33325 12.3798 10.8798 11.9205 14.9687V17.1011C11.7637 17.8708 11.4035 18.5853 10.8768 19.1715C10.8456 19.2069 10.8176 19.245 10.7933 19.2853C10.3157 20.0043 10.0417 20.8373 10 21.6973L10.0313 21.9147C9.99533 23.0915 10.3881 24.2418 11.1377 25.1548C12.095 26.1877 13.4036 26.8329 14.8118 26.9663C18.2804 27.3471 21.7808 27.3471 25.2494 26.9663C26.637 26.8238 27.9229 26.1788 28.8609 25.1548C29.6228 24.2549 30.0274 23.1101 29.9986 21.9354V21.7905C29.9412 20.9048 29.6456 20.0505 29.1427 19.3164L29.0592 19.2129C28.5361 18.6242 28.1764 17.9108 28.0154 17.1425V15.0101L27.9577 14.891C27.7822 14.5885 27.4404 14.4117 27.0825 14.4504C26.6798 14.4939 26.3564 14.7996 26.2932 15.1964V17.3289C26.2891 17.3667 26.2891 17.4049 26.2932 17.4427C26.5105 18.5107 27.0073 19.5032 27.7336 20.3205C28.0133 20.7624 28.1716 21.2691 28.1928 21.7905V22.0182C28.216 22.7514 27.9714 23.4682 27.504 24.0368C26.8559 24.7006 25.9893 25.112 25.0615 25.1962C21.7036 25.5585 18.3159 25.5585 14.9579 25.1962C14.0048 25.1094 13.117 24.6784 12.4633 23.985C12.0188 23.4299 11.786 22.7371 11.8057 22.0285V21.7905C11.8271 21.2674 11.9815 20.7582 12.2545 20.3102C13.0111 19.5021 13.5371 18.5088 13.7784 17.4324C13.7825 17.3945 13.7825 17.3564 13.7784 17.3185V15.1757C14.0811 12.0495 17.2229 10.1137 19.9575 10.1137C21.1202 10.1111 22.2637 10.4071 23.2767 10.9729L23.4008 11.0345C23.6559 11.1375 23.9477 11.1194 24.1902 10.9796C24.4732 10.8165 24.6442 10.5136 24.6366 10.1891C24.6289 9.86464 24.4438 9.56999 24.1535 9.42018C22.8982 8.71687 21.4827 8.34276 20.041 8.33325Z" fill="#452933"/>
<path d="M29.5 11.6666C29.5 13.2314 28.2315 14.4999 26.6667 14.4999C25.1019 14.4999 23.8334 13.2314 23.8334 11.6666C23.8334 10.1018 25.1019 8.83325 26.6667 8.83325C28.2315 8.83325 29.5 10.1018 29.5 11.6666Z" fill="#FF7029" stroke="#F0F0F0"/>
</svg>
