<svg width="315" height="40" viewBox="0 0 315 40" fill="none" xmlns="http://www.w3.org/2000/svg">
<path opacity="0.5" d="M5.23469 7.728H1.76269V12H0.994688V0.639999H5.23469C7.39469 0.639999 8.72269 2.048 8.72269 4.16C8.72269 6.16 7.37869 7.728 5.23469 7.728ZM5.20269 1.344H1.76269V7.024H5.10669C6.88269 7.024 7.93869 5.824 7.93869 4.128C7.93869 2.416 6.86669 1.344 5.20269 1.344ZM11.2113 12H10.4753V0.447999H11.2113V12ZM16.8282 12.192C14.6042 12.192 13.1322 10.592 13.1322 8.176C13.1322 5.776 14.5882 4.128 16.7322 4.128C18.7322 4.128 20.1082 5.568 20.1082 7.664V8.176H13.8682C13.9322 10.272 15.0202 11.52 16.8282 11.52C18.1882 11.52 19.0522 10.928 19.3562 9.792H20.1082C19.6602 11.376 18.5562 12.192 16.8282 12.192ZM16.7322 4.8C15.1642 4.8 14.0602 5.888 13.8842 7.568H19.3562C19.3562 5.904 18.3162 4.8 16.7322 4.8ZM24.0561 12.192C22.4081 12.192 21.4641 11.28 21.4641 9.968C21.4641 8.56 22.5521 7.664 24.3441 7.52L26.9841 7.312V7.024C26.9841 5.296 25.9601 4.8 24.7441 4.8C23.3201 4.8 22.4721 5.472 22.4721 6.592H21.7361C21.7361 5.088 22.9521 4.128 24.7601 4.128C26.4081 4.128 27.7201 4.928 27.7201 6.912V12H27.1281L26.9841 10.56C26.4561 11.6 25.3841 12.192 24.0561 12.192ZM24.1521 11.536C25.9601 11.536 26.9841 10.224 26.9841 8.336V7.92L24.4081 8.128C22.8561 8.256 22.2001 9.008 22.2001 9.952C22.2001 11.008 23.0001 11.536 24.1521 11.536ZM29.3639 9.92H30.0839C30.0839 10.912 30.8199 11.52 32.0039 11.52C33.2999 11.52 34.0999 10.944 34.0999 10C34.0999 9.248 33.7319 8.864 32.7399 8.608L31.4439 8.272C30.1319 7.936 29.5079 7.2 29.5079 6.256C29.5079 4.976 30.5639 4.128 32.1479 4.128C33.7319 4.128 34.7239 4.976 34.7719 6.368H34.0519C34.0039 5.376 33.2999 4.8 32.1479 4.8C30.9159 4.8 30.2439 5.312 30.2439 6.256C30.2439 6.912 30.6919 7.376 31.6199 7.616L32.8999 7.952C34.2439 8.304 34.8359 8.928 34.8359 10C34.8359 11.312 33.7159 12.192 32.0359 12.192C30.4039 12.192 29.3639 11.312 29.3639 9.92ZM39.9219 12.192C37.6979 12.192 36.2259 10.592 36.2259 8.176C36.2259 5.776 37.6819 4.128 39.8259 4.128C41.8259 4.128 43.2019 5.568 43.2019 7.664V8.176H36.9619C37.0259 10.272 38.1139 11.52 39.9219 11.52C41.2819 11.52 42.1459 10.928 42.4499 9.792H43.2019C42.7539 11.376 41.6499 12.192 39.9219 12.192ZM39.8259 4.8C38.2579 4.8 37.1539 5.888 36.9779 7.568H42.4499C42.4499 5.904 41.4099 4.8 39.8259 4.8ZM52.6563 12.192C50.4323 12.192 48.9603 10.592 48.9603 8.176C48.9603 5.776 50.4163 4.128 52.5603 4.128C54.5603 4.128 55.9363 5.568 55.9363 7.664V8.176H49.6963C49.7603 10.272 50.8483 11.52 52.6563 11.52C54.0163 11.52 54.8803 10.928 55.1843 9.792H55.9363C55.4883 11.376 54.3843 12.192 52.6563 12.192ZM52.5603 4.8C50.9923 4.8 49.8883 5.888 49.7123 7.568H55.1843C55.1843 5.904 54.1443 4.8 52.5603 4.8ZM58.5223 12H57.7863V4.32H58.3783L58.5383 5.808C59.0503 4.736 60.1063 4.128 61.2583 4.128C63.4343 4.128 64.2503 5.408 64.2503 7.328V12H63.5143V7.472C63.5143 5.44 62.6343 4.8 61.2423 4.8C59.4983 4.8 58.5223 6.096 58.5223 8.032V12ZM67.9752 12H67.2392V4.96H65.6872V4.32H67.2392V1.888H67.9752V4.32H69.5272V4.96H67.9752V12ZM74.1094 12.192C71.8854 12.192 70.4134 10.592 70.4134 8.176C70.4134 5.776 71.8694 4.128 74.0134 4.128C76.0134 4.128 77.3894 5.568 77.3894 7.664V8.176H71.1494C71.2134 10.272 72.3014 11.52 74.1094 11.52C75.4694 11.52 76.3334 10.928 76.6374 9.792H77.3894C76.9414 11.376 75.8374 12.192 74.1094 12.192ZM74.0134 4.8C72.4454 4.8 71.3414 5.888 71.1654 7.568H76.6374C76.6374 5.904 75.5974 4.8 74.0134 4.8ZM82.9034 4.208V4.848H82.3274C80.9034 4.848 79.9754 5.888 79.9754 7.328V12H79.2394V4.32H79.9274L79.9914 5.552C80.2954 4.688 81.1434 4.128 82.2314 4.128C82.4714 4.128 82.6474 4.144 82.9034 4.208ZM88.0949 15.248V14.656H88.8149C89.4389 14.656 90.2069 14.656 90.6069 13.568L90.9909 12.528L87.8709 4.32H88.6389L91.3429 11.52L93.9349 4.32H94.6869L91.2789 13.776C90.8789 14.88 90.1749 15.344 89.1349 15.344C88.7189 15.344 88.4149 15.312 88.0949 15.248ZM95.2572 8.16C95.2572 5.84 96.8732 4.128 99.0652 4.128C101.257 4.128 102.873 5.84 102.873 8.16C102.873 10.48 101.257 12.192 99.0652 12.192C96.8732 12.192 95.2572 10.48 95.2572 8.16ZM96.0092 8.16C96.0092 10.128 97.2732 11.52 99.0652 11.52C100.857 11.52 102.121 10.128 102.121 8.16C102.121 6.192 100.857 4.8 99.0652 4.8C97.2732 4.8 96.0092 6.192 96.0092 8.16ZM110.008 4.32H110.744V12H110.152L110.008 10.576C109.592 11.536 108.504 12.192 107.224 12.192C105.384 12.192 104.44 10.928 104.44 9.056V4.304H105.192V8.864C105.192 10.832 106.12 11.52 107.4 11.52C109.016 11.52 110.008 10.4 110.008 8.416V4.32ZM116.841 4.208V4.848H116.265C114.841 4.848 113.913 5.888 113.913 7.328V12H113.177V4.32H113.865L113.929 5.552C114.233 4.688 115.081 4.128 116.169 4.128C116.409 4.128 116.585 4.144 116.841 4.208ZM126.528 4.208V4.848H125.952C124.528 4.848 123.6 5.888 123.6 7.328V12H122.864V4.32H123.552L123.616 5.552C123.92 4.688 124.768 4.128 125.856 4.128C126.096 4.128 126.272 4.144 126.528 4.208ZM130.875 12.192C128.651 12.192 127.179 10.592 127.179 8.176C127.179 5.776 128.635 4.128 130.779 4.128C132.779 4.128 134.155 5.568 134.155 7.664V8.176H127.915C127.979 10.272 129.067 11.52 130.875 11.52C132.235 11.52 133.099 10.928 133.403 9.792H134.155C133.707 11.376 132.603 12.192 130.875 12.192ZM130.779 4.8C129.211 4.8 128.107 5.888 127.931 7.568H133.403C133.403 5.904 132.363 4.8 130.779 4.8ZM135.429 7.92C135.429 5.888 136.741 4.128 139.013 4.128C140.437 4.128 141.509 4.832 142.021 6.112L142.117 4.32H142.709V11.84C142.709 13.984 141.285 15.424 139.141 15.424C137.285 15.424 135.957 14.384 135.637 12.624H136.357C136.645 13.968 137.685 14.752 139.157 14.752C140.853 14.752 141.989 13.584 141.989 11.84V9.76C141.461 10.992 140.325 11.712 138.933 11.712C136.725 11.712 135.429 9.952 135.429 7.92ZM136.181 7.92C136.181 9.616 137.205 11.04 138.981 11.04C140.805 11.04 141.861 9.712 141.861 7.904C141.861 6.128 140.853 4.8 139.013 4.8C137.189 4.8 136.181 6.24 136.181 7.92ZM145.514 1.968C145.146 1.968 144.842 1.664 144.842 1.312C144.842 0.943999 145.146 0.624 145.514 0.624C145.866 0.624 146.186 0.943999 146.186 1.312C146.186 1.664 145.866 1.968 145.514 1.968ZM145.146 12V4.32H145.882V12H145.146ZM147.63 9.92H148.35C148.35 10.912 149.086 11.52 150.27 11.52C151.566 11.52 152.366 10.944 152.366 10C152.366 9.248 151.998 8.864 151.006 8.608L149.71 8.272C148.398 7.936 147.774 7.2 147.774 6.256C147.774 4.976 148.83 4.128 150.414 4.128C151.998 4.128 152.99 4.976 153.038 6.368H152.318C152.27 5.376 151.566 4.8 150.414 4.8C149.182 4.8 148.51 5.312 148.51 6.256C148.51 6.912 148.958 7.376 149.886 7.616L151.166 7.952C152.51 8.304 153.102 8.928 153.102 10C153.102 11.312 151.982 12.192 150.302 12.192C148.67 12.192 147.63 11.312 147.63 9.92ZM156.46 12H155.724V4.96H154.172V4.32H155.724V1.888H156.46V4.32H158.012V4.96H156.46V12ZM162.594 12.192C160.37 12.192 158.898 10.592 158.898 8.176C158.898 5.776 160.354 4.128 162.498 4.128C164.498 4.128 165.874 5.568 165.874 7.664V8.176H159.634C159.698 10.272 160.786 11.52 162.594 11.52C163.954 11.52 164.818 10.928 165.122 9.792H165.874C165.426 11.376 164.322 12.192 162.594 12.192ZM162.498 4.8C160.93 4.8 159.826 5.888 159.65 7.568H165.122C165.122 5.904 164.082 4.8 162.498 4.8ZM171.388 4.208V4.848H170.812C169.388 4.848 168.46 5.888 168.46 7.328V12H167.724V4.32H168.412L168.476 5.552C168.78 4.688 169.628 4.128 170.716 4.128C170.956 4.128 171.132 4.144 171.388 4.208ZM175.734 12.192C173.51 12.192 172.038 10.592 172.038 8.176C172.038 5.776 173.494 4.128 175.638 4.128C177.638 4.128 179.014 5.568 179.014 7.664V8.176H172.774C172.838 10.272 173.926 11.52 175.734 11.52C177.094 11.52 177.958 10.928 178.262 9.792H179.014C178.566 11.376 177.462 12.192 175.734 12.192ZM175.638 4.8C174.07 4.8 172.966 5.888 172.79 7.568H178.262C178.262 5.904 177.222 4.8 175.638 4.8ZM183.824 12.192C181.568 12.192 180.288 10.432 180.288 8.16C180.288 5.888 181.568 4.128 183.824 4.128C185.184 4.128 186.24 4.736 186.8 5.984V0.447999H187.536V12H186.944L186.832 10.272C186.256 11.584 185.152 12.192 183.824 12.192ZM183.904 11.52C185.744 11.52 186.784 10.112 186.784 8.16C186.784 6.224 185.744 4.8 183.904 4.8C182.08 4.8 181.04 6.224 181.04 8.16C181.04 10.112 182.08 11.52 183.904 11.52ZM197.578 12.192C195.354 12.192 193.882 10.592 193.882 8.176C193.882 5.776 195.338 4.128 197.482 4.128C199.482 4.128 200.858 5.568 200.858 7.664V8.176H194.618C194.682 10.272 195.77 11.52 197.578 11.52C198.938 11.52 199.802 10.928 200.106 9.792H200.858C200.41 11.376 199.306 12.192 197.578 12.192ZM197.482 4.8C195.914 4.8 194.81 5.888 194.634 7.568H200.106C200.106 5.904 199.066 4.8 197.482 4.8ZM203.444 12H202.708V4.32H203.3L203.412 5.504C203.812 4.624 204.692 4.128 205.764 4.128C206.996 4.128 207.94 4.8 208.276 5.856C208.612 4.8 209.54 4.128 210.82 4.128C212.404 4.128 213.54 5.184 213.54 6.976V12H212.836V7.072C212.836 5.664 212.036 4.8 210.756 4.8C209.3 4.8 208.5 5.936 208.5 7.088V12H207.78V7.056C207.78 5.648 206.98 4.8 205.7 4.8C204.244 4.8 203.444 5.92 203.444 7.072V12ZM218.056 12.192C216.408 12.192 215.464 11.28 215.464 9.968C215.464 8.56 216.552 7.664 218.344 7.52L220.984 7.312V7.024C220.984 5.296 219.96 4.8 218.744 4.8C217.32 4.8 216.472 5.472 216.472 6.592H215.736C215.736 5.088 216.952 4.128 218.76 4.128C220.408 4.128 221.72 4.928 221.72 6.912V12H221.128L220.984 10.56C220.456 11.6 219.384 12.192 218.056 12.192ZM218.152 11.536C219.96 11.536 220.984 10.224 220.984 8.336V7.92L218.408 8.128C216.856 8.256 216.2 9.008 216.2 9.952C216.2 11.008 217 11.536 218.152 11.536ZM224.42 1.968C224.052 1.968 223.748 1.664 223.748 1.312C223.748 0.943999 224.052 0.624 224.42 0.624C224.772 0.624 225.092 0.943999 225.092 1.312C225.092 1.664 224.772 1.968 224.42 1.968ZM224.052 12V4.32H224.788V12H224.052ZM228.024 12H227.288V0.447999H228.024V12ZM231.305 12.176C230.825 12.176 230.425 11.776 230.425 11.312C230.425 10.832 230.825 10.432 231.305 10.432C231.785 10.432 232.185 10.832 232.185 11.312C232.185 11.776 231.785 12.176 231.305 12.176ZM241.805 7.136L237.949 0.639999H238.829L241.869 5.888C241.981 6.08 242.077 6.256 242.189 6.496C242.333 6.208 242.285 6.288 242.509 5.888L245.517 0.639999H246.365L242.573 7.136V12H241.805V7.136ZM245.726 8.16C245.726 5.84 247.342 4.128 249.534 4.128C251.726 4.128 253.342 5.84 253.342 8.16C253.342 10.48 251.726 12.192 249.534 12.192C247.342 12.192 245.726 10.48 245.726 8.16ZM246.478 8.16C246.478 10.128 247.742 11.52 249.534 11.52C251.326 11.52 252.59 10.128 252.59 8.16C252.59 6.192 251.326 4.8 249.534 4.8C247.742 4.8 246.478 6.192 246.478 8.16ZM260.477 4.32H261.213V12H260.621L260.477 10.576C260.061 11.536 258.973 12.192 257.693 12.192C255.853 12.192 254.909 10.928 254.909 9.056V4.304H255.661V8.864C255.661 10.832 256.589 11.52 257.869 11.52C259.485 11.52 260.477 10.4 260.477 8.416V4.32ZM269.714 12L267.154 4.32H267.906L269.634 9.536C269.794 10 269.938 10.464 270.098 11.056C270.226 10.48 270.53 9.568 270.546 9.536L272.274 4.32H273.026L274.754 9.536C274.914 10 275.058 10.448 275.218 11.04C275.394 10.384 275.346 10.512 275.666 9.536L277.41 4.32H278.162L275.586 12H274.834L273.01 6.512C272.882 6.144 272.77 5.792 272.658 5.28C272.546 5.728 272.418 6.144 272.29 6.512L270.466 12H269.714ZM279.982 1.968C279.614 1.968 279.31 1.664 279.31 1.312C279.31 0.943999 279.614 0.624 279.982 0.624C280.334 0.624 280.654 0.943999 280.654 1.312C280.654 1.664 280.334 1.968 279.982 1.968ZM279.614 12V4.32H280.35V12H279.614ZM283.586 12H282.85V0.447999H283.586V12ZM286.883 12H286.147V0.447999H286.883V12ZM293.288 7.92C293.288 5.888 294.6 4.128 296.872 4.128C298.296 4.128 299.368 4.832 299.88 6.112L299.976 4.32H300.568V11.84C300.568 13.984 299.144 15.424 297 15.424C295.144 15.424 293.816 14.384 293.496 12.624H294.216C294.504 13.968 295.544 14.752 297.016 14.752C298.712 14.752 299.848 13.584 299.848 11.84V9.76C299.32 10.992 298.184 11.712 296.792 11.712C294.584 11.712 293.288 9.952 293.288 7.92ZM294.04 7.92C294.04 9.616 295.064 11.04 296.84 11.04C298.664 11.04 299.72 9.712 299.72 7.904C299.72 6.128 298.712 4.8 296.872 4.8C295.048 4.8 294.04 6.24 294.04 7.92ZM306.125 12.192C303.901 12.192 302.429 10.592 302.429 8.176C302.429 5.776 303.885 4.128 306.029 4.128C308.029 4.128 309.405 5.568 309.405 7.664V8.176H303.165C303.229 10.272 304.317 11.52 306.125 11.52C307.485 11.52 308.349 10.928 308.653 9.792H309.405C308.957 11.376 307.853 12.192 306.125 12.192ZM306.029 4.8C304.461 4.8 303.357 5.888 303.181 7.568H308.653C308.653 5.904 307.613 4.8 306.029 4.8ZM312.569 12H311.833V4.96H310.281V4.32H311.833V1.888H312.569V4.32H314.121V4.96H312.569V12ZM35.3731 32.784H40.5571V25.408L35.3731 32.784ZM42.6531 33.488H41.3251V36H40.5571V33.488H34.5091V32.784L40.2531 24.64H41.3251V32.784H42.6531V33.488ZM44.7353 32.16V31.488H49.1513V32.16H44.7353ZM54.3713 36.192C52.1153 36.192 50.8353 34.432 50.8353 32.16C50.8353 29.888 52.1153 28.128 54.3713 28.128C55.7313 28.128 56.7873 28.736 57.3473 29.984V24.448H58.0833V36H57.4913L57.3793 34.272C56.8033 35.584 55.6993 36.192 54.3713 36.192ZM54.4513 35.52C56.2913 35.52 57.3313 34.112 57.3313 32.16C57.3313 30.224 56.2913 28.8 54.4513 28.8C52.6273 28.8 51.5873 30.224 51.5873 32.16C51.5873 34.112 52.6273 35.52 54.4513 35.52ZM60.8887 25.968C60.5207 25.968 60.2167 25.664 60.2167 25.312C60.2167 24.944 60.5207 24.624 60.8887 24.624C61.2407 24.624 61.5607 24.944 61.5607 25.312C61.5607 25.664 61.2407 25.968 60.8887 25.968ZM60.5207 36V28.32H61.2567V36H60.5207ZM63.1166 31.92C63.1166 29.888 64.4286 28.128 66.7006 28.128C68.1246 28.128 69.1966 28.832 69.7086 30.112L69.8046 28.32H70.3966V35.84C70.3966 37.984 68.9726 39.424 66.8286 39.424C64.9726 39.424 63.6446 38.384 63.3246 36.624H64.0446C64.3326 37.968 65.3726 38.752 66.8446 38.752C68.5406 38.752 69.6766 37.584 69.6766 35.84V33.76C69.1486 34.992 68.0126 35.712 66.6206 35.712C64.4126 35.712 63.1166 33.952 63.1166 31.92ZM63.8686 31.92C63.8686 33.616 64.8926 35.04 66.6686 35.04C68.4926 35.04 69.5486 33.712 69.5486 31.904C69.5486 30.128 68.5406 28.8 66.7006 28.8C64.8766 28.8 63.8686 30.24 63.8686 31.92ZM73.2012 25.968C72.8332 25.968 72.5292 25.664 72.5292 25.312C72.5292 24.944 72.8332 24.624 73.2012 24.624C73.5532 24.624 73.8732 24.944 73.8732 25.312C73.8732 25.664 73.5532 25.968 73.2012 25.968ZM72.8332 36V28.32H73.5692V36H72.8332ZM77.3971 36H76.6611V28.96H75.1091V28.32H76.6611V25.888H77.3971V28.32H78.9491V28.96H77.3971V36ZM95.2138 30.32C95.2138 33.76 92.9898 36.192 89.8378 36.192C86.6858 36.192 84.4778 33.76 84.4778 30.32C84.4778 26.88 86.7018 24.448 89.8378 24.448C92.9898 24.448 95.2138 26.88 95.2138 30.32ZM94.4298 30.32C94.4298 27.296 92.5418 25.184 89.8378 25.184C87.1498 25.184 85.2618 27.296 85.2618 30.32C85.2618 33.344 87.1498 35.456 89.8378 35.456C92.5418 35.456 94.4298 33.344 94.4298 30.32ZM95.6834 25.344V24.64H103.587V25.344H100.019V36H99.2514V25.344H95.6834ZM109.422 31.728H105.95V36H105.182V24.64H109.422C111.582 24.64 112.91 26.048 112.91 28.16C112.91 30.16 111.566 31.728 109.422 31.728ZM109.39 25.344H105.95V31.024H109.294C111.07 31.024 112.126 29.824 112.126 28.128C112.126 26.416 111.054 25.344 109.39 25.344ZM118.507 32.192C118.507 29.76 119.947 28.128 122.155 28.128C123.803 28.128 125.035 29.104 125.387 30.56H124.635C124.315 29.424 123.291 28.784 122.155 28.784C120.443 28.784 119.227 30.096 119.227 32.176C119.227 34.16 120.347 35.52 122.059 35.52C123.291 35.52 124.315 34.816 124.667 33.776H125.419C125.003 35.232 123.691 36.192 122.059 36.192C119.947 36.192 118.507 34.592 118.507 32.192ZM126.617 32.16C126.617 29.84 128.233 28.128 130.425 28.128C132.617 28.128 134.233 29.84 134.233 32.16C134.233 34.48 132.617 36.192 130.425 36.192C128.233 36.192 126.617 34.48 126.617 32.16ZM127.369 32.16C127.369 34.128 128.633 35.52 130.425 35.52C132.217 35.52 133.481 34.128 133.481 32.16C133.481 30.192 132.217 28.8 130.425 28.8C128.633 28.8 127.369 30.192 127.369 32.16ZM139.043 36.192C136.787 36.192 135.507 34.432 135.507 32.16C135.507 29.888 136.787 28.128 139.043 28.128C140.403 28.128 141.459 28.736 142.019 29.984V24.448H142.755V36H142.163L142.051 34.272C141.475 35.584 140.371 36.192 139.043 36.192ZM139.123 35.52C140.963 35.52 142.003 34.112 142.003 32.16C142.003 30.224 140.963 28.8 139.123 28.8C137.299 28.8 136.259 30.224 136.259 32.16C136.259 34.112 137.299 35.52 139.123 35.52ZM148.313 36.192C146.089 36.192 144.617 34.592 144.617 32.176C144.617 29.776 146.073 28.128 148.217 28.128C150.217 28.128 151.593 29.568 151.593 31.664V32.176H145.353C145.417 34.272 146.505 35.52 148.313 35.52C149.673 35.52 150.537 34.928 150.841 33.792H151.593C151.145 35.376 150.041 36.192 148.313 36.192ZM148.217 28.8C146.649 28.8 145.545 29.888 145.369 31.568H150.841C150.841 29.904 149.801 28.8 148.217 28.8ZM159.319 36H158.583V28.96H157.031V28.32H158.583V25.888H159.319V28.32H160.871V28.96H159.319V36ZM161.757 32.16C161.757 29.84 163.373 28.128 165.565 28.128C167.757 28.128 169.373 29.84 169.373 32.16C169.373 34.48 167.757 36.192 165.565 36.192C163.373 36.192 161.757 34.48 161.757 32.16ZM162.509 32.16C162.509 34.128 163.773 35.52 165.565 35.52C167.357 35.52 168.621 34.128 168.621 32.16C168.621 30.192 167.357 28.8 165.565 28.8C163.773 28.8 162.509 30.192 162.509 32.16ZM179.372 28.208V28.848H178.796C177.372 28.848 176.444 29.888 176.444 31.328V36H175.708V28.32H176.396L176.46 29.552C176.764 28.688 177.612 28.128 178.7 28.128C178.94 28.128 179.116 28.144 179.372 28.208ZM183.719 36.192C181.495 36.192 180.023 34.592 180.023 32.176C180.023 29.776 181.479 28.128 183.623 28.128C185.623 28.128 186.999 29.568 186.999 31.664V32.176H180.759C180.823 34.272 181.911 35.52 183.719 35.52C185.079 35.52 185.943 34.928 186.247 33.792H186.999C186.551 35.376 185.447 36.192 183.719 36.192ZM183.623 28.8C182.055 28.8 180.951 29.888 180.775 31.568H186.247C186.247 29.904 185.207 28.8 183.623 28.8ZM188.161 33.92H188.881C188.881 34.912 189.617 35.52 190.801 35.52C192.097 35.52 192.897 34.944 192.897 34C192.897 33.248 192.529 32.864 191.537 32.608L190.241 32.272C188.929 31.936 188.305 31.2 188.305 30.256C188.305 28.976 189.361 28.128 190.945 28.128C192.529 28.128 193.521 28.976 193.569 30.368H192.849C192.801 29.376 192.097 28.8 190.945 28.8C189.713 28.8 189.041 29.312 189.041 30.256C189.041 30.912 189.489 31.376 190.417 31.616L191.697 31.952C193.041 32.304 193.633 32.928 193.633 34C193.633 35.312 192.513 36.192 190.833 36.192C189.201 36.192 188.161 35.312 188.161 33.92ZM198.719 36.192C196.495 36.192 195.023 34.592 195.023 32.176C195.023 29.776 196.479 28.128 198.623 28.128C200.623 28.128 201.999 29.568 201.999 31.664V32.176H195.759C195.823 34.272 196.911 35.52 198.719 35.52C200.079 35.52 200.943 34.928 201.247 33.792H201.999C201.551 35.376 200.447 36.192 198.719 36.192ZM198.623 28.8C197.055 28.8 195.951 29.888 195.775 31.568H201.247C201.247 29.904 200.207 28.8 198.623 28.8ZM205.163 36H204.427V28.96H202.875V28.32H204.427V25.888H205.163V28.32H206.715V28.96H205.163V36ZM212.739 39.248V28.32H213.331L213.443 30.048C214.019 28.736 215.123 28.128 216.451 28.128C218.707 28.128 219.987 29.888 219.987 32.16C219.987 34.432 218.707 36.192 216.451 36.192C215.091 36.192 214.035 35.584 213.475 34.336V39.248H212.739ZM213.491 32.16C213.491 34.096 214.531 35.52 216.371 35.52C218.195 35.52 219.235 34.096 219.235 32.16C219.235 30.208 218.195 28.8 216.371 28.8C214.531 28.8 213.491 30.208 213.491 32.16ZM224.025 36.192C222.377 36.192 221.433 35.28 221.433 33.968C221.433 32.56 222.521 31.664 224.313 31.52L226.953 31.312V31.024C226.953 29.296 225.929 28.8 224.713 28.8C223.289 28.8 222.441 29.472 222.441 30.592H221.705C221.705 29.088 222.921 28.128 224.729 28.128C226.377 28.128 227.689 28.928 227.689 30.912V36H227.097L226.953 34.56C226.425 35.6 225.353 36.192 224.025 36.192ZM224.121 35.536C225.929 35.536 226.953 34.224 226.953 32.336V31.92L224.377 32.128C222.825 32.256 222.169 33.008 222.169 33.952C222.169 35.008 222.969 35.536 224.121 35.536ZM229.333 33.92H230.053C230.053 34.912 230.789 35.52 231.973 35.52C233.269 35.52 234.069 34.944 234.069 34C234.069 33.248 233.701 32.864 232.709 32.608L231.413 32.272C230.101 31.936 229.477 31.2 229.477 30.256C229.477 28.976 230.533 28.128 232.117 28.128C233.701 28.128 234.693 28.976 234.741 30.368H234.021C233.973 29.376 233.269 28.8 232.117 28.8C230.885 28.8 230.213 29.312 230.213 30.256C230.213 30.912 230.661 31.376 231.589 31.616L232.869 31.952C234.213 32.304 234.805 32.928 234.805 34C234.805 35.312 233.685 36.192 232.005 36.192C230.373 36.192 229.333 35.312 229.333 33.92ZM236.083 33.92H236.803C236.803 34.912 237.539 35.52 238.723 35.52C240.019 35.52 240.819 34.944 240.819 34C240.819 33.248 240.451 32.864 239.459 32.608L238.163 32.272C236.851 31.936 236.227 31.2 236.227 30.256C236.227 28.976 237.283 28.128 238.867 28.128C240.451 28.128 241.443 28.976 241.491 30.368H240.771C240.723 29.376 240.019 28.8 238.867 28.8C237.635 28.8 236.963 29.312 236.963 30.256C236.963 30.912 237.411 31.376 238.339 31.616L239.619 31.952C240.963 32.304 241.555 32.928 241.555 34C241.555 35.312 240.435 36.192 238.755 36.192C237.123 36.192 236.083 35.312 236.083 33.92ZM244.948 36L242.388 28.32H243.14L244.868 33.536C245.028 34 245.172 34.464 245.332 35.056C245.46 34.48 245.764 33.568 245.78 33.536L247.508 28.32H248.26L249.988 33.536C250.148 34 250.292 34.448 250.452 35.04C250.628 34.384 250.58 34.512 250.9 33.536L252.644 28.32H253.396L250.82 36H250.068L248.244 30.512C248.116 30.144 248.004 29.792 247.892 29.28C247.78 29.728 247.652 30.144 247.524 30.512L245.7 36H244.948ZM253.96 32.16C253.96 29.84 255.576 28.128 257.768 28.128C259.96 28.128 261.576 29.84 261.576 32.16C261.576 34.48 259.96 36.192 257.768 36.192C255.576 36.192 253.96 34.48 253.96 32.16ZM254.712 32.16C254.712 34.128 255.976 35.52 257.768 35.52C259.56 35.52 260.824 34.128 260.824 32.16C260.824 30.192 259.56 28.8 257.768 28.8C255.976 28.8 254.712 30.192 254.712 32.16ZM267.091 28.208V28.848H266.515C265.091 28.848 264.163 29.888 264.163 31.328V36H263.427V28.32H264.115L264.179 29.552C264.483 28.688 265.331 28.128 266.419 28.128C266.659 28.128 266.835 28.144 267.091 28.208ZM271.278 36.192C269.022 36.192 267.742 34.432 267.742 32.16C267.742 29.888 269.022 28.128 271.278 28.128C272.638 28.128 273.694 28.736 274.254 29.984V24.448H274.99V36H274.398L274.286 34.272C273.71 35.584 272.606 36.192 271.278 36.192ZM271.358 35.52C273.198 35.52 274.238 34.112 274.238 32.16C274.238 30.224 273.198 28.8 271.358 28.8C269.534 28.8 268.494 30.224 268.494 32.16C268.494 34.112 269.534 35.52 271.358 35.52ZM278.211 36.176C277.731 36.176 277.331 35.776 277.331 35.312C277.331 34.832 277.731 34.432 278.211 34.432C278.691 34.432 279.091 34.832 279.091 35.312C279.091 35.776 278.691 36.176 278.211 36.176Z" fill="#222222"/>
</svg>
