<svg width="227" height="24" viewBox="0 0 227 24" fill="none" xmlns="http://www.w3.org/2000/svg">
<path d="M3.17616 0.456V15.168H10.5202V18H0.104156V0.456H3.17616ZM11.6558 12.048C11.6558 8.352 14.3198 5.808 17.9918 5.808C21.6638 5.808 24.3278 8.352 24.3278 12.048C24.3278 15.744 21.6638 18.288 17.9918 18.288C14.3198 18.288 11.6558 15.744 11.6558 12.048ZM14.5838 12.048C14.5838 14.208 15.9758 15.672 17.9918 15.672C20.0078 15.672 21.3998 14.208 21.3998 12.048C21.3998 9.888 20.0078 8.424 17.9918 8.424C15.9758 8.424 14.5838 9.888 14.5838 12.048ZM25.7367 14.4H28.5207C28.5447 15.432 29.3127 16.08 30.6567 16.08C32.0247 16.08 32.7687 15.528 32.7687 14.664C32.7687 14.064 32.4567 13.632 31.4007 13.392L29.2647 12.888C27.1287 12.408 26.0967 11.4 26.0967 9.504C26.0967 7.176 28.0647 5.784 30.8007 5.784C33.4647 5.784 35.2647 7.32 35.2887 9.624H32.5047C32.4807 8.616 31.8087 7.968 30.6807 7.968C29.5287 7.968 28.8567 8.496 28.8567 9.384C28.8567 10.056 29.3847 10.488 30.3927 10.728L32.5287 11.232C34.5207 11.688 35.5287 12.6 35.5287 14.424C35.5287 16.824 33.4887 18.312 30.5607 18.312C27.6087 18.312 25.7367 16.728 25.7367 14.4ZM41.7901 18H38.8621V8.592H36.5821V6.144H38.8621V2.448H41.7901V6.144H44.0941V8.592H41.7901V18ZM51.3511 23.496V21.048H53.1031C54.2551 21.048 54.9751 20.784 55.4791 19.392L55.8151 18.504L51.0391 6.144H54.1351L57.1831 14.784L60.3991 6.144H63.4231L57.6151 20.64C56.7271 22.848 55.4791 23.76 53.5351 23.76C52.7191 23.76 51.9991 23.664 51.3511 23.496ZM63.8512 12.048C63.8512 8.352 66.5152 5.808 70.1872 5.808C73.8592 5.808 76.5232 8.352 76.5232 12.048C76.5232 15.744 73.8592 18.288 70.1872 18.288C66.5152 18.288 63.8512 15.744 63.8512 12.048ZM66.7792 12.048C66.7792 14.208 68.1712 15.672 70.1872 15.672C72.2032 15.672 73.5952 14.208 73.5952 12.048C73.5952 9.888 72.2032 8.424 70.1872 8.424C68.1712 8.424 66.7792 9.888 66.7792 12.048ZM86.6028 6.144H89.5308V18H86.8188L86.6028 16.416C85.8828 17.544 84.3468 18.312 82.7628 18.312C80.0268 18.312 78.4188 16.464 78.4188 13.56V6.144H81.3468V12.528C81.3468 14.784 82.2348 15.696 83.8668 15.696C85.7148 15.696 86.6028 14.616 86.6028 12.36V6.144ZM99.995 6.096V8.808H98.915C96.803 8.808 95.483 9.936 95.483 12.24V18H92.555V6.168H95.315L95.483 7.896C95.987 6.72 97.115 5.928 98.699 5.928C99.107 5.928 99.515 5.976 99.995 6.096ZM108.446 23.496V6.144H111.158L111.35 7.944C112.07 6.576 113.63 5.784 115.43 5.784C118.766 5.784 120.974 8.208 120.974 11.928C120.974 15.624 118.958 18.312 115.43 18.312C113.654 18.312 112.118 17.616 111.374 16.416V23.496H108.446ZM111.398 12.072C111.398 14.208 112.718 15.672 114.734 15.672C116.798 15.672 118.022 14.184 118.022 12.072C118.022 9.96 116.798 8.448 114.734 8.448C112.718 8.448 111.398 9.936 111.398 12.072ZM126.833 18.312C124.313 18.312 122.777 16.848 122.777 14.616C122.777 12.432 124.361 11.064 127.169 10.848L130.721 10.584V10.32C130.721 8.712 129.761 8.064 128.273 8.064C126.545 8.064 125.585 8.784 125.585 10.032H123.089C123.089 7.464 125.201 5.784 128.417 5.784C131.609 5.784 133.577 7.512 133.577 10.8V18H131.009L130.793 16.248C130.289 17.472 128.681 18.312 126.833 18.312ZM127.793 16.104C129.593 16.104 130.745 15.024 130.745 13.2V12.576L128.273 12.768C126.449 12.936 125.753 13.536 125.753 14.496C125.753 15.576 126.473 16.104 127.793 16.104ZM135.541 14.4H138.325C138.349 15.432 139.117 16.08 140.461 16.08C141.829 16.08 142.573 15.528 142.573 14.664C142.573 14.064 142.261 13.632 141.205 13.392L139.069 12.888C136.933 12.408 135.901 11.4 135.901 9.504C135.901 7.176 137.869 5.784 140.605 5.784C143.269 5.784 145.069 7.32 145.093 9.624H142.309C142.285 8.616 141.613 7.968 140.485 7.968C139.333 7.968 138.661 8.496 138.661 9.384C138.661 10.056 139.189 10.488 140.197 10.728L142.333 11.232C144.325 11.688 145.333 12.6 145.333 14.424C145.333 16.824 143.293 18.312 140.365 18.312C137.413 18.312 135.541 16.728 135.541 14.4ZM146.651 14.4H149.435C149.459 15.432 150.227 16.08 151.571 16.08C152.939 16.08 153.683 15.528 153.683 14.664C153.683 14.064 153.371 13.632 152.315 13.392L150.179 12.888C148.043 12.408 147.011 11.4 147.011 9.504C147.011 7.176 148.979 5.784 151.715 5.784C154.379 5.784 156.179 7.32 156.203 9.624H153.419C153.395 8.616 152.723 7.968 151.595 7.968C150.443 7.968 149.771 8.496 149.771 9.384C149.771 10.056 150.299 10.488 151.307 10.728L153.443 11.232C155.435 11.688 156.443 12.6 156.443 14.424C156.443 16.824 154.403 18.312 151.475 18.312C148.523 18.312 146.651 16.728 146.651 14.4ZM160.96 18L157.12 6.144H160.168L161.728 11.232C161.992 12.168 162.232 13.2 162.448 14.304C162.664 13.152 162.88 12.408 163.264 11.232L164.896 6.144H167.872L169.456 11.232C169.6 11.712 170.08 13.488 170.224 14.28C170.416 13.392 170.8 11.976 171.016 11.232L172.6 6.144H175.696L171.592 18H168.856L167.224 12.864C166.744 11.304 166.48 10.176 166.384 9.576C166.264 10.128 166.048 10.968 165.448 12.912L163.816 18H160.96ZM176.187 12.048C176.187 8.352 178.851 5.808 182.523 5.808C186.195 5.808 188.859 8.352 188.859 12.048C188.859 15.744 186.195 18.288 182.523 18.288C178.851 18.288 176.187 15.744 176.187 12.048ZM179.115 12.048C179.115 14.208 180.507 15.672 182.523 15.672C184.539 15.672 185.931 14.208 185.931 12.048C185.931 9.888 184.539 8.424 182.523 8.424C180.507 8.424 179.115 9.888 179.115 12.048ZM198.62 6.096V8.808H197.54C195.428 8.808 194.108 9.936 194.108 12.24V18H191.18V6.168H193.94L194.108 7.896C194.612 6.72 195.74 5.928 197.324 5.928C197.732 5.928 198.14 5.976 198.62 6.096ZM205.075 18.312C201.643 18.312 199.507 15.792 199.507 12.12C199.507 8.424 201.667 5.784 205.243 5.784C206.899 5.784 208.363 6.48 209.107 7.656V0.144H212.011V18H209.323L209.131 16.152C208.411 17.52 206.875 18.312 205.075 18.312ZM205.723 15.624C207.763 15.624 209.083 14.16 209.083 12.024C209.083 9.888 207.763 8.4 205.723 8.4C203.683 8.4 202.435 9.912 202.435 12.024C202.435 14.136 203.683 15.624 205.723 15.624ZM220.919 13.512H218.255V12.96C218.255 10.776 219.599 9.648 220.871 8.664C221.951 7.8 222.935 6.984 222.935 5.592C222.935 3.96 221.927 2.88 220.247 2.88C218.543 2.88 217.367 4.152 217.367 6H214.319C214.319 2.568 216.839 0.144 220.319 0.144C223.895 0.144 226.055 2.208 226.055 5.4C226.055 7.968 224.399 9.192 223.007 10.176C221.831 11.016 220.919 11.736 220.919 12.96V13.512ZM219.695 18.312C218.615 18.312 217.751 17.448 217.751 16.416C217.751 15.36 218.615 14.496 219.695 14.496C220.751 14.496 221.639 15.36 221.639 16.416C221.639 17.424 220.751 18.312 219.695 18.312Z" fill="#141111"/>
</svg>
