<svg width="254" height="174" viewBox="0 0 254 174" fill="none" xmlns="http://www.w3.org/2000/svg">
<g clip-path="url(#clip0_424_4449)">
<path d="M158.391 170.644C158.391 170.644 158.236 170.294 157.964 169.644C154.943 162.503 137.418 119.219 153.286 112.74C155.965 111.646 158.149 111.661 159.882 112.569L159.888 112.571C169.348 117.515 165.638 148.863 158.391 170.644Z" fill="#96C258"/>
<g opacity="0.43">
<path opacity="0.43" d="M154.443 112.325C155.444 117.101 156.216 121.923 156.832 126.764C156.983 127.974 157.14 129.185 157.273 130.401L157.662 134.042C157.886 136.473 158.104 138.907 158.271 141.342C158.45 143.777 158.556 146.217 158.68 148.66L158.787 152.324L158.836 154.155L158.843 155.988C158.918 160.876 158.713 165.768 158.394 170.642C158.314 168.2 158.367 165.761 158.258 163.323L158.169 159.669L158.035 156.016C157.847 151.147 157.594 146.283 157.242 141.425C156.917 136.563 156.501 131.713 156.034 126.862C155.551 122.016 155.048 117.169 154.443 112.325Z" fill="#467238"/>
</g>
<g style="mix-blend-mode:multiply" opacity="0.24">
<path d="M161.407 118.318C162.984 118.704 164.108 126.594 161.53 126.473C158.953 126.36 158.567 117.625 161.407 118.318Z" fill="#2D480B"/>
</g>
<path d="M162.097 169.89C160.896 170.342 160.214 170.588 160.214 170.588C172.939 147.588 198.052 119.333 205.749 132.938C206.027 133.42 206.28 133.962 206.51 134.56C212.396 149.861 171.463 166.346 162.097 169.89Z" fill="#96C258"/>
<g style="mix-blend-mode:multiply" opacity="0.24">
<path d="M202.879 140.793C204.15 142.197 199.288 148.916 196.758 147.694C194.228 146.472 201.69 139.481 202.879 140.793Z" fill="#2D480B"/>
</g>
<g style="mix-blend-mode:multiply" opacity="0.24">
<path d="M192.618 147.482C193.659 148.152 190.142 151.37 188.636 150.427C187.132 149.487 191.581 146.809 192.618 147.482Z" fill="#2D480B"/>
</g>
<g opacity="0.43">
<path opacity="0.43" d="M206.022 133.448C202.029 136.332 198.102 139.292 194.191 142.273C190.289 145.261 186.414 148.288 182.601 151.385C178.766 154.461 174.997 157.613 171.27 160.817L168.477 163.224L165.717 165.666C163.843 167.26 162.076 168.973 160.214 170.588C163.601 167.019 167.075 163.518 170.738 160.22L172.097 158.97L173.487 157.75L176.267 155.313C178.157 153.731 180.033 152.133 181.955 150.592C183.871 149.042 185.818 147.529 187.77 146.026L190.73 143.811C191.719 143.075 192.719 142.358 193.718 141.638C197.715 138.755 201.806 136.005 206.022 133.448Z" fill="#467238"/>
</g>
<path d="M159.998 170.688C159.917 170.777 159.908 170.258 159.971 169.258C160.577 159.931 167.709 108.474 183.596 111.236C183.865 111.28 184.136 111.343 184.412 111.42C202.608 116.619 180.1 149.407 159.998 170.688Z" fill="#96C258"/>
<g opacity="0.43">
<path opacity="0.43" d="M185.903 111.945C184.425 117.09 182.657 122.154 180.754 127.161C178.852 132.171 176.796 137.127 174.627 142.03C172.424 146.918 170.162 151.786 167.709 156.557C166.516 158.961 165.229 161.313 163.968 163.681C163.334 164.862 162.658 166.022 162.002 167.195C161.344 168.364 160.677 169.527 160.001 170.686C162.343 165.861 164.704 161.055 166.983 156.211L168.698 152.58L170.375 148.934C170.941 147.724 171.493 146.505 172.041 145.285C172.588 144.065 173.148 142.85 173.683 141.624L175.304 137.955L176.89 134.272C177.431 133.047 177.941 131.814 178.46 130.581L180.006 126.879L180.773 125.025L181.523 123.164C182.035 121.927 182.521 120.683 183.016 119.438C184.018 116.954 184.967 114.454 185.903 111.945Z" fill="#467238"/>
</g>
<g style="mix-blend-mode:multiply" opacity="0.24">
<path d="M188.326 118.763C190.375 119.24 188.406 128.388 186.133 128.382C183.861 128.376 186.743 118.397 188.326 118.763Z" fill="#2D480B"/>
</g>
<g style="mix-blend-mode:multiply" opacity="0.24">
<path d="M184.834 130.446C186.28 130.879 184.576 137.718 182.44 137.105C180.306 136.495 182.887 129.863 184.834 130.446Z" fill="#78A144"/>
</g>
</g>
<g clip-path="url(#clip1_424_4449)">
<path d="M103.975 167.723C103.975 167.723 103.457 167.523 102.511 167.136C92.0852 162.908 29.6966 136.481 39.3297 113.554C40.9553 109.682 43.2113 107.457 45.9223 106.61L45.9289 106.607C60.7071 101.973 89.0635 137.941 103.975 167.723Z" fill="#96C258"/>
<g opacity="0.43">
<path opacity="0.43" d="M40.0918 111.94C46.0177 115.813 51.7576 119.969 57.3562 124.304C58.7526 125.389 60.1555 126.471 61.5398 127.581L65.6746 130.918C68.3985 133.182 71.1197 135.457 73.7883 137.784C76.4713 140.098 79.0832 142.493 81.716 144.872L85.5856 148.521L87.514 150.35L89.4027 152.223C94.4934 157.161 99.3027 162.391 103.976 167.717C101.388 165.295 98.9403 162.738 96.327 160.348L92.4871 156.69L88.6012 153.081C83.4138 148.278 78.1632 143.547 72.8176 138.924C67.4972 134.269 62.0935 129.72 56.6373 125.223C51.1703 120.745 45.6811 116.29 40.0918 111.94Z" fill="#467238"/>
</g>
<g style="mix-blend-mode:multiply" opacity="0.08">
<path d="M53.3843 110.944C55.3991 109.722 64.6466 116.664 61.8772 119.184C59.1166 121.713 49.7602 113.147 53.3843 110.944Z" fill="#2D480B"/>
</g>
<path d="M107.003 163.148C106.236 164.843 105.788 165.796 105.788 165.796C95.2463 129.143 92.0223 74.3893 113.877 80.451C114.657 80.6598 115.473 80.9564 116.323 81.3341C138.06 90.9939 112.976 149.902 107.003 163.148Z" fill="#96C258"/>
<g opacity="0.18">
<path opacity="0.18" d="M118.992 91.4543C121.736 91.5895 123.642 103.473 119.792 104.815C115.942 106.157 116.426 91.3282 118.992 91.4543Z" fill="#66C281"/>
<path opacity="0.18" d="M115.327 108.843C117.083 108.463 116.776 115.373 114.263 115.951C111.756 116.53 113.572 109.218 115.327 108.843Z" fill="#66C281"/>
</g>
<g opacity="0.43">
<path opacity="0.43" d="M114.68 80.6941C113.543 87.7488 112.551 94.8146 111.597 101.885C110.659 108.954 109.789 116.036 109.054 123.126C108.276 130.216 107.643 137.317 107.106 144.427L106.71 149.762L106.384 155.1C106.096 158.658 106.04 162.229 105.788 165.796C105.601 158.659 105.573 151.503 105.947 144.361L106.06 141.684L106.233 139.007L106.585 133.654C106.902 130.092 107.186 126.528 107.578 122.975C107.954 119.418 108.399 115.869 108.86 112.324L109.623 107.015C109.883 105.244 110.174 103.482 110.459 101.719C111.603 94.6606 112.978 87.6419 114.68 80.6941Z" fill="#93C356"/>
</g>
<path d="M105.668 166.12C105.676 166.294 105.135 165.771 104.174 164.68C95.2258 154.489 49.7493 94.3788 68.8838 80.9127C69.204 80.6817 69.5471 80.4679 69.9093 80.2648C93.9111 66.9301 104.459 123.662 105.668 166.12Z" fill="#96C258"/>
<g opacity="0.43">
<path opacity="0.43" d="M71.9775 79.2737C75.7409 86.0684 79.1224 93.0777 82.3066 100.168C85.4958 107.259 88.4704 114.454 91.2751 121.708C94.0303 128.983 96.7036 136.298 99.0812 143.711C100.324 147.401 101.417 151.135 102.552 154.857C103.114 156.72 103.61 158.603 104.14 160.48C104.665 162.355 105.174 164.231 105.67 166.114C103.122 158.762 100.613 151.408 97.9822 144.1L96.0168 138.615L93.9955 133.154C93.3351 131.332 92.6514 129.514 91.9612 127.701C91.271 125.887 90.599 124.067 89.8906 122.26L87.7888 116.833L85.6376 111.427C84.9358 109.615 84.1948 107.827 83.4618 106.03L81.2496 100.646L80.1344 97.9568L78.9945 95.278C78.2499 93.4831 77.4726 91.7074 76.7032 89.9226C75.1826 86.3468 73.5917 82.8078 71.9775 79.2737Z" fill="#467238"/>
</g>
<g opacity="0.18">
<g style="mix-blend-mode:multiply" opacity="0.24">
<path d="M81.4594 83.782C84.0513 82.1697 91.4156 93.5757 89.0778 95.9008C86.74 98.226 79.4595 85.0304 81.4594 83.782Z" fill="#2D480B"/>
</g>
<g style="mix-blend-mode:multiply" opacity="0.24">
<path d="M89.8624 99.3517C91.7899 98.3118 97.0587 107.077 94.2383 108.64C91.4231 110.203 87.2669 100.752 89.8624 99.3517Z" fill="#2D480B"/>
</g>
</g>
</g>
<path d="M114.405 161.497C106.711 161.366 81.5765 161.717 80.2913 148.339C77.3572 117.723 93.5749 71.6794 93.5749 71.6794H135.015C135.015 71.6794 145.788 117.723 146.87 140.241C147.75 158.453 139.856 161.929 114.405 161.497Z" fill="#A28230"/>
<path d="M99.3542 69.093C99.3542 69.093 93.038 84.9262 88.5269 120.885" stroke="#EDB31C" stroke-width="1.8391" stroke-miterlimit="10"/>
<path d="M93.9384 126.787C93.9384 126.787 94.839 150.625 93.0083 153.834C91.1777 157.043 77.7461 150.625 76.6807 146.807C75.6111 142.988 76.3763 131.13 78.8157 123.764L93.9384 126.787Z" fill="#9F906A"/>
<path d="M96.3652 130.148C96.3652 130.148 96.1961 121.702 94.7545 120.885C93.3128 120.064 81.8048 116.3 80.0799 117.723C78.3549 119.145 76.0001 126.177 76.0001 126.177C76.0001 126.177 86.5991 131.067 96.3652 130.148Z" fill="#D5AB41"/>
<path d="M160.382 81.5393C165.367 81.5393 169.408 76.5565 169.408 70.4053C169.408 64.2583 165.367 59.2712 160.382 59.2712H95.2364V81.5393H160.382V81.5393Z" fill="#F26E24"/>
<path d="M95.2406 81.5393C90.2555 81.5393 86.2143 76.5544 86.2143 70.4053C86.2143 64.2561 90.2555 59.2712 95.2406 59.2712C100.226 59.2712 104.267 64.2561 104.267 70.4053C104.267 76.5544 100.226 81.5393 95.2406 81.5393Z" fill="#B8A67A"/>
<path d="M95.2406 78.6055C95.8071 78.5378 96.3567 78.3473 96.8852 78.1102C97.3968 77.8435 97.8957 77.5429 98.3438 77.1704C99.2528 76.438 100.005 75.5066 100.555 74.4482C101.096 73.3899 101.4 72.2045 101.489 71.0064C101.574 69.7999 101.362 68.6103 101.071 67.4545C100.737 66.2988 100.187 65.1642 99.3458 64.2244C98.5129 63.2846 97.3756 62.5691 96.12 62.2728C94.8686 61.9679 93.5326 62.0865 92.3404 62.5395C91.1439 62.9882 90.087 63.7926 89.3133 64.8001C88.5438 65.7992 88.0323 67.01 87.8547 68.2631C87.6771 69.5162 87.8082 70.799 88.2394 71.9801C88.6664 73.1528 89.3682 74.2577 90.4167 75.0452C90.9283 75.4473 91.5371 75.7479 92.222 75.8792C92.3996 75.9003 92.5771 75.9427 92.7505 75.9342L93.2747 75.9003C93.6087 75.8241 93.9511 75.7522 94.2429 75.5955C94.5557 75.4727 94.8178 75.2738 95.0884 75.096C95.3336 74.8885 95.5873 74.6895 95.786 74.444C96.0101 74.2196 96.1792 73.9529 96.3652 73.6989C96.4498 73.5677 96.5216 73.4237 96.5935 73.2883C96.6696 73.1528 96.7372 73.0089 96.788 72.8607C97.0459 72.2892 97.1473 71.6541 97.1727 71.0276C97.1769 70.3926 97.0374 69.7618 96.7711 69.1945C96.4667 68.6399 96.1158 68.1446 95.6296 67.7551C95.1645 67.3614 94.5134 67.0608 93.8581 67.1921C93.2071 67.3106 92.7336 67.7932 92.4503 68.3055C92.167 68.8219 92.0867 69.4654 92.3023 69.9989C92.1628 69.4443 92.3319 68.8643 92.6532 68.4282C92.9661 67.9964 93.4269 67.645 93.9216 67.6196C94.412 67.59 94.8686 67.8398 95.2279 68.2039C95.3125 68.3012 95.414 68.3817 95.4901 68.4917L95.7184 68.8177C95.8029 68.9193 95.8452 69.0463 95.9086 69.1564C95.9636 69.2749 96.0354 69.3808 96.0735 69.5035C96.2426 69.9819 96.3229 70.4857 96.2806 70.9937C96.2172 71.4933 96.1031 71.9971 95.8579 72.4458C95.8071 72.5643 95.7479 72.6744 95.6718 72.7803C95.6 72.8861 95.5408 72.9962 95.4689 73.102C95.3083 73.2967 95.1645 73.5084 94.9743 73.6735C94.8052 73.8598 94.598 73.9995 94.4035 74.1519C94.1921 74.2704 93.9892 74.4144 93.7651 74.4821C93.3297 74.6557 92.8731 74.7192 92.4714 74.6049C92.37 74.5964 92.2643 74.5541 92.1543 74.5075C92.0486 74.4609 91.9387 74.4355 91.8373 74.372C91.6343 74.2493 91.4272 74.1434 91.2454 73.9741C90.4844 73.3687 89.9348 72.4627 89.6219 71.4975C89.3048 70.5323 89.1949 69.4951 89.3513 68.496C89.5035 67.4969 89.9136 66.5528 90.5393 65.7527C91.1397 64.9526 91.9514 64.3218 92.8815 63.9619C93.8074 63.5978 94.8263 63.5132 95.7902 63.7121C96.7542 63.9069 97.6462 64.4191 98.3396 65.1515C99.0329 65.8882 99.5529 66.811 99.9081 67.8186C100.229 68.8431 100.462 69.9057 100.466 70.981C100.47 72.0521 100.272 73.1274 99.8573 74.1307C99.4557 75.1383 98.83 76.0654 98.0521 76.8529C97.2784 77.6318 96.3398 78.2965 95.2406 78.6055Z" fill="#F26E24"/>
<g style="mix-blend-mode:multiply">
<path d="M149.906 77.4542C154.023 74.2113 166.576 78.7623 177.437 89.0962C188.298 99.4302 185.609 109.375 178.003 111.864C170.398 114.353 156.378 104.485 150.075 96.5048C143.771 88.5247 145.039 81.2897 149.906 77.4542Z" fill="#B28473"/>
</g>
<path d="M177.441 41.0082C180.185 50.7918 187.664 89.5154 186.924 100.776C186.184 112.037 170.237 117.689 165.396 103.185C160.551 88.6814 166.119 50.3388 168.038 38.7645C170.042 26.6652 174.701 31.2247 177.441 41.0082Z" fill="#FFCFAA"/>
<path d="M163.498 82.6232C163.709 77.4202 164.086 72.2257 164.61 67.0482C165.113 61.8664 165.739 56.7016 166.449 51.5452C166.808 48.967 167.189 46.3931 167.578 43.8234L168.186 39.9709C168.394 38.6839 168.609 37.4139 168.935 36.1735C169.26 34.9415 169.662 33.6927 170.364 32.7147C170.715 32.2448 171.171 31.8469 171.666 31.868C171.789 31.8511 171.915 31.8977 172.038 31.9146C172.161 31.9696 172.287 31.9993 172.41 32.0797L172.592 32.1855L172.765 32.321C172.884 32.4014 172.989 32.5157 173.099 32.6173C173.953 33.4852 174.587 34.6198 175.137 35.7671C175.678 36.927 176.135 38.1336 176.536 39.357C177.335 41.8082 177.906 44.3483 178.498 46.8757C179.077 49.4115 179.627 51.9516 180.147 54.5002C181.2 59.5973 182.159 64.7113 183.094 69.8296C184.011 74.9521 184.865 80.0873 185.584 85.2395C185.952 87.8134 186.286 90.3958 186.539 92.9867C186.662 94.2822 186.793 95.5776 186.844 96.8773L186.899 97.851L186.928 98.3378V98.8247L186.92 100.776L186.987 98.8247L187.004 98.3378L186.992 97.851L186.966 96.873C186.945 95.5691 186.844 94.2695 186.751 92.9698C186.552 90.3704 186.277 87.7795 185.964 85.1929C185.317 80.0238 184.535 74.8717 183.685 69.728C182.844 64.5843 181.863 59.4661 180.844 54.3562C180.333 51.8035 179.796 49.2507 179.225 46.7064C178.638 44.1663 178.084 41.6177 177.276 39.1115C176.862 37.8626 176.393 36.6307 175.826 35.4368C175.247 34.2515 174.6 33.0703 173.619 32.0797C173.492 31.9612 173.37 31.8342 173.222 31.7326L173.006 31.5717L172.765 31.432C172.613 31.3304 172.423 31.2753 172.245 31.2076C172.051 31.1737 171.86 31.1145 171.653 31.1314C171.45 31.1229 171.256 31.1822 171.057 31.233C170.884 31.3177 170.685 31.3854 170.546 31.5082L170.317 31.6775L170.123 31.8723C169.988 31.9993 169.886 32.1432 169.776 32.2829C168.969 33.4344 168.58 34.7256 168.246 35.9999C167.92 37.2784 167.705 38.5823 167.502 39.8651L166.91 43.7302C166.525 46.3084 166.178 48.8908 165.853 51.4733C165.214 56.6466 164.652 61.8283 164.225 67.0186C163.836 72.2088 163.536 77.416 163.498 82.6232Z" fill="#5F3732"/>
<path d="M158.746 77.3271C164.99 84.0287 165.455 116.745 162.953 132.019C160.454 147.294 159.811 167.479 159.811 167.479C159.811 167.479 137.654 182.499 99.1893 165.32C99.1893 165.32 101.438 133.645 98.5636 115.119C95.6887 96.5894 97.6885 79.9392 109.814 73.3053C121.947 66.6715 149.842 67.7679 158.746 77.3271Z" fill="#FFAC30"/>
<g opacity="0.3">
<path opacity="0.3" d="M164.322 114.815C164.31 115.378 164.297 115.941 164.28 116.495C160.281 117.672 155.427 118.824 149.872 119.624C145.466 120.259 140.342 120.703 134.643 120.703C124.239 120.703 111.906 119.218 98.5044 114.696C98.4156 114.116 98.3353 113.536 98.255 112.96C126.64 122.752 150.785 118.824 164.322 114.815Z" fill="white"/>
<path opacity="0.3" d="M163.866 124.154C163.819 124.734 163.773 125.305 163.718 125.864C159.828 126.982 155.169 128.065 149.872 128.827C145.466 129.462 140.347 129.907 134.643 129.907C124.505 129.907 112.541 128.489 99.5403 124.234C99.5022 123.671 99.4599 123.117 99.4134 122.566C126.978 131.744 150.434 128.061 163.866 124.154Z" fill="white"/>
<path opacity="0.3" d="M162.69 133.687C162.602 134.259 162.521 134.839 162.437 135.423C158.818 136.414 154.598 137.349 149.872 138.031C145.466 138.666 140.342 139.11 134.643 139.11C124.615 139.11 112.794 137.718 99.9545 133.569C99.9418 133.023 99.9291 132.472 99.9122 131.926C126.475 140.639 149.178 137.434 162.69 133.687Z" fill="white"/>
<path opacity="0.3" d="M134.643 148.31C124.632 148.31 112.832 146.921 100.018 142.789C100.022 142.252 100.026 141.71 100.026 141.164C125.765 149.58 147.872 146.811 161.49 143.213C161.43 143.784 161.371 144.352 161.316 144.919C157.955 145.795 154.121 146.612 149.872 147.226C145.466 147.861 140.342 148.31 134.643 148.31Z" fill="white"/>
<path opacity="0.3" d="M99.5317 159.406C124.598 167.729 146.257 165.413 160.056 161.984C160.027 162.589 159.997 163.148 159.972 163.665C156.945 164.41 153.563 165.1 149.872 165.629C145.466 166.264 140.347 166.708 134.643 166.708C124.484 166.708 112.486 165.282 99.4472 161.006C99.4767 160.511 99.5063 159.977 99.5317 159.406Z" fill="white"/>
<path opacity="0.3" d="M160.006 79.1815C160.247 79.6345 160.475 80.1298 160.695 80.6717C157.486 81.4887 153.859 82.2423 149.872 82.818C145.466 83.4531 140.342 83.8976 134.643 83.8976C125.427 83.8976 114.693 82.7207 103.049 79.3127C103.375 78.8597 103.713 78.4194 104.072 77.9961C127.177 84.6173 147.048 82.3947 160.006 79.1815Z" fill="white"/>
<path opacity="0.3" d="M162.61 87.7035C162.707 88.22 162.8 88.7491 162.889 89.291C159.173 90.324 154.797 91.3146 149.872 92.0216C145.466 92.6566 140.347 93.1011 134.643 93.1011C124.421 93.1011 112.338 91.6618 99.2062 87.3224C99.3584 86.8229 99.5148 86.3276 99.6839 85.845C126.293 94.6337 149.047 91.4543 162.61 87.7035Z" fill="white"/>
<path opacity="0.3" d="M164.297 105.62C164.314 106.17 164.322 106.725 164.335 107.279C160.327 108.46 155.452 109.62 149.872 110.425C145.466 111.06 140.342 111.504 134.643 111.504C123.981 111.504 111.293 109.934 97.5066 105.145C97.4771 104.587 97.4559 104.032 97.439 103.482C126.158 113.621 150.629 109.667 164.297 105.62Z" fill="white"/>
<path opacity="0.3" d="M134.643 157.509C124.586 157.509 112.722 156.108 99.832 151.93C99.8489 151.4 99.8658 150.863 99.8785 150.317C125.161 158.619 146.942 156.125 160.644 152.632C160.602 153.208 160.56 153.771 160.522 154.326C157.355 155.126 153.787 155.867 149.868 156.43C145.466 157.065 140.342 157.509 134.643 157.509Z" fill="white"/>
<path opacity="0.3" d="M163.781 96.5725C163.828 97.1101 163.874 97.652 163.916 98.1981C159.989 99.3369 155.262 100.446 149.872 101.221C145.466 101.856 140.342 102.3 134.643 102.3C124.01 102.3 111.365 100.738 97.625 95.984C97.6715 95.4506 97.7222 94.9214 97.7857 94.3965C125.993 104.26 150.07 100.548 163.781 96.5725Z" fill="white"/>
</g>
<path d="M98.7242 153.746C99.2823 153.746 99.8531 153.61 100.377 153.326C101.367 152.793 124.649 139.881 127.219 108.807C129.469 81.5649 116.396 70.8542 115.758 70.4097C113.458 68.8136 107.911 72.6873 109.42 73.8938C109.89 74.2791 122.171 84.9262 120.248 108.232C118.003 135.41 100.682 144.995 98.72 146.049C96.7583 147.099 97.4052 154.101 98.7242 153.746Z" fill="#D5AB41"/>
<path d="M147.821 71.3494C148.363 72.7761 148.502 74.3975 147.931 75.7777C147.864 75.9512 147.8 76.1248 147.699 76.2814C147.602 76.4381 147.525 76.6074 147.42 76.7556C147.191 77.0435 146.98 77.344 146.693 77.5811C146.168 78.0976 145.526 78.4871 144.866 78.8258C143.551 79.4735 142.025 79.6386 140.528 79.6598C139.023 79.6682 137.51 79.5285 136.017 79.2533C133.037 78.7242 130.107 77.7759 127.439 76.3407C126.112 75.6168 124.86 74.7405 123.791 73.6694C123.262 73.1275 122.789 72.5348 122.396 71.8829C122.028 71.2182 121.74 70.507 121.571 69.7534C121.656 70.5197 121.88 71.2732 122.214 71.9802C122.565 72.6788 123.004 73.3265 123.507 73.9276C124.543 75.1003 125.795 76.074 127.135 76.8657C129.824 78.4532 132.817 79.4608 135.878 80.0196C137.413 80.2863 138.973 80.4303 140.537 80.3964C141.319 80.3625 142.105 80.3075 142.883 80.1466C143.657 79.9942 144.439 79.7614 145.141 79.3634C145.83 78.9739 146.511 78.5379 147.048 77.941C147.344 77.6658 147.559 77.3271 147.788 76.9969C147.897 76.8276 147.974 76.6413 148.067 76.4635C148.164 76.2899 148.227 76.0994 148.286 75.9047C148.777 74.3764 148.523 72.7126 147.821 71.3494Z" fill="#CB7F0F"/>
<path d="M158.97 163.889C156.619 164.892 154.188 165.676 151.728 166.344C149.271 167.013 146.781 167.559 144.27 167.974C141.759 168.381 139.235 168.694 136.698 168.868C134.161 169.058 131.621 169.109 129.08 169.037C127.807 169.028 126.543 168.935 125.27 168.868C124.006 168.749 122.738 168.664 121.478 168.491C118.95 168.22 116.447 167.746 113.953 167.246C112.714 166.958 111.467 166.704 110.241 166.357L108.397 165.862L106.571 165.299C105.341 164.956 104.149 164.503 102.939 164.101C102.331 163.906 101.747 163.652 101.147 163.428L99.3542 162.75C100.521 163.267 101.68 163.817 102.868 164.291C104.06 164.748 105.239 165.256 106.453 165.659L108.271 166.277L110.11 166.827C111.331 167.212 112.583 167.504 113.822 167.826C116.316 168.415 118.84 168.897 121.385 169.219C122.653 169.41 123.934 169.494 125.211 169.625C126.492 169.697 127.773 169.799 129.054 169.816C134.187 169.947 139.332 169.528 144.371 168.563C149.403 167.572 154.379 166.154 158.97 163.889Z" fill="#80C6A7"/>
<path d="M159.46 75.5108C157.313 72.6786 148.519 70.981 148.379 71.5187C148.062 72.7337 149.58 72.8565 151.745 74.8928C169.425 91.5515 161.549 130.3 163.443 130.673C163.671 130.715 174.283 95.0441 159.46 75.5108Z" fill="#D5AB41"/>
<path d="M123.588 69.0931V19.6418H160.665C160.665 19.6418 160.665 40.8981 160.665 50.2541C160.665 59.6101 155 65.2829 146.244 65.2829C146.244 65.2829 146.244 66.426 146.244 72.5603C146.244 79.1052 136.859 78.0723 129.223 74.9014C124.877 73.0852 123.732 72.8482 123.588 69.0931Z" fill="#FFCFAA"/>
<path d="M123.512 39.8525C123.512 39.8525 130.674 38.8153 132.851 28.1088C132.851 28.1088 158.898 33.0959 163.155 26.86C167.413 20.6241 164.504 17.1949 156.412 15.5312C148.316 13.8674 123.6 13.2493 118.887 19.6377C114.173 26.026 112.887 36.3768 115.31 44.1452C117.597 51.4734 123.516 50.2033 123.516 50.2033V39.8525H123.512Z" fill="#CD543D"/>
<path opacity="0.5" d="M146.244 65.2788C146.244 65.2788 140.093 65.4354 136.897 63.9622C136.897 63.9622 139.091 66.9637 146.244 66.9552V65.2788Z" fill="#B28473"/>
<path d="M114.54 29.743C114.54 29.743 137.467 21.6063 162.289 22.9694C162.289 22.9694 158.302 10.1801 156.763 6.64092C155.224 3.10173 143.331 2.64875 135.476 3.19487C127.617 3.74099 119.411 6.84412 117.813 10.1801C115.039 15.9546 114.54 29.743 114.54 29.743Z" fill="#F15231"/>
<path opacity="0.3" d="M130.492 9.08774C131.248 6.14124 141.023 3.24131 141.598 3C141.619 3 141.64 3 141.661 3C142.338 3.19474 152.945 6.61962 153.757 8.71096C154.412 10.4001 155.216 18.5411 155.216 22.8254C145.707 22.9439 136.804 24.2563 129.76 25.7084C129.765 25.7084 129.891 11.4331 130.492 9.08774Z" fill="#F3D07F"/>
<path d="M124.197 26.9657C124.197 26.9657 130.944 14.079 136.195 11.7167C141.45 9.35863 163.823 9.81161 168.897 11.7167C173.97 13.6217 164.889 23.3206 164.889 23.3206C164.889 23.3206 145.082 21.441 124.197 26.9657Z" fill="#CF391A"/>
<path d="M149.517 37.4563C149.402 38.7856 149.462 40.1234 149.673 41.4527C149.906 42.7693 150.235 44.1283 151.153 45.2798C151.385 45.5592 151.681 45.809 152.024 45.991C152.125 46.0418 152.159 46.0714 152.205 46.1011C152.252 46.1265 152.299 46.1561 152.32 46.1942C152.349 46.2281 152.387 46.2577 152.396 46.3043C152.408 46.3424 152.442 46.3805 152.434 46.4313C152.463 46.6133 152.387 46.8673 152.21 47.0705C152.036 47.2737 151.812 47.4642 151.546 47.5955C151.022 47.8707 150.392 47.9892 149.758 47.9977C149.115 48.0273 148.472 47.8834 147.821 47.7648C148.417 48.0485 149.052 48.3025 149.736 48.3829C150.413 48.4676 151.136 48.4337 151.808 48.1501C152.146 48.0188 152.463 47.8029 152.73 47.515C152.992 47.2314 153.199 46.825 153.165 46.3508C153.169 46.2323 153.123 46.118 153.076 46.0037C153.038 45.8852 152.962 45.7963 152.882 45.7031C152.81 45.6015 152.717 45.538 152.624 45.4787C152.531 45.4152 152.425 45.3517 152.383 45.3263C152.146 45.1951 151.931 45.0088 151.745 44.7802C151.36 44.3357 151.077 43.7642 150.844 43.1757C150.603 42.5873 150.43 41.965 150.265 41.3342C149.948 40.0641 149.724 38.7687 149.517 37.4563Z" fill="#5F3732"/>
<path d="M152.214 38.4511C152.214 39.4714 152.742 40.2969 153.393 40.2969C154.045 40.2969 154.573 39.4714 154.573 38.4511C154.573 37.4308 154.045 36.6011 153.393 36.6011C152.742 36.6053 152.214 37.4308 152.214 38.4511Z" fill="#4C2843"/>
<path d="M139.97 38.4511C139.97 39.4714 140.499 40.2969 141.15 40.2969C141.801 40.2969 142.329 39.4714 142.329 38.4511C142.329 37.4308 141.801 36.6011 141.15 36.6011C140.499 36.6011 139.97 37.4308 139.97 38.4511Z" fill="#4C2843"/>
<path d="M155.841 35.742C155.672 35.2509 155.33 34.8826 154.937 34.6117C154.543 34.328 154.078 34.1502 153.596 34.0782C153.114 34.0105 152.616 34.0274 152.159 34.1883C151.698 34.3238 151.275 34.5905 150.954 34.98L150.941 34.9969C150.929 35.0138 150.929 35.035 150.946 35.0477C150.954 35.0562 150.967 35.0562 150.979 35.0562C151.389 34.9419 151.8 34.8403 152.218 34.8064C152.637 34.7598 153.059 34.7852 153.474 34.8487C153.892 34.9038 154.298 35.0223 154.687 35.1832C155.076 35.3483 155.452 35.5515 155.786 35.8013C155.803 35.814 155.824 35.8097 155.837 35.7928C155.846 35.7843 155.846 35.7716 155.841 35.7589V35.742Z" fill="#5F3732"/>
<path d="M138.634 35.8009C138.968 35.5469 139.345 35.3437 139.734 35.1829C140.123 35.022 140.533 34.9035 140.947 34.8484C141.361 34.7849 141.784 34.7595 142.203 34.8061C142.625 34.8399 143.035 34.9416 143.441 35.0559C143.462 35.0601 143.479 35.0516 143.488 35.0305C143.492 35.0178 143.488 35.0051 143.479 34.9966L143.467 34.9797C143.145 34.5902 142.727 34.3235 142.262 34.188C141.801 34.0271 141.302 34.006 140.824 34.0779C140.342 34.1499 139.877 34.3277 139.484 34.6113C139.091 34.8865 138.744 35.2506 138.579 35.7417L138.575 35.7586C138.567 35.7798 138.579 35.8009 138.596 35.8052C138.613 35.8094 138.626 35.8052 138.634 35.8009Z" fill="#5F3732"/>
<path d="M151.956 54.6398C151.292 55.1182 150.569 55.3934 149.825 55.5415C149.085 55.6813 148.324 55.6982 147.601 55.55C146.874 55.4188 146.185 55.114 145.576 54.6822C144.963 54.2419 144.443 53.6661 143.944 53.0142C144.147 53.8016 144.57 54.5594 145.187 55.1478C145.8 55.7448 146.608 56.1469 147.453 56.312C148.303 56.4687 149.183 56.4094 149.986 56.1258C150.785 55.8464 151.529 55.3426 151.956 54.6398Z" fill="#5F3732"/>
<path d="M142.795 53.01C142.955 53.2047 143.167 53.2936 143.382 53.3402C143.598 53.3825 143.826 53.3656 144.042 53.2936C144.469 53.1539 144.849 52.7602 144.824 52.2649C144.574 52.3157 144.41 52.3792 144.24 52.4173L143.792 52.557C143.501 52.6628 143.209 52.7687 142.795 53.01Z" fill="#5F3732"/>
<path d="M123.732 36.6054V49.0772C123.732 49.0772 119.216 49.1873 117.314 45.0808C114.824 39.7043 118.882 34.205 123.732 36.6054Z" fill="#B28473"/>
<path d="M123.034 38.4512C122.497 38.121 121.854 37.9643 121.186 38.0024C121.022 38.0278 120.852 38.0405 120.688 38.0871C120.527 38.1464 120.354 38.1845 120.201 38.2691C120.053 38.358 119.888 38.4385 119.762 38.5528C119.635 38.6713 119.491 38.7856 119.381 38.9169C118.925 39.4672 118.764 40.1403 118.684 40.7754C118.679 41.0971 118.671 41.4146 118.705 41.7279C118.76 42.0412 118.815 42.346 118.903 42.6466C118.988 42.3375 119.034 42.0369 119.085 41.7406C119.144 41.4485 119.229 41.1648 119.28 40.8812C119.326 40.7457 119.377 40.6145 119.419 40.479C119.461 40.3435 119.5 40.2081 119.571 40.0938C119.635 39.9752 119.681 39.8482 119.749 39.7297L119.977 39.4122C120.299 39.01 120.747 38.7475 121.279 38.5951C121.821 38.4681 122.412 38.43 123.034 38.4512Z" fill="#5F3732"/>
<path d="M170.491 48.8399L156.928 44.3186C156.928 44.3186 154.341 39.1156 156.928 33.6502L170.491 29.8655V48.8399Z" fill="#3B5000"/>
<path d="M172.203 49.0644C167.736 49.0644 164.115 44.7182 164.115 39.357C164.115 33.9958 167.736 29.6497 172.203 29.6497C176.67 29.6497 180.291 33.9958 180.291 39.357C180.291 44.7182 176.67 49.0644 172.203 49.0644Z" fill="#64653D"/>
<path opacity="0.6" d="M172.203 47.5997C168.411 47.5997 165.337 43.9093 165.337 39.3571C165.337 34.8048 168.411 31.1145 172.203 31.1145C175.995 31.1145 179.069 34.8048 179.069 39.3571C179.069 43.9093 175.995 47.5997 172.203 47.5997Z" fill="white"/>
<g opacity="0.3">
<path opacity="0.3" d="M170.097 31.5122L177.932 43.9036C177.416 44.835 176.748 45.6309 175.97 46.2447L167.696 33.1506C168.389 32.4224 169.201 31.8594 170.097 31.5122Z" fill="white"/>
<path opacity="0.3" d="M166.757 34.3486L174.752 47.0025C173.962 47.3793 173.103 47.5952 172.203 47.5952C171.594 47.5952 171.011 47.4893 170.448 47.3115L165.341 39.2298C165.362 37.3967 165.887 35.7076 166.757 34.3486Z" fill="white"/>
<path opacity="0.3" d="M178.561 42.4685L171.421 31.1694C171.679 31.1355 171.941 31.1101 172.203 31.1101C172.752 31.1101 173.289 31.1948 173.801 31.3429L179.06 39.666C179.026 40.6524 178.857 41.6007 178.561 42.4685Z" fill="white"/>
</g>
<path d="M125.359 70.6213C130.91 70.833 132.098 73.4832 132.31 82.2803C132.407 86.4037 134.001 88.2622 136.411 88.2622C136.423 88.2622 136.436 88.2622 136.449 88.2622C138.66 88.2368 140.385 87.4663 140.545 80.9425L141.708 45.3051C141.708 44.8395 143.031 45.0596 143.031 45.5295L143.458 80.9468C143.458 91.4331 139.81 92.3221 137.214 92.3221C137.197 92.3221 137.176 92.3221 137.159 92.3221C132.504 92.3221 130.348 88.8761 130.221 83.7028C130.039 76.1884 128.403 72.1369 125.355 71.6289C125.359 70.6213 125.359 70.6213 125.359 70.6213Z" fill="#3B5000"/>
<path d="M150.878 48.8399L137.315 44.3186C137.315 44.3186 134.728 39.1156 137.315 33.6502L150.878 29.8655V48.8399Z" fill="#3B5000"/>
<path d="M152.59 49.0644C148.124 49.0644 144.503 44.7182 144.503 39.357C144.503 33.9958 148.124 29.6497 152.59 29.6497C157.057 29.6497 160.678 33.9958 160.678 39.357C160.678 44.7182 157.057 49.0644 152.59 49.0644Z" fill="#64653D"/>
<path opacity="0.6" d="M152.59 47.5997C148.798 47.5997 145.724 43.9093 145.724 39.3571C145.724 34.8048 148.798 31.1145 152.59 31.1145C156.382 31.1145 159.456 34.8048 159.456 39.3571C159.456 43.9093 156.382 47.5997 152.59 47.5997Z" fill="white"/>
<g opacity="0.3">
<path opacity="0.3" d="M150.485 31.5122L158.315 43.9036C157.799 44.835 157.131 45.6309 156.353 46.2447L148.079 33.1506C148.773 32.4224 149.589 31.8594 150.485 31.5122Z" fill="white"/>
<path opacity="0.3" d="M147.141 34.3486L155.135 47.0025C154.345 47.3793 153.487 47.5952 152.586 47.5952C151.977 47.5952 151.394 47.4893 150.832 47.3115L145.724 39.2298C145.75 37.3967 146.274 35.7076 147.141 34.3486Z" fill="white"/>
<path opacity="0.3" d="M158.949 42.4685L151.808 31.1694C152.066 31.1355 152.328 31.1101 152.59 31.1101C153.14 31.1101 153.677 31.1948 154.188 31.3429L159.443 39.666C159.414 40.6524 159.245 41.6007 158.949 42.4685Z" fill="white"/>
</g>
<g style="mix-blend-mode:multiply" opacity="0.25">
<path d="M109.818 73.3053C113.361 71.3664 118.244 70.0921 123.609 69.4909C123.6 69.3597 123.592 69.2327 123.584 69.093L127.376 49.1322C132.885 46.4481 133.519 39.5984 139.92 39.8609C139.92 39.8609 142.118 97.5292 134.026 112.262C125.122 128.467 108.989 122.503 103.032 100.781C103.282 88.8041 101.168 78.0383 109.818 73.3053Z" fill="#B28473"/>
</g>
<path d="M108.004 73.0385C112.511 70.3629 121.449 82.695 128.2 96.0897C134.952 109.484 129.075 117.939 121.072 117.719C113.073 117.498 103.193 103.477 99.9419 93.8375C96.6907 84.1979 103.049 75.9807 108.004 73.0385Z" fill="#FFCFAA"/>
<path d="M142.406 32.0415C142.406 32.0415 139.074 39.467 139.074 49.6273C139.074 59.7877 135.823 99.0955 132.073 109.738C128.323 120.381 113.255 122.079 111.34 106.906C109.374 91.3313 120.493 49.9068 128.196 40.1317C135.789 30.4963 138.076 31.47 142.406 32.0415Z" fill="#FFCFAA"/>
<path d="M139.433 43.3535C139.239 44.7336 139.095 46.1222 139.015 47.5193C138.973 48.2178 138.943 48.9163 138.93 49.6148L138.85 51.7019C138.719 54.4833 138.546 57.2647 138.322 60.0419C137.899 65.5962 137.438 71.1505 136.867 76.6964C136.351 82.2465 135.734 87.7838 135.032 93.3085L134.474 97.4489C134.259 98.8247 134.064 100.205 133.827 101.577C133.578 102.944 133.384 104.328 133.071 105.683C132.918 106.36 132.8 107.05 132.618 107.719L132.073 109.739C133.887 104.451 134.758 98.8967 135.624 93.389C136.449 87.8685 137.066 82.3184 137.641 76.7683C138.148 71.2098 138.622 65.6512 138.918 60.0757C139.07 57.2901 139.176 54.5003 139.231 51.7062L139.222 49.6106C139.209 48.9163 139.209 48.2178 139.222 47.5235C139.247 46.1349 139.319 44.7421 139.433 43.3535Z" fill="#5F3732"/>
<path d="M111.911 92.377C112.443 89.3924 112.997 86.4163 113.636 83.4529C114.257 80.4894 114.929 77.5387 115.673 74.6049C117.17 68.7416 118.81 62.9121 120.819 57.2096C121.821 54.3604 122.861 51.5198 124.049 48.7426C124.636 47.354 125.266 45.9824 125.938 44.6361C126.619 43.2941 127.329 41.9648 128.175 40.7371C129.025 39.5094 129.938 38.2944 130.889 37.1302C131.849 35.9745 132.863 34.8568 134.005 33.8916C135.142 32.9391 136.436 32.1135 137.916 31.8638C139.391 31.5971 140.909 31.9019 142.41 32.0458C140.926 31.8087 139.425 31.4277 137.882 31.6352C136.343 31.8299 134.935 32.6173 133.743 33.5698C132.546 34.5308 131.485 35.64 130.483 36.7831C129.486 37.9388 128.543 39.1199 127.642 40.3646C126.763 41.6304 126.031 42.9724 125.33 44.3271C124.636 45.6861 123.994 47.0662 123.389 48.459C122.184 51.2531 121.081 54.0853 120.104 56.9598C119.119 59.8343 118.223 62.7343 117.39 65.6553C116.557 68.5764 115.788 71.5102 115.12 74.4737C114.443 77.4329 113.822 80.4005 113.285 83.3894C112.756 86.374 112.279 89.367 111.911 92.377Z" fill="#5F3732"/>
<path d="M139.26 51.2489C139.26 51.2489 131.667 53.4969 124.37 46.825C124.37 46.825 121.677 48.3067 122.425 51.7951C122.425 51.7951 129.109 58.6829 139.45 56.2402C139.455 56.2402 140.626 53.5011 139.26 51.2489Z" fill="#3B5000"/>
<path d="M125.968 55.5417C127.477 56.0243 129.291 54.5553 130.022 52.265C130.754 49.9747 130.12 47.7267 128.61 47.2441L127.976 46.9858L125.122 55.1988L125.968 55.5417Z" fill="#D3D3D3"/>
<path d="M125.338 55.2846C123.83 54.803 123.199 52.5545 123.929 50.2624C124.659 47.9703 126.473 46.5026 127.981 46.9842C129.49 47.4658 130.12 49.7143 129.391 52.0064C128.661 54.2985 126.846 55.7662 125.338 55.2846Z" fill="white"/>
<path d="M124.539 50.4574C123.973 52.2312 124.463 53.9754 125.63 54.3479C126.797 54.7205 128.205 53.5859 128.771 51.8079C129.338 50.0298 128.847 48.2898 127.68 47.9173C126.513 47.5447 125.106 48.6835 124.539 50.4574Z" fill="#FDD673"/>
<path d="M127.038 52.6926C127 52.1507 126.915 51.6215 126.801 51.0966C126.784 51.0161 126.704 50.9653 126.623 50.9823C126.585 50.9907 126.556 51.0119 126.534 51.0373L126.53 51.0415C126.006 51.7401 125.507 52.4597 125.118 53.2599C125.752 52.6375 126.277 51.939 126.771 51.2193L126.505 51.1685C126.653 51.685 126.822 52.193 127.038 52.6926Z" fill="#4C2843"/>
<path d="M146.244 70.6213C151.795 70.833 152.983 73.4832 153.195 82.2803C153.292 86.4037 154.886 88.2622 157.296 88.2622C157.308 88.2622 157.321 88.2622 157.334 88.2622C159.545 88.2368 161.27 87.4663 161.43 80.9425L162.593 45.3051C162.593 44.8395 163.916 45.0596 163.916 45.5295L164.343 80.9425C164.343 91.4289 160.695 92.3179 158.099 92.3179C158.082 92.3179 158.061 92.3179 158.044 92.3179C153.389 92.3179 151.233 88.8718 151.106 83.6985C150.924 76.1841 149.288 72.1327 146.24 71.6247C146.244 70.6213 146.244 70.6213 146.244 70.6213Z" fill="#3B5000"/>
<g clip-path="url(#clip2_424_4449)">
<path d="M13.954 50.2165C13.954 50.2165 5.81947 54.9467 3.33451 55.2027C0.849559 55.4588 2.04602 52.9194 3.33451 51.8596C3.33451 51.8596 0.438939 51.9734 0.0283196 50.7357C-0.3823 49.5052 4.39646 48.6231 4.39646 48.6231C4.39646 48.6231 1.81947 47.7909 2.5062 46.226C3.19292 44.6541 12.6655 47.4708 12.6655 47.4708L13.954 50.2165Z" fill="#79E0B2"/>
<g opacity="0.5">
<g opacity="0.5">
<path opacity="0.5" d="M12.4459 49.0928C11.0441 49.043 9.69194 48.794 8.3468 48.4953C7.00875 48.1752 5.67778 47.8124 4.39636 47.2505C5.79813 47.3003 7.15034 47.5492 8.49548 47.848C9.83353 48.1681 11.1645 48.5308 12.4459 49.0928Z" fill="#082116"/>
</g>
<g opacity="0.5">
<path opacity="0.5" d="M1.26013 50.7359C3.13624 50.3091 4.99111 50.0886 6.84597 49.9179C8.70084 49.7685 10.5557 49.6618 12.446 49.7614C10.6053 50.1882 8.72916 50.4087 6.86013 50.5794C4.98403 50.7359 3.10792 50.8355 1.26013 50.7359Z" fill="#082116"/>
</g>
<g opacity="0.5">
<path opacity="0.5" d="M3.37695 54.0078C4.84952 53.1756 6.39288 52.5354 7.9504 51.9379C9.51501 51.3617 11.1008 50.8282 12.7575 50.4868C11.2849 51.319 9.74156 51.9663 8.18403 52.5567C6.61943 53.1329 5.03359 53.6664 3.37695 54.0078Z" fill="#082116"/>
</g>
</g>
<path d="M31.3274 46.8237C31.3274 46.8237 39.6035 49.9606 43.3274 47.7484C43.3274 47.7484 45.1681 50.5652 42.7752 52.1799C42.7752 52.1799 44.0637 55.8289 40.1982 56.8461C40.1982 56.8461 39.4619 60.6302 35.2354 59.5704C35.2354 59.5704 31.2849 63.5395 25.7699 58.2331L31.3274 46.8237Z" fill="#79E0B2"/>
<g opacity="0.5">
<g opacity="0.5">
<path opacity="0.5" d="M42.7681 52.1797C42.2654 52.6136 41.607 52.8199 40.977 52.9479C40.3327 53.076 39.6814 53.0902 39.0371 53.0546C38.3929 53.0048 37.7557 52.891 37.1398 52.7132C36.5239 52.5283 35.9292 52.2935 35.3699 51.9521C36.0212 51.9308 36.6442 51.9805 37.2672 52.0303C37.8831 52.0659 38.492 52.137 39.1008 52.1655C39.7097 52.2224 40.3115 52.2437 40.9203 52.258C41.5221 52.2651 42.1309 52.2722 42.7681 52.1797Z" fill="black"/>
</g>
<g opacity="0.5">
<path opacity="0.5" d="M40.1982 56.8459C39.7309 57.2371 39.1221 57.4078 38.5345 57.479C37.9327 57.5572 37.3309 57.4932 36.7504 57.3794C36.1699 57.2585 35.6106 57.0451 35.0867 56.7819C34.5628 56.5116 34.0814 56.1773 33.6566 55.7505C33.954 55.7861 34.2371 55.8643 34.5133 55.9283C34.7894 55.9923 35.0655 56.0564 35.3345 56.1346C35.8796 56.2555 36.4035 56.4191 36.9345 56.5116C37.4655 56.6325 37.9894 56.725 38.5274 56.789C39.0655 56.8459 39.6106 56.8886 40.1982 56.8459Z" fill="black"/>
</g>
<g opacity="0.5">
<path opacity="0.5" d="M35.2354 59.5701C34.931 59.7408 34.5982 59.755 34.2797 59.7195C33.9611 59.6839 33.6637 59.563 33.3805 59.4207C32.8496 59.0935 32.3965 58.6027 32.2761 57.9341C32.6089 58.0266 32.8637 58.1475 33.1186 58.2684C33.3664 58.3893 33.6 58.5174 33.8266 58.6525C34.2797 58.9157 34.6974 59.1789 35.2354 59.5701Z" fill="black"/>
</g>
</g>
<path d="M26.5912 40.3436C30.5558 40.2653 36.3327 48.2249 32.269 54.5697C28.2053 60.9146 16.3965 62.2732 12.0708 48.5876C12.0708 48.5876 17.5717 48.4596 19.7381 46.1692C21.9044 43.8717 22.0814 40.4289 26.5912 40.3436Z" fill="#FFD470"/>
<path opacity="0.3" d="M14.0885 53.1401C18.5416 56.6611 22.3646 54.8402 27.1009 50.2451C29.4867 47.9334 32.6726 48.0827 33.6283 49.0572C33.777 50.8782 33.4159 52.7845 32.2761 54.5627C28.7363 60.0896 19.3204 61.8323 14.0885 53.1401Z" fill="white"/>
<path d="M30.9594 43.9144L33.9894 43.3596L31.5045 45.2517C31.5116 45.2517 30.9735 45.0027 30.9594 43.9144Z" fill="#C44961"/>
<path d="M28.4318 43.8219C28.1911 43.4876 27.9787 43.1818 27.7593 42.947C27.5327 42.7123 27.3274 42.5771 27.1079 42.5629C26.8672 42.5274 26.6619 42.5558 26.4354 42.7265C26.2088 42.9043 25.9893 43.196 25.7628 43.5445C25.6354 43.1462 25.6566 42.6981 25.9044 42.2855C26.0177 42.0792 26.2301 41.8943 26.4708 41.7876C26.7185 41.688 26.9734 41.6524 27.2354 41.688C27.7734 41.7591 28.184 42.1788 28.3398 42.5843C28.5168 42.9897 28.5451 43.4165 28.4318 43.8219Z" fill="#754368"/>
<path d="M22.3646 42.3282C22.3646 42.3282 19.2425 41.8801 17.3522 38.2809C15.4691 34.6816 14.9664 32 14.9664 32C14.9664 32 12.7292 31.9075 12.0779 35.2293C12.0779 35.2293 8.94871 34.5394 9.26729 38.2737C9.26729 38.2737 6.41419 39.3549 7.75225 42.6127C7.75225 42.6127 6.51331 47.4638 12.0779 48.8011C16.9204 49.9747 22.1806 47.4852 22.3646 42.3282Z" fill="#79E0B2"/>
<g opacity="0.5">
<g opacity="0.5">
<path opacity="0.5" d="M12.0708 35.2292C12.6159 36.6376 13.2106 37.9322 13.9965 39.1201C14.3717 39.7176 14.8035 40.2795 15.2779 40.8201C15.7381 41.3749 16.2761 41.8515 16.8071 42.4063C16.092 42.1716 15.3912 41.816 14.8035 41.3252C14.1947 40.8557 13.685 40.2582 13.2531 39.6109C12.8354 38.9565 12.5027 38.2523 12.2974 37.5125C12.092 36.7728 11.9858 35.9975 12.0708 35.2292Z" fill="black"/>
</g>
<g opacity="0.5">
<path opacity="0.5" d="M9.26721 38.2808C10.0955 39.3762 10.8389 40.4218 11.6672 41.4034C12.0708 41.9084 12.5168 42.3566 12.9699 42.8189C13.423 43.2813 13.9256 43.6796 14.4424 44.149C13.7699 44.021 13.1115 43.7507 12.538 43.3666C11.9575 42.9825 11.4336 42.513 10.9946 41.9867C10.5557 41.4532 10.1663 40.877 9.87606 40.2582C9.57872 39.6251 9.34509 38.9707 9.26721 38.2808Z" fill="black"/>
</g>
<g opacity="0.5">
<path opacity="0.5" d="M7.74512 42.6196C8.53804 43.2456 9.26724 43.7435 10.0389 44.2343C10.4212 44.4761 10.8177 44.7109 11.2141 44.9527C11.6177 45.1946 12.0283 45.4293 12.4389 45.7423C11.4195 45.8347 10.4283 45.5075 9.56459 44.9812C9.14689 44.6966 8.74335 44.3766 8.42476 43.9782C8.11326 43.587 7.83715 43.1389 7.74512 42.6196Z" fill="black"/>
</g>
</g>
</g>
<g clip-path="url(#clip3_424_4449)">
<path d="M232.148 13.1914C232.148 13.1914 226.232 16.6167 224.425 16.8021C222.618 16.9875 223.488 15.1487 224.425 14.3812C224.425 14.3812 222.319 14.4636 222.021 13.5674C221.722 12.6763 225.197 12.0376 225.197 12.0376C225.197 12.0376 223.323 11.4349 223.823 10.3017C224.322 9.16339 231.211 11.2031 231.211 11.2031L232.148 13.1914Z" fill="#79E0B2"/>
<g opacity="0.5">
<g opacity="0.5">
<path opacity="0.5" d="M231.052 12.3775C230.032 12.3415 229.049 12.1612 228.07 11.9449C227.097 11.7131 226.129 11.4504 225.197 11.0435C226.217 11.0795 227.2 11.2598 228.179 11.4761C229.152 11.7079 230.12 11.9706 231.052 12.3775Z" fill="#082116"/>
</g>
<g opacity="0.5">
<path opacity="0.5" d="M222.917 13.5675C224.281 13.2584 225.63 13.0988 226.979 12.9751C228.328 12.867 229.677 12.7897 231.052 12.8618C229.713 13.1709 228.349 13.3305 226.989 13.4542C225.625 13.5675 224.26 13.6396 222.917 13.5675Z" fill="#082116"/>
</g>
<g opacity="0.5">
<path opacity="0.5" d="M224.456 15.9369C225.527 15.3342 226.649 14.8707 227.782 14.438C228.92 14.0208 230.073 13.6344 231.278 13.3872C230.207 13.9899 229.085 14.4586 227.952 14.8861C226.814 15.3033 225.661 15.6896 224.456 15.9369Z" fill="#082116"/>
</g>
</g>
<path d="M244.784 10.7344C244.784 10.7344 250.803 13.0059 253.511 11.404C253.511 11.404 254.85 13.4437 253.109 14.613C253.109 14.613 254.046 17.2553 251.235 17.9919C251.235 17.9919 250.7 20.7322 247.626 19.9647C247.626 19.9647 244.753 22.8389 240.742 18.9963L244.784 10.7344Z" fill="#79E0B2"/>
<g opacity="0.5">
<g opacity="0.5">
<path opacity="0.5" d="M253.104 14.6128C252.738 14.927 252.26 15.0764 251.801 15.1691C251.333 15.2618 250.859 15.2721 250.391 15.2464C249.922 15.2103 249.459 15.1279 249.011 14.9992C248.563 14.8652 248.13 14.6953 247.724 14.448C248.197 14.4326 248.65 14.4686 249.103 14.5047C249.551 14.5304 249.994 14.5819 250.437 14.6025C250.88 14.6437 251.317 14.6592 251.76 14.6695C252.198 14.6746 252.641 14.6798 253.104 14.6128Z" fill="black"/>
</g>
<g opacity="0.5">
<path opacity="0.5" d="M251.235 17.9917C250.895 18.275 250.452 18.3986 250.025 18.4501C249.587 18.5068 249.15 18.4604 248.728 18.378C248.305 18.2905 247.899 18.1359 247.518 17.9454C247.137 17.7496 246.786 17.5075 246.478 17.1985C246.694 17.2242 246.9 17.2809 247.101 17.3273C247.301 17.3736 247.502 17.42 247.698 17.4766C248.094 17.5642 248.475 17.6827 248.861 17.7496C249.248 17.8372 249.629 17.9042 250.02 17.9505C250.411 17.9917 250.808 18.0226 251.235 17.9917Z" fill="black"/>
</g>
<g opacity="0.5">
<path opacity="0.5" d="M247.626 19.9645C247.404 20.0881 247.162 20.0984 246.931 20.0726C246.699 20.0469 246.483 19.9593 246.277 19.8563C245.891 19.6194 245.561 19.264 245.474 18.7798C245.716 18.8467 245.901 18.9343 246.086 19.0219C246.266 19.1094 246.436 19.2022 246.601 19.3C246.931 19.4906 247.234 19.6812 247.626 19.9645Z" fill="black"/>
</g>
</g>
<path d="M241.339 6.04192C244.222 5.98526 248.424 11.7491 245.468 16.3436C242.513 20.9382 233.925 21.922 230.779 12.0117C230.779 12.0117 234.779 11.919 236.355 10.2605C237.931 8.59674 238.059 6.10373 241.339 6.04192Z" fill="#FFD470"/>
<path opacity="0.3" d="M232.246 15.3082C235.485 17.8579 238.265 16.5393 241.71 13.2118C243.445 11.5378 245.762 11.646 246.457 12.3516C246.565 13.6703 246.303 15.0507 245.474 16.3384C242.899 20.3406 236.051 21.6026 232.246 15.3082Z" fill="white"/>
<path d="M244.516 8.6276L246.72 8.22583L244.912 9.59595C244.917 9.59595 244.526 9.41568 244.516 8.6276Z" fill="#C44961"/>
<path d="M242.678 8.56061C242.503 8.31852 242.348 8.09703 242.189 7.92706C242.024 7.75708 241.875 7.65921 241.715 7.64891C241.54 7.62316 241.391 7.64376 241.226 7.76738C241.061 7.89615 240.901 8.10733 240.737 8.35973C240.644 8.07128 240.659 7.74678 240.84 7.44803C240.922 7.29865 241.076 7.16473 241.252 7.08747C241.432 7.01536 241.617 6.9896 241.808 7.01536C242.199 7.06686 242.498 7.37076 242.611 7.66436C242.74 7.95796 242.76 8.26701 242.678 8.56061Z" fill="#754368"/>
<path d="M238.265 7.47897C238.265 7.47897 235.995 7.15447 234.62 4.54814C233.25 1.94181 232.885 -5.78994e-05 232.885 -5.78994e-05C232.885 -5.78994e-05 231.258 -0.067019 230.784 2.33843C230.784 2.33843 228.508 1.83879 228.74 4.54299C228.74 4.54299 226.665 5.32592 227.638 7.685C227.638 7.685 226.737 11.1979 230.784 12.1662C234.306 13.0161 238.131 11.2133 238.265 7.47897Z" fill="#79E0B2"/>
<g opacity="0.5">
<g opacity="0.5">
<path opacity="0.5" d="M230.779 2.33838C231.175 3.35825 231.608 4.2957 232.179 5.15589C232.452 5.58856 232.766 5.99548 233.111 6.38694C233.446 6.78871 233.837 7.13382 234.223 7.53558C233.703 7.3656 233.194 7.10806 232.766 6.75265C232.323 6.4127 231.953 5.98003 231.639 5.5113C231.335 5.03742 231.093 4.52749 230.943 3.9918C230.794 3.45611 230.717 2.89467 230.779 2.33838Z" fill="black"/>
</g>
<g opacity="0.5">
<path opacity="0.5" d="M228.74 4.5481C229.342 5.34133 229.883 6.0985 230.485 6.80932C230.779 7.17503 231.103 7.49953 231.433 7.83434C231.762 8.16914 232.128 8.45759 232.504 8.79754C232.015 8.70483 231.536 8.5091 231.119 8.23095C230.696 7.9528 230.315 7.61285 229.996 7.23169C229.677 6.84537 229.394 6.42815 229.183 5.98003C228.966 5.52161 228.797 5.04773 228.74 4.5481Z" fill="black"/>
</g>
<g opacity="0.5">
<path opacity="0.5" d="M227.633 7.69019C228.209 8.14346 228.74 8.50402 229.301 8.85943C229.579 9.03456 229.867 9.20453 230.156 9.37966C230.449 9.55479 230.748 9.72477 231.046 9.95141C230.305 10.0184 229.584 9.78143 228.956 9.40027C228.652 9.19423 228.359 8.96244 228.127 8.674C227.901 8.3907 227.7 8.0662 227.633 7.69019Z" fill="black"/>
</g>
</g>
</g>
<defs>
<clipPath id="clip0_424_4449">
<rect width="56.4926" height="59.8653" fill="white" transform="translate(183.845 95) rotate(60)"/>
</clipPath>
<clipPath id="clip1_424_4449">
<rect width="81.9673" height="86.8608" fill="white" transform="translate(52.4812 64) rotate(15)"/>
</clipPath>
<clipPath id="clip2_424_4449">
<rect width="44" height="29" fill="white" transform="translate(0 32)"/>
</clipPath>
<clipPath id="clip3_424_4449">
<rect width="32" height="21" fill="white" transform="translate(222)"/>
</clipPath>
</defs>
</svg>
