<svg width="72" height="90" viewBox="0 0 72 90" fill="none" xmlns="http://www.w3.org/2000/svg">
<g opacity="0.56" filter="url(#filter0_f_154_7190)">
<rect x="21" y="64" width="31" height="10" fill="#FF9446"/>
</g>
<circle cx="36" cy="36" r="36" fill="url(#paint0_linear_154_7190)"/>
<path d="M29.3333 32.6667C28.2287 32.6667 27.3333 33.5622 27.3333 34.6667C27.3333 35.7713 28.2287 36.6667 29.3333 36.6667C30.4374 36.6655 31.3321 35.7708 31.3333 34.6667C31.3333 33.5622 30.4379 32.6667 29.3333 32.6667ZM29.3333 35.3334C28.9652 35.3334 28.6667 35.0349 28.6667 34.6667C28.6667 34.2986 28.9652 34.0001 29.3333 34.0001C29.7012 34.0008 29.9993 34.2988 30 34.6667C30 35.0349 29.7015 35.3334 29.3333 35.3334ZM46 28.0001H44V23.3334C44 23.3332 44 23.3337 44 23.3334C43.9997 22.9655 43.7013 22.6665 43.3333 22.6667H28.6667C28.6664 22.6667 28.667 22.6667 28.6667 22.6667C28.2987 22.667 27.9997 22.9654 28 23.3334V28.0001H26C24.1597 28.0018 22.6684 29.4932 22.6667 31.3334V40.0001C22.6691 42.2083 24.4585 43.9976 26.6667 44.0001H28V48.6667C28 48.6665 28 48.667 28 48.6667C28.0002 49.0347 28.2987 49.3337 28.6667 49.3334H43.3333C43.333 49.3334 43.3336 49.3334 43.3333 49.3334C43.7012 49.3332 44.0002 49.0347 44 48.6667V44.0001H45.3333C47.5415 43.9976 49.3309 42.2083 49.3333 40.0001V31.3334C49.3316 29.4932 47.8402 28.0018 46 28.0001ZM29.3333 24.0001H42.6667V28.0001H29.3333V24.0001ZM42.6667 48.0001H29.3333V40.0001H42.6667V48.0001ZM48 40.0001C47.9981 41.4721 46.8053 42.6649 45.3333 42.6667H44V39.3334C44 39.3332 44 39.3337 44 39.3334C43.9997 38.9655 43.7013 38.6665 43.3333 38.6667H28.6667C28.6664 38.6667 28.667 38.6667 28.6667 38.6667C28.2987 38.667 27.9997 38.9654 28 39.3334V42.6667H26.6667C25.1947 42.6649 24.0019 41.4721 24 40.0001V31.3334C24.0012 30.2293 24.8959 29.3346 26 29.3334H28.6667H43.3333H46C47.1041 29.3346 47.9988 30.2293 48 31.3334V40.0001Z" fill="white"/>
<path d="M44 23.3334V28.0001H46C47.8402 28.0018 49.3316 29.4932 49.3333 31.3334V40.0001C49.3309 42.2083 47.5415 43.9976 45.3333 44.0001H44V48.6667C44.0002 49.0347 43.7012 49.3332 43.3333 49.3334M44 23.3334C44 23.3332 44 23.3337 44 23.3334ZM44 23.3334C43.9997 22.9655 43.7013 22.6665 43.3333 22.6667H28.6667M28.6667 22.6667C28.6664 22.6667 28.667 22.6667 28.6667 22.6667ZM28.6667 22.6667C28.2987 22.667 27.9997 22.9654 28 23.3334V28.0001H26C24.1597 28.0018 22.6684 29.4932 22.6667 31.3334V40.0001C22.6691 42.2083 24.4585 43.9976 26.6667 44.0001H28V48.6667M28 48.6667C28 48.667 28 48.6665 28 48.6667ZM28 48.6667C28.0002 49.0347 28.2987 49.3337 28.6667 49.3334H43.3333M43.3333 49.3334C43.3336 49.3334 43.333 49.3334 43.3333 49.3334ZM44 39.3334V42.6667H45.3333C46.8053 42.6649 47.9981 41.4721 48 40.0001V31.3334C47.9988 30.2293 47.1041 29.3346 46 29.3334H43.3333H28.6667H26C24.8959 29.3346 24.0012 30.2293 24 31.3334V40.0001C24.0019 41.4721 25.1947 42.6649 26.6667 42.6667H28V39.3334C27.9997 38.9654 28.2987 38.667 28.6667 38.6667M44 39.3334C44 39.3332 44 39.3337 44 39.3334ZM44 39.3334C43.9997 38.9655 43.7013 38.6665 43.3333 38.6667H28.6667M28.6667 38.6667C28.6664 38.6667 28.667 38.6667 28.6667 38.6667ZM29.3333 32.6667C28.2287 32.6667 27.3333 33.5622 27.3333 34.6667C27.3333 35.7713 28.2287 36.6667 29.3333 36.6667C30.4374 36.6655 31.3321 35.7708 31.3333 34.6667C31.3333 33.5622 30.4379 32.6667 29.3333 32.6667ZM29.3333 35.3334C28.9652 35.3334 28.6667 35.0349 28.6667 34.6667C28.6667 34.2986 28.9652 34.0001 29.3333 34.0001C29.7012 34.0008 29.9993 34.2988 30 34.6667C30 35.0349 29.7015 35.3334 29.3333 35.3334ZM29.3333 24.0001H42.6667V28.0001H29.3333V24.0001ZM42.6667 48.0001H29.3333V40.0001H42.6667V48.0001Z" stroke="white" stroke-width="0.5"/>
<defs>
<filter id="filter0_f_154_7190" x="5" y="48" width="63" height="42" filterUnits="userSpaceOnUse" color-interpolation-filters="sRGB">
<feFlood flood-opacity="0" result="BackgroundImageFix"/>
<feBlend mode="normal" in="SourceGraphic" in2="BackgroundImageFix" result="shape"/>
<feGaussianBlur stdDeviation="8" result="effect1_foregroundBlur_154_7190"/>
</filter>
<linearGradient id="paint0_linear_154_7190" x1="36" y1="-5.4" x2="36" y2="72" gradientUnits="userSpaceOnUse">
<stop stop-color="#FF8D74"/>
<stop offset="1" stop-color="#F75734"/>
</linearGradient>
</defs>
</svg>
