<svg width="32" height="32" viewBox="0 0 32 32" fill="none" xmlns="http://www.w3.org/2000/svg">
<g id="printer (1) 1">
<g id="Vector">
<path d="M9.33332 12.6667C8.22875 12.6667 7.33332 13.5622 7.33332 14.6667C7.33332 15.7713 8.22875 16.6667 9.33332 16.6667C10.4374 16.6655 11.3321 15.7708 11.3333 14.6667C11.3333 13.5622 10.4379 12.6667 9.33332 12.6667ZM9.33332 15.3334C8.96516 15.3334 8.66666 15.0349 8.66666 14.6667C8.66666 14.2986 8.96516 14.0001 9.33332 14.0001C9.70124 14.0008 9.99926 14.2988 9.99999 14.6667C9.99999 15.0349 9.70149 15.3334 9.33332 15.3334ZM26 8.00008H24V3.33341C24 3.33317 24 3.33374 24 3.33341C23.9997 2.96549 23.7013 2.6665 23.3333 2.66675H8.66666C8.66641 2.66675 8.66698 2.66675 8.66666 2.66675C8.29874 2.66699 7.99975 2.96541 7.99999 3.33341V8.00008H5.99999C4.15974 8.00179 2.66837 9.49316 2.66666 11.3334V20.0001C2.6691 22.2083 4.45849 23.9976 6.66666 24.0001H7.99999V28.6667C7.99999 28.6665 7.99999 28.667 7.99999 28.6667C8.00023 29.0347 8.29866 29.3337 8.66666 29.3334H23.3333C23.333 29.3334 23.3336 29.3334 23.3333 29.3334C23.7012 29.3332 24.0002 29.0347 24 28.6667V24.0001H25.3333C27.5415 23.9976 29.3309 22.2083 29.3333 20.0001V11.3334C29.3316 9.49316 27.8402 8.00179 26 8.00008ZM9.33332 4.00008H22.6667V8.00008H9.33332V4.00008ZM22.6667 28.0001H9.33332V20.0001H22.6667V28.0001ZM28 20.0001C27.9981 21.4721 26.8053 22.6649 25.3333 22.6667H24V19.3334C24 19.3332 24 19.3337 24 19.3334C23.9997 18.9655 23.7013 18.6665 23.3333 18.6667H8.66666C8.66641 18.6667 8.66698 18.6667 8.66666 18.6667C8.29874 18.667 7.99975 18.9654 7.99999 19.3334V22.6667H6.66666C5.19465 22.6649 4.00186 21.4721 3.99999 20.0001V11.3334C4.00121 10.2293 4.8959 9.33463 5.99999 9.33341H8.66666H23.3333H26C27.1041 9.33463 27.9988 10.2293 28 11.3334V20.0001Z" fill="white"/>
<path d="M24 3.33341V8.00008H26C27.8402 8.00179 29.3316 9.49316 29.3333 11.3334V20.0001C29.3309 22.2083 27.5415 23.9976 25.3333 24.0001H24V28.6667C24.0002 29.0347 23.7012 29.3332 23.3333 29.3334M24 3.33341C24 3.33317 24 3.33374 24 3.33341ZM24 3.33341C23.9997 2.96549 23.7013 2.6665 23.3333 2.66675H8.66666M8.66666 2.66675C8.66641 2.66675 8.66698 2.66675 8.66666 2.66675ZM8.66666 2.66675C8.29874 2.66699 7.99975 2.96541 7.99999 3.33341V8.00008H5.99999C4.15974 8.00179 2.66837 9.49316 2.66666 11.3334V20.0001C2.6691 22.2083 4.45849 23.9976 6.66666 24.0001H7.99999V28.6667M7.99999 28.6667C7.99999 28.667 7.99999 28.6665 7.99999 28.6667ZM7.99999 28.6667C8.00023 29.0347 8.29865 29.3337 8.66666 29.3334H23.3333M23.3333 29.3334C23.3336 29.3334 23.333 29.3334 23.3333 29.3334ZM24 19.3334V22.6667H25.3333C26.8053 22.6649 27.9981 21.4721 28 20.0001V11.3334C27.9988 10.2293 27.1041 9.33463 26 9.33341H23.3333H8.66666H5.99999C4.8959 9.33463 4.00121 10.2293 3.99999 11.3334V20.0001C4.00186 21.4721 5.19465 22.6649 6.66666 22.6667H7.99999V19.3334C7.99975 18.9654 8.29874 18.667 8.66666 18.6667M24 19.3334C24 19.3332 24 19.3337 24 19.3334ZM24 19.3334C23.9997 18.9655 23.7013 18.6665 23.3333 18.6667H8.66666M8.66666 18.6667C8.66641 18.6667 8.66698 18.6667 8.66666 18.6667ZM9.33332 12.6667C8.22875 12.6667 7.33332 13.5622 7.33332 14.6667C7.33332 15.7713 8.22875 16.6667 9.33332 16.6667C10.4374 16.6655 11.3321 15.7708 11.3333 14.6667C11.3333 13.5622 10.4379 12.6667 9.33332 12.6667ZM9.33332 15.3334C8.96516 15.3334 8.66666 15.0349 8.66666 14.6667C8.66666 14.2986 8.96516 14.0001 9.33332 14.0001C9.70124 14.0008 9.99926 14.2988 9.99999 14.6667C9.99999 15.0349 9.70149 15.3334 9.33332 15.3334ZM9.33332 4.00008H22.6667V8.00008H9.33332V4.00008ZM22.6667 28.0001H9.33332V20.0001H22.6667V28.0001Z" stroke="white" stroke-width="0.5"/>
</g>
</g>
</svg>
