<svg width="78" height="78" viewBox="0 0 78 78" fill="none" xmlns="http://www.w3.org/2000/svg">
<path d="M27.8722 47H27.1522V39.84H27.8722V43.03H31.7422V39.84H32.4522V47H31.7422V43.7H27.8722V47ZM33.713 44.58C33.713 43.1 34.753 42.03 36.173 42.03C37.593 42.03 38.633 43.1 38.633 44.58C38.633 46.05 37.593 47.12 36.173 47.12C34.753 47.12 33.713 46.05 33.713 44.58ZM34.413 44.57C34.413 45.71 35.133 46.5 36.173 46.5C37.203 46.5 37.933 45.71 37.933 44.57C37.933 43.45 37.203 42.65 36.173 42.65C35.133 42.65 34.413 43.45 34.413 44.57ZM40.4266 47H39.7366V42.16H40.3366L40.4166 42.85C40.6566 42.34 41.1966 42.03 41.8766 42.03C42.6366 42.03 43.2066 42.43 43.4366 43.06C43.6566 42.43 44.2466 42.03 45.0266 42.03C46.0766 42.03 46.7666 42.71 46.7666 43.83V47H46.0966V43.97C46.0966 43.14 45.6366 42.65 44.8966 42.65C44.0866 42.65 43.6066 43.26 43.6066 44.01V47H42.9266V43.96C42.9266 43.14 42.4566 42.66 41.7266 42.66C40.9166 42.66 40.4266 43.26 40.4266 44V47ZM50.1846 47.12C48.7646 47.12 47.8146 46.1 47.8146 44.58C47.8146 43.07 48.7546 42.03 50.1346 42.03C51.4446 42.03 52.3346 42.96 52.3346 44.33V44.67H48.4846C48.5346 45.85 49.1546 46.53 50.1946 46.53C50.9846 46.53 51.4946 46.19 51.6746 45.55H52.3346C52.0746 46.57 51.3246 47.12 50.1846 47.12ZM50.1346 42.62C49.2246 42.62 48.6246 43.22 48.5046 44.17H51.6446C51.6446 43.24 51.0446 42.62 50.1346 42.62Z" fill="#C1C1C1"/>
<path d="M44.79 30.75H33.21C30.47 30.75 28.25 28.52 28.25 25.78V18.37C28.25 17.01 29.09 15.3 30.17 14.46L35.56 10.26C37.18 8.99997 39.77 8.93997 41.45 10.12L47.63 14.45C48.82 15.28 49.75 17.06 49.75 18.51V25.79C49.75 28.52 47.53 30.75 44.79 30.75ZM36.48 11.44L31.09 15.64C30.38 16.2 29.75 17.47 29.75 18.37V25.78C29.75 27.69 31.3 29.25 33.21 29.25H44.79C46.7 29.25 48.25 27.7 48.25 25.79V18.51C48.25 17.55 47.56 16.22 46.77 15.68L40.59 11.35C39.45 10.55 37.57 10.59 36.48 11.44Z" fill="#C1C1C1"/>
<path d="M39 26.75C38.59 26.75 38.25 26.41 38.25 26V23C38.25 22.59 38.59 22.25 39 22.25C39.41 22.25 39.75 22.59 39.75 23V26C39.75 26.41 39.41 26.75 39 26.75Z" fill="#C1C1C1"/>
</svg>
