<svg width="32" height="32" viewBox="0 0 32 32" fill="none" xmlns="http://www.w3.org/2000/svg">
<g id="share">
<path id="Vector" d="M25 20C24.2448 20.0055 23.5007 20.1821 22.8235 20.5163C22.1463 20.8506 21.5537 21.3339 21.09 21.93L11.81 17.29C11.9294 16.8701 11.9932 16.4365 12 16C11.9932 15.5636 11.9294 15.1299 11.81 14.71L21.09 10.07C21.5537 10.6661 22.1463 11.1494 22.8235 11.4837C23.5007 11.8179 24.2448 11.9945 25 12C25.9889 12 26.9556 11.7068 27.7779 11.1573C28.6001 10.6079 29.241 9.82705 29.6194 8.91342C29.9978 7.99979 30.0969 6.99446 29.9039 6.02455C29.711 5.05465 29.2348 4.16373 28.5355 3.46447C27.8363 2.76521 26.9454 2.289 25.9755 2.09608C25.0055 1.90315 24.0002 2.00217 23.0866 2.3806C22.173 2.75904 21.3921 3.39991 20.8427 4.22215C20.2932 5.0444 20 6.0111 20 7C20.0068 7.43645 20.0706 7.87014 20.19 8.29L10.91 12.93C10.4463 12.3339 9.85366 11.8506 9.17647 11.5163C8.49928 11.1821 7.75517 11.0055 7 11C5.67392 11 4.40215 11.5268 3.46447 12.4645C2.52678 13.4022 2 14.6739 2 16C2 17.3261 2.52678 18.5979 3.46447 19.5355C4.40215 20.4732 5.67392 21 7 21C7.75517 20.9945 8.49928 20.8179 9.17647 20.4837C9.85366 20.1494 10.4463 19.6661 10.91 19.07L20.19 23.71C19.9203 24.72 19.974 25.7892 20.3434 26.7671C20.7129 27.7451 21.3797 28.5826 22.2499 29.162C23.1201 29.7413 24.15 30.0333 25.1948 29.9969C26.2396 29.9605 27.2467 29.5976 28.0745 28.9591C28.9023 28.3206 29.5091 27.4387 29.8096 26.4374C30.1102 25.4362 30.0893 24.3658 29.75 23.377C29.4107 22.3882 28.77 21.5306 27.9179 20.9249C27.0659 20.3191 26.0454 19.9957 25 20ZM25 4C25.5933 4 26.1734 4.17595 26.6667 4.50559C27.1601 4.83524 27.5446 5.30377 27.7716 5.85195C27.9987 6.40013 28.0581 7.00333 27.9424 7.58527C27.8266 8.16722 27.5409 8.70177 27.1213 9.12132C26.7018 9.54088 26.1672 9.8266 25.5853 9.94236C25.0033 10.0581 24.4001 9.9987 23.8519 9.77164C23.3038 9.54458 22.8352 9.16006 22.5056 8.66671C22.1759 8.17337 22 7.59335 22 7C22 6.20435 22.3161 5.44129 22.8787 4.87868C23.4413 4.31607 24.2044 4 25 4ZM7 19C6.40666 19 5.82664 18.8241 5.33329 18.4944C4.83994 18.1648 4.45542 17.6962 4.22836 17.1481C4.0013 16.5999 3.94189 15.9967 4.05764 15.4147C4.1734 14.8328 4.45912 14.2982 4.87868 13.8787C5.29824 13.4591 5.83279 13.1734 6.41473 13.0576C6.99667 12.9419 7.59987 13.0013 8.14805 13.2284C8.69623 13.4554 9.16476 13.8399 9.49441 14.3333C9.82405 14.8266 10 15.4067 10 16C10 16.7957 9.68393 17.5587 9.12132 18.1213C8.55871 18.6839 7.79565 19 7 19ZM25 28C24.4067 28 23.8266 27.8241 23.3333 27.4944C22.8399 27.1648 22.4554 26.6962 22.2284 26.1481C22.0013 25.5999 21.9419 24.9967 22.0576 24.4147C22.1734 23.8328 22.4591 23.2982 22.8787 22.8787C23.2982 22.4591 23.8328 22.1734 24.4147 22.0576C24.9967 21.9419 25.5999 22.0013 26.1481 22.2284C26.6962 22.4554 27.1648 22.8399 27.4944 23.3333C27.8241 23.8266 28 24.4067 28 25C28 25.7957 27.6839 26.5587 27.1213 27.1213C26.5587 27.6839 25.7956 28 25 28Z" fill="white"/>
</g>
</svg>
