<svg width="219" height="107" viewBox="0 0 219 107" fill="none" xmlns="http://www.w3.org/2000/svg">
<path d="M11.2571 78.8732C10.1383 78.7364 9.27057 78.7135 7.96903 78.7135H0V100.75H5.02346V92.6971H7.96903C9.27057 92.6971 10.1383 92.6743 11.2571 92.5374C14.4539 92.1496 17.2624 89.8913 17.2624 85.7167C17.2624 81.5194 14.5452 79.261 11.2571 78.8732ZM9.52174 88.7051C9.0879 88.7735 8.47138 88.7735 7.76353 88.7735H5.02346V82.6372H7.76353C8.47138 82.6372 9.0879 82.6372 9.52174 82.7056C11.0288 82.8881 12.0106 83.8234 12.0106 85.7167C12.0106 87.5873 11.0288 88.5226 9.52174 88.7051ZM29.3416 100.75H34.228C33.9769 98.8562 33.9084 97.7157 33.9084 96.4382V91.26C33.9084 90.2791 33.8855 89.321 33.817 88.5226C33.5658 85.4886 31.7391 83.2759 26.6928 83.2759C22.5371 83.2759 19.249 85.4886 19.1576 89.3894H23.9528C24.0669 87.6785 24.9346 86.7204 26.5102 86.7204C27.9944 86.7204 28.7707 87.5645 28.8621 88.591C28.9306 89.1613 28.9306 89.5947 28.9306 90.0509V90.3475H27.8345C21.8292 90.3475 18.5411 92.5146 18.5411 96.2101C18.5411 99.4494 21.1214 101.206 23.9984 101.206C25.574 101.206 27.0125 100.841 28.2227 100.088L28.9991 98.2631L29.3416 100.75ZM25.985 97.7385C24.615 97.7385 23.6788 97.0769 23.6788 95.7995C23.6788 93.8149 25.8251 93.0621 28.9306 93.313V94.5448C28.9306 96.6663 27.492 97.7385 25.985 97.7385ZM44.2521 83.2759C39.9593 83.2759 37.1508 85.3289 37.1508 88.6366C37.1508 91.5565 39.2287 92.9936 42.4254 93.7921C45.4166 94.4992 46.5127 95.1608 46.5127 96.3698C46.5127 97.4647 45.5536 97.9666 44.3434 97.9666C42.9277 97.9666 41.786 97.0997 41.4207 95.5029H36.4657C36.9224 99.3353 39.9593 101.206 44.2978 101.206C48.2937 101.206 51.5361 99.5406 51.5361 95.982C51.5361 92.7883 49.4126 91.4196 46.1245 90.5984C43.0876 89.8228 42.1742 89.1841 42.1742 88.0435C42.1742 87.1539 42.8364 86.4695 43.9324 86.4695C45.1655 86.4695 45.8962 87.2679 46.193 88.6822H51.148C50.7369 85.5799 48.3622 83.2759 44.2521 83.2759ZM60.5784 83.2759C56.2856 83.2759 53.477 85.3289 53.477 88.6366C53.477 91.5565 55.5549 92.9936 58.7516 93.7921C61.7657 94.4992 62.8389 95.1608 62.8389 96.3698C62.8389 97.4647 61.8799 97.9666 60.6697 97.9666C59.2768 97.9666 58.1123 97.0997 57.7698 95.5029H52.8148C53.2487 99.3353 56.2856 101.206 60.6469 101.206C64.6428 101.206 67.8624 99.5406 67.8624 95.982C67.8624 92.7883 65.7617 91.4196 62.4736 90.5984C59.4367 89.8228 58.5005 89.1841 58.5005 88.0435C58.5005 87.1539 59.1627 86.4695 60.2587 86.4695C61.5145 86.4695 62.2452 87.2679 62.5192 88.6822H67.4742C67.0632 85.5799 64.7113 83.2759 60.5784 83.2759ZM81.0604 83.2759C79.3478 83.2759 77.6581 83.6637 76.6991 84.3937L75.4204 86.287V83.7321H70.3969V107H75.4204V98.5141L76.5393 100.293C77.3841 100.841 79.0967 101.206 80.4895 101.206C84.8736 101.206 88.6184 98.0122 88.6184 91.8759C88.6184 86.8573 85.7642 83.2759 81.0604 83.2759ZM79.3022 97.7385C77.3841 97.7385 75.4204 96.461 75.4204 92.7883V92.0356C75.4204 88.1348 77.1786 86.7204 79.462 86.7204C81.8367 86.7204 83.4579 88.8419 83.4579 92.1952C83.4579 95.8907 81.7454 97.7385 79.3022 97.7385ZM99.259 83.2759C93.5962 83.2759 90.2853 86.9257 90.2853 92.2181C90.2853 97.5332 93.5962 101.206 99.259 101.206C104.876 101.206 108.233 97.5332 108.233 92.2181C108.233 86.9257 104.876 83.2759 99.259 83.2759ZM99.259 97.7385C96.8614 97.7385 95.4229 95.7767 95.4229 92.2181C95.4229 88.6822 96.8614 86.7204 99.259 86.7204C101.634 86.7204 103.072 88.6822 103.072 92.2181C103.072 95.7767 101.634 97.7385 99.259 97.7385ZM120.335 83.2759C119.33 83.2759 118.097 83.7321 117.229 84.6218L115.951 86.9942V83.7321H110.927V100.75H115.951V93.6324C115.951 88.7963 117.64 87.1995 121.613 87.4732V83.4127C121.225 83.3443 120.86 83.2759 120.335 83.2759ZM129.651 87.0398H133.282V83.8462H129.651V79.5804H124.65V83.8462H122.047V87.0398H124.65V94.8642C124.65 95.8223 124.65 96.5979 124.696 97.4647C124.901 99.9512 126.112 101.16 129.856 101.16C130.93 101.16 131.934 101.069 132.962 100.909V97.7157C130.404 97.8753 129.811 97.4875 129.697 95.7995C129.651 95.3433 129.651 94.773 129.651 94.2027V87.0398ZM141.753 87.0398H145.361V83.8462H141.753V79.5804H136.729V83.8462H134.126V87.0398H136.729V94.8642C136.729 95.8223 136.729 96.5979 136.798 97.4647C136.981 99.9512 138.191 101.16 141.936 101.16C143.032 101.16 144.013 101.069 145.041 100.909V97.7157C142.484 97.8753 141.913 97.4875 141.776 95.7995C141.753 95.3433 141.753 94.773 141.753 94.2027V87.0398ZM157.759 100.75H162.646C162.395 98.8562 162.326 97.7157 162.326 96.4382V91.26C162.326 90.2791 162.303 89.321 162.235 88.5226C161.984 85.4886 160.157 83.2759 155.111 83.2759C150.955 83.2759 147.667 85.4886 147.553 89.3894H152.348C152.485 87.6785 153.353 86.7204 154.905 86.7204C156.412 86.7204 157.189 87.5645 157.28 88.591C157.348 89.1613 157.348 89.5947 157.348 90.0509V90.3475H156.252C150.247 90.3475 146.959 92.5146 146.959 96.2101C146.959 99.4494 149.539 101.206 152.416 101.206C153.992 101.206 155.43 100.841 156.641 100.088L157.417 98.2631L157.759 100.75ZM154.403 97.7385C153.033 97.7385 152.097 97.0769 152.097 95.7995C152.097 93.8149 154.243 93.0621 157.348 93.313V94.5448C157.348 96.6663 155.91 97.7385 154.403 97.7385ZM172.647 83.2759C168.377 83.2759 165.569 85.3289 165.569 88.6366C165.569 91.5565 167.647 92.9936 170.843 93.7921C173.835 94.4992 174.931 95.1608 174.931 96.3698C174.931 97.4647 173.972 97.9666 172.761 97.9666C171.346 97.9666 170.204 97.0997 169.839 95.5029H164.884C165.34 99.3353 168.377 101.206 172.716 101.206C176.712 101.206 179.954 99.5406 179.954 95.982C179.954 92.7883 177.83 91.4196 174.542 90.5984C171.505 89.8228 170.569 89.1841 170.569 88.0435C170.569 87.1539 171.254 86.4695 172.327 86.4695C173.583 86.4695 174.314 87.2679 174.611 88.6822H179.566C179.155 85.5799 176.78 83.2759 172.647 83.2759ZM188.471 87.0398H192.102V83.8462H188.471V79.5804H183.47V83.8462H180.867V87.0398H183.47V94.8642C183.47 95.8223 183.47 96.5979 183.516 97.4647C183.722 99.9512 184.932 101.16 188.677 101.16C189.75 101.16 190.754 101.069 191.782 100.909V97.7157C189.225 97.8753 188.631 97.4875 188.517 95.7995C188.471 95.3433 188.471 94.773 188.471 94.2027V87.0398ZM197.057 77.1395C195.458 77.1395 194.385 78.1433 194.385 79.6716C194.385 81.2456 195.458 82.2265 197.057 82.2265C198.655 82.2265 199.728 81.2456 199.728 79.6716C199.728 78.1433 198.655 77.1395 197.057 77.1395ZM199.568 100.75V83.7321H194.545V100.75H199.568ZM211.054 83.2759C206.213 83.2759 202.331 86.5379 202.331 92.3777C202.331 98.1719 205.893 101.206 210.643 101.206C215.073 101.206 218.338 98.9931 219 94.7045H214.045C213.68 96.6891 212.447 97.7385 210.917 97.7385C208.839 97.7385 207.469 96.0276 207.469 92.0584C207.469 88.4541 208.816 86.7204 210.917 86.7204C212.584 86.7204 213.771 87.6785 214.114 90.0281H219C218.749 86.2186 215.803 83.2759 211.054 83.2759Z" fill="#565656"/>
<path d="M107.57 65.1954C89.5412 65.1954 74.9409 50.6093 74.9409 32.5977C74.9409 14.5861 89.5412 0 107.57 0C115.092 0 122.503 2.65202 128.365 7.40354C132.015 10.3871 135.001 14.2546 136.992 18.4536C137.435 19.2271 136.992 20.2216 136.218 20.6636C135.444 21.1056 134.448 20.6636 134.006 19.8901C132.125 16.1331 129.471 12.7076 126.263 9.94506C121.065 5.63553 114.428 3.20452 107.57 3.20452C91.4216 3.20452 78.2592 16.3541 78.2592 32.4872C78.2592 48.6203 91.4216 61.8803 107.57 61.8803C118.963 61.8803 129.36 55.2503 134.227 44.8632C134.559 43.9792 135.554 43.6477 136.439 44.0897C137.324 44.4212 137.656 45.4158 137.213 46.2998C131.904 57.7918 120.29 65.1954 107.57 65.1954Z" fill="url(#paint0_linear_127_3666)"/>
<path fill-rule="evenodd" clip-rule="evenodd" d="M64.4331 46.0788C66.3135 51.0513 73.1712 53.7033 82.9047 53.7033C89.1071 53.7033 96.4982 52.6854 104.483 50.5008L102.372 55.0293C101.929 55.9133 102.261 56.9078 103.146 57.2393C103.367 57.3498 103.588 57.3498 103.81 57.3498C104.473 57.3498 105.026 57.0183 105.358 56.3553L109.119 48.3993L109.119 48.3992C109.195 48.2464 109.249 48.0904 109.28 47.935C109.43 47.1913 109.077 46.4634 108.345 46.1892L108.342 46.188C108.309 46.1715 108.276 46.156 108.242 46.1417L100.27 42.4322C99.3854 41.9902 98.5005 42.3217 98.0581 43.2057C97.6156 44.0897 97.9475 45.0842 98.8323 45.4157L103.101 47.4017C83.2504 52.7791 69.6118 50.5887 67.5301 44.9738C66.2028 41.1063 69.9635 35.2497 77.7061 29.3932C78.4804 28.8407 78.591 27.8462 78.0379 27.0727C77.4849 26.2992 76.4894 26.1887 75.7152 26.7412C66.4241 33.7027 62.4422 40.6643 64.4331 46.0788ZM147.611 15.8016C147.832 16.4646 148.495 16.9066 149.159 16.9066C149.38 16.9066 149.491 16.9066 149.712 16.7961C150.597 16.4646 151.039 15.5806 150.708 14.6966C148.717 9.1716 141.195 6.51958 129.692 7.07209H127.259C126.374 7.07209 125.6 7.84559 125.6 8.72959C125.6 9.6136 126.374 10.3871 127.259 10.3871H129.803C139.536 9.9451 146.173 11.9341 147.611 15.8016Z" fill="url(#paint1_linear_127_3666)"/>
<path d="M117.083 45.8577C116.861 45.8577 116.64 45.8577 116.419 45.7472L103.146 39.6697C102.482 39.3382 102.04 38.5647 102.261 37.7912C102.482 37.0177 103.035 36.4652 103.81 36.4652L116.972 36.0232L121.728 33.1502L114.317 25.1941C113.986 24.8626 113.875 24.4206 113.875 23.9786C113.875 23.5366 114.096 23.0946 114.428 22.7631C114.649 22.6526 116.308 21.2161 119.627 21.2161C123.719 21.2161 128.475 23.3156 133.785 27.2936L145.067 22.1001C145.73 21.7686 146.726 21.6581 147.832 21.6581C149.933 21.6581 153.805 22.2106 154.8 24.5311C155.243 25.5256 155.685 27.2936 153.694 28.9511C152.699 29.7246 151.15 30.4981 149.27 31.3822L117.746 45.7472C117.525 45.8577 117.304 45.8577 117.083 45.8577ZM110.889 39.5592L117.083 42.3217L147.721 28.3986C149.38 27.6251 151.482 26.7411 151.703 26.1886C151.703 26.1886 151.703 26.0781 151.592 25.9676C151.371 25.6361 149.712 25.0836 147.611 25.0836C146.836 25.0836 146.394 25.1941 146.173 25.3046L134.006 30.8296C133.453 31.0506 132.789 31.0506 132.236 30.6086C126.042 25.6361 121.839 24.6416 119.405 24.6416C118.963 24.6416 118.521 24.6416 118.078 24.7521L125.268 32.3767C125.6 32.7082 125.821 33.2607 125.71 33.7027C125.6 34.1447 125.378 34.5867 124.936 34.9182L118.078 39.1172C117.857 39.2277 117.525 39.3382 117.304 39.3382L110.889 39.5592Z" fill="url(#paint2_linear_127_3666)"/>
<defs>
<linearGradient id="paint0_linear_127_3666" x1="106.175" y1="-4.88965" x2="106.175" y2="65.1954" gradientUnits="userSpaceOnUse">
<stop stop-color="#FF8D74"/>
<stop offset="1" stop-color="#F75734"/>
</linearGradient>
<linearGradient id="paint1_linear_127_3666" x1="107.375" y1="3.22422" x2="107.375" y2="57.3498" gradientUnits="userSpaceOnUse">
<stop stop-color="#FF8D74"/>
<stop offset="1" stop-color="#F75734"/>
</linearGradient>
<linearGradient id="paint2_linear_127_3666" x1="128.691" y1="19.368" x2="128.691" y2="45.8577" gradientUnits="userSpaceOnUse">
<stop stop-color="#FF8D74"/>
<stop offset="1" stop-color="#F75734"/>
</linearGradient>
</defs>
</svg>
