<svg width="24" height="24" viewBox="0 0 24 24" fill="none" xmlns="http://www.w3.org/2000/svg">
<path d="M12 2.25C11.2182 2.25153 10.4678 2.5583 9.90886 3.10494C9.34988 3.65158 9.02646 4.39489 9.0075 5.1765V5.1825C9.00675 5.20575 9 5.22675 9 5.25C9 5.2635 9.006 5.27475 9.0075 5.2875C9.009 5.301 9.00525 5.31375 9.0075 5.3265L10.4138 12.0075C10.0297 12.025 9.66712 12.1896 9.40113 12.4672C9.13514 12.7448 8.98614 13.1141 8.985 13.4985C8.985 14.0497 9.288 14.5282 9.73275 14.7885C9.69408 15.055 9.56094 15.2987 9.3576 15.4752C9.15425 15.6517 8.89425 15.7492 8.625 15.75H7.125C6.6279 15.7506 6.15133 15.9483 5.79983 16.2998C5.44833 16.6513 5.2506 17.1279 5.25 17.625V19.875C5.25 19.9745 5.28951 20.0698 5.35984 20.1402C5.43016 20.2105 5.52554 20.25 5.625 20.25H6V21.375C6 21.4745 6.03951 21.5698 6.10983 21.6402C6.18016 21.7105 6.27554 21.75 6.375 21.75H17.625C17.7245 21.75 17.8198 21.7105 17.8902 21.6402C17.9605 21.5698 18 21.4745 18 21.375V20.25H18.375C18.4745 20.25 18.5698 20.2105 18.6402 20.1402C18.7105 20.0698 18.75 19.9745 18.75 19.875V17.625C18.75 16.5907 17.9085 15.75 16.875 15.75H15.375C14.8065 15.75 14.34 15.324 14.265 14.7758C14.6955 14.5118 14.9865 14.0408 14.9865 13.5C14.9854 13.1202 14.8399 12.7551 14.5797 12.4785C14.3194 12.202 13.9638 12.0347 13.5848 12.0105L14.991 5.3265C14.994 5.313 14.991 5.301 14.991 5.28825C14.9933 5.27475 15 5.2635 15 5.25C15 5.22675 14.9932 5.20575 14.9925 5.1825V5.1765C14.9735 4.39489 14.6501 3.65158 14.0911 3.10494C13.5322 2.5583 12.7818 2.25153 12 2.25ZM12 3C12.5917 3.00075 13.1593 3.23454 13.5798 3.65076C14.0004 4.06697 14.2401 4.63209 14.247 5.22375L12.8205 12H11.1795L9.753 5.22375C9.7599 4.63209 9.99959 4.06697 10.4202 3.65076C10.8407 3.23454 11.4083 3.00075 12 3ZM10.4865 12.75H13.4865C13.6796 12.7586 13.8619 12.8414 13.9955 12.9811C14.1291 13.1208 14.2037 13.3067 14.2037 13.5C14.2037 13.6933 14.1291 13.8792 13.9955 14.0189C13.8619 14.1586 13.6796 14.2414 13.4865 14.25H10.4865C10.2934 14.2414 10.1111 14.1586 9.97746 14.0189C9.84386 13.8792 9.7693 13.6933 9.7693 13.5C9.7693 13.3067 9.84386 13.1208 9.97746 12.9811C10.1111 12.8414 10.2934 12.7586 10.4865 12.75ZM13.5382 14.994C13.5945 15.2745 13.7183 15.5295 13.8855 15.75H10.116C10.2818 15.5302 10.4047 15.2775 10.4618 14.997C10.47 14.997 10.4783 15 10.4865 15H13.4865C13.5037 15 13.521 14.9948 13.5382 14.994ZM7.125 16.5H16.875C17.4952 16.5 18 17.0048 18 17.625V19.5H6V17.625C6 17.0048 6.50475 16.5 7.125 16.5ZM6.75 20.25H17.25V21H6.75V20.25Z" fill="#C1C1C1"/>
<path fill-rule="evenodd" clip-rule="evenodd" d="M12.0005 2C12.8475 2.00166 13.6604 2.33399 14.2659 2.9262C14.8715 3.51841 15.2219 4.32368 15.2424 5.17044C15.2427 5.17189 15.243 5.17405 15.2434 5.17651L15.2436 5.17801C15.2454 5.1894 15.25 5.2175 15.25 5.25C15.25 5.27648 15.2462 5.29972 15.2423 5.3169C15.2421 5.33346 15.2406 5.35488 15.2355 5.37884C15.2353 5.37947 15.2352 5.3801 15.235 5.38073L14.991 5.3265L15.2355 5.37884L13.884 11.8026C13.7914 11.7811 13.6967 11.7671 13.6007 11.761L13.5848 12.0105L13.8294 12.062L13.884 11.8026C14.2179 11.88 14.5239 12.0545 14.7617 12.3072C15.0655 12.6299 15.2352 13.0561 15.2365 13.4993C15.2365 14.0673 14.9621 14.5683 14.545 14.8865C14.5304 14.8399 14.5195 14.7915 14.5127 14.7419L14.265 14.7758L14.3957 14.9889C14.4472 14.9573 14.4971 14.9231 14.545 14.8865C14.6567 15.2422 14.9863 15.5 15.375 15.5H16.875C18.0465 15.5 19 16.4526 19 17.625V19.875C19 20.0408 18.9342 20.1997 18.8169 20.3169C18.6997 20.4342 18.5408 20.5 18.375 20.5H18.25V20.25H18V20.5H18.25V21.375C18.25 21.5408 18.1842 21.6997 18.0669 21.8169C17.9497 21.9342 17.7908 22 17.625 22H6.375C6.20924 22 6.05027 21.9342 5.93306 21.8169C5.81585 21.6997 5.75 21.5408 5.75 21.375V20.5H6V20.25H5.75V20.5H5.625C5.45924 20.5 5.30027 20.4342 5.18306 20.3169C5.06585 20.1997 5 20.0408 5 19.875V17.625C5.00067 17.0617 5.22474 16.5214 5.62306 16.1231C6.02137 15.7247 6.5614 15.5007 7.1247 15.5H8.62425C8.83345 15.4993 9.03573 15.4235 9.19372 15.2864C9.31298 15.1828 9.40118 15.0496 9.4502 14.9014C9.50039 14.9384 9.55256 14.9727 9.60649 15.0043L9.73275 14.7885L9.48534 14.7526C9.47796 14.8034 9.46615 14.8532 9.4502 14.9014C9.01993 14.5847 8.735 14.0769 8.735 13.4985C8.73633 13.0499 8.91022 12.6182 9.22063 12.2942C9.46334 12.041 9.77496 11.8683 10.1136 11.7952L10.1691 12.059L10.4138 12.0075L10.4024 11.7578C10.3046 11.7622 10.208 11.7748 10.1136 11.7952L8.76117 5.36997C8.75732 5.34814 8.75671 5.32938 8.75676 5.31601C8.75677 5.31521 8.75677 5.31441 8.75678 5.31362C8.75889 5.32364 8.76095 5.33104 8.76204 5.335L8.76321 5.33917L8.76371 5.34092C8.76392 5.34169 8.76358 5.34062 8.76321 5.33917C8.76249 5.3363 8.76057 5.32822 8.75921 5.31671L9.0075 5.2875L8.75903 5.31511C8.75768 5.30299 8.75781 5.29372 8.75794 5.28949C8.75769 5.293 8.75691 5.30248 8.75678 5.31362C8.75345 5.29781 8.75 5.2755 8.75 5.25C8.75 5.2175 8.75456 5.18938 8.75641 5.178L8.75665 5.17651C8.757 5.17429 8.75728 5.17252 8.7575 5.17112V5.1825H9.0075L8.75763 5.17444C8.75768 5.173 8.75741 5.1723 8.7575 5.17112C8.75747 5.17134 8.75754 5.17088 8.7575 5.17112C8.77804 4.32437 9.1285 3.51841 9.73406 2.9262C10.3396 2.33399 11.1535 2.00166 12.0005 2ZM15.2407 5.27903C15.2407 5.27873 15.2407 5.27877 15.2407 5.27903V5.27903ZM12 2.5C11.2835 2.50153 10.5959 2.78271 10.0837 3.28368C9.57198 3.78407 9.27563 4.46423 9.2575 5.1796V5.19057C9.25697 5.20712 9.25529 5.22144 9.25387 5.23226C9.25356 5.23458 9.25324 5.23689 9.25292 5.23912C9.25397 5.24493 9.25497 5.25136 9.25579 5.25829L9.25598 5.25989C9.25785 5.27673 9.25802 5.29123 9.25779 5.30184L10.719 12.2438L10.4251 12.2572C10.1052 12.2718 9.8032 12.409 9.58164 12.6402C9.36016 12.8713 9.23605 13.1787 9.235 13.4988C9.23513 13.9553 9.48581 14.3543 9.85901 14.5727L10.0043 14.6578L9.98016 14.8244C9.93288 15.1502 9.77009 15.4482 9.52147 15.664C9.27285 15.8798 8.95496 15.999 8.62575 16L7.1253 16C6.6944 16.0005 6.2813 16.1719 5.97661 16.4766C5.67195 16.7813 5.50055 17.1943 5.5 17.6252V19.875C5.5 19.9082 5.51317 19.9399 5.53661 19.9634C5.56005 19.9868 5.59185 20 5.625 20H6.25V21.375C6.25 21.4082 6.26317 21.4399 6.28661 21.4634C6.31005 21.4868 6.34185 21.5 6.375 21.5H17.625C17.6582 21.5 17.6899 21.4868 17.7134 21.4634C17.7368 21.4399 17.75 21.4082 17.75 21.375V20H18.375C18.4082 20 18.4399 19.9868 18.4634 19.9634C18.4868 19.9399 18.5 19.9082 18.5 19.875V17.625C18.5 16.7289 17.7705 16 16.875 16H15.375C14.6776 16 14.1087 15.4778 14.0173 14.8096L13.9952 14.6479L14.1343 14.5626C14.4956 14.3411 14.7364 13.9482 14.7365 13.5002C14.7354 13.184 14.6143 12.8801 14.3976 12.6499C14.1808 12.4195 13.8846 12.2801 13.5688 12.26L13.2807 12.2416L14.7412 5.29958C14.7411 5.29609 14.741 5.29228 14.741 5.28825V5.26756L14.7444 5.24715C14.7451 5.24308 14.7458 5.23919 14.7466 5.23551C14.7464 5.23443 14.7463 5.23335 14.7461 5.23226C14.7447 5.22144 14.7432 5.20712 14.7426 5.19056L14.7424 5.1825L14.7425 5.1796C14.7244 4.46423 14.428 3.78407 13.9164 3.28368C13.4041 2.78271 12.7165 2.50153 12 2.5ZM14.7469 5.27227L14.7464 5.27503L14.7469 5.27227ZM9.24412 5.20231C9.24402 5.20195 9.24405 5.20207 9.24412 5.20231V5.20231ZM12.0003 2.75C12.6578 2.75083 13.2884 3.01061 13.7557 3.47306C14.223 3.93552 14.4893 4.56344 14.497 5.22083L14.4973 5.24834L13.0234 12.25H10.9766L9.5027 5.24834L9.50302 5.22083C9.51069 4.56344 9.777 3.93552 10.2443 3.47306C10.7116 3.01061 11.3429 2.75083 12.0003 2.75ZM12 3.25C11.4742 3.25075 10.9698 3.45856 10.596 3.82845C10.2285 4.19215 10.0164 4.68377 10.0035 5.19997L11.3824 11.75H12.6176L13.9965 5.19997C13.9836 4.68377 13.7715 4.19215 13.404 3.82845C13.0302 3.45856 12.5258 3.25075 12 3.25ZM10.4865 12.5H13.4977C13.7551 12.5115 13.9981 12.6221 14.1762 12.8084C14.3543 12.9946 14.4537 13.2423 14.4537 13.5C14.4537 13.7577 14.3543 14.0054 14.1762 14.1916C13.9981 14.3779 13.7551 14.4882 13.4977 14.4998L13.4865 14.5003L10.4753 14.5C10.2179 14.4885 9.97486 14.3779 9.79677 14.1916C9.61869 14.0054 9.5193 13.7577 9.5193 13.5C9.5193 13.2423 9.61869 12.9946 9.79677 12.8084C9.97486 12.6221 10.2179 12.5118 10.4753 12.5003L10.4865 12.5ZM10.4927 13C10.3657 13.007 10.2461 13.0619 10.1581 13.1539C10.069 13.2471 10.0193 13.3711 10.0193 13.5C10.0193 13.6289 10.069 13.7529 10.1581 13.8461C10.2461 13.9381 10.3657 13.993 10.4927 14H13.4803C13.6073 13.993 13.7269 13.9381 13.8149 13.8461C13.904 13.7529 13.9537 13.6289 13.9537 13.5C13.9537 13.3711 13.904 13.2471 13.8149 13.1539C13.7269 13.0619 13.6073 13.007 13.4803 13H10.4927ZM13.7413 14.7349L13.7834 14.9448C13.8314 15.1842 13.9376 15.405 14.0847 15.5989L14.3889 16H9.61429L9.91641 15.5995C10.0624 15.4059 10.168 15.187 10.2168 14.9472L10.2574 14.747H10.4618C10.4787 14.747 10.4926 14.7485 10.5017 14.7498C10.5023 14.7498 10.5029 14.7499 10.5034 14.75H13.4754C13.4765 14.7498 13.4778 14.7496 13.4791 14.7494C13.4826 14.7489 13.4868 14.7482 13.491 14.7476C13.4999 14.7464 13.5125 14.7449 13.5274 14.7442L13.7413 14.7349ZM13.3463 15.25H10.6542C10.6271 15.3362 10.5945 15.4196 10.5571 15.5H13.4436C13.4061 15.4195 13.3735 15.3361 13.3463 15.25ZM7.125 16.75C6.64282 16.75 6.25 17.1428 6.25 17.625V19.25H17.75V17.625C17.75 17.1428 17.3572 16.75 16.875 16.75H7.125ZM5.75 17.625C5.75 16.8667 6.36668 16.25 7.125 16.25H16.875C17.6333 16.25 18.25 16.8667 18.25 17.625V19.75H5.75V17.625ZM6.5 20H17.5V21.25H6.5V20ZM7 20.5V20.75H17V20.5H7Z" fill="#C1C1C1"/>
</svg>
