<svg width="24" height="24" viewBox="0 0 24 24" fill="none" xmlns="http://www.w3.org/2000/svg">
<path d="M16.87 15.5H15.37C14.98 15.5 14.66 15.24 14.54 14.89C14.5 14.92 14.45 14.96 14.39 14.99L14.26 14.78L14.51 14.74C14.51 14.74 14.53 14.84 14.54 14.89C14.96 14.57 15.23 14.07 15.23 13.5C15.23 13.06 15.06 12.63 14.76 12.31C14.52 12.05 14.22 11.88 13.88 11.8L13.83 12.06L13.58 12.01L13.63 11.77C13.72 11.77 13.8 11.78 13.88 11.8L15.23 5.38C15.23 5.38 15.24 5.33 15.24 5.32C15.24 5.3 15.25 5.28 15.25 5.25C15.25 5.22 15.24 5.19 15.24 5.18C15.22 4.32 14.87 3.52 14.26 2.93C13.66 2.33 12.85 2 12 2C11.15 2 10.34 2.33 9.73 2.93C9.13 3.52 8.78 4.32 8.76 5.17H9.01L8.75 5.18V5.25C8.75 5.25 8.75 5.28 8.76 5.29V5.31V5.37L10.11 11.8C10.19 11.78 10.28 11.77 10.36 11.76L10.41 12.01L10.17 12.06L10.11 11.8C9.77 11.87 9.46 12.04 9.22 12.29C8.91 12.62 8.73 13.05 8.73 13.5C8.73 14.08 9.02 14.58 9.45 14.9C9.46 14.85 9.48 14.8 9.48 14.75L9.73 14.79L9.6 15C9.6 15 9.5 14.94 9.45 14.9C9.4 15.05 9.31 15.18 9.19 15.29C9.03 15.42 8.83 15.5 8.62 15.5H7.12C6.56 15.5 6.02 15.72 5.62 16.12C5.22 16.52 5 17.06 5 17.63V19.88C5 20.04 5.06 20.2 5.18 20.32C5.3 20.43 5.46 20.5 5.62 20.5H5.75V20.25H6V20.5H5.75V21.38C5.75 21.54 5.81 21.7 5.93 21.82C6.05 21.93 6.21 22 6.37 22H17.62C17.79 22 17.95 21.93 18.07 21.82C18.18 21.7 18.25 21.54 18.25 21.38V20.5H18V20.25H18.25V20.5H18.37C18.54 20.5 18.7 20.43 18.82 20.32C18.93 20.2 19 20.04 19 19.88V17.63C19 16.45 18.04 15.5 16.87 15.5ZM10.16 13.15C10.24 13.06 10.36 13.01 10.49 13H13.48C13.61 13.01 13.73 13.06 13.81 13.15C13.9 13.25 13.95 13.37 13.95 13.5C13.95 13.63 13.9 13.75 13.81 13.85C13.73 13.94 13.61 13.99 13.48 14H10.49C10.36 13.99 10.24 13.94 10.16 13.85C10.07 13.75 10.02 13.63 10.02 13.5C10.02 13.37 10.07 13.25 10.16 13.15ZM13.44 15.5H10.56C10.59 15.42 10.63 15.34 10.65 15.25H13.34C13.37 15.34 13.4 15.42 13.44 15.5ZM17 20.75H7V20.5H17V20.75Z" fill="url(#paint0_linear_173_4176)"/>
<defs>
<linearGradient id="paint0_linear_173_4176" x1="12" y1="0.5" x2="12" y2="22" gradientUnits="userSpaceOnUse">
<stop stop-color="#FF8D74"/>
<stop offset="1" stop-color="#F75734"/>
</linearGradient>
</defs>
</svg>
