<svg width="24" height="24" viewBox="0 0 24 24" fill="none" xmlns="http://www.w3.org/2000/svg">
<g id="star">
<g id="vuesax/outline/star">
<g id="star_2">
<path id="Vector" d="M17.66 22.6699C17.13 22.6699 16.45 22.4999 15.6 21.9999L12.61 20.2299C12.3 20.0499 11.7 20.0499 11.4 20.2299L8.4 21.9999C6.63 23.0499 5.59 22.6299 5.12 22.2899C4.66 21.9499 3.94 21.0799 4.41 19.0799L5.12 16.0099C5.2 15.6899 5.04 15.1399 4.8 14.8999L2.32 12.4199C1.08 11.1799 1.18 10.1199 1.35 9.59995C1.52 9.07995 2.06 8.15995 3.78 7.86995L6.97 7.33995C7.27 7.28995 7.7 6.96995 7.83 6.69995L9.6 3.16995C10.4 1.55995 11.45 1.31995 12 1.31995C12.55 1.31995 13.6 1.55995 14.4 3.16995L16.16 6.68995C16.3 6.95995 16.73 7.27995 17.03 7.32995L20.22 7.85995C21.95 8.14995 22.49 9.06995 22.65 9.58995C22.81 10.1099 22.91 11.1699 21.68 12.4099L19.2 14.8999C18.96 15.1399 18.81 15.6799 18.88 16.0099L19.59 19.0799C20.05 21.0799 19.34 21.9499 18.88 22.2899C18.63 22.4699 18.23 22.6699 17.66 22.6699ZM12 18.5899C12.49 18.5899 12.98 18.7099 13.37 18.9399L16.36 20.7099C17.23 21.2299 17.78 21.2299 17.99 21.0799C18.2 20.9299 18.35 20.3999 18.13 19.4199L17.42 16.3499C17.23 15.5199 17.54 14.4499 18.14 13.8399L20.62 11.3599C21.11 10.8699 21.33 10.3899 21.23 10.0599C21.12 9.72995 20.66 9.45995 19.98 9.34995L16.79 8.81995C16.02 8.68995 15.18 8.06995 14.83 7.36995L13.07 3.84995C12.75 3.20995 12.35 2.82995 12 2.82995C11.65 2.82995 11.25 3.20995 10.94 3.84995L9.17 7.36995C8.82 8.06995 7.98 8.68995 7.21 8.81995L4.03 9.34995C3.35 9.45995 2.89 9.72995 2.78 10.0599C2.67 10.3899 2.9 10.8799 3.39 11.3599L5.87 13.8399C6.47 14.4399 6.78 15.5199 6.59 16.3499L5.88 19.4199C5.65 20.4099 5.81 20.9299 6.02 21.0799C6.23 21.2299 6.77 21.2199 7.65 20.7099L10.64 18.9399C11.02 18.7099 11.51 18.5899 12 18.5899Z" fill="black"/>
</g>
</g>
</g>
</svg>
