<svg width="164" height="24" viewBox="0 0 164 24" fill="none" xmlns="http://www.w3.org/2000/svg">
<path d="M7.20775 18L0.58375 0.456H3.84775L7.68775 10.56C8.07175 11.616 8.40775 12.648 8.79175 14.064C9.22375 12.528 9.58375 11.448 9.91975 10.56L13.7118 0.456H16.9038L10.3758 18H7.20775ZM21.9488 18.312C18.4208 18.312 15.9488 15.744 15.9488 12.072C15.9488 8.352 18.3728 5.784 21.8528 5.784C25.4048 5.784 27.6608 8.16 27.6608 11.856V12.744L18.7328 12.768C18.9488 14.856 20.0528 15.912 21.9968 15.912C23.6048 15.912 24.6608 15.288 24.9968 14.16H27.7088C27.2048 16.752 25.0448 18.312 21.9488 18.312ZM21.8768 8.184C20.1488 8.184 19.0928 9.12 18.8048 10.896H24.7568C24.7568 9.264 23.6288 8.184 21.8768 8.184ZM37.4442 6.096V8.808H36.3642C34.2522 8.808 32.9322 9.936 32.9322 12.24V18H30.0042V6.168H32.7642L32.9322 7.896C33.4362 6.72 34.5642 5.928 36.1482 5.928C36.5562 5.928 36.9642 5.976 37.4442 6.096ZM40.8901 3.768C39.8821 3.768 39.0901 2.976 39.0901 1.992C39.0901 1.008 39.8821 0.24 40.8901 0.24C41.8501 0.24 42.6421 1.008 42.6421 1.992C42.6421 2.976 41.8501 3.768 40.8901 3.768ZM39.4261 18V6.144H42.3541V18H39.4261ZM44.2032 6.144H45.9072V4.704C45.9072 1.488 47.6112 0.144 50.1792 0.144C50.6352 0.144 51.1872 0.167999 51.6912 0.263999V2.76H50.6592C49.1712 2.76 48.8112 3.528 48.8112 4.704V6.144H51.6432V8.592H48.8112V18H45.9072V8.592H44.2032V6.144ZM52.48 23.496V21.048H54.232C55.384 21.048 56.104 20.784 56.608 19.392L56.944 18.504L52.168 6.144H55.264L58.312 14.784L61.528 6.144H64.552L58.744 20.64C57.856 22.848 56.608 23.76 54.664 23.76C53.848 23.76 53.128 23.664 52.48 23.496ZM74.6279 18H71.4359L77.7719 0.456H80.9159L87.2519 18H84.0119L82.5959 13.944H76.0439L74.6279 18ZM78.9479 5.688L76.9559 11.352H81.7079L79.6919 5.688C79.5479 5.232 79.3799 4.704 79.3319 4.344C79.2599 4.68 79.1159 5.208 78.9479 5.688ZM87.7848 12.048C87.7848 8.376 90.2088 5.784 93.7128 5.784C96.9528 5.784 99.1608 7.584 99.4728 10.44H96.5448C96.2088 9.096 95.2248 8.4 93.8328 8.4C91.9608 8.4 90.7128 9.816 90.7128 12.048C90.7128 14.28 91.8648 15.672 93.7368 15.672C95.2008 15.672 96.2328 14.952 96.5448 13.656H99.4968C99.1368 16.416 96.8328 18.312 93.7368 18.312C90.1367 18.312 87.7848 15.816 87.7848 12.048ZM100.98 12.048C100.98 8.376 103.404 5.784 106.908 5.784C110.148 5.784 112.356 7.584 112.668 10.44H109.74C109.404 9.096 108.42 8.4 107.028 8.4C105.156 8.4 103.908 9.816 103.908 12.048C103.908 14.28 105.06 15.672 106.932 15.672C108.396 15.672 109.428 14.952 109.74 13.656H112.692C112.332 16.416 110.028 18.312 106.932 18.312C103.332 18.312 100.98 15.816 100.98 12.048ZM114.175 12.048C114.175 8.352 116.839 5.808 120.511 5.808C124.183 5.808 126.847 8.352 126.847 12.048C126.847 15.744 124.183 18.288 120.511 18.288C116.839 18.288 114.175 15.744 114.175 12.048ZM117.103 12.048C117.103 14.208 118.495 15.672 120.511 15.672C122.527 15.672 123.919 14.208 123.919 12.048C123.919 9.888 122.527 8.424 120.511 8.424C118.495 8.424 117.103 9.888 117.103 12.048ZM136.927 6.144H139.855V18H137.143L136.927 16.416C136.207 17.544 134.671 18.312 133.087 18.312C130.351 18.312 128.743 16.464 128.743 13.56V6.144H131.671V12.528C131.671 14.784 132.559 15.696 134.191 15.696C136.039 15.696 136.927 14.616 136.927 12.36V6.144ZM145.807 18H142.879V6.144H145.591L145.831 7.68C146.575 6.48 148.015 5.784 149.623 5.784C152.599 5.784 154.135 7.632 154.135 10.704V18H151.207V11.4C151.207 9.408 150.223 8.448 148.711 8.448C146.911 8.448 145.807 9.696 145.807 11.616V18ZM161.044 18H158.116V8.592H155.836V6.144H158.116V2.448H161.044V6.144H163.348V8.592H161.044V18Z" fill="#141111"/>
</svg>
