<svg width="174" height="58" viewBox="0 0 174 58" fill="none" xmlns="http://www.w3.org/2000/svg">
<path d="M5.76778 25L0.535781 7.456H3.72778L6.51178 16.72C6.77578 17.68 7.03978 18.664 7.30378 20.2C7.59178 18.64 7.85578 17.728 8.16778 16.72L10.9278 7.456H14.3118L17.0238 16.72C17.3118 17.704 17.5758 18.712 17.8638 20.2C18.1998 18.568 18.4398 17.632 18.7038 16.744L21.5358 7.456H24.6558L19.3278 25H16.3518L12.6078 12.232L8.79178 25H5.76778ZM30.1246 25.312C26.5966 25.312 24.1246 22.744 24.1246 19.072C24.1246 15.352 26.5486 12.784 30.0286 12.784C33.5806 12.784 35.8366 15.16 35.8366 18.856V19.744L26.9086 19.768C27.1246 21.856 28.2286 22.912 30.1726 22.912C31.7806 22.912 32.8366 22.288 33.1726 21.16H35.8846C35.3806 23.752 33.2206 25.312 30.1246 25.312ZM30.0526 15.184C28.3246 15.184 27.2686 16.12 26.9806 17.896H32.9326C32.9326 16.264 31.8046 15.184 30.0526 15.184ZM41.132 25H38.228V7.144H41.132V25ZM43.5074 19.048C43.5074 15.376 45.9314 12.784 49.4354 12.784C52.6754 12.784 54.8834 14.584 55.1954 17.44H52.2674C51.9314 16.096 50.9474 15.4 49.5554 15.4C47.6834 15.4 46.4354 16.816 46.4354 19.048C46.4354 21.28 47.5874 22.672 49.4594 22.672C50.9234 22.672 51.9554 21.952 52.2674 20.656H55.2194C54.8594 23.416 52.5554 25.312 49.4594 25.312C45.8594 25.312 43.5074 22.816 43.5074 19.048ZM56.7027 19.048C56.7027 15.352 59.3667 12.808 63.0387 12.808C66.7107 12.808 69.3747 15.352 69.3747 19.048C69.3747 22.744 66.7107 25.288 63.0387 25.288C59.3667 25.288 56.7027 22.744 56.7027 19.048ZM59.6307 19.048C59.6307 21.208 61.0227 22.672 63.0387 22.672C65.0547 22.672 66.4467 21.208 66.4467 19.048C66.4467 16.888 65.0547 15.424 63.0387 15.424C61.0227 15.424 59.6307 16.888 59.6307 19.048ZM74.6236 25H71.6956V13.144H74.3836L74.6236 14.536C75.2236 13.552 76.4236 12.784 78.1276 12.784C79.9276 12.784 81.1756 13.672 81.7996 15.04C82.3996 13.672 83.7916 12.784 85.5916 12.784C88.4716 12.784 90.0556 14.512 90.0556 17.248V25H87.1516V18.016C87.1516 16.312 86.2396 15.424 84.8476 15.424C83.4316 15.424 82.3516 16.336 82.3516 18.28V25H79.4236V17.992C79.4236 16.336 78.5356 15.448 77.1436 15.448C75.7516 15.448 74.6236 16.36 74.6236 18.28V25ZM98.234 25.312C94.706 25.312 92.234 22.744 92.234 19.072C92.234 15.352 94.658 12.784 98.138 12.784C101.69 12.784 103.946 15.16 103.946 18.856V19.744L95.018 19.768C95.234 21.856 96.338 22.912 98.282 22.912C99.89 22.912 100.946 22.288 101.282 21.16H103.994C103.49 23.752 101.33 25.312 98.234 25.312ZM98.162 15.184C96.434 15.184 95.378 16.12 95.09 17.896H101.042C101.042 16.264 99.914 15.184 98.162 15.184ZM113.19 25V7.456H120.174C123.63 7.456 125.742 9.256 125.742 12.184C125.742 14.128 124.878 15.52 123.222 16.216C125.07 16.816 126.006 18.208 126.006 20.248C126.006 23.248 123.918 25 120.294 25H113.19ZM119.91 10.168H116.262V14.944H119.982C121.662 14.944 122.598 14.056 122.598 12.496C122.598 10.984 121.638 10.168 119.91 10.168ZM120.174 17.536H116.262V22.288H120.174C121.902 22.288 122.862 21.448 122.862 19.864C122.862 18.376 121.878 17.536 120.174 17.536ZM131.919 25.312C129.399 25.312 127.863 23.848 127.863 21.616C127.863 19.432 129.447 18.064 132.255 17.848L135.807 17.584V17.32C135.807 15.712 134.847 15.064 133.359 15.064C131.631 15.064 130.671 15.784 130.671 17.032H128.175C128.175 14.464 130.287 12.784 133.503 12.784C136.695 12.784 138.663 14.512 138.663 17.8V25H136.095L135.879 23.248C135.375 24.472 133.767 25.312 131.919 25.312ZM132.879 23.104C134.679 23.104 135.831 22.024 135.831 20.2V19.576L133.359 19.768C131.535 19.936 130.839 20.536 130.839 21.496C130.839 22.576 131.559 23.104 132.879 23.104ZM140.843 19.048C140.843 15.376 143.267 12.784 146.771 12.784C150.011 12.784 152.219 14.584 152.531 17.44H149.603C149.267 16.096 148.283 15.4 146.891 15.4C145.019 15.4 143.771 16.816 143.771 19.048C143.771 21.28 144.923 22.672 146.795 22.672C148.259 22.672 149.291 21.952 149.603 20.656H152.555C152.195 23.416 149.891 25.312 146.795 25.312C143.195 25.312 140.843 22.816 140.843 19.048ZM157.687 25H154.783V7.144H157.687V18.112L162.295 13.144H165.967L161.455 17.848L165.871 25H162.511L159.415 20.008L157.687 21.808V25ZM171.129 19.744H168.777C168.465 17.824 168.249 14.608 168.249 11.488V7.456H171.705V11.488C171.705 14.68 171.465 17.896 171.129 19.744ZM169.977 25.312C168.897 25.312 168.009 24.448 168.009 23.416C168.009 22.36 168.897 21.496 169.977 21.496C171.009 21.496 171.897 22.36 171.897 23.416C171.897 24.448 171.009 25.312 169.977 25.312Z" fill="#F65734"/>
<path opacity="0.4" d="M14.7353 44.52C14.7353 42.6 16.2713 41.336 18.5753 41.336C20.6393 41.336 21.9993 42.488 22.1753 44.408H21.0073C20.8793 43.112 19.9993 42.376 18.5593 42.376C16.9433 42.376 15.8873 43.208 15.8873 44.504C15.8873 45.512 16.4793 46.152 17.6793 46.456L19.6473 46.936C21.4393 47.368 22.3673 48.392 22.3673 49.944C22.3673 51.928 20.8313 53.192 18.4633 53.192C16.2393 53.192 14.7353 52.024 14.5913 50.152H15.7753C15.8393 51.352 16.8953 52.136 18.4633 52.136C20.1433 52.136 21.2153 51.32 21.2153 50.008C21.2153 48.984 20.6393 48.312 19.4073 48.024L17.4713 47.544C15.6793 47.112 14.7353 46.088 14.7353 44.52ZM24.7429 43.128C24.2949 43.128 23.9269 42.76 23.9269 42.312C23.9269 41.864 24.2949 41.48 24.7429 41.48C25.1909 41.48 25.5749 41.864 25.5749 42.312C25.5749 42.76 25.1909 43.128 24.7429 43.128ZM24.1989 53V45.256H25.3029V53H24.1989ZM27.0771 48.904C27.0771 46.792 28.4371 45.048 30.7091 45.048C32.0531 45.048 33.0771 45.672 33.5731 46.808L33.6851 45.256H34.6451V52.76C34.6451 55.064 33.1731 56.568 30.9011 56.568C28.9171 56.568 27.5251 55.448 27.2211 53.576H28.3251C28.5651 54.824 29.5251 55.56 30.9171 55.56C32.5011 55.56 33.5571 54.488 33.5571 52.872V51.032C33.0291 52.12 31.9571 52.76 30.6291 52.76C28.4211 52.76 27.0771 51.016 27.0771 48.904ZM28.1811 48.888C28.1811 50.472 29.1571 51.768 30.7891 51.768C32.4691 51.768 33.4611 50.552 33.4611 48.888C33.4611 47.24 32.5011 46.024 30.8051 46.024C29.1411 46.024 28.1811 47.32 28.1811 48.888ZM38.0529 53H36.9489V45.256H37.9089L38.0689 46.6C38.5809 45.608 39.6049 45.048 40.7249 45.048C42.8529 45.048 43.7329 46.312 43.7329 48.264V53H42.6289V48.504C42.6289 46.696 41.8129 46.056 40.5329 46.056C38.9489 46.056 38.0529 47.208 38.0529 48.952V53ZM51.7628 41.544V53H50.6108V41.544H51.7628ZM55.4123 53H54.3083V45.256H55.2682L55.4283 46.6C55.9403 45.608 56.9643 45.048 58.0843 45.048C60.2123 45.048 61.0923 46.312 61.0923 48.264V53H59.9883V48.504C59.9883 46.696 59.1723 46.056 57.8923 46.056C56.3083 46.056 55.4123 47.208 55.4123 48.952V53ZM69.5061 53H68.4181V46.184H66.8661V45.256H68.4181V42.808H69.5061V45.256H71.0581V46.184H69.5061V53ZM71.8736 49.128C71.8736 46.76 73.5376 45.048 75.8096 45.048C78.0816 45.048 79.7456 46.76 79.7456 49.128C79.7456 51.48 78.0816 53.192 75.8096 53.192C73.5376 53.192 71.8736 51.48 71.8736 49.128ZM72.9936 49.112C72.9936 50.936 74.1456 52.2 75.8096 52.2C77.4576 52.2 78.6256 50.936 78.6256 49.112C78.6256 47.32 77.4576 46.04 75.8096 46.04C74.1456 46.04 72.9936 47.32 72.9936 49.112ZM85.4209 48.904C85.4209 46.792 86.7809 45.048 89.0529 45.048C90.3969 45.048 91.4209 45.672 91.9169 46.808L92.0289 45.256H92.9889V52.76C92.9889 55.064 91.5169 56.568 89.2449 56.568C87.2609 56.568 85.8689 55.448 85.5649 53.576H86.6689C86.9089 54.824 87.8689 55.56 89.2609 55.56C90.8449 55.56 91.9009 54.488 91.9009 52.872V51.032C91.3729 52.12 90.3009 52.76 88.9729 52.76C86.7649 52.76 85.4209 51.016 85.4209 48.904ZM86.5249 48.888C86.5249 50.472 87.5009 51.768 89.1329 51.768C90.8129 51.768 91.8049 50.552 91.8049 48.888C91.8049 47.24 90.8449 46.024 89.1489 46.024C87.4849 46.024 86.5249 47.32 86.5249 48.888ZM98.5406 53.192C96.2686 53.192 94.7486 51.56 94.7486 49.128C94.7486 46.712 96.2526 45.048 98.4606 45.048C100.557 45.048 101.981 46.536 101.981 48.728V49.272H95.8206C95.9006 51.16 96.8926 52.248 98.5566 52.248C99.8206 52.248 100.637 51.704 100.925 50.68H101.981C101.565 52.312 100.365 53.192 98.5406 53.192ZM98.4606 45.992C97.0046 45.992 96.0446 46.952 95.8526 48.472H100.877C100.877 46.984 99.9166 45.992 98.4606 45.992ZM105.444 53H104.356V46.184H102.804V45.256H104.356V42.808H105.444V45.256H106.996V46.184H105.444V53ZM112.215 50.824H113.271C113.271 51.72 113.943 52.28 115.031 52.28C116.231 52.28 116.935 51.768 116.935 50.936C116.935 50.296 116.615 49.928 115.703 49.704L114.375 49.368C113.031 49.032 112.375 48.328 112.375 47.272C112.375 45.912 113.511 45.048 115.175 45.048C116.807 45.048 117.863 45.944 117.911 47.384H116.839C116.807 46.488 116.183 45.96 115.143 45.96C114.055 45.96 113.447 46.424 113.447 47.256C113.447 47.848 113.863 48.264 114.711 48.472L116.039 48.808C117.383 49.144 117.991 49.768 117.991 50.888C117.991 52.28 116.807 53.192 115.047 53.192C113.303 53.192 112.215 52.264 112.215 50.824ZM121.584 53H120.496V46.184H118.944V45.256H120.496V42.808H121.584V45.256H123.136V46.184H121.584V53ZM126.673 53.192C125.025 53.192 124.049 52.264 124.049 50.904C124.049 49.48 125.137 48.584 126.945 48.44L129.505 48.232V47.976C129.505 46.456 128.593 45.976 127.457 45.976C126.113 45.976 125.313 46.584 125.313 47.624H124.305C124.305 46.056 125.585 45.048 127.489 45.048C129.281 45.048 130.593 45.944 130.593 47.992V53H129.665L129.521 51.64C129.041 52.616 127.985 53.192 126.673 53.192ZM126.929 52.296C128.561 52.296 129.505 51.16 129.505 49.48V49.064L127.217 49.24C125.761 49.368 125.169 50.008 125.169 50.872C125.169 51.816 125.873 52.296 126.929 52.296ZM136.856 45.16V46.152H136.248C134.824 46.152 133.912 47.112 133.912 48.584V53H132.808V45.256H133.848L133.928 46.456C134.232 45.624 135.048 45.08 136.136 45.08C136.376 45.08 136.584 45.096 136.856 45.16ZM140.412 53H139.324V46.184H137.772V45.256H139.324V42.808H140.412V45.256H141.964V46.184H140.412V53ZM146.572 53.192C144.3 53.192 142.78 51.56 142.78 49.128C142.78 46.712 144.284 45.048 146.492 45.048C148.588 45.048 150.012 46.536 150.012 48.728V49.272H143.852C143.932 51.16 144.924 52.248 146.588 52.248C147.852 52.248 148.668 51.704 148.956 50.68H150.012C149.596 52.312 148.396 53.192 146.572 53.192ZM146.492 45.992C145.036 45.992 144.076 46.952 143.884 48.472H148.908C148.908 46.984 147.948 45.992 146.492 45.992ZM154.817 53.192C152.561 53.192 151.233 51.464 151.233 49.144C151.233 46.808 152.561 45.048 154.865 45.048C156.145 45.048 157.169 45.608 157.713 46.728V41.336H158.817V53H157.857L157.745 51.416C157.201 52.616 156.113 53.192 154.817 53.192ZM155.009 52.184C156.705 52.184 157.697 50.904 157.697 49.112C157.697 47.336 156.705 46.04 155.009 46.04C153.329 46.04 152.353 47.336 152.353 49.112C152.353 50.904 153.329 52.184 155.009 52.184Z" fill="#141111"/>
</svg>
