<svg width="316" height="236" viewBox="0 0 316 236" fill="none" xmlns="http://www.w3.org/2000/svg">
<g clip-path="url(#clip0_173_4034)">
<mask id="mask0_173_4034" style="mask-type:luminance" maskUnits="userSpaceOnUse" x="0" y="12" width="316" height="316">
<path d="M316 12H0V328H316V12Z" fill="white"/>
</mask>
<g mask="url(#mask0_173_4034)">
<path d="M157.292 41.8757C157.292 -43.4981 210.639 77.5221 189.338 114.488C210.677 77.5221 342.177 63.2146 268.227 105.911C342.177 63.2146 264.043 170.003 221.364 170.003C264.043 170.003 342.177 276.734 268.227 234.094C342.177 276.791 210.677 262.484 189.338 225.518C210.677 262.484 157.292 383.504 157.292 298.13C157.292 383.504 103.926 262.484 125.246 225.518C103.907 262.484 -27.5936 276.791 46.3569 234.094C-27.5936 276.791 50.5417 170.003 93.238 170.003C50.5417 170.003 -27.5936 63.2711 46.3569 105.911C-27.5936 63.2146 103.907 77.5221 125.246 114.488C103.926 77.4843 157.292 -43.4981 157.292 41.8757Z" fill="url(#paint0_linear_173_4034)"/>
</g>
</g>
<path d="M215.369 188.146H92.8374V111.507C92.8374 110.058 93.9897 108.885 95.4106 108.885H212.796C214.217 108.885 215.369 110.058 215.369 111.507V188.146Z" fill="#D3D3D3"/>
<path d="M97.3228 114.438H210.886V182.022H97.3228V114.438Z" fill="#F2F2F2"/>
<path d="M73.3499 210.96C72.2236 212.433 74.3759 216.833 77.7512 216.833H233.074C236.448 216.833 238.572 212.433 237.281 210.96H73.3499Z" fill="#D3D3D3"/>
<path d="M236.848 210.155C238.139 211.626 236.448 212.82 233.075 212.82H77.7521C74.3768 212.82 72.5545 211.626 73.6808 210.155L89.5828 189.361C90.7091 187.889 93.6564 186.696 96.1675 186.696H211.724C214.233 186.696 217.317 187.889 218.609 189.361C224.686 196.295 230.768 203.222 236.848 210.155Z" fill="#F2F2F2"/>
<path opacity="0.5" d="M108.177 193.709H102.931C103.673 192.61 104.045 192.059 104.785 190.96H109.824L108.177 193.709ZM114.976 193.709H109.73C110.365 192.61 110.683 192.059 111.317 190.96H116.354L114.976 193.709ZM112.803 190.433H105.145L105.837 189.407H113.379L112.803 190.433ZM121.779 190.434L114.119 190.433L114.672 189.407H122.214C122.041 189.818 121.952 190.023 121.779 190.434ZM130.756 190.433H123.095L123.509 189.407H131.055L130.756 190.433ZM139.731 190.433H132.072L132.347 189.407H139.89C139.828 189.818 139.796 190.023 139.731 190.433ZM148.708 190.433H141.047L141.186 189.407H148.728L148.708 190.433ZM157.684 190.433H150.025V189.407H157.566C157.614 189.818 157.635 190.023 157.684 190.433ZM166.662 190.433H159.001L158.861 189.407H166.405C166.506 189.818 166.558 190.023 166.662 190.433ZM175.639 190.433H167.978L167.7 189.407H175.242C175.402 189.818 175.481 190.023 175.639 190.433ZM184.615 190.433H176.955C176.787 190.023 176.704 189.818 176.536 189.407H184.082L184.615 190.433ZM193.59 190.433H185.931C185.709 190.023 185.597 189.818 185.377 189.407H192.917C193.186 189.818 193.32 190.023 193.59 190.433ZM203.606 190.433H194.908L194.214 189.407H202.78C203.11 189.818 203.276 190.023 203.606 190.433ZM121.772 193.709H116.527C117.054 192.61 117.319 192.06 117.845 190.961L122.882 190.96C122.439 192.061 122.217 192.609 121.772 193.709ZM128.57 193.709H123.324C123.745 192.61 123.954 192.059 124.376 190.96L129.414 190.961L128.57 193.709ZM135.369 193.709H130.124C130.437 192.609 130.595 192.06 130.907 190.96H135.944C135.714 192.059 135.597 192.61 135.369 193.709ZM142.166 193.709H136.922C137.127 192.61 137.228 192.058 137.435 190.96H142.474C142.35 192.059 142.287 192.61 142.166 193.709ZM148.96 193.709H143.72L143.965 190.96H149.001C148.986 192.059 148.978 192.61 148.96 193.709ZM155.761 193.709H150.517L150.497 190.96H155.533C155.625 192.059 155.671 192.61 155.761 193.709ZM162.558 193.709H157.316L157.029 190.96H162.062C162.262 192.059 162.36 192.61 162.558 193.709ZM169.355 193.709H164.111C163.89 192.61 163.778 192.059 163.555 190.96H168.592C168.896 192.059 169.049 192.61 169.355 193.709ZM105.98 197.375H100.461L102.313 194.626H107.627L105.98 197.375ZM113.137 197.375H107.616C108.252 196.276 108.569 195.726 109.203 194.626H114.518C113.964 195.725 113.687 196.275 113.137 197.375ZM120.291 197.375H114.771C115.298 196.276 115.56 195.726 116.088 194.626H121.401C120.957 195.726 120.734 196.275 120.291 197.375ZM127.446 197.375H121.924C122.344 196.276 122.555 195.726 122.974 194.626H128.289C127.951 195.726 127.783 196.275 127.446 197.375ZM134.602 197.375H129.082C129.395 196.276 129.551 195.726 129.863 194.628C131.99 194.628 133.05 194.626 135.177 194.626C134.945 195.726 134.831 196.275 134.602 197.375ZM141.754 197.375H136.234L136.749 194.626H142.062C141.94 195.725 141.877 196.275 141.754 197.375ZM148.908 197.375H143.39L143.637 194.626H148.947L148.908 197.375ZM156.064 197.375H150.544L150.524 194.626H155.837C155.927 195.726 155.974 196.275 156.064 197.375ZM163.218 197.375H157.701C157.585 196.276 157.526 195.726 157.413 194.626H162.722L163.218 197.375ZM170.372 197.375H164.854C164.631 196.276 164.518 195.726 164.296 194.626H169.609L170.372 197.375ZM103.785 201.04H97.9892C98.7293 199.941 99.1018 199.39 99.8433 198.292L105.432 198.29C104.773 199.389 104.442 199.94 103.785 201.04ZM111.296 201.04H105.502L107.087 198.292H112.678C112.125 199.389 111.848 199.94 111.296 201.04ZM118.81 201.04H113.013L114.33 198.292H119.919L118.81 201.04ZM126.32 201.04H120.523L121.573 198.292H127.164L126.32 201.04ZM133.831 201.04H128.038C128.35 199.941 128.509 199.39 128.819 198.292H134.408C134.179 199.389 134.063 199.94 133.831 201.04ZM141.342 201.04H135.548C135.753 199.941 135.857 199.39 136.063 198.292H141.652L141.342 201.04ZM148.852 201.04H143.061L143.306 198.292H148.892C148.878 199.389 148.869 199.94 148.852 201.04ZM156.369 201.04H150.572C150.566 199.941 150.561 199.39 150.552 198.292H156.141C156.232 199.389 156.276 199.94 156.369 201.04ZM163.879 201.04H158.087C157.971 199.941 157.912 199.39 157.798 198.292H163.384C163.581 199.389 163.682 199.94 163.879 201.04ZM171.388 201.04H165.593C165.372 199.941 165.261 199.39 165.038 198.292H170.626L171.388 201.04ZM101.588 204.703H95.5171C96.2579 203.604 96.6311 203.055 97.3719 201.956H103.235C102.687 202.873 102.138 203.788 101.588 204.703ZM109.458 204.703H103.388L104.975 201.956H110.839C110.287 203.055 110.009 203.604 109.458 204.703ZM117.326 204.703H111.256C111.783 203.604 112.047 203.055 112.576 201.956H118.438C117.994 203.055 117.772 203.604 117.326 204.703ZM125.169 204.791H119.088C119.524 203.658 119.739 203.09 120.173 201.957H126.039C125.691 203.089 125.518 203.658 125.169 204.791ZM172.408 204.703H126.993C127.305 203.604 127.461 203.055 127.774 201.956H171.645L172.408 204.703ZM138.839 210.742H173.289L170.388 206.06H141.581L138.839 210.742ZM175.506 193.709H170.261C169.94 192.61 169.782 192.059 169.463 190.96H174.5C174.902 192.058 175.102 192.61 175.506 193.709ZM176.846 197.375H171.324C171.006 196.276 170.847 195.726 170.527 194.626H175.842C176.242 195.726 176.444 196.275 176.846 197.375ZM178.186 201.04H172.39C172.07 199.941 171.913 199.39 171.593 198.292H177.182C177.583 199.389 177.782 199.94 178.186 201.04ZM179.526 204.703H173.455L172.656 201.956H178.52L179.526 204.703ZM181.654 193.709H176.409C175.993 192.61 175.783 192.059 175.369 190.96H180.407C180.904 192.059 181.155 192.61 181.654 193.709ZM183.318 197.375H177.798C177.381 196.276 177.172 195.726 176.757 194.626H182.07C182.568 195.725 182.819 196.275 183.318 197.375ZM184.98 201.04H179.185L178.143 198.292H183.732C184.233 199.389 184.48 199.94 184.98 201.04ZM186.643 204.703H180.571C180.156 203.604 179.947 203.055 179.533 201.956H185.395C185.895 203.055 186.143 203.604 186.643 204.703ZM187.802 193.709H182.559L181.275 190.96H186.314C186.909 192.059 187.208 192.61 187.802 193.709ZM189.788 197.375H184.268L182.984 194.626H188.299C188.894 195.726 189.194 196.275 189.788 197.375ZM191.776 201.04H185.979C185.466 199.941 185.21 199.39 184.696 198.292H190.286L191.776 201.04ZM193.76 204.703H187.689C187.176 203.604 186.921 203.055 186.406 201.956H192.271L193.76 204.703ZM193.95 193.709H188.706L187.182 190.96H192.218C192.913 192.059 193.258 192.61 193.95 193.709ZM196.26 197.375H190.74L189.215 194.626H194.529C195.221 195.726 195.569 196.275 196.26 197.375ZM198.569 201.04H192.775C192.165 199.941 191.861 199.39 191.249 198.292H196.838C197.531 199.389 197.877 199.94 198.569 201.04ZM200.879 204.703H194.807C194.3 203.787 193.791 202.872 193.282 201.956H199.147C199.839 203.055 200.185 203.604 200.879 204.703ZM200.102 193.709H194.856C194.147 192.61 193.794 192.059 193.086 190.96H198.126C198.915 192.059 199.31 192.61 200.102 193.709ZM202.731 197.375H197.211C196.503 196.276 196.15 195.726 195.445 194.626H200.758C201.548 195.726 201.943 196.275 202.731 197.375ZM205.364 201.04H199.567C198.861 199.941 198.508 199.39 197.801 198.292H203.391C204.182 199.389 204.575 199.94 205.364 201.04ZM207.995 204.703H201.923L200.156 201.956H206.022L207.995 204.703ZM206.247 193.709H201.004C200.2 192.61 199.799 192.059 198.993 190.96H204.032C204.918 192.059 205.361 192.61 206.247 193.709ZM209.202 197.375H203.682C202.881 196.276 202.477 195.726 201.674 194.626H206.987L209.202 197.375ZM212.158 201.04H206.362C205.558 199.941 205.157 199.39 204.353 198.292H209.942C210.828 199.389 211.271 199.94 212.158 201.04ZM215.113 204.703H209.04L207.032 201.956H212.896C213.783 203.055 214.225 203.604 215.113 204.703Z" fill="#D3D3D3"/>
<path d="M183.183 182.004H129.114C129.5 180.434 129.854 179.18 130.164 178.308C130.325 177.86 130.547 177.437 130.823 177.049C131.781 175.691 133.421 174.537 135.535 173.56C138.057 172.394 141.25 171.476 144.75 170.749C148.469 169.987 152.526 169.437 156.476 169.039C156.743 169.016 157.008 168.987 157.275 168.964C161.668 168.554 165.889 168.329 169.295 168.22C173.996 168.057 177.166 168.091 177.166 168.091C177.166 168.091 177.42 168.496 177.865 169.305C178.909 171.223 180.995 175.426 183.183 182.004Z" fill="#921A00"/>
<path d="M141.764 93.7671C141.661 94.4603 141.481 95.1022 141.225 95.7203L141.378 93.9729C141.507 93.8949 141.637 93.8444 141.764 93.7671Z" fill="#FFE3CA"/>
<path d="M170.405 91.1727V91.1958C170.352 91.1727 170.301 91.146 170.276 91.146C170.328 91.1467 170.352 91.1727 170.405 91.1727Z" fill="#EEBEA7"/>
<path d="M225.896 128.048C225.896 128.048 229.235 124.951 228.573 122.629C228.012 120.657 228.859 118.449 229.07 117.533C229.356 116.319 229.471 112.378 230.376 112.593C231.909 112.965 231.555 119.256 231.744 120.597C231.933 121.936 235.994 117.45 237.378 117.215C238.766 116.975 245.815 124.121 242.675 126.881C239.534 129.635 235.203 130.753 234.745 131.348C234.288 131.943 232.136 133.578 232.136 133.578L225.896 128.048Z" fill="#F1B99E"/>
<path d="M236.492 117.682C236.492 117.682 246.673 109.883 247.785 109.93C248.902 109.975 249.288 110.555 248.365 111.322C247.446 112.091 238.752 119.147 238.752 119.147C238.752 119.147 252.348 111.938 253.272 111.777C253.807 111.682 254.219 112.713 253.761 113.171C253.306 113.625 240.653 121.587 240.653 121.587C240.653 121.587 253.36 114.877 254.17 114.972C254.88 115.058 255.386 116.229 254.478 116.791C253.569 117.352 242.126 124.248 242.126 124.248C242.126 124.248 251.685 119.95 252.322 120.431C252.708 120.728 253.259 121.381 250.762 122.412C248.26 123.445 242.818 126.741 242.818 126.741L236.492 117.682Z" fill="#F1B99E"/>
<path d="M163.804 84.4407V85.1339C163.75 85.0075 163.7 84.9035 163.675 84.775C163.623 84.7497 163.623 84.6992 163.623 84.671C163.675 84.5959 163.726 84.5201 163.804 84.4407Z" fill="#FFBE55"/>
<path d="M156.149 88.6555C156.046 88.6793 155.916 88.6794 155.814 88.6794V88.6288C155.916 88.6555 156.046 88.6555 156.149 88.6555ZM163.803 84.4407V84.6472C163.76 84.6889 163.717 84.7315 163.675 84.775C163.393 85.0833 163.083 85.365 162.775 85.6487C162.646 85.752 162.544 85.8531 162.417 85.9563C162.569 85.804 162.749 85.6227 162.906 85.4689C163.137 85.2379 163.367 84.9555 163.622 84.671C163.675 84.5959 163.725 84.5201 163.803 84.4407Z" fill="#EEBEA7"/>
<path d="M169.685 75.5793C168.273 78.7139 166.551 81.5401 164.598 83.775C164.343 84.0826 164.059 84.3902 163.803 84.648V84.4415C163.725 84.5202 163.674 84.5967 163.622 84.6718C163.366 84.9563 163.137 85.2387 162.906 85.4697C162.749 85.6243 162.569 85.8048 162.417 85.9572C162.363 85.9839 162.314 86.0359 162.262 86.0864C162.184 86.163 162.108 86.2409 162.029 86.2662C161.827 86.4433 161.612 86.6062 161.387 86.7536C161.106 86.9594 160.849 87.1385 160.568 87.293C160.501 87.3385 160.432 87.3816 160.362 87.4223C160.103 87.5746 159.849 87.7039 159.619 87.8057C159.388 87.9298 159.146 88.0333 158.897 88.1148L158.872 88.1408C158.667 88.1927 158.512 88.2693 158.332 88.3206C158.279 88.3465 158.231 88.3725 158.177 88.3725C158 88.4231 157.819 88.4736 157.638 88.5011C157.588 88.5011 157.562 88.5256 157.511 88.5256H157.432C157.305 88.5531 157.152 88.5783 157.023 88.6043C156.894 88.6289 156.74 88.6289 156.613 88.6289C156.486 88.6556 156.353 88.6556 156.251 88.6556H156.226C156.202 88.6794 156.176 88.6794 156.15 88.6556C156.047 88.6556 155.917 88.6556 155.816 88.6289V88.6794C155.662 88.6794 155.507 88.6556 155.329 88.6289C155.148 88.6043 154.943 88.5783 154.761 88.5531C154.659 88.5256 154.559 88.5256 154.427 88.5011C154.326 88.4736 154.222 88.4736 154.12 88.4231C153.581 88.2946 153.069 88.0888 152.528 87.8057C152.36 87.7227 152.196 87.6292 152.039 87.5255C151.193 87.0374 150.369 86.3435 149.521 85.469C149.216 85.1629 148.932 84.8018 148.624 84.4408C147.314 82.7966 146.006 80.6151 144.797 77.8409C144.304 76.7314 143.842 75.6089 143.409 74.4745C144.051 75.7331 142.932 63.9919 143.19 64.4042C139.698 57.7249 143.178 63.2221 144.414 59.9099C152.143 63.1716 167.168 68.7981 167.168 63.0943C167.168 63.0943 167.501 66.5625 167.888 70.1585C168.196 73.1126 168.53 76.1714 168.685 77.3267C168.684 77.326 169.093 76.6834 169.685 75.5793Z" fill="#F4C7B1"/>
<path d="M156.149 88.6555C156.046 88.6793 155.916 88.6794 155.814 88.6794V88.6288C155.916 88.6555 156.046 88.6555 156.149 88.6555ZM163.803 84.4407V84.6472C163.76 84.6889 163.717 84.7315 163.675 84.775C163.393 85.0833 163.083 85.365 162.775 85.6487C162.646 85.752 162.544 85.8531 162.417 85.9563C162.569 85.804 162.749 85.6227 162.906 85.4689C163.137 85.2379 163.367 84.9555 163.622 84.671C163.675 84.5959 163.725 84.5201 163.803 84.4407Z" fill="#EEBEA7"/>
<path d="M143.408 74.4743C141.351 70.4154 138.039 62.6588 138.63 55.3108V55.284C137.707 49.1968 145.283 38.2275 156.843 38.7922C168.4 38.2275 175.979 49.1968 175.053 55.284V55.3108C175.41 59.7545 174.332 64.3268 172.997 68.156C173.845 68.1279 174.665 68.2311 175.488 68.5142C180.087 70.0306 182.243 76.016 180.292 81.8476C178.366 87.7037 173.048 91.1965 168.451 89.6815C166.318 88.9876 164.699 87.3189 163.802 85.1338V84.6471C164.058 84.3901 164.343 84.0817 164.597 83.7741C166.55 81.5392 168.272 78.713 169.684 75.5784C169.092 76.6832 168.733 78.0407 168.733 78.0407C168.577 76.8868 168.193 73.1117 167.886 70.1577C167.498 66.5616 167.165 63.0935 167.165 63.0935C167.165 68.798 152.141 63.1707 144.412 59.909L143.408 74.4743Z" fill="black"/>
<path d="M163.803 84.4407V85.1339C163.803 85.6227 163.779 86.2134 163.803 86.8813C163.058 87.8056 162.313 88.5775 161.543 89.1675C161.284 89.3733 161.028 89.5538 160.772 89.7329C160.578 89.8789 160.372 90.0077 160.155 90.1177H160.131C158.949 90.785 157.767 91.1193 156.612 91.1453H156.019C155.943 91.1453 155.867 91.1453 155.814 91.1193V88.6274C155.916 88.6541 156.046 88.6541 156.149 88.6541C156.175 88.6779 156.201 88.6779 156.225 88.6541H156.25C156.38 88.6779 156.484 88.6779 156.612 88.6779C156.766 88.6779 156.945 88.6541 157.099 88.6274C157.278 88.6028 157.485 88.5768 157.666 88.5515C157.767 88.5241 157.869 88.5241 157.999 88.4995C158.102 88.4721 158.204 88.4721 158.308 88.4216C158.847 88.293 159.359 88.0872 159.897 87.8042C160.053 87.7291 160.235 87.6265 160.386 87.524C160.95 87.2157 161.49 86.8026 162.029 86.264C162.108 86.2387 162.185 86.1607 162.263 86.0842C162.313 86.0336 162.363 85.9816 162.417 85.9549C162.569 85.8025 162.749 85.6213 162.906 85.4675C163.137 85.2364 163.367 84.9541 163.622 84.6696C163.675 84.5959 163.725 84.5201 163.803 84.4407Z" fill="#A5735B"/>
<path d="M155.816 106.456V175.996L167.812 175.483L177.676 175.046L176.672 162.896L175.568 149.305C173.856 150.031 172.151 150.777 170.455 151.542C170.918 146.172 171.123 141.24 170.815 137.206C169.608 122.203 167.734 109.976 166.269 101.987V101.961C166.422 100.42 166.216 98.6984 165.858 97.1062C165.805 96.7777 165.737 96.4519 165.653 96.1299C165.55 95.7696 165.475 95.4367 165.372 95.1024L165.138 94.3326C165.088 94.1528 165.01 93.973 164.961 93.8178C164.772 93.1892 164.549 92.5718 164.291 91.9685H164.241C164.447 92.8942 165.166 95.9768 166.063 100.831V100.857C165.476 103.426 163.598 104.864 161.286 105.662C161.261 105.662 161.211 105.686 161.183 105.686C159.593 106.227 157.794 106.431 156.074 106.457C155.997 106.456 155.894 106.483 155.816 106.456Z" fill="url(#paint1_linear_173_4034)"/>
<path d="M183.221 128.089C183.838 129.037 184.71 130.785 185.584 132.763C185.457 134.947 185.302 136.255 185.302 136.255C185.302 136.255 184.352 138.747 183.093 142.654C182.757 143.628 179.524 160.891 179.165 162.023C179.087 162.228 179.034 162.459 178.959 162.665C177.778 163.254 178.041 162.226 175.985 163.05C175.371 163.306 174.701 163.563 174.007 163.87C173.905 163.924 173.778 163.974 173.595 164.05C173.39 164.128 173.185 164.205 172.979 164.308C171.613 164.895 170.253 165.495 168.897 166.106C169.358 160.737 171.124 141.24 170.815 137.207C169.608 122.204 167.735 109.977 166.27 101.988V101.962C166.191 101.577 166.143 101.218 166.065 100.857V100.831C165.166 95.9769 164.447 92.895 164.24 91.9686H170.893V92.0213C172.742 91.892 181.467 90.6638 187.427 96.3408C184.139 94.9277 179.781 96.2065 178.319 97.107C177.727 97.4458 177.182 97.8601 176.697 98.3396C175.952 99.0349 175.343 99.8625 174.901 100.78C170.637 109.592 181.422 125.364 183.221 128.089Z" fill="url(#paint2_linear_173_4034)"/>
<path d="M183.706 182.004H167.175C167.348 179.897 167.567 177.712 167.811 175.485C168.058 173.094 168.354 170.663 168.635 168.22C168.729 167.376 168.827 166.538 168.919 165.697C168.919 165.697 168.925 165.697 168.931 165.691C170.939 164.956 173.579 161.544 176.472 160.401C176.541 160.377 176.605 160.349 176.674 160.325C177.499 160.043 178.319 162.329 179.163 162.023C179.705 167.763 181.64 175.253 183.706 182.004Z" fill="url(#paint3_linear_173_4034)"/>
<path d="M155.816 91.1208V106.457C155.894 106.483 155.997 106.457 156.075 106.457C157.795 106.431 159.593 106.227 161.183 105.686C161.213 105.686 161.262 105.662 161.287 105.662C163.598 104.864 165.476 103.426 166.064 100.857V100.831C165.167 95.9768 164.448 92.8949 164.242 91.9685H163.881V91.4811C163.881 91.1735 163.855 90.8904 163.855 90.6074C163.83 89.6824 163.83 88.8093 163.805 87.9609V86.8828C163.06 87.8071 162.315 88.579 161.545 89.169C161.307 89.3812 161.05 89.5706 160.776 89.7344C160.581 89.8796 160.375 90.0084 160.159 90.1192H160.134C158.874 90.8391 157.641 91.1468 156.409 91.1468C156.202 91.1468 155.997 91.1468 155.816 91.1208Z" fill="#F4C7B1"/>
<path d="M229.507 124.809L230.101 125.867L230.119 125.887L234.76 134.092L235.477 135.355C235.477 135.355 234.07 135.922 231.857 136.858C229.843 137.71 227.169 138.828 224.271 140.083C223.467 140.442 222.659 140.794 221.849 141.138C216.212 143.638 210.279 146.308 207.308 148.016C200.827 151.718 195.433 153.012 192.147 152.944C188.879 152.857 181.71 133.507 180.59 128.864C179.455 124.242 175.261 115.725 172.256 107.615C170.985 104.169 171.352 101.129 172.441 98.7148C173.889 95.4423 176.62 93.3273 178.306 92.9893C178.97 92.8368 179.652 92.7701 180.333 92.7908C181.384 92.7951 182.375 92.9966 183.306 93.3569C192.428 96.9117 195.253 115.812 195.787 119.031C195.983 120.148 196.531 122.021 197.237 124.066C198.802 128.85 201.08 134.623 201.08 134.623C205.66 132.649 207.551 132.085 209.296 131.584C210.563 131.214 211.758 130.912 213.825 130.118C214.448 129.887 215.114 129.617 215.83 129.373C217.579 128.739 219.336 128.126 221.099 127.533C225.459 126.076 229.507 124.809 229.507 124.809Z" fill="url(#paint4_linear_173_4034)"/>
<path d="M156.612 88.6288V91.1208C156.535 91.1468 156.485 91.1467 156.407 91.1467H155.814C154.657 91.1208 153.475 90.7864 152.293 90.1192H152.269C152.053 90.0081 151.846 89.8794 151.652 89.7343C151.39 89.5536 151.133 89.365 150.883 89.1689C150.112 88.579 149.366 87.8064 148.622 86.8828C148.647 85.8813 148.622 85.0328 148.622 84.4421C148.93 84.8032 149.214 85.1635 149.52 85.4704C150.368 86.3449 151.191 87.0395 152.038 87.5269C152.192 87.6294 152.372 87.7327 152.527 87.8071C153.067 88.0901 153.58 88.2959 154.118 88.4245C154.22 88.475 154.324 88.475 154.426 88.5025C154.558 88.527 154.657 88.527 154.76 88.5544C154.941 88.5797 155.146 88.6057 155.327 88.6303C155.505 88.657 155.661 88.6808 155.814 88.6808C155.915 88.6808 156.046 88.6808 156.148 88.657C156.174 88.6808 156.2 88.6808 156.225 88.657H156.249C156.353 88.6555 156.484 88.6555 156.612 88.6288Z" fill="#A5735B"/>
<path d="M156.612 106.456V175.996L144.616 175.483L134.752 175.046L135.755 162.896L136.859 149.305C138.451 149.975 140.25 150.77 141.972 151.542C141.507 146.172 141.305 141.24 141.612 137.206C142.819 122.203 144.692 109.976 146.156 101.987V101.961C146.005 100.42 146.211 98.6984 146.569 97.1062C146.619 96.7697 146.697 96.439 146.775 96.1299C146.878 95.7696 146.952 95.4367 147.055 95.1024L147.289 94.3326C147.339 94.1528 147.417 93.973 147.468 93.8178C147.657 93.1897 147.88 92.5724 148.136 91.9685H148.186C147.981 92.8942 147.26 95.9768 146.363 100.831V100.857C146.952 103.426 148.829 104.864 151.143 105.662C151.167 105.662 151.218 105.686 151.245 105.686C152.835 106.227 154.635 106.431 156.353 106.457C156.43 106.456 156.535 106.483 156.612 106.456Z" fill="url(#paint5_linear_173_4034)"/>
<path d="M148.185 91.9678C147.98 92.8935 147.26 95.9761 146.362 100.83V100.857C146.286 101.216 146.234 101.576 146.157 101.961V101.987C144.692 109.976 142.819 122.203 141.612 137.206C141.305 141.24 141.508 146.172 141.972 151.542C140.276 150.777 138.571 150.031 136.859 149.305C136.166 148.996 135.496 148.741 134.883 148.485C132.825 147.662 131.746 147.07 130.566 146.479C130.491 146.274 130.437 146.044 130.36 145.839C130 144.708 129.668 143.628 129.334 142.654C128.074 138.748 127.125 136.256 127.125 136.256C127.125 136.256 126.972 134.947 126.843 132.764C127.716 130.784 128.59 129.038 129.207 128.09C131.003 125.364 141.79 109.593 137.526 100.781C137.084 99.8629 136.474 99.0353 135.729 98.3402C135.245 97.8613 134.7 97.447 134.109 97.1076C132.649 96.2079 126.888 97.226 123.601 98.6392C129.56 92.9599 139.686 91.8927 141.535 92.0219V91.9692H148.185V91.9678ZM145.25 182.004H128.719C129.216 180.382 129.706 178.718 130.163 177.049C131.635 171.759 132.853 166.388 133.263 162.023C134.106 162.329 134.932 162.612 135.758 162.894C138.737 163.945 141.457 164.951 143.507 165.697C143.692 167.381 143.893 169.073 144.09 170.749C144.269 172.341 144.453 173.924 144.615 175.484C144.858 177.712 145.077 179.897 145.25 182.004Z" fill="url(#paint6_linear_173_4034)"/>
<path d="M156.612 91.1208V106.457C156.535 106.483 156.431 106.457 156.353 106.457C154.634 106.431 152.834 106.227 151.244 105.686C151.218 105.686 151.167 105.662 151.142 105.662C148.829 104.864 146.951 103.426 146.362 100.857V100.831C147.26 95.9768 147.981 92.8949 148.185 91.9685H148.546V91.4811C148.546 91.1735 148.572 90.8904 148.572 90.6074C148.597 89.6824 148.597 88.8093 148.622 87.9609V86.8828C149.367 87.8071 150.112 88.579 150.883 89.169C151.142 89.4007 151.398 89.5798 151.652 89.7344C151.859 89.8882 152.064 90.0145 152.269 90.1192H152.294C153.553 90.8391 154.789 91.1468 156.019 91.1468C156.226 91.1468 156.43 91.1468 156.612 91.1208Z" fill="#F4C7B1"/>
<path d="M163.7 159.119C163.52 160.249 162.775 161.097 162.775 161.097C162.775 161.097 163.211 162.586 162.211 163.562C162.211 163.562 162.544 164.975 161.235 165.9C161.235 165.9 161.543 167.288 160.514 167.879C160.514 167.879 158.279 168.162 157.46 168.008C154.139 167.252 150.825 166.464 147.52 165.644L149.702 156.472V156.448C150.653 155.806 151.55 155.213 151.834 155.034C152.528 154.621 154.892 154.751 157.329 155.521C159.695 156.267 162.34 157.32 163.084 157.731C163.47 157.937 163.853 158.015 163.7 159.119Z" fill="#EEA886"/>
<path d="M149.985 155.265L149.702 156.448V156.472L147.519 165.644L147.186 167.058C147.186 167.058 145.771 166.519 143.508 165.695C141.455 164.95 138.735 163.949 135.755 162.897C134.933 162.613 134.109 162.33 133.265 162.024C127.433 160.018 121.267 157.937 117.928 157.167C110.659 155.471 105.828 152.748 103.466 150.463C101.13 148.177 109.04 129.116 111.379 124.954C113.691 120.792 116.411 111.698 119.726 103.71C121.139 100.317 123.474 98.3404 125.916 97.3136C129.206 95.8997 132.647 96.2073 134.108 97.107C134.699 97.446 135.244 97.8603 135.728 98.3396C136.473 99.0347 137.082 99.8624 137.524 100.78C141.789 109.592 131.002 125.364 129.206 128.089C128.588 129.037 127.715 130.785 126.842 132.763C124.736 137.334 122.475 143.114 122.475 143.114C127.175 144.786 128.946 145.657 130.564 146.479C131.745 147.07 132.824 147.661 134.881 148.484C135.495 148.74 136.165 148.996 136.857 149.304C138.45 149.974 140.249 150.769 141.971 151.541C144.652 152.761 147.324 154.002 149.985 155.265Z" fill="url(#paint7_linear_173_4034)"/>
<path d="M174.187 68.2926L173.966 58.2266C173.933 56.5471 173.966 54.8834 173.726 53.3258C173.489 51.7459 173.061 50.1992 172.396 48.7673C171.091 45.8969 168.9 43.4743 166.15 41.9377C163.402 40.3773 160.205 39.6682 157.018 39.6812C153.831 39.6682 150.628 40.3773 147.891 41.9377C145.134 43.4743 142.944 45.8969 141.635 48.7673C140.975 50.1984 140.547 51.7459 140.309 53.3258C140.07 54.9 140.094 56.5254 140.072 58.2266L139.846 68.2926H138.585L138.369 58.2266C138.349 56.5759 138.273 54.8379 138.496 53.0825C138.715 51.3437 139.142 49.6092 139.847 47.978C141.213 44.6874 143.765 41.898 146.853 40.134C149.946 38.3424 153.516 37.5351 157.018 37.5171C160.523 37.5351 164.09 38.3424 167.181 40.134C170.271 41.898 172.82 44.6874 174.184 47.978C174.889 49.6092 175.32 51.3437 175.544 53.0825C175.764 54.8516 175.691 56.5593 175.671 58.2266L175.453 68.2926H174.187Z" fill="url(#paint8_linear_173_4034)"/>
<path d="M139.593 73.7581C137.328 73.7581 136.757 72.1341 136.757 70.1281V63.6199C136.757 61.6161 137.328 59.9885 139.593 59.9885H140.134V73.7581H139.593Z" fill="url(#paint9_linear_173_4034)"/>
<path d="M140.134 59.9893H141.305V73.7588H140.134V59.9893Z" fill="#FF8D74"/>
<path d="M174.787 73.7581C177.054 73.7581 177.629 72.1341 177.629 70.1281V63.6199C177.629 61.6161 177.054 59.9885 174.787 59.9885H174.245V73.7581H174.787Z" fill="url(#paint10_linear_173_4034)"/>
<path d="M173.074 59.9893H174.245V73.7588H173.074V59.9893Z" fill="#FF8D74"/>
<path d="M157.857 86.3058V85.0429C163.082 85.0429 173.032 77.6176 173.032 73.7581H174.292C174.292 78.6437 163.285 86.3058 157.857 86.3058Z" fill="#FF8D74"/>
<path d="M158.696 87.4381H157.014C155.618 87.4381 154.489 86.651 154.489 85.674C154.489 84.7007 155.618 83.9143 157.014 83.9143H158.696C160.091 83.9143 161.22 84.7014 161.22 85.674C161.22 86.651 160.091 87.4381 158.696 87.4381Z" fill="#525252"/>
<path d="M112.806 18.2531V28.2273L112.746 41.7672L112.666 58.1211L112.616 70.1858L100.598 58.0749L96.931 58.0619L48.3022 57.8345C40.0865 56.2314 33.8867 49.0004 33.8867 40.3303V18.2531C33.8867 9.09482 40.8107 1.53092 49.7043 0.535156L98.448 0.75973C106.631 2.37505 112.806 9.59234 112.806 18.2531Z" fill="url(#paint11_linear_173_4034)"/>
<path opacity="0.8" d="M97.6468 18.7318C97.647 19.0757 97.5796 19.4164 97.4482 19.7342C97.3169 20.0521 97.1243 20.341 96.8813 20.5844C96.6383 20.8278 96.3498 21.0209 96.0322 21.1528C95.7146 21.2847 95.3741 21.3527 95.0302 21.353H50.2049C49.8608 21.353 49.52 21.2852 49.2021 21.1534C48.8842 21.0217 48.5954 20.8286 48.3521 20.5852C48.1089 20.3418 47.916 20.0528 47.7844 19.7348C47.6529 19.4168 47.5853 19.076 47.5854 18.7318C47.5854 18.3878 47.6532 18.0472 47.7849 17.7294C47.9165 17.4116 48.1095 17.1228 48.3527 16.8796C48.5959 16.6364 48.8847 16.4435 49.2025 16.3119C49.5203 16.1804 49.8609 16.1127 50.2049 16.1128H95.0302C96.4742 16.1128 97.6468 17.2847 97.6468 18.7318ZM97.6468 28.4858C97.6464 29.1802 97.3708 29.8461 96.8803 30.3376C96.3898 30.829 95.7245 31.106 95.0302 31.1077H50.2049C49.5102 31.1064 48.8444 30.8296 48.3534 30.3382C47.8624 29.8467 47.5862 29.1806 47.5854 28.4858C47.5854 28.1417 47.653 27.8009 47.7846 27.4829C47.9162 27.165 48.1091 26.876 48.3524 26.6326C48.5956 26.3892 48.8844 26.1961 49.2022 26.0644C49.5201 25.9326 49.8608 25.8647 50.2049 25.8646H95.0302C95.3741 25.8649 95.7146 25.9329 96.0322 26.0648C96.3498 26.1967 96.6383 26.3898 96.8813 26.6332C97.1243 26.8766 97.3169 27.1655 97.4482 27.4834C97.5796 27.8012 97.647 28.1419 97.6468 28.4858ZM83.9526 38.2391C83.9526 39.676 82.7757 40.8531 81.3288 40.8531H50.202C49.5093 40.8523 48.8452 40.5765 48.3557 40.0864C47.8662 39.5963 47.5912 38.9318 47.5912 38.2391C47.5912 37.5148 47.8764 36.8635 48.3529 36.3876C48.5947 36.1428 48.8826 35.9483 49.2 35.8154C49.5173 35.6826 49.8579 35.614 50.202 35.6136H81.3288C82.0247 35.6143 82.6918 35.8912 83.1838 36.3835C83.6757 36.8757 83.9522 37.5431 83.9526 38.2391Z" fill="white"/>
<defs>
<linearGradient id="paint0_linear_173_4034" x1="15.8" y1="128.319" x2="290.083" y2="128.319" gradientUnits="userSpaceOnUse">
<stop stop-color="#C6FFE7"/>
<stop offset="1" stop-color="#00AEFF"/>
</linearGradient>
<linearGradient id="paint1_linear_173_4034" x1="166.746" y1="85.6664" x2="166.746" y2="175.996" gradientUnits="userSpaceOnUse">
<stop stop-color="#FF8D74"/>
<stop offset="1" stop-color="#F75734"/>
</linearGradient>
<linearGradient id="paint2_linear_173_4034" x1="166.16" y1="129.527" x2="207.231" y2="111.226" gradientUnits="userSpaceOnUse">
<stop stop-color="#008DC9"/>
<stop offset="1" stop-color="#88E1FF"/>
</linearGradient>
<linearGradient id="paint3_linear_173_4034" x1="173" y1="166" x2="188.243" y2="186.96" gradientUnits="userSpaceOnUse">
<stop offset="0.0200886" stop-color="#008DC9"/>
<stop offset="1" stop-color="#88E1FF"/>
</linearGradient>
<linearGradient id="paint4_linear_173_4034" x1="212.5" y1="120" x2="148.649" y2="135.314" gradientUnits="userSpaceOnUse">
<stop stop-color="#008DC9"/>
<stop offset="1" stop-color="#88E1FF"/>
</linearGradient>
<linearGradient id="paint5_linear_173_4034" x1="145.682" y1="85.6664" x2="145.682" y2="175.996" gradientUnits="userSpaceOnUse">
<stop stop-color="#FF8D74"/>
<stop offset="1" stop-color="#F75734"/>
</linearGradient>
<linearGradient id="paint6_linear_173_4034" x1="125.636" y1="137.668" x2="170.945" y2="120.007" gradientUnits="userSpaceOnUse">
<stop stop-color="#008DC9"/>
<stop offset="1" stop-color="#88E1FF"/>
</linearGradient>
<linearGradient id="paint7_linear_173_4034" x1="106.926" y1="132.236" x2="159.434" y2="82.4743" gradientUnits="userSpaceOnUse">
<stop stop-color="#008DC9"/>
<stop offset="1" stop-color="#88E1FF"/>
</linearGradient>
<linearGradient id="paint8_linear_173_4034" x1="157.019" y1="35.2089" x2="157.019" y2="68.2926" gradientUnits="userSpaceOnUse">
<stop stop-color="#FF8D74"/>
<stop offset="1" stop-color="#F75734"/>
</linearGradient>
<linearGradient id="paint9_linear_173_4034" x1="138.446" y1="58.9558" x2="138.446" y2="73.7581" gradientUnits="userSpaceOnUse">
<stop stop-color="#FF8D74"/>
<stop offset="1" stop-color="#F75734"/>
</linearGradient>
<linearGradient id="paint10_linear_173_4034" x1="175.937" y1="58.9558" x2="175.937" y2="73.7581" gradientUnits="userSpaceOnUse">
<stop stop-color="#FF8D74"/>
<stop offset="1" stop-color="#F75734"/>
</linearGradient>
<linearGradient id="paint11_linear_173_4034" x1="73.3465" y1="-4.68864" x2="73.3465" y2="70.1858" gradientUnits="userSpaceOnUse">
<stop stop-color="#FF8D74"/>
<stop offset="1" stop-color="#F75734"/>
</linearGradient>
<clipPath id="clip0_173_4034">
<rect width="316" height="316" fill="white" transform="translate(0 12)"/>
</clipPath>
</defs>
</svg>
