<svg width="390" height="369" viewBox="0 0 390 369" fill="none" xmlns="http://www.w3.org/2000/svg">
<rect width="390" height="369" rx="30" fill="url(#paint0_linear_701_3167)"/>
<g clip-path="url(#clip0_701_3167)">
<mask id="mask0_701_3167" style="mask-type:luminance" maskUnits="userSpaceOnUse" x="37" y="145" width="316" height="316">
<path d="M353 145H37V461H353V145Z" fill="white"/>
</mask>
<g mask="url(#mask0_701_3167)">
<path d="M194.292 174.876C194.292 89.5019 247.639 210.522 226.338 247.488C247.677 210.522 379.177 196.215 305.227 238.911C379.177 196.215 301.043 303.003 258.364 303.003C301.043 303.003 379.177 409.734 305.227 367.094C379.177 409.791 247.677 395.484 226.338 358.518C247.677 395.484 194.292 516.504 194.292 431.13C194.292 516.504 140.926 395.484 162.246 358.518C140.907 395.484 9.40642 409.791 83.3569 367.094C9.40642 409.791 87.5417 303.003 130.238 303.003C87.5417 303.003 9.40642 196.271 83.3569 238.911C9.40642 196.215 140.907 210.522 162.246 247.488C140.926 210.484 194.292 89.5019 194.292 174.876Z" fill="url(#paint1_linear_701_3167)"/>
</g>
</g>
<path d="M252.369 321.146H129.837V244.507C129.837 243.058 130.99 241.885 132.411 241.885H249.796C251.217 241.885 252.369 243.058 252.369 244.507V321.146Z" fill="#D3D3D3"/>
<path d="M134.323 247.438H247.886V315.022H134.323V247.438Z" fill="#F2F2F2"/>
<path d="M110.35 343.96C109.224 345.433 111.376 349.833 114.751 349.833H270.074C273.448 349.833 275.572 345.433 274.281 343.96H110.35Z" fill="#D3D3D3"/>
<path d="M273.848 343.155C275.139 344.626 273.448 345.82 270.075 345.82H114.752C111.377 345.82 109.554 344.626 110.681 343.155L126.583 322.361C127.709 320.889 130.656 319.696 133.167 319.696H248.724C251.233 319.696 254.317 320.889 255.609 322.361C261.686 329.295 267.768 336.222 273.848 343.155Z" fill="#F2F2F2"/>
<path opacity="0.5" d="M145.177 326.709H139.931C140.673 325.61 141.045 325.059 141.785 323.96H146.824L145.177 326.709ZM151.976 326.709H146.73C147.365 325.61 147.683 325.059 148.317 323.96H153.354L151.976 326.709ZM149.803 323.433H142.145L142.837 322.407H150.379L149.803 323.433ZM158.779 323.434L151.119 323.433L151.672 322.407H159.214C159.041 322.818 158.952 323.023 158.779 323.434ZM167.756 323.433H160.095L160.509 322.407H168.055L167.756 323.433ZM176.731 323.433H169.072L169.347 322.407H176.89C176.828 322.818 176.796 323.023 176.731 323.433ZM185.708 323.433H178.047L178.186 322.407H185.728L185.708 323.433ZM194.684 323.433H187.025V322.407H194.566C194.614 322.818 194.635 323.023 194.684 323.433ZM203.662 323.433H196.001L195.861 322.407H203.405C203.506 322.818 203.558 323.023 203.662 323.433ZM212.639 323.433H204.978L204.7 322.407H212.242C212.402 322.818 212.481 323.023 212.639 323.433ZM221.615 323.433H213.955C213.787 323.023 213.704 322.818 213.536 322.407H221.082L221.615 323.433ZM230.59 323.433H222.931C222.709 323.023 222.597 322.818 222.377 322.407H229.917C230.186 322.818 230.32 323.023 230.59 323.433ZM240.606 323.433H231.908L231.214 322.407H239.78C240.11 322.818 240.276 323.023 240.606 323.433ZM158.772 326.709H153.527C154.054 325.61 154.319 325.06 154.845 323.961L159.882 323.96C159.439 325.061 159.217 325.609 158.772 326.709ZM165.57 326.709H160.324C160.745 325.61 160.954 325.059 161.376 323.96L166.414 323.961L165.57 326.709ZM172.369 326.709H167.124C167.437 325.609 167.595 325.06 167.907 323.96H172.944C172.714 325.059 172.597 325.61 172.369 326.709ZM179.166 326.709H173.922C174.127 325.61 174.228 325.058 174.435 323.96H179.474C179.35 325.059 179.287 325.61 179.166 326.709ZM185.96 326.709H180.72L180.965 323.96H186.001C185.986 325.059 185.978 325.61 185.96 326.709ZM192.761 326.709H187.517L187.497 323.96H192.533C192.625 325.059 192.671 325.61 192.761 326.709ZM199.558 326.709H194.316L194.029 323.96H199.062C199.262 325.059 199.36 325.61 199.558 326.709ZM206.355 326.709H201.111C200.89 325.61 200.778 325.059 200.555 323.96H205.592C205.896 325.059 206.049 325.61 206.355 326.709ZM142.98 330.375H137.461L139.313 327.626H144.627L142.98 330.375ZM150.137 330.375H144.616C145.252 329.276 145.569 328.726 146.203 327.626H151.518C150.964 328.725 150.687 329.275 150.137 330.375ZM157.291 330.375H151.771C152.298 329.276 152.56 328.726 153.088 327.626H158.401C157.957 328.726 157.734 329.275 157.291 330.375ZM164.446 330.375H158.924C159.344 329.276 159.555 328.726 159.974 327.626H165.289C164.951 328.726 164.783 329.275 164.446 330.375ZM171.602 330.375H166.082C166.395 329.276 166.551 328.726 166.863 327.628C168.99 327.628 170.05 327.626 172.177 327.626C171.945 328.726 171.831 329.275 171.602 330.375ZM178.754 330.375H173.234L173.749 327.626H179.062C178.94 328.725 178.877 329.275 178.754 330.375ZM185.908 330.375H180.39L180.637 327.626H185.947L185.908 330.375ZM193.064 330.375H187.544L187.524 327.626H192.837C192.927 328.726 192.974 329.275 193.064 330.375ZM200.218 330.375H194.701C194.585 329.276 194.526 328.726 194.413 327.626H199.722L200.218 330.375ZM207.372 330.375H201.854C201.631 329.276 201.518 328.726 201.296 327.626H206.609L207.372 330.375ZM140.785 334.04H134.989C135.729 332.941 136.102 332.39 136.843 331.292L142.432 331.29C141.773 332.389 141.442 332.94 140.785 334.04ZM148.296 334.04H142.502L144.087 331.292H149.678C149.125 332.389 148.848 332.94 148.296 334.04ZM155.81 334.04H150.013L151.33 331.292H156.919L155.81 334.04ZM163.32 334.04H157.523L158.573 331.292H164.164L163.32 334.04ZM170.831 334.04H165.038C165.35 332.941 165.509 332.39 165.819 331.292H171.408C171.179 332.389 171.063 332.94 170.831 334.04ZM178.342 334.04H172.548C172.753 332.941 172.857 332.39 173.063 331.292H178.652L178.342 334.04ZM185.852 334.04H180.061L180.306 331.292H185.892C185.878 332.389 185.869 332.94 185.852 334.04ZM193.369 334.04H187.572C187.566 332.941 187.561 332.39 187.552 331.292H193.141C193.232 332.389 193.276 332.94 193.369 334.04ZM200.879 334.04H195.087C194.971 332.941 194.912 332.39 194.798 331.292H200.384C200.581 332.389 200.682 332.94 200.879 334.04ZM208.388 334.04H202.593C202.372 332.941 202.261 332.39 202.038 331.292H207.626L208.388 334.04ZM138.588 337.703H132.517C133.258 336.604 133.631 336.055 134.372 334.956H140.235C139.687 335.873 139.138 336.788 138.588 337.703ZM146.458 337.703H140.388L141.975 334.956H147.839C147.287 336.055 147.009 336.604 146.458 337.703ZM154.326 337.703H148.256C148.783 336.604 149.047 336.055 149.576 334.956H155.438C154.994 336.055 154.772 336.604 154.326 337.703ZM162.169 337.791H156.088C156.524 336.658 156.739 336.09 157.173 334.957H163.039C162.691 336.089 162.518 336.658 162.169 337.791ZM209.408 337.703H163.993C164.305 336.604 164.461 336.055 164.774 334.956H208.645L209.408 337.703ZM175.839 343.742H210.289L207.388 339.06H178.581L175.839 343.742ZM212.506 326.709H207.261C206.94 325.61 206.782 325.059 206.463 323.96H211.5C211.902 325.058 212.102 325.61 212.506 326.709ZM213.846 330.375H208.324C208.006 329.276 207.847 328.726 207.527 327.626H212.842C213.242 328.726 213.444 329.275 213.846 330.375ZM215.186 334.04H209.39C209.07 332.941 208.913 332.39 208.593 331.292H214.182C214.583 332.389 214.782 332.94 215.186 334.04ZM216.526 337.703H210.455L209.656 334.956H215.52L216.526 337.703ZM218.654 326.709H213.409C212.993 325.61 212.783 325.059 212.369 323.96H217.407C217.904 325.059 218.155 325.61 218.654 326.709ZM220.318 330.375H214.798C214.381 329.276 214.172 328.726 213.757 327.626H219.07C219.568 328.725 219.819 329.275 220.318 330.375ZM221.98 334.04H216.185L215.143 331.292H220.732C221.233 332.389 221.48 332.94 221.98 334.04ZM223.643 337.703H217.571C217.156 336.604 216.947 336.055 216.533 334.956H222.395C222.895 336.055 223.143 336.604 223.643 337.703ZM224.802 326.709H219.559L218.275 323.96H223.314C223.909 325.059 224.208 325.61 224.802 326.709ZM226.788 330.375H221.268L219.984 327.626H225.299C225.894 328.726 226.194 329.275 226.788 330.375ZM228.776 334.04H222.979C222.466 332.941 222.21 332.39 221.696 331.292H227.286L228.776 334.04ZM230.76 337.703H224.689C224.176 336.604 223.921 336.055 223.406 334.956H229.271L230.76 337.703ZM230.95 326.709H225.706L224.182 323.96H229.218C229.913 325.059 230.258 325.61 230.95 326.709ZM233.26 330.375H227.74L226.215 327.626H231.529C232.221 328.726 232.569 329.275 233.26 330.375ZM235.569 334.04H229.775C229.165 332.941 228.861 332.39 228.249 331.292H233.838C234.531 332.389 234.877 332.94 235.569 334.04ZM237.879 337.703H231.807C231.3 336.787 230.791 335.872 230.282 334.956H236.147C236.839 336.055 237.185 336.604 237.879 337.703ZM237.102 326.709H231.856C231.147 325.61 230.794 325.059 230.086 323.96H235.126C235.915 325.059 236.31 325.61 237.102 326.709ZM239.731 330.375H234.211C233.503 329.276 233.15 328.726 232.445 327.626H237.758C238.548 328.726 238.943 329.275 239.731 330.375ZM242.364 334.04H236.567C235.861 332.941 235.508 332.39 234.801 331.292H240.391C241.182 332.389 241.575 332.94 242.364 334.04ZM244.995 337.703H238.923L237.156 334.956H243.022L244.995 337.703ZM243.247 326.709H238.004C237.2 325.61 236.799 325.059 235.993 323.96H241.032C241.918 325.059 242.361 325.61 243.247 326.709ZM246.202 330.375H240.682C239.881 329.276 239.477 328.726 238.674 327.626H243.987L246.202 330.375ZM249.158 334.04H243.362C242.558 332.941 242.157 332.39 241.353 331.292H246.942C247.828 332.389 248.271 332.94 249.158 334.04ZM252.113 337.703H246.04L244.032 334.956H249.896C250.783 336.055 251.225 336.604 252.113 337.703Z" fill="#D3D3D3"/>
<path d="M220.183 315.004H166.114C166.5 313.434 166.854 312.18 167.164 311.308C167.325 310.86 167.547 310.437 167.823 310.049C168.781 308.691 170.421 307.537 172.535 306.56C175.057 305.394 178.25 304.476 181.75 303.749C185.469 302.987 189.526 302.437 193.476 302.039C193.743 302.016 194.008 301.987 194.275 301.964C198.668 301.554 202.889 301.329 206.295 301.22C210.996 301.057 214.166 301.091 214.166 301.091C214.166 301.091 214.42 301.496 214.865 302.305C215.909 304.223 217.995 308.426 220.183 315.004Z" fill="#921A00"/>
<path d="M178.764 226.767C178.661 227.46 178.481 228.102 178.225 228.72L178.378 226.973C178.507 226.895 178.637 226.844 178.764 226.767Z" fill="#FFE3CA"/>
<path d="M207.405 224.173V224.196C207.352 224.173 207.301 224.146 207.276 224.146C207.328 224.147 207.352 224.173 207.405 224.173Z" fill="#EEBEA7"/>
<path d="M262.896 261.048C262.896 261.048 266.235 257.951 265.573 255.629C265.012 253.657 265.859 251.449 266.07 250.533C266.356 249.319 266.471 245.378 267.376 245.593C268.909 245.965 268.555 252.256 268.744 253.597C268.933 254.936 272.994 250.45 274.378 250.215C275.766 249.975 282.815 257.121 279.675 259.881C276.534 262.635 272.203 263.753 271.745 264.348C271.288 264.943 269.136 266.578 269.136 266.578L262.896 261.048Z" fill="#F1B99E"/>
<path d="M273.492 250.682C273.492 250.682 283.673 242.883 284.785 242.93C285.902 242.975 286.288 243.555 285.365 244.322C284.446 245.091 275.752 252.147 275.752 252.147C275.752 252.147 289.348 244.938 290.272 244.777C290.807 244.682 291.219 245.713 290.761 246.171C290.306 246.625 277.653 254.587 277.653 254.587C277.653 254.587 290.36 247.877 291.17 247.972C291.88 248.058 292.386 249.229 291.478 249.791C290.569 250.352 279.126 257.248 279.126 257.248C279.126 257.248 288.685 252.95 289.322 253.431C289.708 253.728 290.259 254.381 287.762 255.412C285.26 256.445 279.818 259.741 279.818 259.741L273.492 250.682Z" fill="#F1B99E"/>
<path d="M200.804 217.441V218.134C200.75 218.008 200.7 217.904 200.675 217.775C200.623 217.75 200.623 217.699 200.623 217.671C200.675 217.596 200.726 217.52 200.804 217.441Z" fill="#FFBE55"/>
<path d="M193.149 221.656C193.046 221.679 192.916 221.679 192.814 221.679V221.629C192.916 221.656 193.046 221.656 193.149 221.656ZM200.803 217.441V217.647C200.76 217.689 200.717 217.732 200.675 217.775C200.393 218.083 200.083 218.365 199.775 218.649C199.646 218.752 199.544 218.853 199.417 218.956C199.569 218.804 199.749 218.623 199.906 218.469C200.137 218.238 200.367 217.956 200.622 217.671C200.675 217.596 200.725 217.52 200.803 217.441Z" fill="#EEBEA7"/>
<path d="M206.685 208.579C205.273 211.714 203.551 214.54 201.598 216.775C201.343 217.083 201.059 217.39 200.803 217.648V217.441C200.725 217.52 200.674 217.597 200.622 217.672C200.366 217.956 200.137 218.239 199.906 218.47C199.749 218.624 199.569 218.805 199.417 218.957C199.363 218.984 199.314 219.036 199.262 219.086C199.184 219.163 199.108 219.241 199.029 219.266C198.827 219.443 198.612 219.606 198.387 219.754C198.106 219.959 197.849 220.139 197.568 220.293C197.501 220.338 197.432 220.382 197.362 220.422C197.103 220.575 196.849 220.704 196.619 220.806C196.388 220.93 196.146 221.033 195.897 221.115L195.872 221.141C195.667 221.193 195.512 221.269 195.332 221.321C195.279 221.347 195.231 221.373 195.177 221.373C195 221.423 194.819 221.474 194.638 221.501C194.588 221.501 194.562 221.526 194.511 221.526H194.432C194.305 221.553 194.152 221.578 194.023 221.604C193.894 221.629 193.74 221.629 193.613 221.629C193.486 221.656 193.353 221.656 193.251 221.656H193.226C193.202 221.679 193.176 221.679 193.15 221.656C193.047 221.656 192.917 221.656 192.816 221.629V221.679C192.662 221.679 192.507 221.656 192.329 221.629C192.148 221.604 191.943 221.578 191.761 221.553C191.659 221.526 191.559 221.526 191.427 221.501C191.326 221.474 191.222 221.474 191.12 221.423C190.581 221.295 190.069 221.089 189.528 220.806C189.36 220.723 189.196 220.629 189.039 220.526C188.193 220.037 187.369 219.343 186.521 218.469C186.216 218.163 185.932 217.802 185.624 217.441C184.314 215.797 183.006 213.615 181.797 210.841C181.304 209.731 180.842 208.609 180.409 207.474C181.051 208.733 179.932 196.992 180.19 197.404C176.698 190.725 180.178 196.222 181.414 192.91C189.143 196.172 204.168 201.798 204.168 196.094C204.168 196.094 204.501 199.563 204.888 203.159C205.196 206.113 205.53 209.171 205.685 210.327C205.684 210.326 206.093 209.683 206.685 208.579Z" fill="#F4C7B1"/>
<path d="M193.149 221.656C193.046 221.679 192.916 221.679 192.814 221.679V221.629C192.916 221.656 193.046 221.656 193.149 221.656ZM200.803 217.441V217.647C200.76 217.689 200.717 217.732 200.675 217.775C200.393 218.083 200.083 218.365 199.775 218.649C199.646 218.752 199.544 218.853 199.417 218.956C199.569 218.804 199.749 218.623 199.906 218.469C200.137 218.238 200.367 217.956 200.622 217.671C200.675 217.596 200.725 217.52 200.803 217.441Z" fill="#EEBEA7"/>
<path d="M180.408 207.474C178.351 203.415 175.039 195.659 175.63 188.311V188.284C174.707 182.197 182.283 171.228 193.843 171.792C205.4 171.228 212.979 182.197 212.053 188.284V188.311C212.41 192.755 211.332 197.327 209.997 201.156C210.845 201.128 211.665 201.231 212.488 201.514C217.087 203.031 219.243 209.016 217.292 214.848C215.366 220.704 210.048 224.196 205.451 222.682C203.318 221.988 201.699 220.319 200.802 218.134V217.647C201.058 217.39 201.343 217.082 201.597 216.774C203.55 214.539 205.272 211.713 206.684 208.578C206.092 209.683 205.733 211.041 205.733 211.041C205.577 209.887 205.193 206.112 204.886 203.158C204.498 199.562 204.165 196.093 204.165 196.093C204.165 201.798 189.141 196.171 181.412 192.909L180.408 207.474Z" fill="black"/>
<path d="M200.803 217.441V218.134C200.803 218.623 200.779 219.213 200.803 219.881C200.058 220.806 199.313 221.578 198.543 222.167C198.284 222.373 198.028 222.554 197.772 222.733C197.578 222.879 197.372 223.008 197.155 223.118H197.131C195.949 223.785 194.767 224.119 193.612 224.145H193.019C192.943 224.145 192.867 224.145 192.814 224.119V221.627C192.916 221.654 193.046 221.654 193.149 221.654C193.175 221.678 193.201 221.678 193.225 221.654H193.25C193.38 221.678 193.484 221.678 193.612 221.678C193.766 221.678 193.945 221.654 194.099 221.627C194.278 221.603 194.485 221.577 194.666 221.552C194.767 221.524 194.869 221.524 194.999 221.5C195.102 221.472 195.204 221.472 195.308 221.422C195.847 221.293 196.359 221.087 196.897 220.804C197.053 220.729 197.235 220.627 197.386 220.524C197.95 220.216 198.49 219.803 199.029 219.264C199.108 219.239 199.185 219.161 199.263 219.084C199.313 219.034 199.363 218.982 199.417 218.955C199.569 218.803 199.749 218.621 199.906 218.467C200.137 218.236 200.367 217.954 200.622 217.67C200.675 217.596 200.725 217.52 200.803 217.441Z" fill="#A5735B"/>
<path d="M192.816 239.456V308.996L204.812 308.483L214.676 308.046L213.672 295.896L212.568 282.305C210.856 283.031 209.151 283.777 207.455 284.542C207.918 279.172 208.123 274.24 207.815 270.206C206.608 255.203 204.734 242.976 203.269 234.987V234.961C203.422 233.42 203.216 231.698 202.858 230.106C202.805 229.778 202.737 229.452 202.653 229.13C202.55 228.77 202.475 228.437 202.372 228.102L202.138 227.333C202.088 227.153 202.01 226.973 201.961 226.818C201.772 226.189 201.549 225.572 201.291 224.969H201.241C201.447 225.894 202.166 228.977 203.063 233.831V233.857C202.476 236.426 200.598 237.864 198.286 238.662C198.261 238.662 198.211 238.686 198.183 238.686C196.593 239.227 194.794 239.431 193.074 239.457C192.997 239.456 192.894 239.483 192.816 239.456Z" fill="url(#paint2_linear_701_3167)"/>
<path d="M220.221 261.089C220.838 262.037 221.71 263.785 222.584 265.763C222.457 267.947 222.302 269.255 222.302 269.255C222.302 269.255 221.352 271.747 220.093 275.654C219.757 276.628 216.524 293.891 216.165 295.023C216.087 295.228 216.034 295.459 215.959 295.665C214.778 296.254 215.041 295.226 212.985 296.05C212.371 296.306 211.701 296.563 211.007 296.87C210.905 296.924 210.778 296.974 210.595 297.05C210.39 297.128 210.185 297.205 209.979 297.308C208.613 297.895 207.253 298.495 205.897 299.106C206.358 293.737 208.124 274.24 207.815 270.207C206.608 255.204 204.735 242.977 203.27 234.988V234.962C203.191 234.577 203.143 234.218 203.065 233.857V233.831C202.166 228.977 201.447 225.895 201.24 224.969H207.893V225.021C209.742 224.892 218.467 223.664 224.427 229.341C221.139 227.928 216.781 229.207 215.319 230.107C214.727 230.446 214.182 230.86 213.697 231.34C212.952 232.035 212.343 232.862 211.901 233.78C207.637 242.592 218.422 258.364 220.221 261.089Z" fill="url(#paint3_linear_701_3167)"/>
<path d="M220.706 315.004H204.175C204.348 312.897 204.567 310.712 204.811 308.485C205.058 306.094 205.354 303.663 205.635 301.22C205.729 300.376 205.827 299.538 205.919 298.697C205.919 298.697 205.925 298.697 205.931 298.691C207.939 297.956 210.579 294.544 213.472 293.401C213.541 293.377 213.605 293.349 213.674 293.325C214.499 293.043 215.319 295.329 216.163 295.023C216.705 300.763 218.64 308.253 220.706 315.004Z" fill="url(#paint4_linear_701_3167)"/>
<path d="M192.816 224.121V239.457C192.894 239.483 192.997 239.457 193.075 239.457C194.795 239.431 196.593 239.227 198.183 238.686C198.213 238.686 198.262 238.662 198.287 238.662C200.598 237.864 202.476 236.426 203.064 233.857V233.831C202.167 228.977 201.448 225.895 201.242 224.968H200.881V224.481C200.881 224.173 200.855 223.89 200.855 223.607C200.83 222.682 200.83 221.809 200.805 220.961V219.883C200.06 220.807 199.315 221.579 198.545 222.169C198.307 222.381 198.05 222.571 197.776 222.734C197.581 222.88 197.375 223.008 197.159 223.119H197.134C195.874 223.839 194.641 224.147 193.409 224.147C193.202 224.147 192.997 224.147 192.816 224.121Z" fill="#F4C7B1"/>
<path d="M266.507 257.809L267.101 258.867L267.119 258.887L271.76 267.092L272.477 268.355C272.477 268.355 271.07 268.922 268.857 269.858C266.843 270.71 264.169 271.828 261.271 273.083C260.467 273.442 259.659 273.794 258.849 274.138C253.212 276.638 247.279 279.308 244.308 281.016C237.827 284.718 232.433 286.012 229.147 285.944C225.879 285.857 218.71 266.507 217.59 261.864C216.455 257.242 212.261 248.725 209.256 240.615C207.985 237.169 208.352 234.129 209.441 231.715C210.889 228.442 213.62 226.327 215.306 225.989C215.97 225.837 216.652 225.77 217.333 225.791C218.384 225.795 219.375 225.997 220.306 226.357C229.428 229.912 232.253 248.812 232.787 252.031C232.983 253.148 233.531 255.021 234.237 257.066C235.802 261.85 238.08 267.623 238.08 267.623C242.66 265.649 244.551 265.085 246.296 264.584C247.563 264.214 248.758 263.912 250.825 263.118C251.448 262.887 252.114 262.617 252.83 262.373C254.579 261.739 256.336 261.126 258.099 260.533C262.459 259.076 266.507 257.809 266.507 257.809Z" fill="url(#paint5_linear_701_3167)"/>
<path d="M193.612 221.629V224.121C193.535 224.147 193.485 224.147 193.407 224.147H192.814C191.657 224.121 190.475 223.786 189.293 223.119H189.269C189.053 223.008 188.846 222.879 188.652 222.734C188.39 222.554 188.133 222.365 187.883 222.169C187.112 221.579 186.366 220.806 185.622 219.883C185.647 218.881 185.622 218.033 185.622 217.442C185.93 217.803 186.214 218.164 186.52 218.47C187.368 219.345 188.191 220.039 189.038 220.527C189.192 220.629 189.372 220.733 189.527 220.807C190.067 221.09 190.58 221.296 191.118 221.424C191.22 221.475 191.324 221.475 191.426 221.502C191.558 221.527 191.657 221.527 191.76 221.554C191.941 221.58 192.146 221.606 192.327 221.63C192.505 221.657 192.661 221.681 192.814 221.681C192.915 221.681 193.046 221.681 193.148 221.657C193.174 221.681 193.2 221.681 193.225 221.657H193.249C193.353 221.656 193.484 221.656 193.612 221.629Z" fill="#A5735B"/>
<path d="M193.612 239.456V308.996L181.616 308.483L171.752 308.046L172.755 295.896L173.859 282.305C175.451 282.975 177.25 283.77 178.972 284.542C178.507 279.172 178.305 274.24 178.612 270.206C179.819 255.203 181.692 242.976 183.156 234.987V234.961C183.005 233.42 183.211 231.698 183.569 230.106C183.619 229.77 183.697 229.439 183.775 229.13C183.878 228.77 183.952 228.437 184.055 228.102L184.289 227.333C184.339 227.153 184.417 226.973 184.468 226.818C184.657 226.19 184.88 225.572 185.136 224.969H185.186C184.981 225.894 184.26 228.977 183.363 233.831V233.857C183.952 236.426 185.829 237.864 188.143 238.662C188.167 238.662 188.218 238.686 188.245 238.686C189.835 239.227 191.635 239.431 193.353 239.457C193.43 239.456 193.535 239.483 193.612 239.456Z" fill="url(#paint6_linear_701_3167)"/>
<path d="M185.185 224.968C184.98 225.893 184.26 228.976 183.362 233.83V233.857C183.286 234.216 183.234 234.576 183.157 234.961V234.987C181.692 242.976 179.819 255.203 178.612 270.206C178.305 274.24 178.508 279.172 178.972 284.542C177.276 283.777 175.571 283.031 173.859 282.305C173.166 281.996 172.496 281.741 171.883 281.485C169.825 280.662 168.746 280.07 167.566 279.479C167.491 279.274 167.437 279.044 167.36 278.839C167 277.708 166.668 276.628 166.334 275.654C165.074 271.748 164.125 269.256 164.125 269.256C164.125 269.256 163.972 267.947 163.843 265.764C164.716 263.784 165.59 262.038 166.207 261.09C168.003 258.364 178.79 242.593 174.526 233.781C174.084 232.863 173.474 232.035 172.729 231.34C172.245 230.861 171.7 230.447 171.109 230.108C169.649 229.208 163.888 230.226 160.601 231.639C166.56 225.96 176.686 224.893 178.535 225.022V224.969H185.185V224.968ZM182.25 315.004H165.719C166.216 313.382 166.706 311.718 167.163 310.049C168.635 304.759 169.853 299.388 170.263 295.023C171.106 295.329 171.932 295.612 172.758 295.894C175.737 296.945 178.457 297.951 180.507 298.697C180.692 300.381 180.893 302.073 181.09 303.749C181.269 305.341 181.453 306.924 181.615 308.484C181.858 310.712 182.077 312.897 182.25 315.004Z" fill="url(#paint7_linear_701_3167)"/>
<path d="M193.612 224.121V239.457C193.535 239.483 193.431 239.457 193.353 239.457C191.634 239.431 189.834 239.227 188.244 238.686C188.218 238.686 188.167 238.662 188.142 238.662C185.829 237.864 183.951 236.426 183.362 233.857V233.831C184.26 228.977 184.981 225.895 185.185 224.968H185.546V224.481C185.546 224.173 185.572 223.89 185.572 223.607C185.597 222.682 185.597 221.809 185.622 220.961V219.883C186.367 220.807 187.112 221.579 187.883 222.169C188.142 222.401 188.398 222.58 188.652 222.734C188.859 222.888 189.064 223.015 189.269 223.119H189.294C190.553 223.839 191.789 224.147 193.019 224.147C193.226 224.147 193.43 224.147 193.612 224.121Z" fill="#F4C7B1"/>
<path d="M200.7 292.119C200.52 293.249 199.775 294.097 199.775 294.097C199.775 294.097 200.211 295.586 199.211 296.562C199.211 296.562 199.544 297.975 198.235 298.9C198.235 298.9 198.543 300.288 197.514 300.879C197.514 300.879 195.279 301.162 194.46 301.008C191.139 300.252 187.825 299.464 184.52 298.644L186.702 289.472V289.448C187.653 288.806 188.55 288.213 188.834 288.034C189.528 287.621 191.892 287.751 194.329 288.521C196.695 289.267 199.34 290.32 200.084 290.731C200.47 290.937 200.853 291.015 200.7 292.119Z" fill="#EEA886"/>
<path d="M186.985 288.265L186.702 289.448V289.472L184.519 298.644L184.186 300.058C184.186 300.058 182.771 299.519 180.508 298.695C178.455 297.95 175.735 296.949 172.755 295.897C171.933 295.613 171.109 295.33 170.265 295.024C164.433 293.018 158.267 290.937 154.928 290.167C147.659 288.471 142.828 285.748 140.466 283.463C138.13 281.177 146.04 262.116 148.379 257.954C150.691 253.792 153.411 244.698 156.726 236.71C158.139 233.317 160.474 231.34 162.916 230.314C166.206 228.9 169.647 229.207 171.108 230.107C171.699 230.446 172.244 230.86 172.728 231.34C173.473 232.035 174.082 232.862 174.524 233.78C178.789 242.592 168.002 258.364 166.206 261.089C165.588 262.037 164.715 263.785 163.842 265.763C161.736 270.334 159.475 276.114 159.475 276.114C164.175 277.786 165.946 278.657 167.564 279.479C168.745 280.07 169.824 280.661 171.881 281.484C172.495 281.74 173.165 281.996 173.857 282.304C175.45 282.974 177.249 283.769 178.971 284.541C181.652 285.761 184.324 287.002 186.985 288.265Z" fill="url(#paint8_linear_701_3167)"/>
<path d="M211.187 201.293L210.966 191.227C210.933 189.547 210.966 187.883 210.726 186.326C210.489 184.746 210.061 183.199 209.396 181.767C208.091 178.897 205.9 176.474 203.15 174.938C200.402 173.377 197.205 172.668 194.018 172.681C190.831 172.668 187.628 173.377 184.891 174.938C182.134 176.474 179.944 178.897 178.635 181.767C177.975 183.198 177.547 184.746 177.309 186.326C177.07 187.9 177.094 189.525 177.072 191.227L176.846 201.293H175.585L175.369 191.227C175.349 189.576 175.273 187.838 175.496 186.082C175.715 184.344 176.142 182.609 176.847 180.978C178.213 177.687 180.765 174.898 183.853 173.134C186.946 171.342 190.516 170.535 194.018 170.517C197.523 170.535 201.09 171.342 204.181 173.134C207.271 174.898 209.82 177.687 211.184 180.978C211.889 182.609 212.32 184.344 212.544 186.082C212.764 187.852 212.691 189.559 212.671 191.227L212.453 201.293H211.187Z" fill="url(#paint9_linear_701_3167)"/>
<path d="M176.593 206.758C174.328 206.758 173.757 205.134 173.757 203.128V196.62C173.757 194.616 174.328 192.989 176.593 192.989H177.134V206.758H176.593Z" fill="url(#paint10_linear_701_3167)"/>
<path d="M177.134 192.989H178.305V206.759H177.134V192.989Z" fill="#FF8D74"/>
<path d="M211.787 206.758C214.054 206.758 214.629 205.134 214.629 203.128V196.62C214.629 194.616 214.054 192.989 211.787 192.989H211.245V206.758H211.787Z" fill="url(#paint11_linear_701_3167)"/>
<path d="M210.074 192.989H211.245V206.759H210.074V192.989Z" fill="#FF8D74"/>
<path d="M194.857 219.306V218.043C200.082 218.043 210.032 210.618 210.032 206.758H211.292C211.292 211.644 200.285 219.306 194.857 219.306Z" fill="#FF8D74"/>
<path d="M195.696 220.438H194.014C192.618 220.438 191.489 219.651 191.489 218.674C191.489 217.701 192.618 216.914 194.014 216.914H195.696C197.091 216.914 198.22 217.701 198.22 218.674C198.22 219.651 197.091 220.438 195.696 220.438Z" fill="#525252"/>
<path d="M149.806 151.253V161.227L149.746 174.767L149.666 191.121L149.616 203.186L137.598 191.075L133.931 191.062L85.3022 190.834C77.0865 189.231 70.8867 182 70.8867 173.33V151.253C70.8867 142.095 77.8107 134.531 86.7043 133.535L135.448 133.76C143.631 135.375 149.806 142.592 149.806 151.253Z" fill="url(#paint12_linear_701_3167)"/>
<path opacity="0.8" d="M134.647 151.732C134.647 152.076 134.58 152.416 134.448 152.734C134.317 153.052 134.124 153.341 133.881 153.584C133.638 153.828 133.35 154.021 133.032 154.153C132.715 154.285 132.374 154.353 132.03 154.353H87.2049C86.8608 154.353 86.52 154.285 86.2021 154.153C85.8842 154.022 85.5954 153.829 85.3521 153.585C85.1089 153.342 84.916 153.053 84.7844 152.735C84.6529 152.417 84.5853 152.076 84.5854 151.732C84.5854 151.388 84.6532 151.047 84.7849 150.729C84.9165 150.412 85.1095 150.123 85.3527 149.88C85.5959 149.636 85.8847 149.444 86.2025 149.312C86.5203 149.18 86.8609 149.113 87.2049 149.113H132.03C133.474 149.113 134.647 150.285 134.647 151.732ZM134.647 161.486C134.646 162.18 134.371 162.846 133.88 163.338C133.39 163.829 132.725 164.106 132.03 164.108H87.2049C86.5102 164.106 85.8444 163.83 85.3534 163.338C84.8624 162.847 84.5862 162.181 84.5854 161.486C84.5854 161.142 84.653 160.801 84.7846 160.483C84.9162 160.165 85.1091 159.876 85.3524 159.633C85.5956 159.389 85.8844 159.196 86.2022 159.064C86.5201 158.933 86.8608 158.865 87.2049 158.865H132.03C132.374 158.865 132.715 158.933 133.032 159.065C133.35 159.197 133.638 159.39 133.881 159.633C134.124 159.877 134.317 160.166 134.448 160.483C134.58 160.801 134.647 161.142 134.647 161.486ZM120.953 171.239C120.953 172.676 119.776 173.853 118.329 173.853H87.202C86.5093 173.852 85.8452 173.577 85.3557 173.086C84.8662 172.596 84.5912 171.932 84.5912 171.239C84.5912 170.515 84.8764 169.863 85.3529 169.388C85.5947 169.143 85.8826 168.948 86.2 168.815C86.5173 168.683 86.8579 168.614 87.202 168.614H118.329C119.025 168.614 119.692 168.891 120.184 169.383C120.676 169.876 120.952 170.543 120.953 171.239Z" fill="white"/>
<defs>
<linearGradient id="paint0_linear_701_3167" x1="102.5" y1="92" x2="173.474" y2="455.83" gradientUnits="userSpaceOnUse">
<stop stop-color="#C6FFE7" stop-opacity="0"/>
<stop offset="1" stop-color="#00AEFF"/>
</linearGradient>
<linearGradient id="paint1_linear_701_3167" x1="52.8" y1="261.319" x2="327.083" y2="261.319" gradientUnits="userSpaceOnUse">
<stop stop-color="#C6FFE7"/>
<stop offset="1" stop-color="#00AEFF"/>
</linearGradient>
<linearGradient id="paint2_linear_701_3167" x1="203.746" y1="218.666" x2="203.746" y2="308.996" gradientUnits="userSpaceOnUse">
<stop stop-color="#FF8D74"/>
<stop offset="1" stop-color="#F75734"/>
</linearGradient>
<linearGradient id="paint3_linear_701_3167" x1="203.16" y1="262.527" x2="244.231" y2="244.226" gradientUnits="userSpaceOnUse">
<stop stop-color="#008DC9"/>
<stop offset="1" stop-color="#88E1FF"/>
</linearGradient>
<linearGradient id="paint4_linear_701_3167" x1="210" y1="299" x2="225.243" y2="319.96" gradientUnits="userSpaceOnUse">
<stop offset="0.0200886" stop-color="#008DC9"/>
<stop offset="1" stop-color="#88E1FF"/>
</linearGradient>
<linearGradient id="paint5_linear_701_3167" x1="249.5" y1="253" x2="185.649" y2="268.314" gradientUnits="userSpaceOnUse">
<stop stop-color="#008DC9"/>
<stop offset="1" stop-color="#88E1FF"/>
</linearGradient>
<linearGradient id="paint6_linear_701_3167" x1="182.682" y1="218.666" x2="182.682" y2="308.996" gradientUnits="userSpaceOnUse">
<stop stop-color="#FF8D74"/>
<stop offset="1" stop-color="#F75734"/>
</linearGradient>
<linearGradient id="paint7_linear_701_3167" x1="162.636" y1="270.668" x2="207.945" y2="253.007" gradientUnits="userSpaceOnUse">
<stop stop-color="#008DC9"/>
<stop offset="1" stop-color="#88E1FF"/>
</linearGradient>
<linearGradient id="paint8_linear_701_3167" x1="143.926" y1="265.236" x2="196.434" y2="215.474" gradientUnits="userSpaceOnUse">
<stop stop-color="#008DC9"/>
<stop offset="1" stop-color="#88E1FF"/>
</linearGradient>
<linearGradient id="paint9_linear_701_3167" x1="194.019" y1="168.209" x2="194.019" y2="201.293" gradientUnits="userSpaceOnUse">
<stop stop-color="#FF8D74"/>
<stop offset="1" stop-color="#F75734"/>
</linearGradient>
<linearGradient id="paint10_linear_701_3167" x1="175.446" y1="191.956" x2="175.446" y2="206.758" gradientUnits="userSpaceOnUse">
<stop stop-color="#FF8D74"/>
<stop offset="1" stop-color="#F75734"/>
</linearGradient>
<linearGradient id="paint11_linear_701_3167" x1="212.937" y1="191.956" x2="212.937" y2="206.758" gradientUnits="userSpaceOnUse">
<stop stop-color="#FF8D74"/>
<stop offset="1" stop-color="#F75734"/>
</linearGradient>
<linearGradient id="paint12_linear_701_3167" x1="110.347" y1="128.311" x2="110.347" y2="203.186" gradientUnits="userSpaceOnUse">
<stop stop-color="#FF8D74"/>
<stop offset="1" stop-color="#F75734"/>
</linearGradient>
<clipPath id="clip0_701_3167">
<rect width="316" height="316" fill="white" transform="translate(37 145)"/>
</clipPath>
</defs>
</svg>
