<svg width="17" height="18" viewBox="0 0 17 18" fill="none" xmlns="http://www.w3.org/2000/svg">
    <path d="M5.37001 17.248C4.81186 17.248 4.28372 17.0382 3.87562 16.6547L3.61755 16.409C3.49752 16.4689 3.37149 16.5229 3.25146 16.5768C2.86135 16.7326 2.53127 16.8045 2.23119 16.8045C1.71505 16.8045 1.28894 16.5948 1.02487 16.2053C0.706788 15.7318 0.694787 15.1086 1.00087 14.3536C1.05488 14.2217 1.1149 14.0959 1.17491 13.97L0.928846 13.7123C0.544746 13.3049 0.32869 12.7775 0.32869 12.2202C0.32869 11.9445 0.388706 11.6629 0.514739 11.4112C0.820819 10.77 1.48099 10.3565 2.18918 10.3565C2.47125 10.3565 2.74132 10.4164 2.99339 10.5423L3.4315 10.752C4.08567 9.94901 4.85387 9.05012 5.7121 8.0973L1.33695 4.67554C1.29494 4.63958 1.25293 4.60962 1.21692 4.57366C0.916843 4.29201 0.7488 3.9025 0.736796 3.48302C0.724793 3.06953 0.880835 2.67402 1.16891 2.36839L1.55901 1.9609C1.95511 1.56539 2.46525 1.35565 3.01139 1.35565C3.37149 1.35565 3.72558 1.45153 4.03166 1.63131L9.24102 4.29201L11.6296 1.82906C11.6296 1.82906 11.6837 1.77513 11.7137 1.74517C12.2598 1.22381 12.98 0.930176 13.7422 0.930176C14.5464 0.930176 15.2966 1.24778 15.8547 1.82906C16.3949 2.39237 16.683 3.13545 16.671 3.91448C16.659 4.69352 16.3349 5.42461 15.7707 5.96394L13.2801 8.37296L15.8908 13.5506C16.3469 14.3476 16.2208 15.3543 15.5727 16.0075L15.0805 16.5109C15.0385 16.5588 14.9845 16.6008 14.9305 16.6427C14.6844 16.8285 14.3784 16.9364 14.0723 16.9364C13.6342 16.9364 13.2141 16.7266 12.95 16.379L9.48108 11.9026C8.53283 12.7416 7.6386 13.5026 6.84039 14.1558L7.05045 14.6052C7.16448 14.8509 7.23049 15.1266 7.23049 15.4023C7.23049 16.421 6.39628 17.254 5.37001 17.254V17.248Z" fill="black"/>
    <path d="M12.1219 8.1752L15.1167 5.28078C15.9089 4.52571 15.9329 3.27326 15.1767 2.48224C14.4205 1.69122 13.1662 1.66725 12.374 2.42232C12.356 2.44029 12.332 2.45827 12.314 2.48224L9.43923 5.44857L3.5817 2.45827C3.15559 2.20059 2.60344 2.26651 2.24335 2.62007L1.85325 3.02157C1.61918 3.26727 1.62519 3.65679 1.87125 3.8905C1.88325 3.90248 1.90126 3.91447 1.91926 3.93245L7.09862 7.97744C5.8683 9.31978 4.66198 10.7101 3.70773 11.9266L2.58544 11.3992C2.12932 11.1835 1.58918 11.3752 1.37312 11.8247C1.31311 11.9505 1.2831 12.0884 1.2831 12.2262C1.2831 12.5378 1.40313 12.8434 1.61919 13.0711L2.35138 13.8322C2.17133 14.1138 2.01529 14.4075 1.88926 14.7131C1.48715 15.7139 1.88926 16.1154 2.89152 15.7139C3.1976 15.582 3.49768 15.4262 3.77375 15.2524L4.53595 15.9835C4.76401 16.1993 5.06409 16.3191 5.38217 16.3191C5.8863 16.3191 6.29441 15.9116 6.29441 15.4142C6.29441 15.2824 6.2644 15.1446 6.21038 15.0247L5.68225 13.9041C6.90057 12.9453 8.28093 11.7528 9.62528 10.5423L13.7183 15.8217C13.8744 16.0255 14.1685 16.0674 14.3725 15.9116C14.3905 15.8996 14.4085 15.8817 14.4205 15.8697L14.9187 15.3603C15.2728 15.0007 15.3388 14.4494 15.0807 14.018L12.1399 8.19317L12.1219 8.1752Z" fill="white"/>
</svg>
