<svg width="17" height="20" viewBox="0 0 17 20" fill="none" xmlns="http://www.w3.org/2000/svg">
    <path d="M0.680357 19.4248C0.680206 19.425 0.680055 19.4252 0.679903 19.4254L0.718687 19.4569C0.640802 19.5474 0.535531 19.598 0.425923 19.5977H0.422615L14.725 18.5491C14.9972 18.2316 15.371 18.0378 15.7811 18.0378C16.1913 18.0378 16.5643 18.2307 16.8373 18.5483L16.8375 18.5484C16.8727 18.5891 16.901 18.638 16.9205 18.6924C16.9399 18.7469 16.95 18.8056 16.95 18.865C16.95 18.9244 16.9399 18.9831 16.9205 19.0376C16.901 19.092 16.8727 19.1409 16.8375 19.1816L16.8364 19.1829C16.803 19.224 16.7634 19.2562 16.72 19.278C16.6768 19.2998 16.6305 19.3109 16.5841 19.3109H16.575C16.4773 19.3109 16.3872 19.2653 16.3202 19.1875L16.3201 19.1875C16.178 19.0228 15.9844 18.9285 15.7807 18.9285C15.577 18.9285 15.3834 19.0228 15.2413 19.1875L15.2411 19.1877L15.0427 19.4205C14.7705 19.738 14.3967 19.9319 13.9865 19.9319C13.5762 19.9319 13.2033 19.739 12.9303 19.4214L12.7319 19.1887L12.7317 19.1885C12.5896 19.0237 12.396 18.9295 12.1923 18.9295C11.9886 18.9295 11.795 19.0237 11.6528 19.1885L11.6526 19.1887L11.4591 19.4158L11.4591 19.4158C11.1893 19.7333 10.8189 19.9271 10.4113 19.9271L10.4031 19.9271C10.4031 19.9271 10.4031 19.9271 10.4031 19.9271C9.99222 19.9261 9.61844 19.7295 9.34699 19.41L9.34694 19.41L9.15359 19.1831C9.15357 19.1831 9.15355 19.183 9.15352 19.183C9.01201 19.0152 8.81765 18.9182 8.61242 18.9169C8.40719 18.9155 8.21183 19.0098 8.06863 19.1758C8.0686 19.1758 8.06858 19.1758 8.06855 19.1759L7.85211 19.423L7.85192 19.4233C7.58055 19.737 7.21002 19.9281 6.80303 19.9281H6.80138H6.79311C6.38469 19.9281 6.01426 19.7343 5.74452 19.4168L5.74447 19.4168L5.54599 19.1839L5.54579 19.1836C5.40366 19.0189 5.21007 18.9246 5.00635 18.9246C4.80262 18.9246 4.60903 19.0189 4.4669 19.1836L4.46671 19.1839L4.26832 19.4166C4.26831 19.4167 4.26829 19.4167 4.26828 19.4167C3.99609 19.7342 3.62232 19.9281 3.21214 19.9281C2.80195 19.9281 2.42902 19.7351 2.156 19.4177C1.97151 19.2003 1.71577 19.0629 1.43037 19.0596L1.42861 19.0586H1.41503H1.4109C1.12093 19.0586 0.862813 19.2009 0.680357 19.4248ZM0.680357 19.4248C0.611098 19.505 0.519474 19.548 0.426097 19.5477H0.425923H0.422935C0.327611 19.5464 0.234576 19.501 0.164832 19.418L0.164845 19.418L0.164002 19.417C0.128383 19.3767 0.0996816 19.328 0.0799595 19.2736C0.0602377 19.2191 0.05 19.1604 0.05 19.1008C0.05 19.0413 0.0602377 18.9825 0.0799595 18.928C0.0996816 18.8736 0.128383 18.8249 0.164002 18.7846L0.164003 18.7846L0.164317 18.7842C0.489508 18.4093 0.932848 18.1794 1.42082 18.1794C1.90881 18.1794 2.35292 18.4093 2.67724 18.7841C2.81937 18.9489 3.01296 19.0431 3.21669 19.0431C3.42041 19.0431 3.614 18.9489 3.75613 18.7841L3.75632 18.7839L3.95467 18.5512C3.95469 18.5511 3.95471 18.5511 3.95473 18.5511C4.22779 18.2336 4.60075 18.0397 5.01172 18.0397C5.42268 18.0397 5.79562 18.2335 6.06868 18.5511C6.06871 18.5511 6.06874 18.5511 6.06878 18.5512L6.26712 18.7839L6.26731 18.7841C6.40944 18.9489 6.60303 19.0431 6.80676 19.0431C7.01048 19.0431 7.20407 18.9489 7.3462 18.7841L7.3464 18.7839L7.55695 18.5368C7.55701 18.5368 7.55706 18.5367 7.55712 18.5366C7.83012 18.223 8.20226 18.0319 8.61089 18.0319L8.61095 18.0319C9.00549 18.0314 9.38616 18.2137 9.66954 18.5424C9.66958 18.5424 9.66961 18.5424 9.66964 18.5425L9.86327 18.7697C9.86337 18.7698 9.86346 18.7699 9.86356 18.77C9.93225 18.8533 10.015 18.9201 10.1071 18.9659C10.1993 19.0117 10.2989 19.0355 10.3998 19.0353M0.680357 19.4248L10.3997 18.9853M10.4046 19.0353C10.6079 19.0356 10.801 18.9416 10.9429 18.7773L10.9431 18.7771L11.1365 18.5501C11.4087 18.2326 11.7825 18.0387 12.1927 18.0387C12.6029 18.0387 12.9758 18.2316 13.2488 18.5491C13.2488 18.5491 13.2489 18.5492 13.2489 18.5492L13.4473 18.782L13.4475 18.7822C13.5896 18.9469 13.7832 19.0412 13.9869 19.0412C14.1906 19.0412 14.3842 18.9469 14.5263 18.7822L14.5265 18.782L14.7249 18.5492L10.4047 18.9853M10.4046 19.0353L10.4047 18.9853M10.4046 19.0353H10.4047V18.9853M10.4046 19.0353H10.3998M10.4047 18.9853H10.3997M10.3998 19.0353L10.3997 18.9853M10.3998 19.0353H10.3997V18.9853M16.2823 19.2202C16.3575 19.3075 16.4609 19.3609 16.575 19.3609H16.5841C16.6386 19.3609 16.6925 19.3479 16.7425 19.3227C16.7926 19.2975 16.8377 19.2606 16.8752 19.2143C16.9148 19.1687 16.9461 19.1144 16.9676 19.0544C16.989 18.9944 17 18.93 17 18.865C17 18.8 16.989 18.7356 16.9676 18.6756C16.9461 18.6156 16.9148 18.5613 16.8752 18.5157L16.2823 19.2202Z" fill="white" stroke="black" stroke-width="0.1"/>
    <path d="M2.21773 16.1416L2.21814 16.1414L2.64325 17.2603C2.91267 17.3885 3.14568 17.5587 3.34406 17.7636L3.35381 17.7737L3.35953 17.7815L3.36578 17.7813L3.36889 17.793L3.36868 17.782C3.38515 17.7817 3.40208 17.7756 3.41648 17.7632L3.60482 17.5679L3.60528 17.5674C4.00747 17.1532 4.55292 16.9193 5.12302 16.9193C5.69313 16.9193 6.23857 17.1532 6.64076 17.5674L6.64123 17.5679L6.83371 17.7675C6.83377 17.7676 6.83382 17.7676 6.83387 17.7677C6.84349 17.7775 6.85489 17.7818 6.86529 17.7819H6.87031C6.88637 17.7813 6.90278 17.7753 6.91681 17.7632L7.11721 17.5554L7.11813 17.5545C7.519 17.1443 8.06126 16.9132 8.62761 16.9139M2.21773 16.1416L8.62738 17.1139M2.21773 16.1416C2.20434 16.1056 2.19837 16.0669 2.20038 16.0281C2.20244 15.9883 2.21281 15.9497 2.23046 15.915C2.24811 15.8804 2.2725 15.8508 2.30149 15.8278C2.33032 15.805 2.36308 15.7892 2.39742 15.7812C2.39759 15.7812 2.39776 15.7811 2.39794 15.7811L16.5998 12.5866L16.5999 12.5868C16.6297 12.5801 16.6607 12.5822 16.6897 12.593C16.7173 12.6033 16.7427 12.6214 16.7626 12.6462L16.7626 12.6462C16.7827 12.6737 16.7955 12.7071 16.799 12.7428C16.8025 12.7782 16.7966 12.8137 16.7823 12.8453C16.7822 12.8456 16.782 12.8459 16.7819 12.8462L14.7829 17.0729C14.7828 17.0731 14.7827 17.0733 14.7826 17.0734C14.7797 17.0794 14.776 17.0858 14.7679 17.0989C14.5177 17.2093 14.2905 17.3682 14.0986 17.567L14.0986 17.5671L13.9102 17.7625C13.8959 17.7748 13.88 17.7805 13.8645 17.7811H13.8582C13.8491 17.7811 13.8381 17.7776 13.8268 17.7664C13.8267 17.7662 13.8265 17.7661 13.8264 17.7659L13.6347 17.5671L13.6342 17.5666C13.232 17.1523 12.6866 16.9184 12.1165 16.9184C11.5463 16.9184 11.0009 17.1523 10.5987 17.5666L10.5982 17.5671L10.4148 17.7574L2.21773 16.1416ZM8.62761 16.9139L8.62738 17.1139M8.62761 16.9139C8.62753 16.9139 8.62745 16.9139 8.62738 16.9139V17.1139M8.62761 16.9139C9.22055 16.9139 9.75524 17.1626 10.1425 17.5606L10.1432 17.5613L10.3293 17.7543L10.1874 17.8952M8.62738 17.1139C9.16292 17.1139 9.647 17.3382 9.9992 17.7001L10.1874 17.8952M10.1874 17.8952L10.3313 17.7564L10.33 17.755L10.1874 17.8952ZM14.8486 17.1056L14.9076 17.2573L14.8486 17.1056ZM14.8486 17.1056L14.963 17.1597L14.8481 17.1043M14.8486 17.1056L14.8481 17.1043M14.8481 17.1043L14.8351 17.0709L14.8222 17.0759L14.8222 17.0759L14.8189 17.0772C14.814 17.0792 14.8092 17.0812 14.8044 17.0832L14.8255 17.0934L14.8299 17.0955L14.8481 17.1043ZM9.15534 12.9116L9.15523 12.911L6.73508 1.36158L6.73534 1.36151C6.7305 1.33916 6.73057 1.3159 6.73553 1.2936C6.7405 1.2713 6.75013 1.25095 6.76326 1.23395L6.60501 1.1118L6.76326 1.23395C6.77637 1.21696 6.79252 1.20386 6.81015 1.19507C6.82474 1.18781 6.84022 1.18355 6.85583 1.18232C10.433 2.76137 13.3232 6.5498 14.7663 11.6336C14.7704 11.6533 14.7709 11.6737 14.7677 11.6936C14.7643 11.7145 14.757 11.7341 14.7465 11.7514L14.7413 11.7598L14.7406 11.7613C14.7316 11.7751 14.7207 11.7866 14.7084 11.7956C14.6945 11.8058 14.6792 11.8127 14.6635 11.8162L14.6625 11.8164L9.30869 13.0238L9.30874 13.0242C9.27723 13.03 9.24423 13.0234 9.21601 13.0044L9.10418 13.1702L9.21601 13.0044C9.18632 12.9843 9.16358 12.9515 9.15534 12.9116ZM3.77073 14.2672H3.66925C3.65009 14.2614 3.63174 14.2519 3.61519 14.2389C3.60142 14.2236 3.59054 14.2049 3.58372 14.1839C3.57611 14.1605 3.57393 14.1353 3.5775 14.1106C4.06235 10.935 5.13023 9.0543 6.37951 6.85413L6.38411 6.84603L6.38439 6.84554L6.47847 6.67877L6.47883 6.67897L6.48171 6.673C6.494 6.65304 6.51033 6.63719 6.52877 6.62627C6.54897 6.6143 6.57002 6.60871 6.59124 6.60873H6.59134H6.59959L6.62187 6.61456H6.62994C6.64947 6.61968 6.66818 6.63013 6.68398 6.64579C6.70291 6.66454 6.71666 6.68984 6.72212 6.71867L6.72209 6.71868L6.72287 6.72239L8.06977 13.154L8.15892 13.1353L8.07115 13.1608C8.07552 13.1776 8.07632 13.1953 8.07343 13.2126L8.2707 13.2456L8.07343 13.2126C8.07055 13.2299 8.06413 13.2459 8.05501 13.2595L8.04726 13.2711L8.04666 13.2724C8.026 13.3006 7.99737 13.3188 7.96705 13.3256L7.96683 13.3256L3.77073 14.2672ZM10.3719 17.7758C10.37 17.776 10.3681 17.7761 10.3661 17.7761L10.3699 17.9761L10.3775 17.7762C10.3757 17.7762 10.3738 17.776 10.3719 17.7758ZM3.37447 17.9819C3.38911 17.9815 3.40361 17.9799 3.41786 17.9772L3.37238 17.9778L3.37406 17.9811L3.37409 17.9819C3.37422 17.9819 3.37434 17.9819 3.37447 17.9819Z" fill="white" stroke="black" stroke-width="0.4"/>
</svg>
