<svg width="21" height="21" viewBox="0 0 21 21" fill="none" xmlns="http://www.w3.org/2000/svg">
<path d="M15.7751 5.12424L15.7751 5.12423C16.1071 5.11247 16.4374 5.17723 16.7404 5.3135C17.0423 5.4493 17.3091 5.65247 17.5202 5.90741L17.6121 6.02728L18.4983 7.26023L18.4984 7.26026C18.7157 7.5624 18.8514 7.91541 18.8926 8.28524L18.9046 8.45258L19.0822 13.4891L19.0822 13.4892C19.0946 13.8365 18.9752 14.1756 18.748 14.4386C18.5217 14.7006 18.2051 14.8677 17.8612 14.9068L17.7508 14.9144L17.6201 14.919L17.4788 14.924L17.4364 15.0589C17.3054 15.4756 17.0516 15.843 16.7082 16.1129C16.3648 16.3828 15.9478 16.5427 15.512 16.5715C15.0761 16.6003 14.6418 16.4967 14.2658 16.2743C13.8906 16.0524 13.591 15.7224 13.4063 15.3276L13.3489 15.1962L13.2945 15.0716L13.1586 15.0764L8.1602 15.2527L8.01893 15.2577L7.97648 15.3925C7.84537 15.809 7.59152 16.1761 7.24819 16.4458C6.90486 16.7156 6.48806 16.8753 6.0524 16.9041C5.61674 16.9329 5.18254 16.8294 4.80669 16.6072C4.43154 16.3855 4.132 16.0558 3.94712 15.6612L3.88977 15.5299L3.83535 15.4052L3.69944 15.41L3.56543 15.4147L3.56537 15.4148C3.21806 15.4271 2.87892 15.3077 2.61592 15.0806C2.35395 14.8543 2.18682 14.5377 2.14771 14.1938L2.14012 14.0833L1.91782 7.78058L1.91782 7.78057C1.89831 7.22837 2.09055 6.68958 2.45521 6.27446C2.81922 5.86007 3.32755 5.60017 3.87653 5.54768L4.0092 5.53922L15.7751 5.12424ZM17.7664 9.58932L17.7277 8.49053C17.7277 8.49051 17.7277 8.4905 17.7277 8.49048C17.7208 8.29534 17.6563 8.10658 17.5424 7.94803C17.5423 7.94801 17.5423 7.94799 17.5423 7.94797L16.6543 6.71183L16.6542 6.71173C16.5592 6.57962 16.433 6.47301 16.2869 6.40136C16.1408 6.32972 15.9792 6.29525 15.8166 6.301C15.8166 6.301 15.8166 6.301 15.8166 6.301L15.0835 6.32686L14.8836 6.33391L14.8907 6.53378L15.0019 9.68682L15.0089 9.8867L15.2088 9.87965L17.5736 9.79624L17.7735 9.78919L17.7664 9.58932ZM5.83132 6.85331L5.82427 6.65344L5.62439 6.66048L4.04787 6.71609L4.04784 6.71609C3.80582 6.72466 3.57535 6.82175 3.40016 6.98896C3.22497 7.15617 3.11724 7.38186 3.0974 7.62322L3.09707 7.62319L3.09679 7.63471L3.09452 7.72713L3.09417 7.72712L3.09459 7.73908L3.15019 9.3156L3.15724 9.51547L3.35712 9.50842L5.7219 9.42502L5.92177 9.41797L5.91472 9.21809L5.83132 6.85331ZM9.77262 6.7143L9.76557 6.51442L9.56569 6.52147L7.20091 6.60488L7.00103 6.61193L7.00808 6.81181L7.09149 9.17659L7.09854 9.37646L7.29842 9.36941L9.6632 9.286L9.86307 9.27896L9.85602 9.07908L9.77262 6.7143ZM13.7139 6.57529L13.7069 6.37541L13.507 6.38246L11.1422 6.46587L10.9423 6.47292L10.9494 6.6728L11.0328 9.03757L11.0398 9.23745L11.2397 9.2304L13.6045 9.14699L13.8044 9.13994L13.7973 8.94007L13.7139 6.57529ZM15.3337 13.4212C15.0717 13.4304 14.824 13.5434 14.6452 13.7353C14.4664 13.9271 14.3712 14.1821 14.3804 14.4442C14.3897 14.7063 14.5027 14.9539 14.6945 15.1327C14.8864 15.3115 15.1414 15.4067 15.4034 15.3975C15.6655 15.3882 15.9132 15.2753 16.0919 15.0834C16.2707 14.8916 16.366 14.6366 16.3567 14.3745C16.3475 14.1124 16.2345 13.8647 16.0427 13.686C15.8508 13.5072 15.5958 13.412 15.3337 13.4212ZM5.87461 13.7548C5.61254 13.7641 5.36488 13.877 5.1861 14.0689C5.00733 14.2607 4.91208 14.5157 4.92133 14.7778C4.93057 15.0399 5.04354 15.2875 5.23539 15.4663C5.42724 15.6451 5.68224 15.7403 5.94431 15.7311C6.20638 15.7219 6.45405 15.6089 6.63282 15.417C6.8116 15.2252 6.90684 14.9702 6.8976 14.7081C6.88835 14.446 6.77538 14.1984 6.58354 14.0196C6.39169 13.8408 6.13668 13.7456 5.87461 13.7548Z" fill="white" stroke="black" stroke-width="0.4"/>
</svg>
