<svg width="19" height="19" viewBox="0 0 19 19" fill="none" xmlns="http://www.w3.org/2000/svg">
    <path d="M2.5385 8.47912L9.85297 11.4488C10.663 10.5575 11.9585 9.96394 12.9031 10.8276L16.1153 8.96538C16.331 8.66842 16.5293 8.23658 17.0775 8.47951L16.9517 7.83156L16.385 7.39971L16.5199 5.18648L14.1177 4.70061C14.1177 4.70061 11.0408 4.07987 8.96247 4.18792C8.96247 4.18792 7.26193 5.78041 6.83009 6.61727C6.83009 6.61727 2.75422 7.58823 2.5385 8.47912Z" fill="white" stroke="black" stroke-width="0.4" stroke-linecap="round" stroke-linejoin="round"/>
    <path d="M6.83009 6.61695C8.19305 7.22429 12.134 8.10177 13.1192 8.18262C13.1192 8.18262 13.6591 5.72645 14.1177 4.70068M9.85297 11.4488L9.02991 14.7549C7.68036 14.4311 1.80969 11.2729 1.80969 11.2729C1.80969 10.5986 2.07944 9.50496 2.5385 8.47958M16.385 7.39979L13.1192 8.18262L16.385 7.39979ZM15.0544 4.88998L15.1092 7.70543L15.0544 4.88998ZM10.5554 13.8119L9.02991 14.7549L10.5554 13.8119ZM11.3587 14.5679C12.2105 14.2919 12.4085 13.4329 12.3498 12.2451C12.3024 11.2867 11.8639 11.0572 11.3106 11.3408C10.7573 11.6243 10.4319 12.7451 10.5415 13.7157C10.6133 14.3546 11.044 14.6705 11.3587 14.5679ZM16.4083 11.1629C16.7987 11.0367 16.8894 10.6427 16.8626 10.0981C16.8409 9.65916 16.6402 9.55386 16.3866 9.68401C16.133 9.81415 15.9839 10.3276 16.034 10.7725C16.0667 11.0651 16.2643 11.2098 16.4087 11.1629H16.4083ZM12.3671 12.7712L15.9622 10.7378L12.3671 12.7712Z" fill="white"/>
    <path d="M6.83009 6.61695C8.19305 7.22429 12.134 8.10177 13.1192 8.18262M13.1192 8.18262C13.1192 8.18262 13.6591 5.72645 14.1177 4.70068M13.1192 8.18262L16.385 7.39979M9.85297 11.4488L9.02991 14.7549M9.02991 14.7549C7.68036 14.4311 1.80969 11.2729 1.80969 11.2729C1.80969 10.5986 2.07944 9.50496 2.5385 8.47959M9.02991 14.7549L10.5554 13.8119M15.0544 4.88998L15.1092 7.70543M12.3671 12.7712L15.9622 10.7378M11.3587 14.5679C12.2105 14.2919 12.4085 13.4329 12.3498 12.2451C12.3024 11.2867 11.8639 11.0572 11.3106 11.3408C10.7573 11.6243 10.4319 12.7451 10.5415 13.7157C10.6133 14.3546 11.044 14.6705 11.3587 14.5679ZM16.4083 11.1629C16.7987 11.0367 16.8894 10.6427 16.8626 10.0981C16.8409 9.65916 16.6402 9.55386 16.3866 9.68401C16.133 9.81415 15.9839 10.3276 16.034 10.7725C16.0667 11.0651 16.2643 11.2098 16.4087 11.1629H16.4083Z" stroke="black" stroke-width="0.4" stroke-linecap="round" stroke-linejoin="round"/>
    <path d="M17.0779 8.47949L17.1903 10.0223L16.8669 10.2562M4.20276 11.4483L5.67851 12.0963L4.20276 11.4483Z" fill="white"/>
    <path d="M17.0779 8.47949L17.1903 10.0223L16.8669 10.2562M4.20276 11.4483L5.67851 12.0963" stroke="black" stroke-width="0.4" stroke-linecap="round" stroke-linejoin="round"/>
    <path d="M10.2887 13.803L9.30281 14.3945L9.89437 11.6339C10.9986 10.2141 12.3921 10.6479 12.8522 11.0423L16.4016 9.07039C16.5127 8.67872 16.8422 8.64428 16.9931 8.67602V9.66202C16.2044 9.03102 15.8757 10.0564 15.81 10.648L12.4578 12.4226C12.4578 11.9625 12.4184 11.0423 11.4719 11.0423C10.5254 11.0423 10.2887 12.8827 10.2887 13.803Z" fill="white" stroke="black" stroke-width="0.4"/>
</svg>
