<svg width="19" height="20" viewBox="0 0 19 20" fill="none" xmlns="http://www.w3.org/2000/svg">
    <g clip-path="url(#clip0_934_2406)">
        <mask id="path-1-inside-1_934_2406" fill="white">
            <path d="M10.11 0.953107C9.63772 0.959392 9.14025 1.0475 8.61842 1.23388C7.50314 3.27884 6.09271 5.70402 3.97022 7.8335C3.18677 8.61954 2.51978 9.49505 2.03729 10.3592C2.08513 10.5926 2.22156 10.7899 2.43363 11.0028C2.84004 11.4106 3.57461 11.802 4.45208 12.2321C6.1644 13.0712 8.41866 14.0951 9.86392 16.2424L17.0967 16.2436C16.3499 13.6247 13.3892 12.5049 11.2157 13.1401C11.213 13.1412 11.2103 13.1425 11.2075 13.1436C11.148 13.167 11.0866 13.1857 11.0239 13.2014C11.023 13.2016 11.0224 13.2023 11.0215 13.2025C10.694 13.284 10.3257 13.2646 9.94471 13.1875C9.02815 13.0019 7.99403 12.4593 7.67673 11.4983C6.61875 8.29381 8.29232 4.8528 10.5664 3.24308C11.4191 2.63939 12.3802 2.28741 13.3197 2.33836C13.325 2.33866 13.3304 2.33921 13.3358 2.33947C12.4415 1.49871 11.3641 0.936358 10.11 0.952996L10.11 0.953107ZM13.1326 3.02358C12.4222 3.02395 11.6753 3.3042 10.965 3.80695C8.9447 5.23713 7.39156 8.42942 8.33303 11.2812C8.52259 11.8554 9.34053 12.3594 10.0812 12.5094C10.4515 12.5844 10.7917 12.5656 10.9581 12.499C11.0412 12.4657 11.0754 12.4309 11.0909 12.4042C11.1065 12.3776 11.1209 12.3428 11.1002 12.2425C10.7645 10.6095 10.9988 9.11423 11.9333 8.01023C12.8053 6.98006 14.2534 6.32937 16.2741 6.13623C15.719 4.39315 14.8887 3.50282 14.0071 3.17731C13.7703 3.08976 13.5253 3.04029 13.2746 3.02705C13.2273 3.02465 13.1799 3.02349 13.1325 3.02358H13.1326ZM1.65366 11.1322C1.45382 11.5964 1.31588 12.0475 1.25047 12.4701C1.51586 13.4965 3.16928 14.5195 4.61846 14.7381C4.68142 14.5173 4.83408 14.3139 4.99854 14.2113C6.88451 15.2777 8.18484 16.4557 8.76975 17.9455H17.2584C17.2842 17.5901 17.2747 17.2537 17.2353 16.9345L9.68131 16.9334H9.49183L9.39015 16.7728C8.08113 14.718 5.91731 13.7196 4.14817 12.8526C3.2636 12.4191 2.47811 12.0268 1.94367 11.4904C1.83357 11.3798 1.73596 11.2602 1.65366 11.1322Z"/>
        </mask>
        <path d="M10.11 0.953107C9.63772 0.959392 9.14025 1.0475 8.61842 1.23388C7.50314 3.27884 6.09271 5.70402 3.97022 7.8335C3.18677 8.61954 2.51978 9.49505 2.03729 10.3592C2.08513 10.5926 2.22156 10.7899 2.43363 11.0028C2.84004 11.4106 3.57461 11.802 4.45208 12.2321C6.1644 13.0712 8.41866 14.0951 9.86392 16.2424L17.0967 16.2436C16.3499 13.6247 13.3892 12.5049 11.2157 13.1401C11.213 13.1412 11.2103 13.1425 11.2075 13.1436C11.148 13.167 11.0866 13.1857 11.0239 13.2014C11.023 13.2016 11.0224 13.2023 11.0215 13.2025C10.694 13.284 10.3257 13.2646 9.94471 13.1875C9.02815 13.0019 7.99403 12.4593 7.67673 11.4983C6.61875 8.29381 8.29232 4.8528 10.5664 3.24308C11.4191 2.63939 12.3802 2.28741 13.3197 2.33836C13.325 2.33866 13.3304 2.33921 13.3358 2.33947C12.4415 1.49871 11.3641 0.936358 10.11 0.952996L10.11 0.953107ZM13.1326 3.02358C12.4222 3.02395 11.6753 3.3042 10.965 3.80695C8.9447 5.23713 7.39156 8.42942 8.33303 11.2812C8.52259 11.8554 9.34053 12.3594 10.0812 12.5094C10.4515 12.5844 10.7917 12.5656 10.9581 12.499C11.0412 12.4657 11.0754 12.4309 11.0909 12.4042C11.1065 12.3776 11.1209 12.3428 11.1002 12.2425C10.7645 10.6095 10.9988 9.11423 11.9333 8.01023C12.8053 6.98006 14.2534 6.32937 16.2741 6.13623C15.719 4.39315 14.8887 3.50282 14.0071 3.17731C13.7703 3.08976 13.5253 3.04029 13.2746 3.02705C13.2273 3.02465 13.1799 3.02349 13.1325 3.02358H13.1326ZM1.65366 11.1322C1.45382 11.5964 1.31588 12.0475 1.25047 12.4701C1.51586 13.4965 3.16928 14.5195 4.61846 14.7381C4.68142 14.5173 4.83408 14.3139 4.99854 14.2113C6.88451 15.2777 8.18484 16.4557 8.76975 17.9455H17.2584C17.2842 17.5901 17.2747 17.2537 17.2353 16.9345L9.68131 16.9334H9.49183L9.39015 16.7728C8.08113 14.718 5.91731 13.7196 4.14817 12.8526C3.2636 12.4191 2.47811 12.0268 1.94367 11.4904C1.83357 11.3798 1.73596 11.2602 1.65366 11.1322Z" fill="white"/>
        <path d="M10.11 0.953107L10.1154 1.35307L10.8537 1.34325L10.4422 0.730156L10.11 0.953107ZM8.61842 1.23388L8.48388 0.857183L8.34027 0.908476L8.26725 1.04236L8.61842 1.23388ZM3.97022 7.8335L3.68691 7.55112L3.68691 7.55112L3.97022 7.8335ZM2.03729 10.3592L1.68804 10.1642L1.61559 10.294L1.64544 10.4395L2.03729 10.3592ZM2.43363 11.0028L2.71699 10.7204L2.71697 10.7204L2.43363 11.0028ZM4.45208 12.2321L4.27604 12.5913L4.27607 12.5913L4.45208 12.2321ZM9.86392 16.2424L9.53208 16.4658L9.65096 16.6424L9.86385 16.6424L9.86392 16.2424ZM17.0967 16.2436L17.0966 16.6436L17.6267 16.6437L17.4814 16.1339L17.0967 16.2436ZM11.2157 13.1401L11.1035 12.7562L11.0832 12.7621L11.0636 12.7701L11.2157 13.1401ZM11.2075 13.1436L11.0633 12.7705L11.0612 12.7714L11.2075 13.1436ZM11.0239 13.2014L11.1055 13.593L11.1133 13.5914L11.1211 13.5894L11.0239 13.2014ZM11.0215 13.2025L10.94 12.8109L10.9324 12.8125L10.925 12.8143L11.0215 13.2025ZM9.94471 13.1875L9.86532 13.5795L9.86534 13.5796L9.94471 13.1875ZM7.67673 11.4983L7.29689 11.6237L7.2969 11.6237L7.67673 11.4983ZM10.5664 3.24308L10.7975 3.56956L10.7975 3.56955L10.5664 3.24308ZM13.3197 2.33836L13.3419 1.93898L13.3414 1.93895L13.3197 2.33836ZM13.3358 2.33947L13.3167 2.73901L14.4001 2.79096L13.6098 2.04803L13.3358 2.33947ZM10.11 0.952996L10.1047 0.553031L9.36626 0.562827L9.77787 1.17595L10.11 0.952996ZM13.1326 3.02358L13.1328 3.42358L13.1326 2.62358V3.02358ZM10.965 3.80695L10.7339 3.48046L10.7339 3.48047L10.965 3.80695ZM8.33303 11.2812L8.71287 11.1558L8.33303 11.2812ZM10.0812 12.5094L10.0018 12.9015L10.0018 12.9015L10.0812 12.5094ZM10.9581 12.499L10.8095 12.1276L10.8094 12.1276L10.9581 12.499ZM11.0909 12.4042L10.7458 12.202L10.7454 12.2028L11.0909 12.4042ZM11.1002 12.2425L10.7084 12.323L10.7084 12.3234L11.1002 12.2425ZM11.9333 8.01023L11.628 7.75179L11.628 7.75179L11.9333 8.01023ZM16.2741 6.13623L16.3122 6.53441L16.8057 6.48724L16.6552 6.01485L16.2741 6.13623ZM14.0071 3.17731L13.8685 3.5525L13.8686 3.55255L14.0071 3.17731ZM13.2746 3.02705L13.2957 2.62761L13.2949 2.62756L13.2746 3.02705ZM13.1325 3.02358L13.1318 2.62358L13.1325 3.42358V3.02358ZM1.65366 11.1322L1.99011 10.9159L1.58354 10.2835L1.28626 10.974L1.65366 11.1322ZM1.25047 12.4701L0.855179 12.4089L0.842568 12.4904L0.86321 12.5702L1.25047 12.4701ZM4.61846 14.7381L4.55878 15.1337L4.90667 15.1862L5.00313 14.8478L4.61846 14.7381ZM4.99854 14.2113L5.19543 13.8631L4.9885 13.7461L4.78681 13.8719L4.99854 14.2113ZM8.76975 17.9455L8.39742 18.0917L8.49707 18.3455H8.76975V17.9455ZM17.2584 17.9455V18.3455H17.6305L17.6574 17.9744L17.2584 17.9455ZM17.2353 16.9345L17.6323 16.8856L17.589 16.5346L17.2354 16.5345L17.2353 16.9345ZM9.68131 16.9334L9.68137 16.5334H9.68131V16.9334ZM9.49183 16.9334L9.15383 17.1473L9.27161 17.3334H9.49183V16.9334ZM9.39015 16.7728L9.72815 16.5589L9.72751 16.5579L9.39015 16.7728ZM4.14817 12.8526L4.3242 12.4934L4.32418 12.4934L4.14817 12.8526ZM1.94367 11.4904L1.66026 11.7726L1.66031 11.7727L1.94367 11.4904ZM10.1047 0.553143C9.58557 0.560051 9.04452 0.656942 8.48388 0.857183L8.75296 1.61057C9.23598 1.43805 9.68987 1.35873 10.1154 1.35307L10.1047 0.553143ZM8.26725 1.04236C7.15492 3.08192 5.76682 5.46437 3.68691 7.55112L4.25353 8.11587C6.4186 5.94367 7.85137 3.47575 8.96959 1.4254L8.26725 1.04236ZM3.68691 7.55112C2.87998 8.36072 2.18999 9.2652 1.68804 10.1642L2.38654 10.5542C2.84957 9.72489 3.49356 8.87835 4.25353 8.11587L3.68691 7.55112ZM1.64544 10.4395C1.71602 10.7838 1.91469 11.0487 2.1503 11.2851L2.71697 10.7204C2.52843 10.5312 2.45424 10.4013 2.42914 10.2789L1.64544 10.4395ZM2.15028 11.2851C2.61291 11.7494 3.41372 12.1686 4.27604 12.5913L4.62812 11.8729C3.7355 11.4354 3.06716 11.0719 2.71699 10.7204L2.15028 11.2851ZM4.27607 12.5913C6.00972 13.4408 8.15711 14.4229 9.53208 16.4658L10.1958 16.0191C8.68021 13.7674 6.31907 12.7015 4.6281 11.8729L4.27607 12.5913ZM9.86385 16.6424L17.0966 16.6436L17.0968 15.8436L9.86398 15.8424L9.86385 16.6424ZM17.4814 16.1339C16.6619 13.2601 13.4462 12.0715 11.1035 12.7562L11.3279 13.524C13.3323 12.9383 16.0379 13.9893 16.712 16.3533L17.4814 16.1339ZM11.0636 12.7701C11.0585 12.7722 11.0543 12.7741 11.0519 12.7752C11.0506 12.7757 11.0496 12.7762 11.049 12.7765C11.0486 12.7766 11.0484 12.7767 11.0482 12.7768C11.048 12.7769 11.048 12.7769 11.048 12.7769C11.0477 12.777 11.0494 12.7762 11.0517 12.7752C11.0542 12.7742 11.0582 12.7725 11.0633 12.7705L11.3518 13.5167C11.3583 13.5142 11.3636 13.5119 11.3675 13.5103C11.3712 13.5087 11.3742 13.5074 11.3753 13.5069C11.3773 13.506 11.376 13.5065 11.3755 13.5068C11.3743 13.5073 11.3715 13.5085 11.3677 13.5101L11.0636 12.7701ZM11.0612 12.7714C11.0212 12.7871 10.9769 12.8008 10.9267 12.8134L11.1211 13.5894C11.1964 13.5706 11.2748 13.547 11.3539 13.5159L11.0612 12.7714ZM10.9423 12.8098C10.8982 12.819 10.8642 12.8338 10.8427 12.8447C10.8321 12.8501 10.8237 12.8549 10.8187 12.8579C10.8161 12.8594 10.814 12.8607 10.8128 12.8615C10.8121 12.8619 10.8116 12.8622 10.8113 12.8624C10.8111 12.8625 10.8109 12.8626 10.8109 12.8627C10.8108 12.8627 10.8107 12.8628 10.8107 12.8628C10.81 12.8632 10.8137 12.8609 10.8181 12.8583C10.823 12.8554 10.8311 12.8507 10.8416 12.8454C10.8627 12.8347 10.8963 12.82 10.94 12.8109L11.1031 13.5941C11.1472 13.5849 11.1812 13.5701 11.2027 13.5592C11.2134 13.5538 11.2217 13.549 11.2268 13.546C11.2293 13.5445 11.2314 13.5432 11.2327 13.5424C11.2333 13.542 11.2339 13.5417 11.2342 13.5415C11.2343 13.5414 11.2345 13.5413 11.2346 13.5413C11.2347 13.5412 11.2347 13.5412 11.2347 13.5412C11.2355 13.5407 11.2317 13.543 11.2273 13.5457C11.2225 13.5486 11.2143 13.5533 11.2039 13.5585C11.1827 13.5692 11.1491 13.5839 11.1055 13.593L10.9423 12.8098ZM10.925 12.8143C10.6769 12.8761 10.3739 12.8663 10.0241 12.7955L9.86534 13.5796C10.2775 13.663 10.7111 13.6919 11.1181 13.5907L10.925 12.8143ZM10.0241 12.7955C9.16004 12.6205 8.30635 12.1295 8.05656 11.3729L7.2969 11.6237C7.6817 12.7892 8.89626 13.3833 9.86532 13.5795L10.0241 12.7955ZM8.05656 11.3729C7.06452 8.36812 8.63662 5.09915 10.7975 3.56956L10.3353 2.9166C7.94802 4.60644 6.17299 8.2195 7.29689 11.6237L8.05656 11.3729ZM10.7975 3.56955C11.5988 3.00225 12.4725 2.69301 13.2981 2.73777L13.3414 1.93895C12.2879 1.88182 11.2394 2.27654 10.3352 2.91661L10.7975 3.56955ZM13.2975 2.73775C13.2958 2.73765 13.2946 2.73757 13.2946 2.73756C13.2946 2.73756 13.2947 2.73757 13.2951 2.7376C13.2957 2.73764 13.296 2.73767 13.2969 2.73774C13.2994 2.73793 13.3074 2.73857 13.3167 2.73901L13.355 1.93993C13.3588 1.94011 13.3615 1.94034 13.3586 1.94012C13.3578 1.94006 13.3553 1.93986 13.3528 1.93968C13.3501 1.93949 13.3463 1.93922 13.3419 1.93898L13.2975 2.73775ZM13.6098 2.04803C12.6643 1.15924 11.4917 0.53463 10.1047 0.553031L10.1153 1.35296C11.2365 1.33809 12.2186 1.83818 13.0619 2.63091L13.6098 2.04803ZM9.77787 1.17595L9.77794 1.17606L10.4422 0.730156L10.4421 0.730045L9.77787 1.17595ZM13.1324 2.62358C12.3175 2.624 11.4914 2.94429 10.7339 3.48046L11.1961 4.13344C11.8592 3.66411 12.5269 3.42389 13.1328 3.42358L13.1324 2.62358ZM10.7339 3.48047C9.6541 4.24487 8.71482 5.4661 8.16599 6.86487C7.61622 8.26605 7.44739 9.87448 7.95319 11.4066L8.71287 11.1558C8.2772 9.83613 8.4142 8.42254 8.91072 7.15708C9.40818 5.88922 10.2556 4.79921 11.1961 4.13343L10.7339 3.48047ZM7.95319 11.4066C8.08747 11.8133 8.42112 12.1459 8.77664 12.3859C9.14045 12.6315 9.57905 12.8158 10.0018 12.9015L10.1606 12.1174C9.84265 12.053 9.50196 11.9103 9.22425 11.7228C8.93824 11.5298 8.76815 11.3233 8.71287 11.1558L7.95319 11.4066ZM10.0018 12.9015C10.2156 12.9447 10.423 12.9616 10.6057 12.9572C10.7809 12.9529 10.9611 12.9286 11.1067 12.8703L10.8094 12.1276C10.7887 12.1359 10.7155 12.1543 10.5865 12.1574C10.4649 12.1603 10.3171 12.1491 10.1605 12.1174L10.0018 12.9015ZM11.1066 12.8704C11.2432 12.8157 11.3623 12.7329 11.4365 12.6057L10.7454 12.2028C10.7652 12.1688 10.788 12.146 10.8048 12.133C10.8197 12.1215 10.8248 12.1214 10.8095 12.1276L11.1066 12.8704ZM11.436 12.6065C11.4615 12.563 11.4948 12.4946 11.5063 12.3986C11.5163 12.3157 11.5071 12.2353 11.4919 12.1616L10.7084 12.3234C10.7139 12.3499 10.708 12.3372 10.712 12.3033C10.7143 12.2845 10.7191 12.2633 10.7273 12.2414C10.7352 12.2203 10.7437 12.2056 10.7458 12.202L11.436 12.6065ZM11.492 12.1619C11.1726 10.6086 11.4068 9.25127 12.2386 8.26866L11.628 7.75179C10.5907 8.97719 10.3563 10.6104 10.7084 12.323L11.492 12.1619ZM12.2386 8.26866C13.0192 7.34646 14.3515 6.72183 16.3122 6.53441L16.236 5.73804C14.1554 5.93692 12.5914 6.61365 11.628 7.75179L12.2386 8.26866ZM16.6552 6.01485C16.0794 4.20658 15.1862 3.18625 14.1457 2.80207L13.8686 3.55255C14.5913 3.81939 15.3586 4.57973 15.893 6.25761L16.6552 6.01485ZM14.1458 2.80211C13.8703 2.70027 13.5856 2.64291 13.2957 2.62761L13.2536 3.42649C13.465 3.43766 13.6703 3.47924 13.8685 3.5525L14.1458 2.80211ZM13.2949 2.62756C13.2406 2.62481 13.1862 2.62348 13.1318 2.62358L13.1332 3.42358C13.1736 3.4235 13.214 3.42449 13.2544 3.42654L13.2949 2.62756ZM13.1325 3.42358H13.1326V2.62358H13.1325V3.42358ZM1.28626 10.974C1.07613 11.4621 0.926814 11.9461 0.855179 12.4089L1.64577 12.5313C1.70494 12.1489 1.83151 11.7306 2.02106 11.2904L1.28626 10.974ZM0.86321 12.5702C1.03336 13.2283 1.61499 13.8114 2.27128 14.2416C2.94264 14.6816 3.77214 15.015 4.55878 15.1337L4.67814 14.3426C4.0156 14.2427 3.2938 13.9552 2.70981 13.5725C2.11075 13.1798 1.73297 12.7383 1.63774 12.37L0.86321 12.5702ZM5.00313 14.8478C5.04133 14.7139 5.13713 14.5963 5.21026 14.5507L4.78681 13.8719C4.53104 14.0315 4.32152 14.3208 4.23379 14.6285L5.00313 14.8478ZM4.80165 14.5595C6.65527 15.6076 7.86171 16.7272 8.39742 18.0917L9.14208 17.7993C8.50797 16.1842 7.11376 14.9478 5.19543 13.8631L4.80165 14.5595ZM8.76975 18.3455H17.2584V17.5455H8.76975V18.3455ZM17.6574 17.9744C17.685 17.5936 17.675 17.2311 17.6323 16.8856L16.8384 16.9835C16.8745 17.2763 16.8834 17.5866 16.8595 17.9166L17.6574 17.9744ZM17.2354 16.5345L9.68137 16.5334L9.68125 17.3334L17.2353 17.3345L17.2354 16.5345ZM9.68131 16.5334H9.49183V17.3334H9.68131V16.5334ZM9.82982 16.7195L9.72814 16.5589L9.05216 16.9867L9.15383 17.1473L9.82982 16.7195ZM9.72751 16.5579C8.34733 14.3914 6.07012 13.349 4.3242 12.4934L3.97214 13.2118C5.7645 14.0901 7.81494 15.0446 9.05279 16.9877L9.72751 16.5579ZM4.32418 12.4934C3.42345 12.052 2.70499 11.6877 2.22703 11.208L1.66031 11.7727C2.25124 12.3658 3.10375 12.7862 3.97215 13.2118L4.32418 12.4934ZM2.22708 11.2081C2.13532 11.1159 2.05592 11.0182 1.99011 10.9159L1.31721 11.3485C1.416 11.5022 1.53182 11.6437 1.66026 11.7726L2.22708 11.2081Z" fill="black" mask="url(#path-1-inside-1_934_2406)"/>
    </g>
    <defs>
        <clipPath id="clip0_934_2406">
            <rect width="18.93" height="18.93" fill="white" transform="translate(0.0350037 0.253906)"/>
        </clipPath>
    </defs>
</svg>
