<svg width="21" height="16" viewBox="0 0 21 16" fill="none" xmlns="http://www.w3.org/2000/svg">
    <g clip-path="url(#clip0_934_2669)">
        <path d="M9.09148 1.70447L9.29135 1.69742L9.29125 1.69446L10.9384 1.63637C11.2989 1.62366 11.6377 1.81062 11.8211 2.12171C11.8211 2.12179 11.8212 2.12186 11.8212 2.12194L12.2617 2.87517L12.3853 3.08649L12.5677 2.92324L13.9269 1.70695C13.9269 1.7069 13.927 1.70685 13.927 1.7068C14.0588 1.58977 14.2244 1.52345 14.3992 1.51728L15.0021 1.49602C15.4147 1.48147 15.7596 1.80284 15.7742 2.21553L15.8075 3.16123C15.8221 3.57392 15.5007 3.91879 15.088 3.93334L13.2616 3.99775L12.9265 4.00957L13.0962 4.29883L14.8309 7.25579L14.9148 7.39888L15.0709 7.34283C15.4081 7.22178 15.7697 7.15015 16.1478 7.13682C18.1268 7.06703 19.7873 8.61436 19.8571 10.5934C19.9269 12.5724 18.3796 14.2328 16.4006 14.3026C14.4216 14.3724 12.7611 12.8251 12.6913 10.8461C12.6518 9.7267 13.1313 8.70927 13.9121 8.02256L14.0358 7.9137L13.9526 7.77141L13.4677 6.94225L13.35 6.74106L13.1691 6.88791C12.0091 7.82907 11.2892 9.28556 11.3459 10.8935C11.3548 11.1475 11.3827 11.3959 11.4281 11.6374L9.82458 11.6939C9.85291 11.4499 9.8632 11.2002 9.85424 10.9461C9.75821 8.22326 7.47496 6.09556 4.7521 6.19159L2.1149 6.28459L2.0886 5.53878C2.07405 5.12608 2.39542 4.78121 2.80811 4.76666L5.80477 4.66098C6.25463 4.64511 6.69161 4.8072 7.01961 5.11285L8.40557 6.40438L8.53915 6.52886L8.67524 6.40714L11.4892 3.89043L11.6113 3.78123L11.5283 3.64001L11.0121 2.76165L10.9517 2.65892L10.8326 2.66312L9.12741 2.72325C8.84474 2.73322 8.61002 2.51449 8.60005 2.23182C8.59008 1.94916 8.80881 1.71443 9.09148 1.70447ZM14.9472 9.46413L14.7973 9.20854L14.6163 9.44321C14.3286 9.8164 14.1651 10.2871 14.1829 10.7935C14.2236 11.9471 15.1944 12.8517 16.348 12.811C17.5016 12.7703 18.4061 11.7996 18.3655 10.646C18.3248 9.49235 17.3541 8.58777 16.2005 8.62845C16.1245 8.63113 16.0444 8.63709 15.9653 8.65026L15.6785 8.698L15.8256 8.94875L16.7134 10.462L16.7136 10.4624C16.8552 10.7025 16.7736 11.0164 16.5315 11.1591C16.2904 11.3013 15.9775 11.221 15.8352 10.9776L15.835 10.9774L14.9472 9.46413ZM4.99966 13.2112C5.82743 13.182 6.52686 12.6751 6.8404 11.9627L8.42564 11.9068C8.07589 13.4592 6.71687 14.6441 5.05226 14.7028C3.07326 14.7726 1.41281 13.2253 1.34302 11.2463C1.27322 9.26728 2.82055 7.60682 4.79955 7.53703C6.46431 7.47832 7.90331 8.56472 8.35896 10.0886L6.77674 10.1444C6.41605 9.45529 5.68221 8.99939 4.85216 9.02866C3.69855 9.06935 2.79396 10.0401 2.83465 11.1937C2.87533 12.3473 3.84605 13.2519 4.99966 13.2112ZM5.47188 11.6287C5.33694 11.7735 5.15001 11.8588 4.95221 11.8657C4.75441 11.8727 4.56193 11.8008 4.41713 11.6659C4.27233 11.531 4.18707 11.344 4.18009 11.1462C4.17311 10.9484 4.245 10.756 4.37994 10.6112C4.51487 10.4663 4.7018 10.3811 4.8996 10.3741C5.09741 10.3671 5.28988 10.439 5.43468 10.574C5.57948 10.7089 5.66475 10.8958 5.67172 11.0936C5.6787 11.2914 5.60681 11.4839 5.47188 11.6287Z" fill="white" stroke="black" stroke-width="0.4"/>
    </g>
    <defs>
        <clipPath id="clip0_934_2669">
            <rect width="18.9256" height="15.1405" fill="white" transform="translate(0.776276 0.850586) rotate(-2.01978)"/>
        </clipPath>
    </defs>
</svg>
