<svg width="19" height="20" viewBox="0 0 19 20" fill="none" xmlns="http://www.w3.org/2000/svg">
    <g clip-path="url(#clip0_934_2280)">
        <path d="M13.8715 9.14022L13.9313 9.24271L14.0448 9.20813C14.3932 9.10195 14.7555 9.04808 15.1198 9.04826H15.12C15.9788 9.04729 16.8111 9.34547 17.4739 9.89156C18.1367 10.4376 18.5886 11.1975 18.7519 12.0407C18.9152 12.8838 18.7798 13.7574 18.3689 14.5115C17.958 15.2656 17.2972 15.853 16.5002 16.1728C15.7032 16.4926 14.8196 16.5248 14.0014 16.2639C13.1833 16.0029 12.4815 15.4652 12.0168 14.743C11.5521 14.0208 11.3534 13.1593 11.455 12.3065C11.5565 11.4538 11.9519 10.663 12.5732 10.0701L12.6589 9.98833L12.5992 9.886L11.9788 8.82267L11.9354 8.74826H11.8492H9.17168H8.91076L9.04206 8.97374L10.1616 10.8963L10.1613 10.8965L10.1666 10.9044C10.2227 10.9881 10.2611 11.0824 10.2793 11.1815C10.2975 11.2806 10.2953 11.3823 10.2726 11.4805C10.25 11.5787 10.2075 11.6712 10.1477 11.7523C10.0879 11.8334 10.0122 11.9014 9.92509 11.9521C9.83801 12.0028 9.74146 12.0351 9.64141 12.0471C9.54136 12.059 9.43992 12.0503 9.34336 12.0215C9.24681 11.9927 9.15718 11.9444 9.08001 11.8796C9.00284 11.8148 8.93977 11.7349 8.8947 11.6448L8.89498 11.6446L8.89006 11.6362L7.64556 9.50585L7.53479 9.31622L7.39845 9.4884L6.77953 10.27L6.70593 10.3629L6.77935 10.456C7.3423 11.1697 7.62345 12.0654 7.56938 12.9728C7.51531 13.8802 7.12979 14.7361 6.48607 15.3779C5.84234 16.0197 4.98528 16.4027 4.07772 16.454C3.17017 16.5054 2.27537 16.2216 1.56334 15.6565C0.851316 15.0914 0.371682 14.2845 0.215576 13.389C0.0594704 12.4935 0.237771 11.5718 0.7166 10.7991C1.19543 10.0265 1.94142 9.45662 2.81282 9.19788C3.68422 8.93913 4.62032 9.00951 5.44323 9.39565L5.55074 9.44609L5.6245 9.35303L6.67305 8.03015L6.73664 7.94992L6.6851 7.86146L5.86653 6.4565L5.82313 6.38201H5.73692H3.88015C3.6846 6.38201 3.49705 6.30433 3.35877 6.16605C3.22049 6.02777 3.14281 5.84022 3.14281 5.64467C3.14281 5.44911 3.22049 5.26157 3.35877 5.12329C3.49705 4.98501 3.6846 4.90732 3.88015 4.90732H6.24625C6.37541 4.90759 6.50223 4.94177 6.61402 5.00645C6.72585 5.07116 6.81871 5.16411 6.88331 5.276L6.8837 5.27666L8.00693 7.19924L8.05036 7.27357H8.13645H10.814H11.0747L10.9437 7.04818L10.342 6.01334C10.342 6.01331 10.342 6.01328 10.3419 6.01326C10.2773 5.90129 10.2433 5.77429 10.2432 5.64501C10.2431 5.5157 10.2771 5.38864 10.3417 5.27659C10.4062 5.16454 10.4991 5.07144 10.611 5.00662C10.7229 4.94183 10.8498 4.90759 10.9791 4.90732H14.2325C14.7418 4.90732 15.2303 5.10966 15.5905 5.46982C15.9506 5.82997 16.153 6.31845 16.153 6.82779C16.153 7.02335 16.0753 7.2109 15.937 7.34917C15.7987 7.48745 15.6112 7.56514 15.4156 7.56514C15.2201 7.56514 15.0325 7.48745 14.8942 7.34917C14.756 7.2109 14.6783 7.02335 14.6783 6.82779C14.6783 6.70957 14.6313 6.59618 14.5477 6.51258C14.4641 6.42898 14.3507 6.38201 14.2325 6.38201H12.5236H12.2625L12.3941 6.60759L13.8715 9.14022ZM5.69091 14.0289C5.95748 13.6533 6.10066 13.2041 6.10062 12.7436V12.7436C6.10097 12.4029 6.0225 12.0667 5.87135 11.7614L5.7663 11.5492L5.61932 11.7349L4.45838 13.2012L4.57598 13.2943L4.45837 13.2012C4.33696 13.3546 4.1596 13.4534 3.96532 13.476C3.77103 13.4986 3.57572 13.4431 3.42237 13.3216C3.26902 13.2002 3.17017 13.0229 3.14759 12.8286C3.125 12.6343 3.18052 12.439 3.30193 12.2856L4.46287 10.8193L4.61012 10.6333L4.37897 10.58C3.93011 10.4765 3.46018 10.5152 3.03429 10.6907C2.60839 10.8662 2.2476 11.1698 2.00191 11.5594C1.75622 11.949 1.63779 12.4054 1.66302 12.8654C1.68825 13.3253 1.85589 13.766 2.14272 14.1264C2.42956 14.4868 2.82138 14.7491 3.26391 14.877C3.70645 15.0048 4.17779 14.9919 4.61263 14.8399C5.04748 14.688 5.4243 14.4045 5.69091 14.0289ZM13.9738 14.6447C14.2767 14.8274 14.6183 14.9348 14.9698 14.9587V14.9676H15.1198C15.7087 14.9676 16.2735 14.7336 16.69 14.3172C17.1064 13.9008 17.3403 13.336 17.3403 12.7471C17.3403 12.1582 17.1064 11.5934 16.69 11.177C16.2735 10.7606 15.7087 10.5266 15.1198 10.5266C15.0557 10.5266 14.9928 10.5299 14.9306 10.5354L14.6951 10.5562L14.8143 10.7604L15.7557 12.373C15.8452 12.541 15.8662 12.7371 15.8143 12.9203C15.7622 13.1044 15.6407 13.261 15.4753 13.357C15.3099 13.4531 15.1137 13.4812 14.928 13.4353C14.743 13.3896 14.583 13.2741 14.4813 13.113L13.5405 11.5002L13.4209 11.2952L13.2871 11.4912C13.0593 11.8248 12.9268 12.2142 12.9039 12.6174C12.881 13.0207 12.9685 13.4226 13.157 13.7798C13.3456 14.137 13.6279 14.436 13.9738 14.6447Z" fill="white" stroke="black" stroke-width="0.3"/>
    </g>
    <defs>
        <clipPath id="clip0_934_2280">
            <rect width="18.93" height="18.93" fill="white" transform="translate(0.0350037 0.912109)"/>
        </clipPath>
    </defs>
</svg>
