<svg width="19" height="20" viewBox="0 0 19 20" fill="none" xmlns="http://www.w3.org/2000/svg">
    <path d="M15.5452 11.0832L15.5451 11.081C15.5452 10.4326 15.4475 8.90835 15.2802 7.41411C15.1966 6.66746 15.0958 5.9303 14.9816 5.31538C14.8665 4.69593 14.7399 4.21389 14.6092 3.96763L15.5452 11.0832ZM15.5452 11.0832L15.5452 11.0833L15.5452 11.0835L15.5452 11.0846L15.5453 11.0891L15.5456 11.1067L15.5464 11.1747C15.547 11.2335 15.5473 11.3182 15.5464 11.4211C15.5445 11.627 15.5379 11.9054 15.5186 12.1961C15.4993 12.4873 15.4675 12.7882 15.4159 13.0399C15.3901 13.1659 15.3599 13.2772 15.3249 13.3678C15.2893 13.4599 15.2515 13.5231 15.2148 13.5599C15.0888 13.6859 14.7719 13.9144 14.37 14.1781C13.9716 14.4396 13.4989 14.7298 13.0692 14.9779L12.9826 15.0279L13.0326 15.1145L15.1608 18.8008H14.024L13.6548 18.1611L13.6259 18.1111H13.5682H5.42946H5.37174L5.34287 18.161L4.97362 18.8002H3.83803L5.96624 15.1139L6.01621 15.0274L5.92969 14.9774C5.49991 14.7289 5.02707 14.4388 4.62851 14.1776C4.22653 13.9141 3.90962 13.686 3.78356 13.56C3.74674 13.5231 3.709 13.4596 3.67342 13.3674C3.63839 13.2767 3.60817 13.1653 3.58242 13.0393C3.53092 12.7874 3.49917 12.4864 3.47992 12.1951C3.46072 11.9043 3.45414 11.6259 3.45237 11.4199C3.45149 11.317 3.45181 11.2323 3.45235 11.1735L3.4532 11.1056L3.45352 11.0879L3.45361 11.0835L3.45364 11.0824L3.45364 11.0821L3.45364 11.0821L3.35367 11.0798M15.5452 11.0832L3.35367 11.0798M3.35367 11.0798L3.45367 11.0821M3.35367 11.0798L3.45367 11.0821M3.45367 11.0821V11.0798M3.45367 11.0821V11.0798M3.45367 11.0798C3.45367 10.4314 3.55128 8.90761 3.71858 7.41375C3.80219 6.66728 3.90297 5.93029 4.01725 5.31545C4.13237 4.69604 4.25897 4.21395 4.38969 3.96755C4.51506 3.73125 4.79329 3.49163 5.18205 3.26446C5.56772 3.03911 6.04941 2.83327 6.56442 2.65895C7.59588 2.30981 8.74547 2.09219 9.49941 2.09219C10.2534 2.09219 11.4026 2.30981 12.434 2.65895M3.45367 11.0798L12.434 2.65895M12.434 2.65895C12.9489 2.83327 13.4305 3.0391 13.8163 3.26447M12.434 2.65895L13.8163 3.26447M13.8163 3.26447C14.2051 3.49161 14.4835 3.73123 14.6091 3.96757L13.8163 3.26447ZM14.1264 11.0171L14.3665 11.0162L14.3304 10.9802C14.3393 10.977 14.3481 10.9736 14.3568 10.97C14.4303 10.9396 14.4972 10.895 14.5535 10.8387C14.6099 10.7825 14.6545 10.7157 14.685 10.6421C14.7155 10.5686 14.7312 10.4897 14.7312 10.4101C14.7312 10.29 14.6956 10.1725 14.6288 10.0727C14.562 9.97283 14.4671 9.89503 14.356 9.84915C14.245 9.80328 14.1228 9.79138 14.005 9.81497C13.8872 9.83857 13.7791 9.89659 13.6943 9.98168C13.6117 10.0645 13.5549 10.1694 13.5306 10.2837C13.5245 10.2463 13.515 10.2094 13.502 10.1736C13.4738 10.0958 13.43 10.0246 13.3733 9.96439C13.3166 9.90415 13.2482 9.85614 13.1722 9.82331C13.0963 9.79048 13.0145 9.77352 12.9317 9.77347C12.849 9.77342 12.7671 9.79028 12.6912 9.82303C12.6152 9.85577 12.5467 9.9037 12.4899 9.96387L12.5627 10.0325L12.4899 9.96387C12.4331 10.024 12.3893 10.0952 12.361 10.1729L12.455 10.2071L12.361 10.1729C12.3327 10.2507 12.3206 10.3334 12.3254 10.416L12.3255 10.4169C12.3359 10.5706 12.405 10.7143 12.5171 10.8192C12.6295 10.9242 12.7775 10.9827 12.9313 10.9828C13.0851 10.9829 13.2332 10.9246 13.3457 10.8196C13.4365 10.7349 13.4986 10.625 13.5247 10.505C13.5322 10.5524 13.5454 10.5991 13.5641 10.6439C13.6104 10.7547 13.6885 10.8494 13.7886 10.9158C13.8887 10.9823 14.0062 11.0175 14.1264 11.0171ZM12.1147 4.99848L12.091 5.09907H12.0159V8.72653V8.82653H12.1159H14.8217H14.931L14.9213 8.7177C14.8082 7.44317 14.6363 6.00924 14.4428 5.07814L14.4263 4.99848H14.3449H12.1147ZM8.56356 2.72984H8.46356V2.82984V3.61839V3.71839H8.56356H10.4364H10.5364V3.61839V2.82984V2.72984H10.4364H8.56356ZM4.65629 4.99907H4.57503L4.55841 5.07861C4.36371 6.00979 4.19176 7.4432 4.07928 8.71834L4.06969 8.82713H4.1789H6.8853H6.9853V8.72713V5.09907V4.99907H6.8853H4.65629ZM4.88212 11.0168L4.97517 11.0104V11.0006C5.09133 10.9725 5.19731 10.9104 5.27905 10.8213C5.38183 10.7092 5.43878 10.5627 5.4386 10.4106C5.43842 10.2586 5.38113 10.1122 5.27809 10.0004C5.17504 9.88859 5.03375 9.81958 4.88223 9.80704L4.88223 9.80703L4.8807 9.80693C4.79777 9.80135 4.71457 9.81288 4.63628 9.8408C4.55799 9.86872 4.48628 9.91244 4.4256 9.96924C4.36491 10.026 4.31656 10.0947 4.28353 10.171C4.2505 10.2473 4.23351 10.3295 4.23361 10.4126C4.23371 10.4958 4.25089 10.578 4.2841 10.6542C4.3173 10.7304 4.36582 10.7989 4.42663 10.8556C4.48745 10.9123 4.55926 10.9558 4.63762 10.9836C4.71597 11.0113 4.7992 11.0226 4.88212 11.0168ZM6.0267 16.9779L5.94012 17.1279H6.11331H12.8867H13.0599L12.9733 16.9779L12.3877 15.9634L12.3588 15.9134H12.3011H6.69895H6.64121L6.61235 15.9634L6.0267 16.9779ZM5.50742 10.178C5.47698 10.2516 5.46133 10.3305 5.46138 10.4102C5.46147 10.5709 5.52471 10.7253 5.63882 10.8393C5.69521 10.8956 5.76215 10.9403 5.83581 10.9707C5.90947 11.0012 5.9884 11.0168 6.06811 11.0168C6.22909 11.0167 6.38344 10.9527 6.4972 10.8388C6.61096 10.7249 6.67482 10.5704 6.67473 10.4095C6.67468 10.3298 6.65894 10.2509 6.62841 10.1773C6.59788 10.1037 6.55315 10.0369 6.49679 9.98059C6.44042 9.92429 6.37351 9.87964 6.29989 9.8492C6.22627 9.81875 6.14737 9.80311 6.0677 9.80315C5.98803 9.8032 5.90915 9.81894 5.83556 9.84947C5.76197 9.88 5.69512 9.92473 5.63882 9.98109C5.58252 10.0375 5.53787 10.1044 5.50742 10.178Z" fill="white" stroke="black" stroke-width="0.2"/>
</svg>
